<svg clip-rule="evenodd" fill-rule="evenodd" height="512" image-rendering="optimizeQuality" shape-rendering="geometricPrecision" text-rendering="geometricPrecision" viewBox="0 0 71.9666 71.9666" width="512" xmlns="http://www.w3.org/2000/svg" xmlns:xlink="http://www.w3.org/1999/xlink"><linearGradient id="id0" gradientUnits="userSpaceOnUse" x1="35.983" x2="35.983" y1="71.967" y2="0"><stop offset="0" stop-color="#262261"/><stop offset=".0117647" stop-color="#262261"/><stop offset=".0196078" stop-color="#262261"/><stop offset=".0313725" stop-color="#262261"/><stop offset=".0392157" stop-color="#262261"/><stop offset=".0509804" stop-color="#262261"/><stop offset=".0588235" stop-color="#292363"/><stop offset=".0705882" stop-color="#2c2365"/><stop offset=".0784314" stop-color="#2f2468"/><stop offset=".0901961" stop-color="#32246a"/><stop offset=".101961" stop-color="#35256c"/><stop offset=".109804" stop-color="#37256e"/><stop offset=".121569" stop-color="#3a2670"/><stop offset=".129412" stop-color="#3d2672"/><stop offset=".141176" stop-color="#3f2774"/><stop offset=".14902" stop-color="#422776"/><stop offset=".160784" stop-color="#442777"/><stop offset=".168627" stop-color="#462879"/><stop offset=".180392" stop-color="#48287a"/><stop offset=".188235" stop-color="#4a287c"/><stop offset=".2" stop-color="#4c297d"/><stop offset=".211765" stop-color="#4e297f"/><stop offset=".219608" stop-color="#502980"/><stop offset=".231373" stop-color="#512981"/><stop offset=".239216" stop-color="#532a83"/><stop offset=".25098" stop-color="#552a84"/><stop offset=".258824" stop-color="#562a85"/><stop offset=".270588" stop-color="#582a86"/><stop offset=".278431" stop-color="#592b87"/><stop offset=".290196" stop-color="#5a2b88"/><stop offset=".301961" stop-color="#5b2b89"/><stop offset=".309804" stop-color="#5c2b8a"/><stop offset=".321569" stop-color="#5e2b8a"/><stop offset=".329412" stop-color="#5f2c8b"/><stop offset=".341176" stop-color="#602c8c"/><stop offset=".34902" stop-color="#612c8d"/><stop offset=".360784" stop-color="#612c8d"/><stop offset=".368627" stop-color="#622c8e"/><stop offset=".380392" stop-color="#622c8e"/><stop offset=".388235" stop-color="#632c8e"/><stop offset=".4" stop-color="#632d8f"/><stop offset=".411765" stop-color="#632d8f"/><stop offset=".419608" stop-color="#642d8f"/><stop offset=".431373" stop-color="#642d8f"/><stop offset=".439216" stop-color="#652d90"/><stop offset=".45098" stop-color="#652d90"/><stop offset=".458824" stop-color="#672d90"/><stop offset=".470588" stop-color="#682d90"/><stop offset=".478431" stop-color="#6a2c90"/><stop offset=".490196" stop-color="#6b2c90"/><stop offset=".501961" stop-color="#6d2c90"/><stop offset=".509804" stop-color="#6e2c90"/><stop offset=".521569" stop-color="#702c90"/><stop offset=".529412" stop-color="#712b90"/><stop offset=".541176" stop-color="#722b90"/><stop offset=".54902" stop-color="#732b90"/><stop offset=".560784" stop-color="#752b90"/><stop offset=".568627" stop-color="#762b90"/><stop offset=".580392" stop-color="#772a8f"/><stop offset=".588235" stop-color="#782a8f"/><stop offset=".6" stop-color="#792a8f"/><stop offset=".611765" stop-color="#7a2a8f"/><stop offset=".619608" stop-color="#7c2a8f"/><stop offset=".631373" stop-color="#7d2a8f"/><stop offset=".639216" stop-color="#7e298f"/><stop offset=".65098" stop-color="#7f298f"/><stop offset=".658824" stop-color="#80298f"/><stop offset=".670588" stop-color="#81298f"/><stop offset=".678431" stop-color="#82298f"/><stop offset=".690196" stop-color="#82298f"/><stop offset=".701961" stop-color="#83298f"/><stop offset=".709804" stop-color="#84298f"/><stop offset=".721569" stop-color="#85298f"/><stop offset=".729412" stop-color="#85298f"/><stop offset=".741176" stop-color="#86288e"/><stop offset=".74902" stop-color="#87288e"/><stop offset=".760784" stop-color="#87288e"/><stop offset=".768627" stop-color="#88288e"/><stop offset=".780392" stop-color="#89288e"/><stop offset=".788235" stop-color="#89288e"/><stop offset=".8" stop-color="#8a288e"/><stop offset=".811765" stop-color="#8b288e"/><stop offset=".819608" stop-color="#8b288e"/><stop offset=".831373" stop-color="#8c288e"/><stop offset=".839216" stop-color="#8c288e"/><stop offset=".85098" stop-color="#8d288e"/><stop offset=".858824" stop-color="#8d288e"/><stop offset=".870588" stop-color="#8d288e"/><stop offset=".878431" stop-color="#8d288e"/><stop offset=".890196" stop-color="#8e288e"/><stop offset=".901961" stop-color="#8e288e"/><stop offset=".909804" stop-color="#8e278e"/><stop offset=".921569" stop-color="#8e278e"/><stop offset=".929412" stop-color="#8e278e"/><stop offset=".941176" stop-color="#8f278e"/><stop offset=".94902" stop-color="#8f278e"/><stop offset=".960784" stop-color="#8f278e"/><stop offset=".968627" stop-color="#8f278e"/><stop offset=".980392" stop-color="#90278e"/><stop offset=".988235" stop-color="#90278e"/><stop offset="1" stop-color="#90278e"/></linearGradient><g id="Layer_x0020_1"><path d="m71.9665 35.9833c0-19.8731-16.1102-35.9833-35.9833-35.9833s-35.9833 16.1102-35.9833 35.9833 16.1102 35.9833 35.9833 35.9833 35.9833-16.1102 35.9833-35.9833z" fill="url(#id0)"/><g id="_533777640"><g><g><path id="_394212856" d="m51.6007 33.2695h-16.071c-.3524 0-.6344-.2819-.6344-.6344 0-.3524.282-.6343.6344-.6343h14.8022l-4.1235-5.1103c-.1762-.2467-.1762-.564 0-.7754l4.0882-4.8636h-14.7669c-.3524 0-.6344-.2819-.6344-.6343 0-.3525.282-.6344.6344-.6344h16.071c.2467 0 .4581.141.5639.3524.1057.2114.0705.4581-.0704.6696l-4.5817 5.4627 4.6169 5.78c.1409.1762.1762.4229.0704.6696-.141.2114-.3524.3524-.5991.3524z" fill="#fff"/></g><g><path id="_394212832" d="m35.5297 49.2701c-.3524 0-.6344-.282-.6344-.6344v-29.9921c0-.3525.282-.6344.6344-.6344s.6344.2819.6344.6344v30.0274c-.0353.3524-.3173.5991-.6344.5991z" fill="#fff"/></g><g><path id="_394212952" d="m35.5297 19.2427c-1.3745 0-2.467-1.0925-2.467-2.467s1.0925-2.467 2.467-2.467 2.467 1.0925 2.467 2.467-1.1278 2.467-2.467 2.467zm0-3.7006c-.6697 0-1.2335.5639-1.2335 1.2335 0 .6695.5639 1.2335 1.2335 1.2335.6695 0 1.2335-.564 1.2335-1.2335 0-.6696-.5639-1.2335-1.2335-1.2335z" fill="#fff"/></g><g><path id="_394212928" d="m40.2875 53.2173c-.3524 0-.6344-.282-.6344-.6344v-3.3129l-8.2822.0001v3.3129c0 .3524-.2819.6344-.6343.6344-.3525 0-.6344-.282-.6344-.6344v-3.912c0-.3525.2819-.6344.6344-.6344h9.5509c.3524 0 .6344.2819.6344.6344v3.9473c0 .3171-.282.599-.6344.599z" fill="#fff"/></g><g><path id="_394213024" d="m46.8076 57.658h-22.5558c-.2114 0-.423-.1057-.5287-.3172-.1057-.2114-.1057-.4229 0-.6343l2.7137-4.4407c.1057-.1763.3172-.282.5287-.282h17.0931c.2114 0 .4229.1057.5287.282l2.7489 4.4407c.1057.1762.1057.4229 0 .6343-.1057.2115-.3172.3172-.5286.3172zm-21.4633-1.2335h20.3355l-1.9736-3.2071-16.3883-.0001z" fill="#fff"/></g><g><path id="_394213168" d="m43.5652 24.9169h-8.0355c-.3524 0-.6344-.282-.6344-.6344s.282-.6344.6344-.6344h8.0355c.3524 0 .6344.282.6344.6344s-.282.6344-.6344.6344z" fill="#fff"/></g><g><path id="_394212712" d="m50.7196 57.658h-30.3798c-.3525 0-.6344-.282-.6344-.6344s.2819-.6344.6344-.6344h30.3798c.3524 0 .6344.282.6344.6344s-.282.6344-.6344.6344z" fill="#fff"/></g></g></g></g></svg>