<svg clip-rule="evenodd" fill-rule="evenodd" height="11.806in" image-rendering="optimizeQuality" shape-rendering="geometricPrecision" text-rendering="geometricPrecision" viewBox="0 0 11.8056 11.8056" width="11.806in" xmlns="http://www.w3.org/2000/svg" xmlns:xlink="http://www.w3.org/1999/xlink"><linearGradient id="id0" gradientUnits="userSpaceOnUse" x1="5.903" x2="5.903" y1="11.806" y2="0"><stop offset="0" stop-color="#262261"/><stop offset=".0117647" stop-color="#262261"/><stop offset=".0196078" stop-color="#262261"/><stop offset=".0313725" stop-color="#262261"/><stop offset=".0392157" stop-color="#262261"/><stop offset=".0509804" stop-color="#262261"/><stop offset=".0588235" stop-color="#292363"/><stop offset=".0705882" stop-color="#2c2365"/><stop offset=".0784314" stop-color="#2f2468"/><stop offset=".0901961" stop-color="#32246a"/><stop offset=".101961" stop-color="#35256c"/><stop offset=".109804" stop-color="#37256e"/><stop offset=".121569" stop-color="#3a2670"/><stop offset=".129412" stop-color="#3d2672"/><stop offset=".141176" stop-color="#3f2774"/><stop offset=".14902" stop-color="#422776"/><stop offset=".160784" stop-color="#442777"/><stop offset=".168627" stop-color="#462879"/><stop offset=".180392" stop-color="#48287a"/><stop offset=".188235" stop-color="#4a287c"/><stop offset=".2" stop-color="#4c297d"/><stop offset=".211765" stop-color="#4e297f"/><stop offset=".219608" stop-color="#502980"/><stop offset=".231373" stop-color="#512981"/><stop offset=".239216" stop-color="#532a83"/><stop offset=".25098" stop-color="#552a84"/><stop offset=".258824" stop-color="#562a85"/><stop offset=".270588" stop-color="#582a86"/><stop offset=".278431" stop-color="#592b87"/><stop offset=".290196" stop-color="#5a2b88"/><stop offset=".301961" stop-color="#5b2b89"/><stop offset=".309804" stop-color="#5c2b8a"/><stop offset=".321569" stop-color="#5e2b8a"/><stop offset=".329412" stop-color="#5f2c8b"/><stop offset=".341176" stop-color="#602c8c"/><stop offset=".34902" stop-color="#612c8d"/><stop offset=".360784" stop-color="#612c8d"/><stop offset=".368627" stop-color="#622c8e"/><stop offset=".380392" stop-color="#622c8e"/><stop offset=".388235" stop-color="#632c8e"/><stop offset=".4" stop-color="#632d8f"/><stop offset=".411765" stop-color="#632d8f"/><stop offset=".419608" stop-color="#642d8f"/><stop offset=".431373" stop-color="#642d8f"/><stop offset=".439216" stop-color="#652d90"/><stop offset=".45098" stop-color="#652d90"/><stop offset=".458824" stop-color="#672d90"/><stop offset=".470588" stop-color="#682d90"/><stop offset=".478431" stop-color="#6a2c90"/><stop offset=".490196" stop-color="#6b2c90"/><stop offset=".501961" stop-color="#6d2c90"/><stop offset=".509804" stop-color="#6e2c90"/><stop offset=".521569" stop-color="#702c90"/><stop offset=".529412" stop-color="#712b90"/><stop offset=".541176" stop-color="#722b90"/><stop offset=".54902" stop-color="#732b90"/><stop offset=".560784" stop-color="#752b90"/><stop offset=".568627" stop-color="#762b90"/><stop offset=".580392" stop-color="#772a8f"/><stop offset=".588235" stop-color="#782a8f"/><stop offset=".6" stop-color="#792a8f"/><stop offset=".611765" stop-color="#7a2a8f"/><stop offset=".619608" stop-color="#7c2a8f"/><stop offset=".631373" stop-color="#7d2a8f"/><stop offset=".639216" stop-color="#7e298f"/><stop offset=".65098" stop-color="#7f298f"/><stop offset=".658824" stop-color="#80298f"/><stop offset=".670588" stop-color="#81298f"/><stop offset=".678431" stop-color="#82298f"/><stop offset=".690196" stop-color="#82298f"/><stop offset=".701961" stop-color="#83298f"/><stop offset=".709804" stop-color="#84298f"/><stop offset=".721569" stop-color="#85298f"/><stop offset=".729412" stop-color="#85298f"/><stop offset=".741176" stop-color="#86288e"/><stop offset=".74902" stop-color="#87288e"/><stop offset=".760784" stop-color="#87288e"/><stop offset=".768627" stop-color="#88288e"/><stop offset=".780392" stop-color="#89288e"/><stop offset=".788235" stop-color="#89288e"/><stop offset=".8" stop-color="#8a288e"/><stop offset=".811765" stop-color="#8b288e"/><stop offset=".819608" stop-color="#8b288e"/><stop offset=".831373" stop-color="#8c288e"/><stop offset=".839216" stop-color="#8c288e"/><stop offset=".85098" stop-color="#8d288e"/><stop offset=".858824" stop-color="#8d288e"/><stop offset=".870588" stop-color="#8d288e"/><stop offset=".878431" stop-color="#8d288e"/><stop offset=".890196" stop-color="#8e288e"/><stop offset=".901961" stop-color="#8e288e"/><stop offset=".909804" stop-color="#8e278e"/><stop offset=".921569" stop-color="#8e278e"/><stop offset=".929412" stop-color="#8e278e"/><stop offset=".941176" stop-color="#8f278e"/><stop offset=".94902" stop-color="#8f278e"/><stop offset=".960784" stop-color="#8f278e"/><stop offset=".968627" stop-color="#8f278e"/><stop offset=".980392" stop-color="#90278e"/><stop offset=".988235" stop-color="#90278e"/><stop offset="1" stop-color="#90278e"/></linearGradient><g id="Layer_x0020_1"><path d="m11.8055 5.90278c0-3.26002-2.64275-5.90277-5.90277-5.90277s-5.90277 2.64275-5.90277 5.90277 2.64275 5.90277 5.90277 5.90277 5.90277-2.64275 5.90277-5.90277z" fill="url(#id0)"/><g id="_496174984"><g><g><g><path id="_441160952" d="m6.11111 7.31944h-.416665c-.0458346 0-.0861102-.0333346-.0958346-.0777795l-.0444449-.220835c-.17778-.0583346-.329165-.145835-.444445-.256945l-.220835.0666654c-.0430551.0125-.0888898-.00555512-.11111-.0430551l-.208335-.34722c-.0236102-.0402795-.0166654-.0916654.0194449-.12361l.17778-.155555c-.0194449-.0861102-.0291654-.17222-.0291654-.258335 0-.0861102.00972047-.172217.0291654-.258331l-.17778-.155555c-.0347205-.0305551-.0430551-.0833346-.0194449-.12361l.208335-.34722c.0222205-.0375.0680551-.0555551.11111-.0430551l.220835.0666654c.11528-.11111.266665-.19861.444445-.256945l.0444449-.220835c.00972047-.0458346.0486102-.0777795.0958346-.0777795l.416665.00000787c.0458346 0 .0861102.0333346.0958346.0777795l.0444449.220835c.17778.0583346.329165.14722.444445.256945l.220835-.0666654c.0430551-.0125.0888898.00555512.11111.0430551l.208335.34722c.0236102.0402795.0166654.0916654-.0194449.12361l-.17778.155555c.0194449.0861102.0291654.17222.0291654.258331 0 .0861142-.00972047.17222-.0291654.258335l.17778.155555c.0347205.0305551.0430551.0833346.0194449.12361l-.208335.34722c-.0222205.0375-.0680551.0555551-.11111.0430551l-.220835-.0666654c-.11528.11111-.266665.19861-.444445.256945l-.0444449.220835c-.00972441.0444409-.0500039.0777717-.0958346.0777717zm-.337496-.194445h.256941l.0402795-.2c.00694488-.0361102.0333346-.0638898.0680551-.075.191665-.0541654.34861-.145835.454165-.26389.025-.0277795.0638898-.0388898.1-.0277795l.205555.0611102.12778-.2125-.16111-.14028c-.0277795-.025-.0402795-.0638898-.0291654-.1.025-.0875.0375-.17778.0375-.26528 0-.0874961-.0125-.176386-.0375-.265276-.00972047-.0361102.00138976-.075.0291654-.1l.16111-.14028-.12778-.2125-.205555.0611102c-.0361102.0111102-.075 0-.1-.0277795-.105555-.118055-.2625-.208335-.454165-.26389-.0347205-.00972047-.0611102-.0388898-.0680551-.075l-.0402795-.2-.256941.00001575-.0402795.2c-.00694488.0361102-.0333346.0638898-.0680551.075-.191665.0541654-.34861.145835-.454165.26389-.025.0277795-.0638898.0388898-.1.0277795l-.205555-.0611102-.12778.2125.16111.14028c.0277795.025.0402795.0638898.0291654.1-.025.0875-.0375.17778-.0375.265276 0 .0875.0125.17639.0375.26528.00972047.0361102-.00138976.075-.0291654.1l-.16111.141657.12778.2125.205555-.0611102c.0361102-.0111102.075 0 .1.0277795.105555.118055.2625.208335.454165.26389.0347205.00972047.0611102.0388898.0680551.075l.0402795.198606z" fill="#fff"/></g><g><path id="_441160616" d="m5.90278 6.59722c-.388886 0-.694441-.305555-.694441-.694445 0-.388886.305555-.694441.694441-.694441.38889 0 .694445.305555.694445.694441 0 .38889-.305555.694445-.694445.694445zm0-1.19444c-.280551 0-.499996.219445-.499996.499996 0 .280555.219445.5.499996.5.280555 0 .5-.219445.5-.5 0-.280551-.219445-.499996-.5-.499996z" fill="#fff"/></g></g><g><g><path id="_441160688" d="m5.90278 7.77777c-.727776 0-1.44166-.17222-2.06527-.49861-.609717-.319445-1.11944-.77639-1.47361-1.32361-.0208346-.0319449-.0208346-.0736102 0-.105551.355555-.54722.86528-1.00417 1.47361-1.32361.62361-.326394 1.3375-.498614 2.06527-.498614.72778 0 1.44167.17222 2.06528.49861.609717.319445 1.11944.77639 1.47361 1.32361.0208346.0319409.0208346.0736063 0 .105551-.355555.54722-.86528 1.00417-1.47361 1.32361-.62361.326394-1.3375.498614-2.06528.498614zm-3.34166-1.875c.702776 1.03889 1.97638 1.68056 3.34166 1.68056s2.63889-.641665 3.34166-1.68056c-.702776-1.03889-1.97638-1.68055-3.34166-1.68055s-2.63888.641665-3.34166 1.68055z" fill="#fff"/></g><g><path id="_441160520" d="m5.90278 7.79166c-1.04166 0-1.88889-.84722-1.88889-1.88889 0-1.04166.84722-1.88889 1.88889-1.88889s1.88889.84722 1.88889 1.88889-.847224 1.88889-1.88889 1.88889zm0-3.58333c-.934717 0-1.69444.75972-1.69444 1.69444s.75972 1.69444 1.69444 1.69444 1.69444-.75972 1.69444-1.69444c0-.934717-.759724-1.69444-1.69444-1.69444z" fill="#fff"/></g></g></g></g></g></svg>