<?xml version="1.0" encoding="utf-8"?>
<!-- Generator: Adobe Illustrator 27.8.1, SVG Export Plug-In . SVG Version: 6.00 Build 0)  -->
<svg version="1.1" xmlns="http://www.w3.org/2000/svg" xmlns:xlink="http://www.w3.org/1999/xlink" x="0px" y="0px"
	 viewBox="0 0 300 300" style="enable-background:new 0 0 300 300;" xml:space="preserve">
<style type="text/css">
	.st0{fill:#FFD468;}
	.st1{fill:#FFFFFF;}
	.st2{fill:#303030;}
	.st3{fill:#007D54;}
	.st4{fill:#EE3631;}
	.st5{fill:#2B2B2B;}
	.st6{fill:#FFB000;}
	.st7{opacity:0.35;fill:#FFFFFF;}
	.st8{fill:#FF9CC4;}
	.st9{fill:#B79567;}
	.st10{fill:#D2E6FF;}
	.st11{fill:#5C87C6;}
	.st12{fill:#0E2F5E;}
	.st13{fill:#FCB040;}
	.st14{fill:#E09C05;}
	.st15{fill:#A8112B;}
	.st16{fill-rule:evenodd;clip-rule:evenodd;fill:#FEFEFE;}
	.st17{fill:#606060;}
	.st18{fill:#E0E0E0;}
	.st19{fill:#3DA1D8;}
	.st20{fill:#0C8EBC;}
	.st21{fill:#EFC6A3;}
	.st22{fill:#B0DFFF;}
	.st23{fill:#006284;}
	.st24{fill:#5B5B5B;}
	.st25{fill:#3A1801;}
	.st26{fill:#616D0B;}
	.st27{fill:#98B11F;}
	.st28{fill:#EACAB0;}
	.st29{fill:#442B18;}
	.st30{fill:#663412;}
	.st31{fill:#F5F5F5;}
	.st32{fill:#E386B3;}
	.st33{fill:#B5D6E8;}
	.st34{fill:#88C2E2;}
	.st35{fill:#CEF97A;}
	.st36{fill:#E07D46;}
	.st37{fill:#9FE8FF;}
	.st38{fill:#FF97C6;}
	.st39{fill:#FFB54A;}
	.st40{fill:#472A54;}
	.st41{fill:#F2CD9D;}
	.st42{fill:#4F2910;}
	.st43{fill:#8E630D;}
	.st44{fill:#784C3F;}
	.st45{fill:#D3974E;}
	.st46{fill:none;}
	.st47{fill:#4F361A;}
	.st48{fill-rule:evenodd;clip-rule:evenodd;fill:#561332;}
	.st49{fill-rule:evenodd;clip-rule:evenodd;fill:#F3CF9F;}
	.st50{fill-rule:evenodd;clip-rule:evenodd;fill:#FFF3DB;}
	.st51{fill-rule:evenodd;clip-rule:evenodd;fill:#D4AB74;}
	.st52{fill-rule:evenodd;clip-rule:evenodd;fill:#FFBBE8;}
	.st53{fill-rule:evenodd;clip-rule:evenodd;fill:#DB61A1;}
	.st54{fill-rule:evenodd;clip-rule:evenodd;fill:#FF8DCE;}
	.st55{fill:#D95E95;}
	.st56{fill:#F77EB4;}
	.st57{fill:#CCCCCC;}
	.st58{fill-rule:evenodd;clip-rule:evenodd;fill:#6E1C42;}
	.st59{fill-rule:evenodd;clip-rule:evenodd;fill:#852E57;}
	.st60{fill:#DEC210;}
	.st61{fill:#F7D917;}
	.st62{fill:#212121;}
	.st63{fill:#562F0E;}
	.st64{fill-rule:evenodd;clip-rule:evenodd;fill:#2B2B2B;}
	.st65{fill-rule:evenodd;clip-rule:evenodd;}
	.st66{fill:#F7931E;}
	.st67{fill:#754C24;}
	.st68{fill:#FEFEFE;}
	.st69{fill:#CFDFE8;}
	.st70{fill:#FECE9E;}
	.st71{fill:#F0433D;}
	.st72{fill:#FEA475;}
	.st73{fill:#FE8861;}
	.st74{fill:#D6251E;}
	.st75{fill:#C7221C;}
	.st76{fill:#8C8C8C;}
	.st77{fill:#A6A6A6;}
	.st78{fill:#593A1B;}
	.st79{fill:#60350F;}
	.st80{fill:#B0773B;}
	.st81{fill:#FFC28A;}
	.st82{fill:#F24140;}
	.st83{fill:#FFCFA0;}
	.st84{fill:#D39A72;}
	.st85{fill:#282828;}
	.st86{fill:#B4B7B9;}
	.st87{fill:#505052;}
	.st88{fill:#FF6258;stroke:#2A2728;stroke-width:1.5;stroke-linecap:round;stroke-linejoin:round;stroke-miterlimit:10;}
	.st89{fill:#00B47B;stroke:#2A2728;stroke-width:1.5;stroke-linecap:round;stroke-linejoin:round;stroke-miterlimit:10;}
	.st90{opacity:0.2;fill:#FFFFFF;}
	.st91{opacity:0.3;fill:#EF5047;}
	.st92{opacity:0.3;fill:#00A06D;}
	.st93{fill:none;stroke:#2A2728;stroke-width:1.5;stroke-linecap:round;stroke-linejoin:round;stroke-miterlimit:10;}
	.st94{fill:url(#SVGID_1_);}
	.st95{fill:#603813;}
	.st96{fill:#DD7904;}
	.st97{fill:url(#SVGID_00000071550623126758370540000014904983213968213907_);}
	.st98{fill:url(#SVGID_00000068654668354752390400000010434684761721200267_);}
	.st99{fill:url(#SVGID_00000019646625846609960900000005620519132478331027_);}
	.st100{fill:#462009;}
	.st101{opacity:0.29;fill:#FFFFFF;}
	.st102{fill:url(#SVGID_00000083794107202004878530000011318949920973468847_);}
	.st103{fill:url(#SVGID_00000103262180944507709740000000715570977162584761_);}
	.st104{fill:url(#SVGID_00000000206379712198954820000007114607586642557870_);}
	.st105{fill:url(#SVGID_00000008118848281138368550000015126399756903469981_);}
	.st106{fill:url(#SVGID_00000084527194969518643960000016335808839275427205_);}
	.st107{fill:url(#SVGID_00000168833123453321408520000002271613448570271389_);}
	.st108{fill:url(#SVGID_00000056406052054454866260000009868000839445227684_);}
	.st109{fill:url(#SVGID_00000147222605130441891170000006823533002761144233_);}
	.st110{fill:url(#SVGID_00000147933771765429826690000006251171808107053738_);}
	.st111{fill:url(#SVGID_00000044895116965328142990000005102105654865352362_);}
	.st112{fill:url(#SVGID_00000094580671381191419740000011469198239867444899_);}
	.st113{fill:url(#SVGID_00000031184891495706782050000011785970234194180225_);}
	.st114{fill:url(#SVGID_00000072986601245388442320000009210847229838308236_);}
	.st115{fill:#E84E36;}
	.st116{fill:#232323;}
	.st117{fill:#22661B;}
	.st118{fill:none;stroke:#37312B;stroke-width:6;stroke-linecap:round;stroke-linejoin:round;stroke-miterlimit:10;}
	.st119{fill:#37312B;}
	.st120{fill:#FAC952;}
	.st121{fill:none;stroke:#7B5714;stroke-width:2;stroke-linecap:round;stroke-linejoin:round;stroke-miterlimit:10;}
	.st122{fill:none;stroke:#1B1B1B;stroke-width:0.4535;stroke-linecap:round;stroke-linejoin:round;stroke-miterlimit:10;}
	.st123{fill:#EFA760;}
	.st124{fill:#63C8CC;}
	.st125{fill:#FFFBF2;}
	.st126{fill:#FFD2ED;}
	.st127{fill:#1B1B1B;}
	.st128{fill:#BBFFFF;}
	.st129{fill:#202044;}
	.st130{fill:#F05E61;}
	.st131{fill:#FEC96C;}
	.st132{fill:#BCA7D0;}
	.st133{fill:none;stroke:#4D5DAA;stroke-width:1.4;stroke-linecap:round;stroke-linejoin:round;stroke-miterlimit:10;}
	.st134{fill:none;stroke:#FEC96C;stroke-width:1.4;stroke-linecap:round;stroke-linejoin:round;stroke-miterlimit:10;}
	.st135{fill:none;stroke:#F05E61;stroke-width:1.4;stroke-linecap:round;stroke-linejoin:round;stroke-miterlimit:10;}
</style>
<g id="Layer_2">
	<path class="st0" d="M150.05,43C91.83,43,44.47,90.36,44.47,148.58c0,18.15,4.6,35.23,12.7,50.16h113.39
		c-0.16-0.44-0.27-0.92-0.31-1.43c-0.04-0.47,0-0.93,0.03-1.37c0.04-0.51,0.08-0.99,0-1.42c-0.3-1.55-1.94-2.4-3.52-3.22
		c-0.72-0.37-1.39-0.72-1.97-1.14c-2.29-1.69-2.49-3.85-1.67-5.24c0.73-1.25,2.13-1.75,3.32-1.2c0.28,0.13,0.46,0.43,0.43,0.75
		c-0.15,1.65,0.69,3.19,2.26,4.09c1.58,0.91,4.18,1.24,6.78-0.59l0.22-0.16c0.82-0.6,2.35-1.71,3.72-1.44
		c0.41,0.07,0.76,0.26,1.06,0.55c0.32-0.02,0.65-0.03,0.97-0.01c2.2,0.05,4.35,0.73,6.31,1.59c1.36,0.6,2.63,1.27,3.76,1.88
		c0.36,0.19,0.72,0.38,1.06,0.56c3.51,1.82,6.7,3.12,9.59,4.02c2.3,0.72,4.42,1.19,6.38,1.48c5.21,0.78,9.31,0.32,12.74-0.06
		c1.26-0.14,2.45-0.27,3.59-0.33c0.28-0.02,0.55,0.13,0.69,0.37c0.14,0.25,0.13,0.55-0.03,0.79c-0.35,0.53-0.72,1.04-1.09,1.53
		h18.05c8.1-14.93,12.7-32.01,12.7-50.16C255.63,90.36,208.26,43,150.05,43z M252.93,200.74h-29.77c-0.97,1.02-2.01,1.92-3.09,2.72
		c-0.37,0.27-0.74,0.53-1.12,0.78c-0.47,0.31-0.94,0.59-1.42,0.87c-0.18,0.1-0.36,0.2-0.55,0.29c-0.71,0.38-1.44,0.73-2.18,1.03
		c-0.18,0.08-0.37,0.16-0.56,0.23c-0.35,0.14-0.7,0.27-1.05,0.39c-0.3,0.11-0.61,0.21-0.92,0.3c-0.23,0.08-0.46,0.15-0.7,0.22
		c-0.18,0.05-0.36,0.1-0.55,0.14c-0.29,0.09-0.58,0.16-0.88,0.23c-0.24,0.06-0.48,0.11-0.72,0.16c-0.23,0.05-0.46,0.1-0.69,0.14
		c-0.25,0.05-0.49,0.09-0.74,0.13c-0.21,0.04-0.42,0.08-0.64,0.11c-0.32,0.05-0.64,0.09-0.97,0.13c-0.15,0.02-0.31,0.04-0.47,0.06
		c-0.34,0.04-0.68,0.08-1.03,0.1c-0.14,0.01-0.28,0.03-0.43,0.03c-0.41,0.04-0.82,0.06-1.23,0.08c-0.48,0.03-0.96,0.05-1.44,0.05
		h-0.01c-0.26,0.01-0.51,0.01-0.77,0.01c-0.53,0-1.06-0.01-1.59-0.03c-0.37-0.01-0.74-0.02-1.11-0.05
		c-0.27-0.01-0.55-0.02-0.82-0.05c-0.4-0.02-0.8-0.05-1.2-0.09c-0.5-0.04-1-0.1-1.49-0.16h-0.04c-2.58-0.3-5.04-0.76-7.28-1.28
		c-0.53-0.13-1.05-0.25-1.56-0.39c-0.8-0.2-1.56-0.41-2.28-0.63c-0.3-0.09-0.59-0.17-0.87-0.27c-0.03,0-0.07-0.01-0.11-0.03
		c-0.49-0.15-0.96-0.3-1.4-0.45c-0.89-0.3-1.69-0.6-2.38-0.87c-0.02-0.01-0.03-0.01-0.05-0.02c-0.3-0.12-0.57-0.23-0.83-0.34
		c-0.81-0.35-1.41-0.64-1.77-0.86c-0.99-0.59-1.85-1.3-2.57-2.1c-0.03,0-0.06-0.01-0.08-0.01c-0.07-0.01-0.14-0.02-0.2-0.03
		c-0.48-0.08-0.93-0.27-1.32-0.54H46.84c-4.9,0-8.88,3.98-8.88,8.88v38.5c0,4.9,3.98,8.88,8.88,8.88h206.09
		c4.9,0,8.88-3.98,8.88-8.88v-38.5C261.81,204.72,257.83,200.74,252.93,200.74z"/>
	<path class="st1" d="M181.24,142.61c-1.97,0.58-3.97,0.92-5.97,1.02l0.63,2.16h0.01l3.25,11.08c0.39,1.4,0.62,2.82,0.66,4.18
		c0.02,0.52,0,1.02-0.03,1.52c-0.26,3.88-1.93,7.34-4.71,9.32c-21.01,14.98-45.72,22.24-71.51,21c-5.06-0.25-9.82-4.53-11.59-10.55
		l-6.25-21.3c0,0,0,0-0.01,0l-0.26-0.9c-0.33,0.23-0.67,0.45-1.01,0.66c-1.66,0.99-3.4,1.76-5.2,2.29
		c-12.65,3.71-26.14-4.23-30.1-17.71c-2.81-9.57-0.14-19.62,6.65-25.95c0.56-0.52,1.15-1.02,1.76-1.49c-0.03-0.2-0.04-0.4-0.06-0.59
		l-0.02-0.07c-1.5-17.03,10.46-33.48,28.47-38.77c8.71-2.56,17.82-2.25,25.96,0.81c0.69,0.27,1.38,0.54,2.06,0.85
		c0.58-0.5,1.17-0.99,1.79-1.45c4.04-3.12,8.82-5.53,13.97-7.04c2.51-0.74,5.14-1.27,7.79-1.58c15.27-1.76,29.86,3.89,37.76,14.48
		c0.29,0.38,0.55,0.75,0.82,1.14c0.54,0.08,1.09,0.19,1.63,0.31c10.12,2.23,18.48,10.17,21.59,20.76
		C203.86,122.28,195.74,138.36,181.24,142.61z M231.31,151.5c-5.44-3.14-15.46,4.02-20.24,12.3c-3.07,5.32-3.23,9.81-1.5,13.17
		c0.97,1.89,1.04,4.11-0.02,5.95l-6.95,12.04c2.3,0.72,4.42,1.19,6.38,1.48l5.99-10.38c1.07-1.84,3.03-2.9,5.15-3
		c3.77-0.19,7.58-2.56,10.65-7.89C235.55,166.9,236.75,154.64,231.31,151.5z M221.81,136.51l-0.29-0.17
		c-0.56-0.32-1.27-0.13-1.6,0.43l-7.91,13.71l-1.4-0.81l7.92-13.7c0.32-0.56,0.13-1.28-0.43-1.61c-0.18-0.11-0.39-0.16-0.58-0.16
		c-0.41,0-0.81,0.21-1.02,0.59l-7.92,13.71l-1.39-0.81l7.91-13.7c0.33-0.56,0.13-1.28-0.43-1.6c-0.19-0.11-0.39-0.16-0.59-0.16
		c-0.4,0-0.8,0.21-1.01,0.59l-7.91,13.7l-1.4-0.8l7.92-13.71c0.32-0.56,0.13-1.28-0.43-1.6l-0.26-0.15
		c-0.56-0.32-1.27-0.13-1.6,0.43l-13.1,22.7c-1.04,1.8-1.24,3.86-0.72,5.71c0.49,1.74,0.3,3.59-0.61,5.15l-13.08,22.66
		c2.2,0.05,4.35,0.73,6.31,1.59l12.2-21.12c0.9-1.56,2.41-2.66,4.15-3.1c1.87-0.47,3.55-1.67,4.59-3.47l13.11-22.7
		C222.56,137.55,222.37,136.83,221.81,136.51z"/>
	<path class="st2" d="M179.82,161.05c-1.28,0.84-2.58,1.67-3.87,2.5c-1.18,0.75-2.43,1.42-3.63,2.13l-1.83,1.05l-1.88,0.95
		c-4.93,2.69-10.1,4.92-15.37,6.87c-5.28,1.97-10.69,3.61-16.22,4.77c2.82-0.26,5.6-0.82,8.38-1.41c2.76-0.67,5.49-1.45,8.19-2.31
		c5.41-1.77,10.65-4.03,15.7-6.65c3.6-1.96,7.14-4.04,10.5-6.38C179.82,162.07,179.84,161.57,179.82,161.05z M178.75,155.48
		c-0.54,0.34-1.08,0.66-1.63,0.98c-4.79,2.97-9.75,5.67-14.85,8.09c-2.55,1.2-5.13,2.37-7.78,3.35c-2.62,1.06-5.31,1.97-8.05,2.67
		c5.63-0.86,11.03-2.82,16.28-5.01c5.24-2.23,10.25-4.97,15.15-7.88l1.29-0.81L178.75,155.48z M177.13,149.96
		c-0.54,0.34-1.08,0.66-1.63,0.99c-4.79,2.96-9.75,5.66-14.85,8.09c-2.55,1.2-5.13,2.36-7.78,3.35c-2.62,1.05-5.31,1.96-8.05,2.66
		c5.63-0.86,11.03-2.82,16.28-5c5.25-2.23,10.25-4.98,15.15-7.88l1.29-0.82L177.13,149.96z M57.5,117.35
		c0.02,0.19,0.03,0.39,0.06,0.59c-0.61,0.47-1.2,0.97-1.76,1.49c2.15,5.05,6.06,8.56,12.34,9.4
		C62.22,126.72,59.02,122.61,57.5,117.35z M115.76,78.72c-0.62,0.46-1.21,0.95-1.79,1.45c-0.68-0.31-1.37-0.58-2.06-0.85
		c-4.27,5.74-5.55,12.12-1.47,18.73C107.69,90.39,110.42,84.15,115.76,78.72z M176.1,85.72c-0.27-0.39-0.53-0.76-0.82-1.14
		c-3.14,1.09-5.88,3.27-7.98,6.79c3.12-3.37,6.64-4.99,10.43-5.34C177.19,85.91,176.64,85.8,176.1,85.72z M89.75,83.01
		c-4.81,1.12-9.44,3.21-13.41,6.24c-3.89,3.12-7.1,7.12-9.14,11.64c-2.06,4.52-3.14,9.37-3.6,14.23c1.04-4.77,2.39-9.46,4.59-13.74
		c2.18-4.28,5.24-8.1,9.03-11c3.74-2.99,8.19-4.99,12.81-6.3c4.64-1.32,9.49-1.9,14.37-2.05C99.53,81.58,94.56,81.88,89.75,83.01z
		 M155.29,77.7c-4.52-1.97-9.48-3.08-14.48-3.02c-4.98,0.17-9.95,1.44-14.29,3.85c-4.35,2.38-8.13,5.63-11.4,9.24
		c3.69-3.2,7.57-6.15,11.9-8.26c4.31-2.12,9.04-3.35,13.82-3.4c4.78-0.16,9.55,0.91,14.03,2.62c4.51,1.72,8.74,4.16,12.74,6.96
		C163.98,82.42,159.82,79.68,155.29,77.7z M194.47,107.82c-1.96-5.76-5.62-10.7-9.82-14.89c1.84,2.34,3.72,4.64,5.16,7.23
		c1.5,2.53,2.83,5.18,3.61,8c0.8,2.8,1.26,5.7,1.08,8.58c-0.17,2.88-0.93,5.72-2.24,8.27c-2.56,5.18-7.37,9.08-12.82,11.02
		c-5.47,1.93-11.76,1.69-17.08-1.04c2.5,1.63,5.43,2.6,8.42,2.96c3.01,0.33,6.09,0.02,9-0.87c5.81-1.81,10.93-5.94,13.76-11.42
		C196.32,120.14,196.47,113.53,194.47,107.82z M142.37,136.05c-3.69,0.98-7.53,1.42-11.26,0.79c-3.72-0.56-7.26-2.17-10.13-4.63
		c-1.42-1.23-2.66-2.71-3.57-4.37c-0.9-1.64-1.57-3.55-1.18-5.48c-0.71,1.87-0.19,3.98,0.55,5.79c0.83,1.82,2.03,3.46,3.45,4.87
		c2.87,2.82,6.69,4.62,10.66,5.24c1.99,0.3,4,0.34,5.99,0.14c1.99-0.24,3.94-0.67,5.81-1.3c3.75-1.3,7.22-3.21,10.32-5.59
		C149.59,133.39,146.06,135.01,142.37,136.05z M175.27,143.63v-0.01c-4.45,0.19-8.98-1.39-13.01-3.73
		c-3.83-2.23-6.3-6.38-6.03-10.81c0.05-0.81,0.16-1.66,0.32-2.53c-1.61,3.81-1.63,7.43-0.41,10.81c-2.82,1.62-5.89,2.95-9.19,3.92
		c-2.43,0.71-4.97,1.24-7.61,1.55c-5.66,0.65-11.16,0.24-16.23-1.04c-1.51-0.38-2.93-1.05-4.16-2.01
		c-5.78-4.46-9.14-10.1-7.63-17.92c-2.59,6.11-1.11,11.75,3.06,16.64c-1.74,2.85-3.67,5.56-5.92,7.96c-2.65,2.74-5.72,5.11-9.23,6.5
		c-3.47,1.44-7.34,1.89-11.06,1.26c-1.86-0.32-3.68-0.94-5.32-1.89c-1.62-0.94-3.17-2.24-3.84-4.09c0.35,1.97,1.89,3.51,3.46,4.68
		c1.65,1.13,3.53,1.91,5.47,2.38c3.92,0.94,8.11,0.5,11.83-1.01c1.86-0.77,3.61-1.78,5.21-2.98c1.57-1.23,3.02-2.6,4.3-4.12
		c2.15-2.59,3.91-5.46,5.27-8.5c1.21,1.4,2.66,2.74,4.29,4.01c-2.72,7.83-8.76,14.15-16.96,16.56c-1.19,0.35-2.42,0.6-3.67,0.78
		c-13.56-0.4-25.35-3.07-27.81-15.52c-0.1,6.4,3.14,10.97,8.48,13.94c-2.75,0.23-5.5,0.07-8.13-0.62c-3.61-1-6.94-2.89-9.64-5.48
		c-2.71-2.58-4.85-5.77-6.34-9.22c-0.75-1.73-1.3-3.56-1.51-5.43c-0.23-1.83-0.23-3.88,1.01-5.41c-0.76,0.62-1.2,1.57-1.43,2.52
		c-0.23,0.96-0.33,1.96-0.29,2.94c0.08,1.98,0.54,3.92,1.19,5.78c1.31,3.71,3.53,7.1,6.38,9.86c2.88,2.72,6.49,4.72,10.38,5.51
		c1.95,0.39,3.93,0.48,5.88,0.35c1.04-0.09,2.06-0.25,3.07-0.48c1.52,0.79,3.19,1.46,5,2.02c0.34-0.21,0.68-0.43,1.01-0.66l0.26,0.9
		c0.01,0,0.01,0,0.01,0c5.38,1.79,11.43,1.88,16.77,0.32c8.61-2.53,15.35-9.14,18.39-17.9c5.94,1.74,12.35,2.27,18.7,1.54
		c2.72-0.32,5.39-0.86,7.97-1.62c3.45-1.01,6.72-2.41,9.75-4.15c5.5,3.99,12.19,6.97,18.59,6.56h0.01L175.27,143.63z M229.47,168.83
		c-0.42,0.84-0.86,1.67-1.33,2.48c-0.95,1.62-2,3.18-3.25,4.56c-0.61,0.69-1.28,1.33-2.01,1.88c-0.73,0.56-1.53,1.02-2.37,1.36
		c-1.7,0.69-3.65,0.6-5.44-0.03c0.84,0.45,1.76,0.75,2.73,0.89c0.97,0.12,1.97,0,2.9-0.3c1.89-0.6,3.48-1.86,4.77-3.29
		c1.28-1.44,2.34-3.07,3.19-4.78c0.44-0.85,0.82-1.73,1.15-2.63c0.17-0.44,0.31-0.9,0.45-1.35c0.13-0.46,0.28-0.92,0.31-1.4
		C230.3,167.13,229.88,167.98,229.47,168.83z M200.75,150.38c-0.65,0.89-1.28,1.8-1.95,2.65l-0.26,0.32
		c-0.08,0.11-0.17,0.26-0.26,0.38c-0.1,0.13-0.15,0.28-0.22,0.42c-0.07,0.14-0.11,0.29-0.15,0.44c-0.16,0.59-0.2,1.18-0.13,1.76
		c0.11,1.15,0.47,2.25,1.02,3.23c-0.25-1.09-0.43-2.19-0.43-3.25c0.02-0.54,0.07-1.06,0.24-1.53c0.07-0.24,0.18-0.46,0.31-0.66
		c0.07-0.1,0.12-0.19,0.21-0.3l0.27-0.33c0.69-0.9,1.3-1.84,1.86-2.8c0.56-0.97,1.07-1.96,1.5-3
		C202.05,148.58,201.4,149.48,200.75,150.38z M57.5,117.35c0.02,0.19,0.03,0.39,0.06,0.59c-0.61,0.47-1.2,0.97-1.76,1.49
		c2.15,5.05,6.06,8.56,12.34,9.4C62.22,126.72,59.02,122.61,57.5,117.35z M89.75,83.01c-4.81,1.12-9.44,3.21-13.41,6.24
		c-3.89,3.12-7.1,7.12-9.14,11.64c-2.06,4.52-3.14,9.37-3.6,14.23c1.04-4.77,2.39-9.46,4.59-13.74c2.18-4.28,5.24-8.1,9.03-11
		c3.74-2.99,8.19-4.99,12.81-6.3c4.64-1.32,9.49-1.9,14.37-2.05C99.53,81.58,94.56,81.88,89.75,83.01z M115.76,78.72
		c-0.62,0.46-1.21,0.95-1.79,1.45c-0.68-0.31-1.37-0.58-2.06-0.85c-4.27,5.74-5.55,12.12-1.47,18.73
		C107.69,90.39,110.42,84.15,115.76,78.72z M142.37,136.05c-3.69,0.98-7.53,1.42-11.26,0.79c-3.72-0.56-7.26-2.17-10.13-4.63
		c-1.42-1.23-2.66-2.71-3.57-4.37c-0.9-1.64-1.57-3.55-1.18-5.48c-0.71,1.87-0.19,3.98,0.55,5.79c0.83,1.82,2.03,3.46,3.45,4.87
		c2.87,2.82,6.69,4.62,10.66,5.24c1.99,0.3,4,0.34,5.99,0.14c1.99-0.24,3.94-0.67,5.81-1.3c3.75-1.3,7.22-3.21,10.32-5.59
		C149.59,133.39,146.06,135.01,142.37,136.05z M155.29,77.7c-4.52-1.97-9.48-3.08-14.48-3.02c-4.98,0.17-9.95,1.44-14.29,3.85
		c-4.35,2.38-8.13,5.63-11.4,9.24c3.69-3.2,7.57-6.15,11.9-8.26c4.31-2.12,9.04-3.35,13.82-3.4c4.78-0.16,9.55,0.91,14.03,2.62
		c4.51,1.72,8.74,4.16,12.74,6.96C163.98,82.42,159.82,79.68,155.29,77.7z M175.27,143.63v-0.01c-4.45,0.19-8.98-1.39-13.01-3.73
		c-3.83-2.23-6.3-6.38-6.03-10.81c0.05-0.81,0.16-1.66,0.32-2.53c-1.61,3.81-1.63,7.43-0.41,10.81c-2.82,1.62-5.89,2.95-9.19,3.92
		c-2.43,0.71-4.97,1.24-7.61,1.55c-5.66,0.65-11.16,0.24-16.23-1.04c-1.51-0.38-2.93-1.05-4.16-2.01
		c-5.78-4.46-9.14-10.1-7.63-17.92c-2.59,6.11-1.11,11.75,3.06,16.64c-1.74,2.85-3.67,5.56-5.92,7.96c-2.65,2.74-5.72,5.11-9.23,6.5
		c-3.47,1.44-7.34,1.89-11.06,1.26c-1.86-0.32-3.68-0.94-5.32-1.89c-1.62-0.94-3.17-2.24-3.84-4.09c0.35,1.97,1.89,3.51,3.46,4.68
		c1.65,1.13,3.53,1.91,5.47,2.38c3.92,0.94,8.11,0.5,11.83-1.01c1.86-0.77,3.61-1.78,5.21-2.98c1.57-1.23,3.02-2.6,4.3-4.12
		c2.15-2.59,3.91-5.46,5.27-8.5c1.21,1.4,2.66,2.74,4.29,4.01c-2.72,7.83-8.76,14.15-16.96,16.56c-1.19,0.35-2.42,0.6-3.67,0.78
		c-13.56-0.4-25.35-3.07-27.81-15.52c-0.1,6.4,3.14,10.97,8.48,13.94c-2.75,0.23-5.5,0.07-8.13-0.62c-3.61-1-6.94-2.89-9.64-5.48
		c-2.71-2.58-4.85-5.77-6.34-9.22c-0.75-1.73-1.3-3.56-1.51-5.43c-0.23-1.83-0.23-3.88,1.01-5.41c-0.76,0.62-1.2,1.57-1.43,2.52
		c-0.23,0.96-0.33,1.96-0.29,2.94c0.08,1.98,0.54,3.92,1.19,5.78c1.31,3.71,3.53,7.1,6.38,9.86c2.88,2.72,6.49,4.72,10.38,5.51
		c1.95,0.39,3.93,0.48,5.88,0.35c1.04-0.09,2.06-0.25,3.07-0.48c1.52,0.79,3.19,1.46,5,2.02c0.34-0.21,0.68-0.43,1.01-0.66l0.26,0.9
		c0.01,0,0.01,0,0.01,0c5.38,1.79,11.43,1.88,16.77,0.32c8.61-2.53,15.35-9.14,18.39-17.9c5.94,1.74,12.35,2.27,18.7,1.54
		c2.72-0.32,5.39-0.86,7.97-1.62c3.45-1.01,6.72-2.41,9.75-4.15c5.5,3.99,12.19,6.97,18.59,6.56h0.01L175.27,143.63z M176.1,85.72
		c-0.27-0.39-0.53-0.76-0.82-1.14c-3.14,1.09-5.88,3.27-7.98,6.79c3.12-3.37,6.64-4.99,10.43-5.34
		C177.19,85.91,176.64,85.8,176.1,85.72z M177.13,149.96c-0.54,0.34-1.08,0.66-1.63,0.99c-4.79,2.96-9.75,5.66-14.85,8.09
		c-2.55,1.2-5.13,2.36-7.78,3.35c-2.62,1.05-5.31,1.96-8.05,2.66c5.63-0.86,11.03-2.82,16.28-5c5.25-2.23,10.25-4.98,15.15-7.88
		l1.29-0.82L177.13,149.96z M178.75,155.48c-0.54,0.34-1.08,0.66-1.63,0.98c-4.79,2.97-9.75,5.67-14.85,8.09
		c-2.55,1.2-5.13,2.37-7.78,3.35c-2.62,1.06-5.31,1.97-8.05,2.67c5.63-0.86,11.03-2.82,16.28-5.01c5.24-2.23,10.25-4.97,15.15-7.88
		l1.29-0.81L178.75,155.48z M179.82,161.05c-1.28,0.84-2.58,1.67-3.87,2.5c-1.18,0.75-2.43,1.42-3.63,2.13l-1.83,1.05l-1.88,0.95
		c-4.93,2.69-10.1,4.92-15.37,6.87c-5.28,1.97-10.69,3.61-16.22,4.77c2.82-0.26,5.6-0.82,8.38-1.41c2.76-0.67,5.49-1.45,8.19-2.31
		c5.41-1.77,10.65-4.03,15.7-6.65c3.6-1.96,7.14-4.04,10.5-6.38C179.82,162.07,179.84,161.57,179.82,161.05z M194.47,107.82
		c-1.96-5.76-5.62-10.7-9.82-14.89c1.84,2.34,3.72,4.64,5.16,7.23c1.5,2.53,2.83,5.18,3.61,8c0.8,2.8,1.26,5.7,1.08,8.58
		c-0.17,2.88-0.93,5.72-2.24,8.27c-2.56,5.18-7.37,9.08-12.82,11.02c-5.47,1.93-11.76,1.69-17.08-1.04c2.5,1.63,5.43,2.6,8.42,2.96
		c3.01,0.33,6.09,0.02,9-0.87c5.81-1.81,10.93-5.94,13.76-11.42C196.32,120.14,196.47,113.53,194.47,107.82z M200.75,150.38
		c-0.65,0.89-1.28,1.8-1.95,2.65l-0.26,0.32c-0.08,0.11-0.17,0.26-0.26,0.38c-0.1,0.13-0.15,0.28-0.22,0.42
		c-0.07,0.14-0.11,0.29-0.15,0.44c-0.16,0.59-0.2,1.18-0.13,1.76c0.11,1.15,0.47,2.25,1.02,3.23c-0.25-1.09-0.43-2.19-0.43-3.25
		c0.02-0.54,0.07-1.06,0.24-1.53c0.07-0.24,0.18-0.46,0.31-0.66c0.07-0.1,0.12-0.19,0.21-0.3l0.27-0.33c0.69-0.9,1.3-1.84,1.86-2.8
		c0.56-0.97,1.07-1.96,1.5-3C202.05,148.58,201.4,149.48,200.75,150.38z M229.47,168.83c-0.42,0.84-0.86,1.67-1.33,2.48
		c-0.95,1.62-2,3.18-3.25,4.56c-0.61,0.69-1.28,1.33-2.01,1.88c-0.73,0.56-1.53,1.02-2.37,1.36c-1.7,0.69-3.65,0.6-5.44-0.03
		c0.84,0.45,1.76,0.75,2.73,0.89c0.97,0.12,1.97,0,2.9-0.3c1.89-0.6,3.48-1.86,4.77-3.29c1.28-1.44,2.34-3.07,3.19-4.78
		c0.44-0.85,0.82-1.73,1.15-2.63c0.17-0.44,0.31-0.9,0.45-1.35c0.13-0.46,0.28-0.92,0.31-1.4
		C230.3,167.13,229.88,167.98,229.47,168.83z M229.47,168.83c-0.42,0.84-0.86,1.67-1.33,2.48c-0.95,1.62-2,3.18-3.25,4.56
		c-0.61,0.69-1.28,1.33-2.01,1.88c-0.73,0.56-1.53,1.02-2.37,1.36c-1.7,0.69-3.65,0.6-5.44-0.03c0.84,0.45,1.76,0.75,2.73,0.89
		c0.97,0.12,1.97,0,2.9-0.3c1.89-0.6,3.48-1.86,4.77-3.29c1.28-1.44,2.34-3.07,3.19-4.78c0.44-0.85,0.82-1.73,1.15-2.63
		c0.17-0.44,0.31-0.9,0.45-1.35c0.13-0.46,0.28-0.92,0.31-1.4C230.3,167.13,229.88,167.98,229.47,168.83z M200.75,150.38
		c-0.65,0.89-1.28,1.8-1.95,2.65l-0.26,0.32c-0.08,0.11-0.17,0.26-0.26,0.38c-0.1,0.13-0.15,0.28-0.22,0.42
		c-0.07,0.14-0.11,0.29-0.15,0.44c-0.16,0.59-0.2,1.18-0.13,1.76c0.11,1.15,0.47,2.25,1.02,3.23c-0.25-1.09-0.43-2.19-0.43-3.25
		c0.02-0.54,0.07-1.06,0.24-1.53c0.07-0.24,0.18-0.46,0.31-0.66c0.07-0.1,0.12-0.19,0.21-0.3l0.27-0.33c0.69-0.9,1.3-1.84,1.86-2.8
		c0.56-0.97,1.07-1.96,1.5-3C202.05,148.58,201.4,149.48,200.75,150.38z M194.47,107.82c-1.96-5.76-5.62-10.7-9.82-14.89
		c1.84,2.34,3.72,4.64,5.16,7.23c1.5,2.53,2.83,5.18,3.61,8c0.8,2.8,1.26,5.7,1.08,8.58c-0.17,2.88-0.93,5.72-2.24,8.27
		c-2.56,5.18-7.37,9.08-12.82,11.02c-5.47,1.93-11.76,1.69-17.08-1.04c2.5,1.63,5.43,2.6,8.42,2.96c3.01,0.33,6.09,0.02,9-0.87
		c5.81-1.81,10.93-5.94,13.76-11.42C196.32,120.14,196.47,113.53,194.47,107.82z M179.82,161.05c-1.28,0.84-2.58,1.67-3.87,2.5
		c-1.18,0.75-2.43,1.42-3.63,2.13l-1.83,1.05l-1.88,0.95c-4.93,2.69-10.1,4.92-15.37,6.87c-5.28,1.97-10.69,3.61-16.22,4.77
		c2.82-0.26,5.6-0.82,8.38-1.41c2.76-0.67,5.49-1.45,8.19-2.31c5.41-1.77,10.65-4.03,15.7-6.65c3.6-1.96,7.14-4.04,10.5-6.38
		C179.82,162.07,179.84,161.57,179.82,161.05z M178.75,155.48c-0.54,0.34-1.08,0.66-1.63,0.98c-4.79,2.97-9.75,5.67-14.85,8.09
		c-2.55,1.2-5.13,2.37-7.78,3.35c-2.62,1.06-5.31,1.97-8.05,2.67c5.63-0.86,11.03-2.82,16.28-5.01c5.24-2.23,10.25-4.97,15.15-7.88
		l1.29-0.81L178.75,155.48z M177.13,149.96c-0.54,0.34-1.08,0.66-1.63,0.99c-4.79,2.96-9.75,5.66-14.85,8.09
		c-2.55,1.2-5.13,2.36-7.78,3.35c-2.62,1.05-5.31,1.96-8.05,2.66c5.63-0.86,11.03-2.82,16.28-5c5.25-2.23,10.25-4.98,15.15-7.88
		l1.29-0.82L177.13,149.96z M176.1,85.72c-0.27-0.39-0.53-0.76-0.82-1.14c-3.14,1.09-5.88,3.27-7.98,6.79
		c3.12-3.37,6.64-4.99,10.43-5.34C177.19,85.91,176.64,85.8,176.1,85.72z M175.27,143.63v-0.01c-4.45,0.19-8.98-1.39-13.01-3.73
		c-3.83-2.23-6.3-6.38-6.03-10.81c0.05-0.81,0.16-1.66,0.32-2.53c-1.61,3.81-1.63,7.43-0.41,10.81c-2.82,1.62-5.89,2.95-9.19,3.92
		c-2.43,0.71-4.97,1.24-7.61,1.55c-5.66,0.65-11.16,0.24-16.23-1.04c-1.51-0.38-2.93-1.05-4.16-2.01
		c-5.78-4.46-9.14-10.1-7.63-17.92c-2.59,6.11-1.11,11.75,3.06,16.64c-1.74,2.85-3.67,5.56-5.92,7.96c-2.65,2.74-5.72,5.11-9.23,6.5
		c-3.47,1.44-7.34,1.89-11.06,1.26c-1.86-0.32-3.68-0.94-5.32-1.89c-1.62-0.94-3.17-2.24-3.84-4.09c0.35,1.97,1.89,3.51,3.46,4.68
		c1.65,1.13,3.53,1.91,5.47,2.38c3.92,0.94,8.11,0.5,11.83-1.01c1.86-0.77,3.61-1.78,5.21-2.98c1.57-1.23,3.02-2.6,4.3-4.12
		c2.15-2.59,3.91-5.46,5.27-8.5c1.21,1.4,2.66,2.74,4.29,4.01c-2.72,7.83-8.76,14.15-16.96,16.56c-1.19,0.35-2.42,0.6-3.67,0.78
		c-13.56-0.4-25.35-3.07-27.81-15.52c-0.1,6.4,3.14,10.97,8.48,13.94c-2.75,0.23-5.5,0.07-8.13-0.62c-3.61-1-6.94-2.89-9.64-5.48
		c-2.71-2.58-4.85-5.77-6.34-9.22c-0.75-1.73-1.3-3.56-1.51-5.43c-0.23-1.83-0.23-3.88,1.01-5.41c-0.76,0.62-1.2,1.57-1.43,2.52
		c-0.23,0.96-0.33,1.96-0.29,2.94c0.08,1.98,0.54,3.92,1.19,5.78c1.31,3.71,3.53,7.1,6.38,9.86c2.88,2.72,6.49,4.72,10.38,5.51
		c1.95,0.39,3.93,0.48,5.88,0.35c1.04-0.09,2.06-0.25,3.07-0.48c1.52,0.79,3.19,1.46,5,2.02c0.34-0.21,0.68-0.43,1.01-0.66l0.26,0.9
		c0.01,0,0.01,0,0.01,0c5.38,1.79,11.43,1.88,16.77,0.32c8.61-2.53,15.35-9.14,18.39-17.9c5.94,1.74,12.35,2.27,18.7,1.54
		c2.72-0.32,5.39-0.86,7.97-1.62c3.45-1.01,6.72-2.41,9.75-4.15c5.5,3.99,12.19,6.97,18.59,6.56h0.01L175.27,143.63z M155.29,77.7
		c-4.52-1.97-9.48-3.08-14.48-3.02c-4.98,0.17-9.95,1.44-14.29,3.85c-4.35,2.38-8.13,5.63-11.4,9.24c3.69-3.2,7.57-6.15,11.9-8.26
		c4.31-2.12,9.04-3.35,13.82-3.4c4.78-0.16,9.55,0.91,14.03,2.62c4.51,1.72,8.74,4.16,12.74,6.96
		C163.98,82.42,159.82,79.68,155.29,77.7z M142.37,136.05c-3.69,0.98-7.53,1.42-11.26,0.79c-3.72-0.56-7.26-2.17-10.13-4.63
		c-1.42-1.23-2.66-2.71-3.57-4.37c-0.9-1.64-1.57-3.55-1.18-5.48c-0.71,1.87-0.19,3.98,0.55,5.79c0.83,1.82,2.03,3.46,3.45,4.87
		c2.87,2.82,6.69,4.62,10.66,5.24c1.99,0.3,4,0.34,5.99,0.14c1.99-0.24,3.94-0.67,5.81-1.3c3.75-1.3,7.22-3.21,10.32-5.59
		C149.59,133.39,146.06,135.01,142.37,136.05z M115.76,78.72c-0.62,0.46-1.21,0.95-1.79,1.45c-0.68-0.31-1.37-0.58-2.06-0.85
		c-4.27,5.74-5.55,12.12-1.47,18.73C107.69,90.39,110.42,84.15,115.76,78.72z M89.75,83.01c-4.81,1.12-9.44,3.21-13.41,6.24
		c-3.89,3.12-7.1,7.12-9.14,11.64c-2.06,4.52-3.14,9.37-3.6,14.23c1.04-4.77,2.39-9.46,4.59-13.74c2.18-4.28,5.24-8.1,9.03-11
		c3.74-2.99,8.19-4.99,12.81-6.3c4.64-1.32,9.49-1.9,14.37-2.05C99.53,81.58,94.56,81.88,89.75,83.01z M57.5,117.35
		c0.02,0.19,0.03,0.39,0.06,0.59c-0.61,0.47-1.2,0.97-1.76,1.49c2.15,5.05,6.06,8.56,12.34,9.4
		C62.22,126.72,59.02,122.61,57.5,117.35z M57.5,117.35c0.02,0.19,0.03,0.39,0.06,0.59c-0.61,0.47-1.2,0.97-1.76,1.49
		c2.15,5.05,6.06,8.56,12.34,9.4C62.22,126.72,59.02,122.61,57.5,117.35z M89.75,83.01c-4.81,1.12-9.44,3.21-13.41,6.24
		c-3.89,3.12-7.1,7.12-9.14,11.64c-2.06,4.52-3.14,9.37-3.6,14.23c1.04-4.77,2.39-9.46,4.59-13.74c2.18-4.28,5.24-8.1,9.03-11
		c3.74-2.99,8.19-4.99,12.81-6.3c4.64-1.32,9.49-1.9,14.37-2.05C99.53,81.58,94.56,81.88,89.75,83.01z M115.76,78.72
		c-0.62,0.46-1.21,0.95-1.79,1.45c-0.68-0.31-1.37-0.58-2.06-0.85c-4.27,5.74-5.55,12.12-1.47,18.73
		C107.69,90.39,110.42,84.15,115.76,78.72z M142.37,136.05c-3.69,0.98-7.53,1.42-11.26,0.79c-3.72-0.56-7.26-2.17-10.13-4.63
		c-1.42-1.23-2.66-2.71-3.57-4.37c-0.9-1.64-1.57-3.55-1.18-5.48c-0.71,1.87-0.19,3.98,0.55,5.79c0.83,1.82,2.03,3.46,3.45,4.87
		c2.87,2.82,6.69,4.62,10.66,5.24c1.99,0.3,4,0.34,5.99,0.14c1.99-0.24,3.94-0.67,5.81-1.3c3.75-1.3,7.22-3.21,10.32-5.59
		C149.59,133.39,146.06,135.01,142.37,136.05z M155.29,77.7c-4.52-1.97-9.48-3.08-14.48-3.02c-4.98,0.17-9.95,1.44-14.29,3.85
		c-4.35,2.38-8.13,5.63-11.4,9.24c3.69-3.2,7.57-6.15,11.9-8.26c4.31-2.12,9.04-3.35,13.82-3.4c4.78-0.16,9.55,0.91,14.03,2.62
		c4.51,1.72,8.74,4.16,12.74,6.96C163.98,82.42,159.82,79.68,155.29,77.7z M175.27,143.63v-0.01c-4.45,0.19-8.98-1.39-13.01-3.73
		c-3.83-2.23-6.3-6.38-6.03-10.81c0.05-0.81,0.16-1.66,0.32-2.53c-1.61,3.81-1.63,7.43-0.41,10.81c-2.82,1.62-5.89,2.95-9.19,3.92
		c-2.43,0.71-4.97,1.24-7.61,1.55c-5.66,0.65-11.16,0.24-16.23-1.04c-1.51-0.38-2.93-1.05-4.16-2.01
		c-5.78-4.46-9.14-10.1-7.63-17.92c-2.59,6.11-1.11,11.75,3.06,16.64c-1.74,2.85-3.67,5.56-5.92,7.96c-2.65,2.74-5.72,5.11-9.23,6.5
		c-3.47,1.44-7.34,1.89-11.06,1.26c-1.86-0.32-3.68-0.94-5.32-1.89c-1.62-0.94-3.17-2.24-3.84-4.09c0.35,1.97,1.89,3.51,3.46,4.68
		c1.65,1.13,3.53,1.91,5.47,2.38c3.92,0.94,8.11,0.5,11.83-1.01c1.86-0.77,3.61-1.78,5.21-2.98c1.57-1.23,3.02-2.6,4.3-4.12
		c2.15-2.59,3.91-5.46,5.27-8.5c1.21,1.4,2.66,2.74,4.29,4.01c-2.72,7.83-8.76,14.15-16.96,16.56c-1.19,0.35-2.42,0.6-3.67,0.78
		c-13.56-0.4-25.35-3.07-27.81-15.52c-0.1,6.4,3.14,10.97,8.48,13.94c-2.75,0.23-5.5,0.07-8.13-0.62c-3.61-1-6.94-2.89-9.64-5.48
		c-2.71-2.58-4.85-5.77-6.34-9.22c-0.75-1.73-1.3-3.56-1.51-5.43c-0.23-1.83-0.23-3.88,1.01-5.41c-0.76,0.62-1.2,1.57-1.43,2.52
		c-0.23,0.96-0.33,1.96-0.29,2.94c0.08,1.98,0.54,3.92,1.19,5.78c1.31,3.71,3.53,7.1,6.38,9.86c2.88,2.72,6.49,4.72,10.38,5.51
		c1.95,0.39,3.93,0.48,5.88,0.35c1.04-0.09,2.06-0.25,3.07-0.48c1.52,0.79,3.19,1.46,5,2.02c0.34-0.21,0.68-0.43,1.01-0.66l0.26,0.9
		c0.01,0,0.01,0,0.01,0c5.38,1.79,11.43,1.88,16.77,0.32c8.61-2.53,15.35-9.14,18.39-17.9c5.94,1.74,12.35,2.27,18.7,1.54
		c2.72-0.32,5.39-0.86,7.97-1.62c3.45-1.01,6.72-2.41,9.75-4.15c5.5,3.99,12.19,6.97,18.59,6.56h0.01L175.27,143.63z M176.1,85.72
		c-0.27-0.39-0.53-0.76-0.82-1.14c-3.14,1.09-5.88,3.27-7.98,6.79c3.12-3.37,6.64-4.99,10.43-5.34
		C177.19,85.91,176.64,85.8,176.1,85.72z M177.13,149.96c-0.54,0.34-1.08,0.66-1.63,0.99c-4.79,2.96-9.75,5.66-14.85,8.09
		c-2.55,1.2-5.13,2.36-7.78,3.35c-2.62,1.05-5.31,1.96-8.05,2.66c5.63-0.86,11.03-2.82,16.28-5c5.25-2.23,10.25-4.98,15.15-7.88
		l1.29-0.82L177.13,149.96z M178.75,155.48c-0.54,0.34-1.08,0.66-1.63,0.98c-4.79,2.97-9.75,5.67-14.85,8.09
		c-2.55,1.2-5.13,2.37-7.78,3.35c-2.62,1.06-5.31,1.97-8.05,2.67c5.63-0.86,11.03-2.82,16.28-5.01c5.24-2.23,10.25-4.97,15.15-7.88
		l1.29-0.81L178.75,155.48z M179.82,161.05c-1.28,0.84-2.58,1.67-3.87,2.5c-1.18,0.75-2.43,1.42-3.63,2.13l-1.83,1.05l-1.88,0.95
		c-4.93,2.69-10.1,4.92-15.37,6.87c-5.28,1.97-10.69,3.61-16.22,4.77c2.82-0.26,5.6-0.82,8.38-1.41c2.76-0.67,5.49-1.45,8.19-2.31
		c5.41-1.77,10.65-4.03,15.7-6.65c3.6-1.96,7.14-4.04,10.5-6.38C179.82,162.07,179.84,161.57,179.82,161.05z M194.47,107.82
		c-1.96-5.76-5.62-10.7-9.82-14.89c1.84,2.34,3.72,4.64,5.16,7.23c1.5,2.53,2.83,5.18,3.61,8c0.8,2.8,1.26,5.7,1.08,8.58
		c-0.17,2.88-0.93,5.72-2.24,8.27c-2.56,5.18-7.37,9.08-12.82,11.02c-5.47,1.93-11.76,1.69-17.08-1.04c2.5,1.63,5.43,2.6,8.42,2.96
		c3.01,0.33,6.09,0.02,9-0.87c5.81-1.81,10.93-5.94,13.76-11.42C196.32,120.14,196.47,113.53,194.47,107.82z M200.75,150.38
		c-0.65,0.89-1.28,1.8-1.95,2.65l-0.26,0.32c-0.08,0.11-0.17,0.26-0.26,0.38c-0.1,0.13-0.15,0.28-0.22,0.42
		c-0.07,0.14-0.11,0.29-0.15,0.44c-0.16,0.59-0.2,1.18-0.13,1.76c0.11,1.15,0.47,2.25,1.02,3.23c-0.25-1.09-0.43-2.19-0.43-3.25
		c0.02-0.54,0.07-1.06,0.24-1.53c0.07-0.24,0.18-0.46,0.31-0.66c0.07-0.1,0.12-0.19,0.21-0.3l0.27-0.33c0.69-0.9,1.3-1.84,1.86-2.8
		c0.56-0.97,1.07-1.96,1.5-3C202.05,148.58,201.4,149.48,200.75,150.38z M229.47,168.83c-0.42,0.84-0.86,1.67-1.33,2.48
		c-0.95,1.62-2,3.18-3.25,4.56c-0.61,0.69-1.28,1.33-2.01,1.88c-0.73,0.56-1.53,1.02-2.37,1.36c-1.7,0.69-3.65,0.6-5.44-0.03
		c0.84,0.45,1.76,0.75,2.73,0.89c0.97,0.12,1.97,0,2.9-0.3c1.89-0.6,3.48-1.86,4.77-3.29c1.28-1.44,2.34-3.07,3.19-4.78
		c0.44-0.85,0.82-1.73,1.15-2.63c0.17-0.44,0.31-0.9,0.45-1.35c0.13-0.46,0.28-0.92,0.31-1.4
		C230.3,167.13,229.88,167.98,229.47,168.83z M229.47,168.83c-0.42,0.84-0.86,1.67-1.33,2.48c-0.95,1.62-2,3.18-3.25,4.56
		c-0.61,0.69-1.28,1.33-2.01,1.88c-0.73,0.56-1.53,1.02-2.37,1.36c-1.7,0.69-3.65,0.6-5.44-0.03c0.84,0.45,1.76,0.75,2.73,0.89
		c0.97,0.12,1.97,0,2.9-0.3c1.89-0.6,3.48-1.86,4.77-3.29c1.28-1.44,2.34-3.07,3.19-4.78c0.44-0.85,0.82-1.73,1.15-2.63
		c0.17-0.44,0.31-0.9,0.45-1.35c0.13-0.46,0.28-0.92,0.31-1.4C230.3,167.13,229.88,167.98,229.47,168.83z M198.8,153.03l-0.26,0.32
		c-0.08,0.11-0.17,0.26-0.26,0.38c-0.1,0.13-0.15,0.28-0.22,0.42c-0.07,0.14-0.11,0.29-0.15,0.44c-0.16,0.59-0.2,1.18-0.13,1.76
		c0.11,1.15,0.47,2.25,1.02,3.23c-0.25-1.09-0.43-2.19-0.43-3.25c0.02-0.54,0.07-1.06,0.24-1.53c0.07-0.24,0.18-0.46,0.31-0.66
		c0.07-0.1,0.12-0.19,0.21-0.3l0.27-0.33c0.69-0.9,1.3-1.84,1.86-2.8c0.56-0.97,1.07-1.96,1.5-3c-0.71,0.87-1.36,1.77-2.01,2.67
		C200.1,151.27,199.47,152.18,198.8,153.03z M184.65,92.93c1.84,2.34,3.72,4.64,5.16,7.23c1.5,2.53,2.83,5.18,3.61,8
		c0.8,2.8,1.26,5.7,1.08,8.58c-0.17,2.88-0.93,5.72-2.24,8.27c-2.56,5.18-7.37,9.08-12.82,11.02c-5.47,1.93-11.76,1.69-17.08-1.04
		c2.5,1.63,5.43,2.6,8.42,2.96c3.01,0.33,6.09,0.02,9-0.87c5.81-1.81,10.93-5.94,13.76-11.42c2.78-5.52,2.93-12.13,0.93-17.84
		C192.51,102.06,188.85,97.12,184.65,92.93z M175.95,163.55c-1.18,0.75-2.43,1.42-3.63,2.13l-1.83,1.05l-1.88,0.95
		c-4.93,2.69-10.1,4.92-15.37,6.87c-5.28,1.97-10.69,3.61-16.22,4.77c2.82-0.26,5.6-0.82,8.38-1.41c2.76-0.67,5.49-1.45,8.19-2.31
		c5.41-1.77,10.65-4.03,15.7-6.65c3.6-1.96,7.14-4.04,10.5-6.38c0.03-0.5,0.05-1,0.03-1.52
		C178.54,161.89,177.24,162.72,175.95,163.55z M154.49,167.9c-2.62,1.06-5.31,1.97-8.05,2.67c5.63-0.86,11.03-2.82,16.28-5.01
		c5.24-2.23,10.25-4.97,15.15-7.88l1.29-0.81l-0.41-1.39c-0.54,0.34-1.08,0.66-1.63,0.98c-4.79,2.97-9.75,5.67-14.85,8.09
		C159.72,165.75,157.14,166.92,154.49,167.9z M175.5,150.95c-4.79,2.96-9.75,5.66-14.85,8.09c-2.55,1.2-5.13,2.36-7.78,3.35
		c-2.62,1.05-5.31,1.96-8.05,2.66c5.63-0.86,11.03-2.82,16.28-5c5.25-2.23,10.25-4.98,15.15-7.88l1.29-0.82l-0.41-1.39
		C176.59,150.3,176.05,150.62,175.5,150.95z M177.73,86.03c-0.54-0.12-1.09-0.23-1.63-0.31c-0.27-0.39-0.53-0.76-0.82-1.14
		c-3.14,1.09-5.88,3.27-7.98,6.79C170.42,88,173.94,86.38,177.73,86.03z M147.56,143.38c3.45-1.01,6.72-2.41,9.75-4.15
		c5.5,3.99,12.19,6.97,18.59,6.56h0.01l-0.64-2.16v-0.01c-4.45,0.19-8.98-1.39-13.01-3.73c-3.83-2.23-6.3-6.38-6.03-10.81
		c0.05-0.81,0.16-1.66,0.32-2.53c-1.61,3.81-1.63,7.43-0.41,10.81c-2.82,1.62-5.89,2.95-9.19,3.92c-2.43,0.71-4.97,1.24-7.61,1.55
		c-5.66,0.65-11.16,0.24-16.23-1.04c-1.51-0.38-2.93-1.05-4.16-2.01c-5.78-4.46-9.14-10.1-7.63-17.92
		c-2.59,6.11-1.11,11.75,3.06,16.64c-1.74,2.85-3.67,5.56-5.92,7.96c-2.65,2.74-5.72,5.11-9.23,6.5c-3.47,1.44-7.34,1.89-11.06,1.26
		c-1.86-0.32-3.68-0.94-5.32-1.89c-1.62-0.94-3.17-2.24-3.84-4.09c0.35,1.97,1.89,3.51,3.46,4.68c1.65,1.13,3.53,1.91,5.47,2.38
		c3.92,0.94,8.11,0.5,11.83-1.01c1.86-0.77,3.61-1.78,5.21-2.98c1.57-1.23,3.02-2.6,4.3-4.12c2.15-2.59,3.91-5.46,5.27-8.5
		c1.21,1.4,2.66,2.74,4.29,4.01c-2.72,7.83-8.76,14.15-16.96,16.56c-1.19,0.35-2.42,0.6-3.67,0.78
		c-13.56-0.4-25.35-3.07-27.81-15.52c-0.1,6.4,3.14,10.97,8.48,13.94c-2.75,0.23-5.5,0.07-8.13-0.62c-3.61-1-6.94-2.89-9.64-5.48
		c-2.71-2.58-4.85-5.77-6.34-9.22c-0.75-1.73-1.3-3.56-1.51-5.43c-0.23-1.83-0.23-3.88,1.01-5.41c-0.76,0.62-1.2,1.57-1.43,2.52
		c-0.23,0.96-0.33,1.96-0.29,2.94c0.08,1.98,0.54,3.92,1.19,5.78c1.31,3.71,3.53,7.1,6.38,9.86c2.88,2.72,6.49,4.72,10.38,5.51
		c1.95,0.39,3.93,0.48,5.88,0.35c1.04-0.09,2.06-0.25,3.07-0.48c1.52,0.79,3.19,1.46,5,2.02c0.34-0.21,0.68-0.43,1.01-0.66l0.26,0.9
		c0.01,0,0.01,0,0.01,0c5.38,1.79,11.43,1.88,16.77,0.32c8.61-2.53,15.35-9.14,18.39-17.9c5.94,1.74,12.35,2.27,18.7,1.54
		C142.31,144.68,144.98,144.14,147.56,143.38z M127.02,79.51c4.31-2.12,9.04-3.35,13.82-3.4c4.78-0.16,9.55,0.91,14.03,2.62
		c4.51,1.72,8.74,4.16,12.74,6.96c-3.63-3.27-7.79-6.01-12.32-7.99c-4.52-1.97-9.48-3.08-14.48-3.02
		c-4.98,0.17-9.95,1.44-14.29,3.85c-4.35,2.38-8.13,5.63-11.4,9.24C118.81,84.57,122.69,81.62,127.02,79.51z M116.78,128.15
		c0.83,1.82,2.03,3.46,3.45,4.87c2.87,2.82,6.69,4.62,10.66,5.24c1.99,0.3,4,0.34,5.99,0.14c1.99-0.24,3.94-0.67,5.81-1.3
		c3.75-1.3,7.22-3.21,10.32-5.59c-3.42,1.88-6.95,3.5-10.64,4.54c-3.69,0.98-7.53,1.42-11.26,0.79c-3.72-0.56-7.26-2.17-10.13-4.63
		c-1.42-1.23-2.66-2.71-3.57-4.37c-0.9-1.64-1.57-3.55-1.18-5.48C115.52,124.23,116.04,126.34,116.78,128.15z M115.76,78.72
		c-0.62,0.46-1.21,0.95-1.79,1.45c-0.68-0.31-1.37-0.58-2.06-0.85c-4.27,5.74-5.55,12.12-1.47,18.73
		C107.69,90.39,110.42,84.15,115.76,78.72z M77.22,90.38c3.74-2.99,8.19-4.99,12.81-6.3c4.64-1.32,9.49-1.9,14.37-2.05
		c-4.87-0.45-9.84-0.15-14.65,0.98c-4.81,1.12-9.44,3.21-13.41,6.24c-3.89,3.12-7.1,7.12-9.14,11.64c-2.06,4.52-3.14,9.37-3.6,14.23
		c1.04-4.77,2.39-9.46,4.59-13.74C70.37,97.1,73.43,93.28,77.22,90.38z M68.14,128.83c-5.92-2.11-9.12-6.22-10.64-11.48
		c0.02,0.19,0.03,0.39,0.06,0.59c-0.61,0.47-1.2,0.97-1.76,1.49C57.95,124.48,61.86,127.99,68.14,128.83z M229.47,168.83
		c-0.42,0.84-0.86,1.67-1.33,2.48c-0.95,1.62-2,3.18-3.25,4.56c-0.61,0.69-1.28,1.33-2.01,1.88c-0.73,0.56-1.53,1.02-2.37,1.36
		c-1.7,0.69-3.65,0.6-5.44-0.03c0.84,0.45,1.76,0.75,2.73,0.89c0.97,0.12,1.97,0,2.9-0.3c1.89-0.6,3.48-1.86,4.77-3.29
		c1.28-1.44,2.34-3.07,3.19-4.78c0.44-0.85,0.82-1.73,1.15-2.63c0.17-0.44,0.31-0.9,0.45-1.35c0.13-0.46,0.28-0.92,0.31-1.4
		C230.3,167.13,229.88,167.98,229.47,168.83z M198.8,153.03l-0.26,0.32c-0.08,0.11-0.17,0.26-0.26,0.38
		c-0.1,0.13-0.15,0.28-0.22,0.42c-0.07,0.14-0.11,0.29-0.15,0.44c-0.16,0.59-0.2,1.18-0.13,1.76c0.11,1.15,0.47,2.25,1.02,3.23
		c-0.25-1.09-0.43-2.19-0.43-3.25c0.02-0.54,0.07-1.06,0.24-1.53c0.07-0.24,0.18-0.46,0.31-0.66c0.07-0.1,0.12-0.19,0.21-0.3
		l0.27-0.33c0.69-0.9,1.3-1.84,1.86-2.8c0.56-0.97,1.07-1.96,1.5-3c-0.71,0.87-1.36,1.77-2.01,2.67
		C200.1,151.27,199.47,152.18,198.8,153.03z M184.65,92.93c1.84,2.34,3.72,4.64,5.16,7.23c1.5,2.53,2.83,5.18,3.61,8
		c0.8,2.8,1.26,5.7,1.08,8.58c-0.17,2.88-0.93,5.72-2.24,8.27c-2.56,5.18-7.37,9.08-12.82,11.02c-5.47,1.93-11.76,1.69-17.08-1.04
		c2.5,1.63,5.43,2.6,8.42,2.96c3.01,0.33,6.09,0.02,9-0.87c5.81-1.81,10.93-5.94,13.76-11.42c2.78-5.52,2.93-12.13,0.93-17.84
		C192.51,102.06,188.85,97.12,184.65,92.93z M175.95,163.55c-1.18,0.75-2.43,1.42-3.63,2.13l-1.83,1.05l-1.88,0.95
		c-4.93,2.69-10.1,4.92-15.37,6.87c-5.28,1.97-10.69,3.61-16.22,4.77c2.82-0.26,5.6-0.82,8.38-1.41c2.76-0.67,5.49-1.45,8.19-2.31
		c5.41-1.77,10.65-4.03,15.7-6.65c3.6-1.96,7.14-4.04,10.5-6.38c0.03-0.5,0.05-1,0.03-1.52
		C178.54,161.89,177.24,162.72,175.95,163.55z M154.49,167.9c-2.62,1.06-5.31,1.97-8.05,2.67c5.63-0.86,11.03-2.82,16.28-5.01
		c5.24-2.23,10.25-4.97,15.15-7.88l1.29-0.81l-0.41-1.39c-0.54,0.34-1.08,0.66-1.63,0.98c-4.79,2.97-9.75,5.67-14.85,8.09
		C159.72,165.75,157.14,166.92,154.49,167.9z M175.5,150.95c-4.79,2.96-9.75,5.66-14.85,8.09c-2.55,1.2-5.13,2.36-7.78,3.35
		c-2.62,1.05-5.31,1.96-8.05,2.66c5.63-0.86,11.03-2.82,16.28-5c5.25-2.23,10.25-4.98,15.15-7.88l1.29-0.82l-0.41-1.39
		C176.59,150.3,176.05,150.62,175.5,150.95z M177.73,86.03c-0.54-0.12-1.09-0.23-1.63-0.31c-0.27-0.39-0.53-0.76-0.82-1.14
		c-3.14,1.09-5.88,3.27-7.98,6.79C170.42,88,173.94,86.38,177.73,86.03z M147.56,143.38c3.45-1.01,6.72-2.41,9.75-4.15
		c5.5,3.99,12.19,6.97,18.59,6.56h0.01l-0.64-2.16v-0.01c-4.45,0.19-8.98-1.39-13.01-3.73c-3.83-2.23-6.3-6.38-6.03-10.81
		c0.05-0.81,0.16-1.66,0.32-2.53c-1.61,3.81-1.63,7.43-0.41,10.81c-2.82,1.62-5.89,2.95-9.19,3.92c-2.43,0.71-4.97,1.24-7.61,1.55
		c-5.66,0.65-11.16,0.24-16.23-1.04c-1.51-0.38-2.93-1.05-4.16-2.01c-5.78-4.46-9.14-10.1-7.63-17.92
		c-2.59,6.11-1.11,11.75,3.06,16.64c-1.74,2.85-3.67,5.56-5.92,7.96c-2.65,2.74-5.72,5.11-9.23,6.5c-3.47,1.44-7.34,1.89-11.06,1.26
		c-1.86-0.32-3.68-0.94-5.32-1.89c-1.62-0.94-3.17-2.24-3.84-4.09c0.35,1.97,1.89,3.51,3.46,4.68c1.65,1.13,3.53,1.91,5.47,2.38
		c3.92,0.94,8.11,0.5,11.83-1.01c1.86-0.77,3.61-1.78,5.21-2.98c1.57-1.23,3.02-2.6,4.3-4.12c2.15-2.59,3.91-5.46,5.27-8.5
		c1.21,1.4,2.66,2.74,4.29,4.01c-2.72,7.83-8.76,14.15-16.96,16.56c-1.19,0.35-2.42,0.6-3.67,0.78
		c-13.56-0.4-25.35-3.07-27.81-15.52c-0.1,6.4,3.14,10.97,8.48,13.94c-2.75,0.23-5.5,0.07-8.13-0.62c-3.61-1-6.94-2.89-9.64-5.48
		c-2.71-2.58-4.85-5.77-6.34-9.22c-0.75-1.73-1.3-3.56-1.51-5.43c-0.23-1.83-0.23-3.88,1.01-5.41c-0.76,0.62-1.2,1.57-1.43,2.52
		c-0.23,0.96-0.33,1.96-0.29,2.94c0.08,1.98,0.54,3.92,1.19,5.78c1.31,3.71,3.53,7.1,6.38,9.86c2.88,2.72,6.49,4.72,10.38,5.51
		c1.95,0.39,3.93,0.48,5.88,0.35c1.04-0.09,2.06-0.25,3.07-0.48c1.52,0.79,3.19,1.46,5,2.02c0.34-0.21,0.68-0.43,1.01-0.66l0.26,0.9
		c0.01,0,0.01,0,0.01,0c5.38,1.79,11.43,1.88,16.77,0.32c8.61-2.53,15.35-9.14,18.39-17.9c5.94,1.74,12.35,2.27,18.7,1.54
		C142.31,144.68,144.98,144.14,147.56,143.38z M127.02,79.51c4.31-2.12,9.04-3.35,13.82-3.4c4.78-0.16,9.55,0.91,14.03,2.62
		c4.51,1.72,8.74,4.16,12.74,6.96c-3.63-3.27-7.79-6.01-12.32-7.99c-4.52-1.97-9.48-3.08-14.48-3.02
		c-4.98,0.17-9.95,1.44-14.29,3.85c-4.35,2.38-8.13,5.63-11.4,9.24C118.81,84.57,122.69,81.62,127.02,79.51z M116.78,128.15
		c0.83,1.82,2.03,3.46,3.45,4.87c2.87,2.82,6.69,4.62,10.66,5.24c1.99,0.3,4,0.34,5.99,0.14c1.99-0.24,3.94-0.67,5.81-1.3
		c3.75-1.3,7.22-3.21,10.32-5.59c-3.42,1.88-6.95,3.5-10.64,4.54c-3.69,0.98-7.53,1.42-11.26,0.79c-3.72-0.56-7.26-2.17-10.13-4.63
		c-1.42-1.23-2.66-2.71-3.57-4.37c-0.9-1.64-1.57-3.55-1.18-5.48C115.52,124.23,116.04,126.34,116.78,128.15z M115.76,78.72
		c-0.62,0.46-1.21,0.95-1.79,1.45c-0.68-0.31-1.37-0.58-2.06-0.85c-4.27,5.74-5.55,12.12-1.47,18.73
		C107.69,90.39,110.42,84.15,115.76,78.72z M77.22,90.38c3.74-2.99,8.19-4.99,12.81-6.3c4.64-1.32,9.49-1.9,14.37-2.05
		c-4.87-0.45-9.84-0.15-14.65,0.98c-4.81,1.12-9.44,3.21-13.41,6.24c-3.89,3.12-7.1,7.12-9.14,11.64c-2.06,4.52-3.14,9.37-3.6,14.23
		c1.04-4.77,2.39-9.46,4.59-13.74C70.37,97.1,73.43,93.28,77.22,90.38z M68.14,128.83c-5.92-2.11-9.12-6.22-10.64-11.48
		c0.02,0.19,0.03,0.39,0.06,0.59c-0.61,0.47-1.2,0.97-1.76,1.49C57.95,124.48,61.86,127.99,68.14,128.83z M57.5,117.35
		c0.02,0.19,0.03,0.39,0.06,0.59c-0.61,0.47-1.2,0.97-1.76,1.49c2.15,5.05,6.06,8.56,12.34,9.4
		C62.22,126.72,59.02,122.61,57.5,117.35z M89.75,83.01c-4.81,1.12-9.44,3.21-13.41,6.24c-3.89,3.12-7.1,7.12-9.14,11.64
		c-2.06,4.52-3.14,9.37-3.6,14.23c1.04-4.77,2.39-9.46,4.59-13.74c2.18-4.28,5.24-8.1,9.03-11c3.74-2.99,8.19-4.99,12.81-6.3
		c4.64-1.32,9.49-1.9,14.37-2.05C99.53,81.58,94.56,81.88,89.75,83.01z M115.76,78.72c-0.62,0.46-1.21,0.95-1.79,1.45
		c-0.68-0.31-1.37-0.58-2.06-0.85c-4.27,5.74-5.55,12.12-1.47,18.73C107.69,90.39,110.42,84.15,115.76,78.72z M142.37,136.05
		c-3.69,0.98-7.53,1.42-11.26,0.79c-3.72-0.56-7.26-2.17-10.13-4.63c-1.42-1.23-2.66-2.71-3.57-4.37c-0.9-1.64-1.57-3.55-1.18-5.48
		c-0.71,1.87-0.19,3.98,0.55,5.79c0.83,1.82,2.03,3.46,3.45,4.87c2.87,2.82,6.69,4.62,10.66,5.24c1.99,0.3,4,0.34,5.99,0.14
		c1.99-0.24,3.94-0.67,5.81-1.3c3.75-1.3,7.22-3.21,10.32-5.59C149.59,133.39,146.06,135.01,142.37,136.05z M155.29,77.7
		c-4.52-1.97-9.48-3.08-14.48-3.02c-4.98,0.17-9.95,1.44-14.29,3.85c-4.35,2.38-8.13,5.63-11.4,9.24c3.69-3.2,7.57-6.15,11.9-8.26
		c4.31-2.12,9.04-3.35,13.82-3.4c4.78-0.16,9.55,0.91,14.03,2.62c4.51,1.72,8.74,4.16,12.74,6.96
		C163.98,82.42,159.82,79.68,155.29,77.7z M175.27,143.63v-0.01c-4.45,0.19-8.98-1.39-13.01-3.73c-3.83-2.23-6.3-6.38-6.03-10.81
		c0.05-0.81,0.16-1.66,0.32-2.53c-1.61,3.81-1.63,7.43-0.41,10.81c-2.82,1.62-5.89,2.95-9.19,3.92c-2.43,0.71-4.97,1.24-7.61,1.55
		c-5.66,0.65-11.16,0.24-16.23-1.04c-1.51-0.38-2.93-1.05-4.16-2.01c-5.78-4.46-9.14-10.1-7.63-17.92
		c-2.59,6.11-1.11,11.75,3.06,16.64c-1.74,2.85-3.67,5.56-5.92,7.96c-2.65,2.74-5.72,5.11-9.23,6.5c-3.47,1.44-7.34,1.89-11.06,1.26
		c-1.86-0.32-3.68-0.94-5.32-1.89c-1.62-0.94-3.17-2.24-3.84-4.09c0.35,1.97,1.89,3.51,3.46,4.68c1.65,1.13,3.53,1.91,5.47,2.38
		c3.92,0.94,8.11,0.5,11.83-1.01c1.86-0.77,3.61-1.78,5.21-2.98c1.57-1.23,3.02-2.6,4.3-4.12c2.15-2.59,3.91-5.46,5.27-8.5
		c1.21,1.4,2.66,2.74,4.29,4.01c-2.72,7.83-8.76,14.15-16.96,16.56c-1.19,0.35-2.42,0.6-3.67,0.78
		c-13.56-0.4-25.35-3.07-27.81-15.52c-0.1,6.4,3.14,10.97,8.48,13.94c-2.75,0.23-5.5,0.07-8.13-0.62c-3.61-1-6.94-2.89-9.64-5.48
		c-2.71-2.58-4.85-5.77-6.34-9.22c-0.75-1.73-1.3-3.56-1.51-5.43c-0.23-1.83-0.23-3.88,1.01-5.41c-0.76,0.62-1.2,1.57-1.43,2.52
		c-0.23,0.96-0.33,1.96-0.29,2.94c0.08,1.98,0.54,3.92,1.19,5.78c1.31,3.71,3.53,7.1,6.38,9.86c2.88,2.72,6.49,4.72,10.38,5.51
		c1.95,0.39,3.93,0.48,5.88,0.35c1.04-0.09,2.06-0.25,3.07-0.48c1.52,0.79,3.19,1.46,5,2.02c0.34-0.21,0.68-0.43,1.01-0.66l0.26,0.9
		c0.01,0,0.01,0,0.01,0c5.38,1.79,11.43,1.88,16.77,0.32c8.61-2.53,15.35-9.14,18.39-17.9c5.94,1.74,12.35,2.27,18.7,1.54
		c2.72-0.32,5.39-0.86,7.97-1.62c3.45-1.01,6.72-2.41,9.75-4.15c5.5,3.99,12.19,6.97,18.59,6.56h0.01L175.27,143.63z M176.1,85.72
		c-0.27-0.39-0.53-0.76-0.82-1.14c-3.14,1.09-5.88,3.27-7.98,6.79c3.12-3.37,6.64-4.99,10.43-5.34
		C177.19,85.91,176.64,85.8,176.1,85.72z M177.13,149.96c-0.54,0.34-1.08,0.66-1.63,0.99c-4.79,2.96-9.75,5.66-14.85,8.09
		c-2.55,1.2-5.13,2.36-7.78,3.35c-2.62,1.05-5.31,1.96-8.05,2.66c5.63-0.86,11.03-2.82,16.28-5c5.25-2.23,10.25-4.98,15.15-7.88
		l1.29-0.82L177.13,149.96z M178.75,155.48c-0.54,0.34-1.08,0.66-1.63,0.98c-4.79,2.97-9.75,5.67-14.85,8.09
		c-2.55,1.2-5.13,2.37-7.78,3.35c-2.62,1.06-5.31,1.97-8.05,2.67c5.63-0.86,11.03-2.82,16.28-5.01c5.24-2.23,10.25-4.97,15.15-7.88
		l1.29-0.81L178.75,155.48z M179.82,161.05c-1.28,0.84-2.58,1.67-3.87,2.5c-1.18,0.75-2.43,1.42-3.63,2.13l-1.83,1.05l-1.88,0.95
		c-4.93,2.69-10.1,4.92-15.37,6.87c-5.28,1.97-10.69,3.61-16.22,4.77c2.82-0.26,5.6-0.82,8.38-1.41c2.76-0.67,5.49-1.45,8.19-2.31
		c5.41-1.77,10.65-4.03,15.7-6.65c3.6-1.96,7.14-4.04,10.5-6.38C179.82,162.07,179.84,161.57,179.82,161.05z M194.47,107.82
		c-1.96-5.76-5.62-10.7-9.82-14.89c1.84,2.34,3.72,4.64,5.16,7.23c1.5,2.53,2.83,5.18,3.61,8c0.8,2.8,1.26,5.7,1.08,8.58
		c-0.17,2.88-0.93,5.72-2.24,8.27c-2.56,5.18-7.37,9.08-12.82,11.02c-5.47,1.93-11.76,1.69-17.08-1.04c2.5,1.63,5.43,2.6,8.42,2.96
		c3.01,0.33,6.09,0.02,9-0.87c5.81-1.81,10.93-5.94,13.76-11.42C196.32,120.14,196.47,113.53,194.47,107.82z M200.75,150.38
		c-0.65,0.89-1.28,1.8-1.95,2.65l-0.26,0.32c-0.08,0.11-0.17,0.26-0.26,0.38c-0.1,0.13-0.15,0.28-0.22,0.42
		c-0.07,0.14-0.11,0.29-0.15,0.44c-0.16,0.59-0.2,1.18-0.13,1.76c0.11,1.15,0.47,2.25,1.02,3.23c-0.25-1.09-0.43-2.19-0.43-3.25
		c0.02-0.54,0.07-1.06,0.24-1.53c0.07-0.24,0.18-0.46,0.31-0.66c0.07-0.1,0.12-0.19,0.21-0.3l0.27-0.33c0.69-0.9,1.3-1.84,1.86-2.8
		c0.56-0.97,1.07-1.96,1.5-3C202.05,148.58,201.4,149.48,200.75,150.38z M229.47,168.83c-0.42,0.84-0.86,1.67-1.33,2.48
		c-0.95,1.62-2,3.18-3.25,4.56c-0.61,0.69-1.28,1.33-2.01,1.88c-0.73,0.56-1.53,1.02-2.37,1.36c-1.7,0.69-3.65,0.6-5.44-0.03
		c0.84,0.45,1.76,0.75,2.73,0.89c0.97,0.12,1.97,0,2.9-0.3c1.89-0.6,3.48-1.86,4.77-3.29c1.28-1.44,2.34-3.07,3.19-4.78
		c0.44-0.85,0.82-1.73,1.15-2.63c0.17-0.44,0.31-0.9,0.45-1.35c0.13-0.46,0.28-0.92,0.31-1.4
		C230.3,167.13,229.88,167.98,229.47,168.83z M229.47,168.83c-0.42,0.84-0.86,1.67-1.33,2.48c-0.95,1.62-2,3.18-3.25,4.56
		c-0.61,0.69-1.28,1.33-2.01,1.88c-0.73,0.56-1.53,1.02-2.37,1.36c-1.7,0.69-3.65,0.6-5.44-0.03c0.84,0.45,1.76,0.75,2.73,0.89
		c0.97,0.12,1.97,0,2.9-0.3c1.89-0.6,3.48-1.86,4.77-3.29c1.28-1.44,2.34-3.07,3.19-4.78c0.44-0.85,0.82-1.73,1.15-2.63
		c0.17-0.44,0.31-0.9,0.45-1.35c0.13-0.46,0.28-0.92,0.31-1.4C230.3,167.13,229.88,167.98,229.47,168.83z M200.75,150.38
		c-0.65,0.89-1.28,1.8-1.95,2.65l-0.26,0.32c-0.08,0.11-0.17,0.26-0.26,0.38c-0.1,0.13-0.15,0.28-0.22,0.42
		c-0.07,0.14-0.11,0.29-0.15,0.44c-0.16,0.59-0.2,1.18-0.13,1.76c0.11,1.15,0.47,2.25,1.02,3.23c-0.25-1.09-0.43-2.19-0.43-3.25
		c0.02-0.54,0.07-1.06,0.24-1.53c0.07-0.24,0.18-0.46,0.31-0.66c0.07-0.1,0.12-0.19,0.21-0.3l0.27-0.33c0.69-0.9,1.3-1.84,1.86-2.8
		c0.56-0.97,1.07-1.96,1.5-3C202.05,148.58,201.4,149.48,200.75,150.38z M194.47,107.82c-1.96-5.76-5.62-10.7-9.82-14.89
		c1.84,2.34,3.72,4.64,5.16,7.23c1.5,2.53,2.83,5.18,3.61,8c0.8,2.8,1.26,5.7,1.08,8.58c-0.17,2.88-0.93,5.72-2.24,8.27
		c-2.56,5.18-7.37,9.08-12.82,11.02c-5.47,1.93-11.76,1.69-17.08-1.04c2.5,1.63,5.43,2.6,8.42,2.96c3.01,0.33,6.09,0.02,9-0.87
		c5.81-1.81,10.93-5.94,13.76-11.42C196.32,120.14,196.47,113.53,194.47,107.82z M179.82,161.05c-1.28,0.84-2.58,1.67-3.87,2.5
		c-1.18,0.75-2.43,1.42-3.63,2.13l-1.83,1.05l-1.88,0.95c-4.93,2.69-10.1,4.92-15.37,6.87c-5.28,1.97-10.69,3.61-16.22,4.77
		c2.82-0.26,5.6-0.82,8.38-1.41c2.76-0.67,5.49-1.45,8.19-2.31c5.41-1.77,10.65-4.03,15.7-6.65c3.6-1.96,7.14-4.04,10.5-6.38
		C179.82,162.07,179.84,161.57,179.82,161.05z M178.75,155.48c-0.54,0.34-1.08,0.66-1.63,0.98c-4.79,2.97-9.75,5.67-14.85,8.09
		c-2.55,1.2-5.13,2.37-7.78,3.35c-2.62,1.06-5.31,1.97-8.05,2.67c5.63-0.86,11.03-2.82,16.28-5.01c5.24-2.23,10.25-4.97,15.15-7.88
		l1.29-0.81L178.75,155.48z M177.13,149.96c-0.54,0.34-1.08,0.66-1.63,0.99c-4.79,2.96-9.75,5.66-14.85,8.09
		c-2.55,1.2-5.13,2.36-7.78,3.35c-2.62,1.05-5.31,1.96-8.05,2.66c5.63-0.86,11.03-2.82,16.28-5c5.25-2.23,10.25-4.98,15.15-7.88
		l1.29-0.82L177.13,149.96z M176.1,85.72c-0.27-0.39-0.53-0.76-0.82-1.14c-3.14,1.09-5.88,3.27-7.98,6.79
		c3.12-3.37,6.64-4.99,10.43-5.34C177.19,85.91,176.64,85.8,176.1,85.72z M175.27,143.63v-0.01c-4.45,0.19-8.98-1.39-13.01-3.73
		c-3.83-2.23-6.3-6.38-6.03-10.81c0.05-0.81,0.16-1.66,0.32-2.53c-1.61,3.81-1.63,7.43-0.41,10.81c-2.82,1.62-5.89,2.95-9.19,3.92
		c-2.43,0.71-4.97,1.24-7.61,1.55c-5.66,0.65-11.16,0.24-16.23-1.04c-1.51-0.38-2.93-1.05-4.16-2.01
		c-5.78-4.46-9.14-10.1-7.63-17.92c-2.59,6.11-1.11,11.75,3.06,16.64c-1.74,2.85-3.67,5.56-5.92,7.96c-2.65,2.74-5.72,5.11-9.23,6.5
		c-3.47,1.44-7.34,1.89-11.06,1.26c-1.86-0.32-3.68-0.94-5.32-1.89c-1.62-0.94-3.17-2.24-3.84-4.09c0.35,1.97,1.89,3.51,3.46,4.68
		c1.65,1.13,3.53,1.91,5.47,2.38c3.92,0.94,8.11,0.5,11.83-1.01c1.86-0.77,3.61-1.78,5.21-2.98c1.57-1.23,3.02-2.6,4.3-4.12
		c2.15-2.59,3.91-5.46,5.27-8.5c1.21,1.4,2.66,2.74,4.29,4.01c-2.72,7.83-8.76,14.15-16.96,16.56c-1.19,0.35-2.42,0.6-3.67,0.78
		c-13.56-0.4-25.35-3.07-27.81-15.52c-0.1,6.4,3.14,10.97,8.48,13.94c-2.75,0.23-5.5,0.07-8.13-0.62c-3.61-1-6.94-2.89-9.64-5.48
		c-2.71-2.58-4.85-5.77-6.34-9.22c-0.75-1.73-1.3-3.56-1.51-5.43c-0.23-1.83-0.23-3.88,1.01-5.41c-0.76,0.62-1.2,1.57-1.43,2.52
		c-0.23,0.96-0.33,1.96-0.29,2.94c0.08,1.98,0.54,3.92,1.19,5.78c1.31,3.71,3.53,7.1,6.38,9.86c2.88,2.72,6.49,4.72,10.38,5.51
		c1.95,0.39,3.93,0.48,5.88,0.35c1.04-0.09,2.06-0.25,3.07-0.48c1.52,0.79,3.19,1.46,5,2.02c0.34-0.21,0.68-0.43,1.01-0.66l0.26,0.9
		c0.01,0,0.01,0,0.01,0c5.38,1.79,11.43,1.88,16.77,0.32c8.61-2.53,15.35-9.14,18.39-17.9c5.94,1.74,12.35,2.27,18.7,1.54
		c2.72-0.32,5.39-0.86,7.97-1.62c3.45-1.01,6.72-2.41,9.75-4.15c5.5,3.99,12.19,6.97,18.59,6.56h0.01L175.27,143.63z M155.29,77.7
		c-4.52-1.97-9.48-3.08-14.48-3.02c-4.98,0.17-9.95,1.44-14.29,3.85c-4.35,2.38-8.13,5.63-11.4,9.24c3.69-3.2,7.57-6.15,11.9-8.26
		c4.31-2.12,9.04-3.35,13.82-3.4c4.78-0.16,9.55,0.91,14.03,2.62c4.51,1.72,8.74,4.16,12.74,6.96
		C163.98,82.42,159.82,79.68,155.29,77.7z M142.37,136.05c-3.69,0.98-7.53,1.42-11.26,0.79c-3.72-0.56-7.26-2.17-10.13-4.63
		c-1.42-1.23-2.66-2.71-3.57-4.37c-0.9-1.64-1.57-3.55-1.18-5.48c-0.71,1.87-0.19,3.98,0.55,5.79c0.83,1.82,2.03,3.46,3.45,4.87
		c2.87,2.82,6.69,4.62,10.66,5.24c1.99,0.3,4,0.34,5.99,0.14c1.99-0.24,3.94-0.67,5.81-1.3c3.75-1.3,7.22-3.21,10.32-5.59
		C149.59,133.39,146.06,135.01,142.37,136.05z M115.76,78.72c-0.62,0.46-1.21,0.95-1.79,1.45c-0.68-0.31-1.37-0.58-2.06-0.85
		c-4.27,5.74-5.55,12.12-1.47,18.73C107.69,90.39,110.42,84.15,115.76,78.72z M89.75,83.01c-4.81,1.12-9.44,3.21-13.41,6.24
		c-3.89,3.12-7.1,7.12-9.14,11.64c-2.06,4.52-3.14,9.37-3.6,14.23c1.04-4.77,2.39-9.46,4.59-13.74c2.18-4.28,5.24-8.1,9.03-11
		c3.74-2.99,8.19-4.99,12.81-6.3c4.64-1.32,9.49-1.9,14.37-2.05C99.53,81.58,94.56,81.88,89.75,83.01z M57.5,117.35
		c0.02,0.19,0.03,0.39,0.06,0.59c-0.61,0.47-1.2,0.97-1.76,1.49c2.15,5.05,6.06,8.56,12.34,9.4
		C62.22,126.72,59.02,122.61,57.5,117.35z M57.5,117.35c0.02,0.19,0.03,0.39,0.06,0.59c-0.61,0.47-1.2,0.97-1.76,1.49
		c2.15,5.05,6.06,8.56,12.34,9.4C62.22,126.72,59.02,122.61,57.5,117.35z M89.75,83.01c-4.81,1.12-9.44,3.21-13.41,6.24
		c-3.89,3.12-7.1,7.12-9.14,11.64c-2.06,4.52-3.14,9.37-3.6,14.23c1.04-4.77,2.39-9.46,4.59-13.74c2.18-4.28,5.24-8.1,9.03-11
		c3.74-2.99,8.19-4.99,12.81-6.3c4.64-1.32,9.49-1.9,14.37-2.05C99.53,81.58,94.56,81.88,89.75,83.01z M115.76,78.72
		c-0.62,0.46-1.21,0.95-1.79,1.45c-0.68-0.31-1.37-0.58-2.06-0.85c-4.27,5.74-5.55,12.12-1.47,18.73
		C107.69,90.39,110.42,84.15,115.76,78.72z M142.37,136.05c-3.69,0.98-7.53,1.42-11.26,0.79c-3.72-0.56-7.26-2.17-10.13-4.63
		c-1.42-1.23-2.66-2.71-3.57-4.37c-0.9-1.64-1.57-3.55-1.18-5.48c-0.71,1.87-0.19,3.98,0.55,5.79c0.83,1.82,2.03,3.46,3.45,4.87
		c2.87,2.82,6.69,4.62,10.66,5.24c1.99,0.3,4,0.34,5.99,0.14c1.99-0.24,3.94-0.67,5.81-1.3c3.75-1.3,7.22-3.21,10.32-5.59
		C149.59,133.39,146.06,135.01,142.37,136.05z M155.29,77.7c-4.52-1.97-9.48-3.08-14.48-3.02c-4.98,0.17-9.95,1.44-14.29,3.85
		c-4.35,2.38-8.13,5.63-11.4,9.24c3.69-3.2,7.57-6.15,11.9-8.26c4.31-2.12,9.04-3.35,13.82-3.4c4.78-0.16,9.55,0.91,14.03,2.62
		c4.51,1.72,8.74,4.16,12.74,6.96C163.98,82.42,159.82,79.68,155.29,77.7z M175.27,143.63v-0.01c-4.45,0.19-8.98-1.39-13.01-3.73
		c-3.83-2.23-6.3-6.38-6.03-10.81c0.05-0.81,0.16-1.66,0.32-2.53c-1.61,3.81-1.63,7.43-0.41,10.81c-2.82,1.62-5.89,2.95-9.19,3.92
		c-2.43,0.71-4.97,1.24-7.61,1.55c-5.66,0.65-11.16,0.24-16.23-1.04c-1.51-0.38-2.93-1.05-4.16-2.01
		c-5.78-4.46-9.14-10.1-7.63-17.92c-2.59,6.11-1.11,11.75,3.06,16.64c-1.74,2.85-3.67,5.56-5.92,7.96c-2.65,2.74-5.72,5.11-9.23,6.5
		c-3.47,1.44-7.34,1.89-11.06,1.26c-1.86-0.32-3.68-0.94-5.32-1.89c-1.62-0.94-3.17-2.24-3.84-4.09c0.35,1.97,1.89,3.51,3.46,4.68
		c1.65,1.13,3.53,1.91,5.47,2.38c3.92,0.94,8.11,0.5,11.83-1.01c1.86-0.77,3.61-1.78,5.21-2.98c1.57-1.23,3.02-2.6,4.3-4.12
		c2.15-2.59,3.91-5.46,5.27-8.5c1.21,1.4,2.66,2.74,4.29,4.01c-2.72,7.83-8.76,14.15-16.96,16.56c-1.19,0.35-2.42,0.6-3.67,0.78
		c-13.56-0.4-25.35-3.07-27.81-15.52c-0.1,6.4,3.14,10.97,8.48,13.94c-2.75,0.23-5.5,0.07-8.13-0.62c-3.61-1-6.94-2.89-9.64-5.48
		c-2.71-2.58-4.85-5.77-6.34-9.22c-0.75-1.73-1.3-3.56-1.51-5.43c-0.23-1.83-0.23-3.88,1.01-5.41c-0.76,0.62-1.2,1.57-1.43,2.52
		c-0.23,0.96-0.33,1.96-0.29,2.94c0.08,1.98,0.54,3.92,1.19,5.78c1.31,3.71,3.53,7.1,6.38,9.86c2.88,2.72,6.49,4.72,10.38,5.51
		c1.95,0.39,3.93,0.48,5.88,0.35c1.04-0.09,2.06-0.25,3.07-0.48c1.52,0.79,3.19,1.46,5,2.02c0.34-0.21,0.68-0.43,1.01-0.66l0.26,0.9
		c0.01,0,0.01,0,0.01,0c5.38,1.79,11.43,1.88,16.77,0.32c8.61-2.53,15.35-9.14,18.39-17.9c5.94,1.74,12.35,2.27,18.7,1.54
		c2.72-0.32,5.39-0.86,7.97-1.62c3.45-1.01,6.72-2.41,9.75-4.15c5.5,3.99,12.19,6.97,18.59,6.56h0.01L175.27,143.63z M176.1,85.72
		c-0.27-0.39-0.53-0.76-0.82-1.14c-3.14,1.09-5.88,3.27-7.98,6.79c3.12-3.37,6.64-4.99,10.43-5.34
		C177.19,85.91,176.64,85.8,176.1,85.72z M177.13,149.96c-0.54,0.34-1.08,0.66-1.63,0.99c-4.79,2.96-9.75,5.66-14.85,8.09
		c-2.55,1.2-5.13,2.36-7.78,3.35c-2.62,1.05-5.31,1.96-8.05,2.66c5.63-0.86,11.03-2.82,16.28-5c5.25-2.23,10.25-4.98,15.15-7.88
		l1.29-0.82L177.13,149.96z M178.75,155.48c-0.54,0.34-1.08,0.66-1.63,0.98c-4.79,2.97-9.75,5.67-14.85,8.09
		c-2.55,1.2-5.13,2.37-7.78,3.35c-2.62,1.06-5.31,1.97-8.05,2.67c5.63-0.86,11.03-2.82,16.28-5.01c5.24-2.23,10.25-4.97,15.15-7.88
		l1.29-0.81L178.75,155.48z M179.82,161.05c-1.28,0.84-2.58,1.67-3.87,2.5c-1.18,0.75-2.43,1.42-3.63,2.13l-1.83,1.05l-1.88,0.95
		c-4.93,2.69-10.1,4.92-15.37,6.87c-5.28,1.97-10.69,3.61-16.22,4.77c2.82-0.26,5.6-0.82,8.38-1.41c2.76-0.67,5.49-1.45,8.19-2.31
		c5.41-1.77,10.65-4.03,15.7-6.65c3.6-1.96,7.14-4.04,10.5-6.38C179.82,162.07,179.84,161.57,179.82,161.05z M194.47,107.82
		c-1.96-5.76-5.62-10.7-9.82-14.89c1.84,2.34,3.72,4.64,5.16,7.23c1.5,2.53,2.83,5.18,3.61,8c0.8,2.8,1.26,5.7,1.08,8.58
		c-0.17,2.88-0.93,5.72-2.24,8.27c-2.56,5.18-7.37,9.08-12.82,11.02c-5.47,1.93-11.76,1.69-17.08-1.04c2.5,1.63,5.43,2.6,8.42,2.96
		c3.01,0.33,6.09,0.02,9-0.87c5.81-1.81,10.93-5.94,13.76-11.42C196.32,120.14,196.47,113.53,194.47,107.82z M200.75,150.38
		c-0.65,0.89-1.28,1.8-1.95,2.65l-0.26,0.32c-0.08,0.11-0.17,0.26-0.26,0.38c-0.1,0.13-0.15,0.28-0.22,0.42
		c-0.07,0.14-0.11,0.29-0.15,0.44c-0.16,0.59-0.2,1.18-0.13,1.76c0.11,1.15,0.47,2.25,1.02,3.23c-0.25-1.09-0.43-2.19-0.43-3.25
		c0.02-0.54,0.07-1.06,0.24-1.53c0.07-0.24,0.18-0.46,0.31-0.66c0.07-0.1,0.12-0.19,0.21-0.3l0.27-0.33c0.69-0.9,1.3-1.84,1.86-2.8
		c0.56-0.97,1.07-1.96,1.5-3C202.05,148.58,201.4,149.48,200.75,150.38z M229.47,168.83c-0.42,0.84-0.86,1.67-1.33,2.48
		c-0.95,1.62-2,3.18-3.25,4.56c-0.61,0.69-1.28,1.33-2.01,1.88c-0.73,0.56-1.53,1.02-2.37,1.36c-1.7,0.69-3.65,0.6-5.44-0.03
		c0.84,0.45,1.76,0.75,2.73,0.89c0.97,0.12,1.97,0,2.9-0.3c1.89-0.6,3.48-1.86,4.77-3.29c1.28-1.44,2.34-3.07,3.19-4.78
		c0.44-0.85,0.82-1.73,1.15-2.63c0.17-0.44,0.31-0.9,0.45-1.35c0.13-0.46,0.28-0.92,0.31-1.4
		C230.3,167.13,229.88,167.98,229.47,168.83z"/>
	<path class="st2" d="M252.93,198.74h-7.74c7.94-14.98,12.44-32.06,12.44-50.16C257.63,89.26,209.37,41,150.05,41
		C90.73,41,42.47,89.26,42.47,148.58c0,18.1,4.5,35.18,12.44,50.16h-8.07c-6,0-10.88,4.88-10.88,10.88v38.5
		c0,6,4.88,10.88,10.88,10.88h206.09c6,0,10.88-4.88,10.88-10.88v-38.5C263.81,203.62,258.93,198.74,252.93,198.74z M44.47,148.58
		C44.47,90.36,91.83,43,150.05,43c58.21,0,105.58,47.36,105.58,105.58c0,18.15-4.6,35.23-12.7,50.16h-18.05
		c0.37-0.49,0.74-1,1.09-1.53c0.16-0.24,0.17-0.54,0.03-0.79c-0.14-0.24-0.41-0.39-0.69-0.37c-1.14,0.06-2.33,0.19-3.59,0.33
		c-3.43,0.38-7.53,0.84-12.74,0.06c-1.96-0.29-4.08-0.76-6.38-1.48c-2.89-0.9-6.08-2.2-9.59-4.02c-0.34-0.18-0.7-0.37-1.06-0.56
		c-1.13-0.61-2.4-1.28-3.76-1.88c-1.96-0.86-4.11-1.54-6.31-1.59c-0.32-0.02-0.65-0.01-0.97,0.01c-0.3-0.29-0.65-0.48-1.06-0.55
		c-1.37-0.27-2.9,0.84-3.72,1.44l-0.22,0.16c-2.6,1.83-5.2,1.5-6.78,0.59c-1.57-0.9-2.41-2.44-2.26-4.09
		c0.03-0.32-0.15-0.62-0.43-0.75c-1.19-0.55-2.59-0.05-3.32,1.2c-0.82,1.39-0.62,3.55,1.67,5.24c0.58,0.42,1.25,0.77,1.97,1.14
		c1.58,0.82,3.22,1.67,3.52,3.22c0.08,0.43,0.04,0.91,0,1.42c-0.03,0.44-0.07,0.9-0.03,1.37c0.04,0.51,0.15,0.99,0.31,1.43H57.17
		C49.07,183.81,44.47,166.73,44.47,148.58z M171.75,197.19c-0.03-0.36,0-0.73,0.03-1.14c0.04-0.58,0.09-1.18-0.03-1.81
		c-0.03-0.16-0.07-0.31-0.12-0.45v-0.01c-0.61-1.96-2.5-2.94-4.18-3.81c-0.66-0.34-1.29-0.67-1.77-1.02
		c-1.65-1.21-1.71-2.52-1.27-3.27c0.21-0.35,0.56-0.64,0.94-0.68c0.06,1.97,1.18,3.79,3.03,4.86c1.56,0.9,3.39,1.15,5.18,0.76
		c0.56-0.12,1.12-0.3,1.67-0.55c0.53-0.23,1.04-0.52,1.54-0.87l0.24-0.18c0.23-0.16,0.59-0.42,0.98-0.65
		c0.54-0.33,1.15-0.61,1.58-0.53c0.03,0,0.06,0.01,0.09,0.03c0.11,0.03,0.24,0.11,0.37,0.32c0.06,0.09,0.1,0.21,0.1,0.35
		c0.02,0.55-0.44,1.62-1.76,4.46c-0.14,0.29-0.28,0.59-0.43,0.92c-0.54,1.17-1.19,2.58-1.96,4.28c-0.09,0.2-0.19,0.38-0.31,0.54
		c-0.33,0.49-0.74,0.83-1.18,0.98c-0.06,0.03-0.12,0.05-0.18,0.06c-0.22,0.06-0.45,0.06-0.68,0.02c-0.1-0.02-0.19-0.04-0.28-0.08
		c-0.47-0.15-0.86-0.5-1.14-0.98C171.96,198.32,171.8,197.79,171.75,197.19z M175.8,200.74c0.63-0.43,1.16-1.08,1.54-1.92
		c0.01-0.03,0.03-0.05,0.04-0.08c0.76-1.67,1.4-3.04,1.93-4.19c1.72-3.72,2.39-5.17,2.33-6.14c1.99,0,3.96,0.6,5.79,1.41
		c1.35,0.57,2.63,1.25,3.81,1.88c0.37,0.2,0.73,0.39,1.07,0.57c3.47,1.8,6.63,3.1,9.52,4.03c2.28,0.72,4.39,1.22,6.34,1.53
		c5.65,0.94,10.06,0.45,13.71,0.04c0.67-0.07,1.31-0.14,1.93-0.2c-0.28,0.37-0.57,0.73-0.86,1.07c-0.62,0.72-1.26,1.39-1.93,2
		c-5.13,4.72-11.81,6.5-18.42,6.74c-2.39,0.08-4.77-0.03-7.07-0.28c-6.62-0.7-12.53-2.52-15.91-3.86c-1.25-0.49-2.15-0.92-2.62-1.2
		c-0.01,0-0.01,0-0.01,0c-0.58-0.35-1.11-0.74-1.58-1.17C175.54,200.91,175.67,200.83,175.8,200.74z M261.81,248.12
		c0,4.9-3.98,8.88-8.88,8.88H46.84c-4.9,0-8.88-3.98-8.88-8.88v-38.5c0-4.9,3.98-8.88,8.88-8.88h125.21
		c0.39,0.27,0.84,0.46,1.32,0.54c0.06,0.01,0.13,0.02,0.2,0.03c0.02,0,0.05,0.01,0.08,0.01c0.72,0.8,1.58,1.51,2.57,2.1
		c0.36,0.22,0.96,0.51,1.77,0.86c0.26,0.11,0.53,0.22,0.83,0.34c0.02,0.01,0.03,0.01,0.05,0.02c0.69,0.27,1.49,0.57,2.38,0.87
		c0.44,0.14,0.91,0.3,1.4,0.45c0.04,0.02,0.08,0.03,0.11,0.03c0.29,0.09,0.57,0.18,0.87,0.27c0.72,0.22,1.48,0.43,2.28,0.63
		c0.51,0.14,1.03,0.26,1.56,0.39c2.24,0.52,4.7,0.98,7.28,1.28h0.04c0.49,0.06,0.99,0.11,1.49,0.16c0.4,0.04,0.8,0.07,1.2,0.09
		c0.27,0.03,0.55,0.04,0.82,0.05c0.37,0.03,0.74,0.04,1.11,0.05c0.53,0.02,1.06,0.03,1.59,0.03c0.26,0,0.51,0,0.77-0.01h0.01
		c0.48-0.01,0.96-0.02,1.44-0.05c0.41-0.02,0.82-0.04,1.23-0.08c0.15,0,0.29-0.02,0.43-0.03c0.35-0.03,0.69-0.06,1.03-0.1
		c0.16-0.02,0.32-0.04,0.47-0.06c0.33-0.04,0.65-0.08,0.97-0.13c0.22-0.03,0.43-0.07,0.64-0.11c0.25-0.04,0.49-0.08,0.74-0.13
		c0.23-0.04,0.46-0.09,0.69-0.14c0.24-0.05,0.48-0.1,0.72-0.16c0.3-0.07,0.59-0.14,0.88-0.23c0.19-0.04,0.37-0.09,0.55-0.14
		c0.24-0.07,0.47-0.14,0.7-0.22c0.31-0.09,0.62-0.19,0.92-0.3c0.35-0.12,0.7-0.25,1.05-0.39c0.19-0.07,0.38-0.15,0.56-0.23
		c0.74-0.3,1.47-0.65,2.18-1.03c0.19-0.09,0.37-0.19,0.55-0.29c0.48-0.28,0.95-0.56,1.42-0.87c0.38-0.25,0.75-0.51,1.12-0.78
		c1.08-0.8,2.12-1.7,3.09-2.72h29.77c4.9,0,8.88,3.98,8.88,8.88V248.12z"/>
	<path class="st3" d="M180.13,188.54c0.02,0.61-0.54,1.84-2.19,5.38c-0.54,1.17-1.19,2.58-1.96,4.28c-0.09,0.2-0.19,0.38-0.31,0.54
		c-0.37,0.56-0.85,0.92-1.36,1.04c-0.22,0.06-0.45,0.06-0.68,0.02c-0.1-0.02-0.19-0.04-0.28-0.08c-0.47-0.15-0.86-0.5-1.14-0.98
		c-0.25-0.42-0.41-0.95-0.46-1.55c-0.03-0.36,0-0.73,0.03-1.14c0.04-0.58,0.09-1.18-0.03-1.81c-0.03-0.16-0.07-0.31-0.12-0.45v-0.01
		c-0.61-1.96-2.5-2.94-4.18-3.81c-0.66-0.34-1.29-0.67-1.77-1.02c-1.65-1.21-1.71-2.52-1.27-3.27c0.21-0.35,0.56-0.64,0.94-0.68
		c0.06,1.97,1.18,3.79,3.03,4.86c1.56,0.9,3.39,1.15,5.18,0.76c0.56-0.12,1.12-0.3,1.67-0.55c0.53-0.23,1.04-0.52,1.54-0.87
		l0.24-0.18c0.23-0.16,0.59-0.42,0.98-0.65c0.54-0.33,1.15-0.61,1.58-0.53c0.03,0,0.06,0.01,0.09,0.03
		c0.11,0.03,0.24,0.11,0.37,0.32C180.09,188.28,180.13,188.4,180.13,188.54z"/>
	<path class="st4" d="M223.81,197.67c-0.28,0.37-0.57,0.73-0.86,1.07c-0.62,0.72-1.26,1.39-1.93,2
		c-14.29,13.15-40.61,3.44-44.02,1.4c-0.01,0-0.01,0-0.01,0c-0.58-0.35-1.11-0.74-1.58-1.17c0.13-0.06,0.26-0.14,0.39-0.23
		c0.63-0.43,1.16-1.08,1.54-1.92c0.01-0.03,0.03-0.05,0.04-0.08c0.76-1.67,1.4-3.04,1.93-4.19c1.72-3.72,2.39-5.17,2.33-6.14
		c3.45,0,6.82,1.81,9.6,3.29c0.37,0.2,0.73,0.39,1.07,0.57c14.12,7.33,23.05,6.33,29.57,5.6
		C222.55,197.8,223.19,197.73,223.81,197.67z"/>
</g>
<g id="Layer_3">
</g>
<g id="Layer_4">
</g>
<g id="Layer_5">
</g>
<g id="Layer_6">
</g>
<g id="Layer_7">
</g>
<g id="Layer_8">
</g>
<g id="Layer_9">
</g>
<g id="Layer_10">
</g>
<g id="Layer_11">
</g>
<g id="Layer_12">
</g>
<g id="Layer_13">
</g>
<g id="Layer_1">
</g>
</svg>
