<?xml version="1.0" encoding="utf-8"?>
<!-- Generator: Adobe Illustrator 24.0.1, SVG Export Plug-In . SVG Version: 6.00 Build 0)  -->
<svg version="1.1" xmlns="http://www.w3.org/2000/svg" xmlns:xlink="http://www.w3.org/1999/xlink" x="0px" y="0px"
	 viewBox="0 0 431.98 394.48" style="enable-background:new 0 0 431.98 394.48;" xml:space="preserve">
<style type="text/css">
	.st0{fill:url(#SVGID_1_);}
	.st1{fill:#F26838;}
</style>
<g id="Layer_1">
</g>
<g id="Layer_2">
	<g>
		<path d="M131.13,237.24c1.71,0,2.88,0.02,3.52,0.07s1.58,0.14,2.84,0.28c4.78,0.49,8.03,2.24,9.76,5.26
			c0.65,1.15,1.14,2.36,1.45,3.62c0.26,1.24,0.45,2.5,0.6,3.78c0.14,1.28,0.21,2.6,0.21,3.95c0,4.29-0.57,7.49-1.71,9.62
			c-1.14,2.13-3.84,3.84-8.1,5.13c4.29,1.21,6.96,2.68,7.99,4.42s1.56,4.85,1.56,9.34v6.34h-15.61l-0.13-4.79
			c0-3.25-0.38-5.38-1.15-6.39c-0.85-1.12-2.87-1.68-6.05-1.68h-24.77v12.86h-15.6v-51.82H131.13z M101.54,250.62v12.21h21.83
			c0.48,0,1.27,0,2.37,0c1.09,0,1.95,0,2.58,0c0.65,0,1.24-0.04,1.77-0.13s1.02-0.25,1.47-0.48c1.56-0.7,2.35-2.58,2.35-5.65
			c0-2.09-0.54-3.64-1.62-4.65c-0.83-0.78-2.4-1.17-4.73-1.17l-4.56-0.13H101.54z"/>
		<path d="M161.32,237.24h15.61v51.82h-15.61V237.24z"/>
		<path d="M238.24,255.23c0-1.61-0.43-2.86-1.28-3.75c-0.85-0.89-2.05-1.34-3.58-1.34c-1.51,0-3.2-0.01-5.07-0.04
			c-1.88-0.03-3.7-0.06-5.46-0.09l-9.72,0.13c-3.18,0-5.51,0.5-6.99,1.51c-0.83,0.58-1.47,1.4-1.94,2.48s-0.7,2.41-0.7,3.99
			l-0.17,5.57c0,2.53,0.11,4.66,0.34,6.39c0.37,3.68,2.08,5.7,5.12,6.04c1.28,0.17,3.24,0.26,5.88,0.26h6.22h10.62
			c4.8,0,7.21-1.59,7.21-4.76v-1.72h-19.44v-10.57h35.05v1.86c0,9.03-0.16,14.69-0.49,16.98c-0.33,2.29-1.46,4.51-3.39,6.67
			c-1.71,1.9-3.95,3.11-6.74,3.62c-0.91,0.17-1.88,0.34-2.9,0.5c-1.02,0.16-1.98,0.24-2.86,0.24c-0.83,0-4.24,0.1-10.23,0.3
			c-3.44,0.11-6.1,0.17-7.97,0.17h-10.87c-4.52,0-7.93-0.36-10.23-1.08c-3.64-1.07-6.31-3.13-8.02-6.18
			c-0.82-1.41-1.48-3.13-1.96-5.16c-0.48-2.03-0.72-4.29-0.72-6.76c0-1.93-0.02-3.49-0.04-4.67c-0.11-4.75-0.17-7.35-0.17-7.78
			l0.04-3.85c0-1.01,0.08-2.02,0.26-3.03c0.17-1.01,0.45-2.04,0.85-3.11c1.88-5.85,6.27-9.36,13.17-10.54
			c0.82-0.14,1.8-0.29,2.92-0.43c1.12-0.14,2-0.22,2.62-0.22l12.88-0.22c2.61,0,5.31,0.03,8.1,0.08c2.79,0.05,5.74,0.1,8.87,0.13
			c5.37,0,9.45,1.26,12.24,3.79c2.79,2.53,4.18,6.23,4.18,11.11v3.49H238.24z"/>
		<path d="M264.16,237.24h15.61v19.38h34.71v-19.38h15.61v51.82h-15.61v-19.07h-34.71v19.07h-15.61V237.24z"/>
		<path d="M398.3,237.24v13.38h-22.43v38.45h-15.61v-38.45h-22.43v-13.38H398.3z"/>
	</g>
	<g>
		<linearGradient id="SVGID_1_" gradientUnits="userSpaceOnUse" x1="310.4949" y1="159.6185" x2="306.975" y2="226.4963">
			<stop  offset="0" style="stop-color:#ABABAB"/>
			<stop  offset="0.1715" style="stop-color:#BFBFBF;stop-opacity:0.8285"/>
			<stop  offset="0.5237" style="stop-color:#E2E2E2;stop-opacity:0.4763"/>
			<stop  offset="0.8125" style="stop-color:#F7F7F7;stop-opacity:0.1875"/>
			<stop  offset="1" style="stop-color:#FFFFFF;stop-opacity:0"/>
		</linearGradient>
		<polygon class="st0" points="237.98,220.24 301.43,156.79 376.57,221.41 		"/>
		<g>
			<path d="M275.79,106.21c0,0-39.76,12.86-97.07,53.02l43.66,59.26H187.3l-36.25-47.17c0,0-14.03-15.2,8.19-26.12
				S256.69,109.33,275.79,106.21z"/>
			<g>
				<path d="M118.3,122.56V85.94h43.66c0,0,19.1,0,21.05,15.59l7.03-1.37c7.88-1.8,15.56-3.39,22.91-4.78
					c-0.89-3.38-10.74-35.95-58.79-35.95H88.67v77.72C97.98,131.75,107.96,126.91,118.3,122.56z"/>
				<path d="M88.67,185.1v33.78l29.63,0.78v-57.3C99.9,173.64,91.42,182.06,88.67,185.1z"/>
			</g>
		</g>
		<path class="st1" d="M284.24,93.16c0,0-146.45,10.72-213.52,67.64c0,0-14.46-31.09-38.13-29.36c0,0,12.94,6.27,16.97,32.52
			s11.17,41.78,32.39,18.24C81.95,182.2,116.69,133.73,284.24,93.16z"/>
		<polygon points="386.51,218.49 301.61,129.98 232.06,200.44 194.32,168.41 231.15,215.77 301.38,146 		"/>
		<polygon class="st1" points="258.83,168.41 231.84,196.32 197.29,167.73 232.29,185.8 		"/>
		<polygon points="336.38,147.6 336.38,168.41 327.46,161.78 327.46,147.37 		"/>
		<g>
			<rect x="303.2" y="177.68" width="8.46" height="8.37"/>
			<rect x="292.9" y="177.68" width="8.46" height="8.37"/>
			<rect x="303.2" y="187.89" width="8.46" height="8.37"/>
			<rect x="292.9" y="187.89" width="8.46" height="8.37"/>
		</g>
		<polygon points="335.52,148.26 336.42,147.67 331.43,145.04 		"/>
		<polygon points="327.74,148.61 328.63,148.02 323.65,145.39 		"/>
	</g>
	<rect x="85.55" y="224.92" class="st1" width="313.82" height="6.43"/>
	<rect x="85.55" y="328.62" class="st1" width="313.82" height="6.43"/>
	<g>
		<path d="M86.25,301.15h2.21h8.48c2.02,0,3.65,0.53,4.88,1.59c1.24,1.06,1.85,2.46,1.85,4.19c0,2-0.69,3.46-2.06,4.38
			c-0.37,0.25-0.78,0.45-1.24,0.62c0.26,0.1,0.49,0.22,0.71,0.34c1.21,0.71,1.84,1.89,1.89,3.56l0.1,3.41
			c0.02,0.68,0.09,1.16,0.22,1.44c0.12,0.28,0.37,0.51,0.72,0.68v0.55h-4.89c-0.12-0.22-0.22-0.68-0.3-1.39s-0.13-1.48-0.14-2.3
			l-0.03-1.92c-0.02-0.93-0.3-1.6-0.84-1.99c-0.54-0.4-1.44-0.59-2.7-0.59h-4.41v8.22h-2.21h-2.22V301.15z M90.68,310.23h5.13
			c1.14,0,2-0.23,2.57-0.69c0.57-0.46,0.86-1.15,0.86-2.07c0-0.92-0.27-1.6-0.81-2.06c-0.54-0.46-1.36-0.69-2.44-0.69h-5.31V310.23z
			"/>
		<path d="M111.42,321.94v-20.79h15.6v1.84v1.85h-11.17v4.41h10.37v1.78v1.8h-10.37v5.42h11.67v1.84v1.85H111.42z"/>
		<path d="M140.79,301.15h2.57h2.57l7.5,20.79h-2.35h-2.35l-1.43-4.23h-8.04l-1.39,4.23h-2.28h-2.29L140.79,301.15z M140.49,314.13
			h5.63l-2.82-8.36h0L140.49,314.13z"/>
		<path d="M160.12,321.94v-20.79h2.21h2.22v17.1h10.54v1.84v1.85H160.12z"/>
		<path d="M197.96,321.94h-2.06h-2.08v-20.79h3.24h3.24l3.86,16.48h0l3.81-16.48h3.2h3.2v20.79h-2.06h-2.08v-17.48h0l-3.97,17.48
			h-2.18h-2.18l-3.96-17.86h0V321.94z"/>
		<path d="M228.32,301.15h2.57h2.57l7.5,20.79h-2.35h-2.35l-1.43-4.23h-8.04l-1.39,4.23h-2.28h-2.29L228.32,301.15z M228.01,314.13
			h5.63l-2.82-8.36h0L228.01,314.13z"/>
		<path d="M247.64,301.15h2.21h8.48c2.02,0,3.65,0.53,4.88,1.59s1.85,2.46,1.85,4.19c0,2-0.69,3.46-2.06,4.38
			c-0.37,0.25-0.78,0.45-1.24,0.62c0.26,0.1,0.5,0.22,0.71,0.34c1.21,0.71,1.84,1.89,1.89,3.56l0.1,3.41
			c0.02,0.68,0.09,1.16,0.22,1.44c0.13,0.28,0.37,0.51,0.72,0.68v0.55h-4.89c-0.12-0.22-0.22-0.68-0.3-1.39
			c-0.09-0.71-0.13-1.48-0.14-2.3l-0.03-1.92c-0.02-0.93-0.3-1.6-0.84-1.99c-0.54-0.4-1.44-0.59-2.7-0.59h-4.41v8.22h-2.21h-2.22
			V301.15z M252.07,310.23h5.13c1.14,0,2-0.23,2.57-0.69c0.57-0.46,0.86-1.15,0.86-2.07c0-0.92-0.27-1.6-0.82-2.06
			c-0.54-0.46-1.36-0.69-2.44-0.69h-5.31V310.23z"/>
		<path d="M273.12,301.15h2.21h2.22v8.61l8.12-8.61h2.82h2.82l-8.46,8.48l9.03,12.31h-2.9h-2.9l-6.39-9.15l-2.15,2.16v6.99h-2.21
			h-2.22V301.15z"/>
		<path d="M297.97,321.94v-20.79h15.6v1.84v1.85H302.4v4.41h10.37v1.78v1.8H302.4v5.42h11.67v1.84v1.85H297.97z"/>
		<path d="M326.08,304.84h-6.4V303v-1.85h17.23v1.84v1.85h-6.4v17.1h-2.21h-2.22V304.84z"/>
		<path d="M343.02,301.15h2.21h2.22v20.79h-2.21h-2.22V301.15z"/>
		<path d="M359.35,321.94h-2.06h-2.08v-20.79h2.32h2.32l8.51,14.6v-14.6h2.06h2.08v20.79h-2.21h-2.21l-8.74-14.99V321.94z"/>
		<path d="M389.7,322.5c-3.09,0-5.53-0.98-7.35-2.93c-1.81-1.95-2.72-4.59-2.72-7.92c0-3.39,0.94-6.09,2.83-8.08
			c1.88-1.99,4.43-2.99,7.64-2.99c2.58,0,4.7,0.63,6.37,1.89c1.67,1.26,2.64,2.97,2.92,5.12h-4.43c-0.12-0.91-0.63-1.7-1.56-2.38
			s-1.94-1.03-3.06-1.03c-1.92,0-3.43,0.65-4.52,1.96c-1.09,1.31-1.63,3.12-1.63,5.44c0,2.36,0.52,4.15,1.56,5.38
			c1.04,1.23,2.57,1.85,4.58,1.85h-0.01c1.71,0,3.05-0.64,4.01-1.92c0.53-0.73,0.92-1.58,1.17-2.56v-0.04h-4.99v-3.58h8.88v11.22
			h-2.96l-0.43-2.69l-0.26,0.34c-1.49,1.95-3.51,2.93-6.06,2.93H389.7z"/>
	</g>
</g>
</svg>
