<svg id="Layer_1" data-name="Layer 1" xmlns="http://www.w3.org/2000/svg" xmlns:xlink="http://www.w3.org/1999/xlink" viewBox="0 0 369 277.5">
  <defs>
    <style>
      .cls-1 {
        fill: url(#linear-gradient);
      }

      .cls-2 {
        fill: #f26838;
      }
    </style>
    <linearGradient id="linear-gradient" x1="278.5" y1="175.27" x2="274.98" y2="108.39" gradientTransform="matrix(1, 0, 0, -1, 0, 275.89)" gradientUnits="userSpaceOnUse">
      <stop offset="0" stop-color="#ababab"/>
      <stop offset="0.17" stop-color="#bfbfbf" stop-opacity="0.83"/>
      <stop offset="0.52" stop-color="#e2e2e2" stop-opacity="0.48"/>
      <stop offset="0.81" stop-color="#f7f7f7" stop-opacity="0.19"/>
      <stop offset="1" stop-color="#fff" stop-opacity="0"/>
    </linearGradient>
  </defs>
  <title>R M Logo (1)-01</title>
  <g id="Layer_2" data-name="Layer 2">
    <g>
      <path d="M99.1,178.2h3.6l2.8.3c4.8.5,8,2.2,9.8,5.2a16.6,16.6,0,0,1,1.4,3.7c.3,1.2.4,2.5.6,3.7s.2,2.6.2,4c0,4.3-.6,7.5-1.7,9.6s-3.8,3.9-8.1,5.1c4.3,1.3,7,2.7,8,4.5s1.6,4.8,1.6,9.3v6.4H101.6v-4.8c0-3.3-.4-5.4-1.1-6.4s-2.9-1.7-6.1-1.7H69.5V230H53.9V178.2ZM69.5,191.6v12.2H98.1l1.5-.5c1.5-.7,2.3-2.6,2.3-5.6s-.5-3.7-1.6-4.7-2.4-1.2-4.7-1.2H69.5Z"/>
      <path d="M129.3,178.2h15.6v51.9H129.3Z"/>
      <path d="M206.2,196.2a5.3,5.3,0,0,0-1.2-3.7,4.9,4.9,0,0,0-3.6-1.4H181.1c-3.2,0-5.5.5-7,1.5a6.2,6.2,0,0,0-1.9,2.5,9.6,9.6,0,0,0-.7,4l-.2,5.6a39.8,39.8,0,0,0,.4,6.4q.5,5.6,5.1,6a41.7,41.7,0,0,0,5.9.3h16.8q7.2,0,7.2-4.8v-1.7H187.3V200.3h35v1.9c0,9-.1,14.7-.5,17a11.7,11.7,0,0,1-3.4,6.6,12,12,0,0,1-6.7,3.7l-2.9.5-2.9.2-10.2.3-8,.2H176.9a37.8,37.8,0,0,1-10.3-1.1,13,13,0,0,1-8-6.2,17,17,0,0,1-1.9-5.1,28.8,28.8,0,0,1-.8-6.8v-4.7c-.1-4.7-.2-7.3-.2-7.8v-3.8c0-1,.1-2,.2-3a19.2,19.2,0,0,1,.9-3.2q2.8-8.7,13.2-10.5l2.9-.4a13.8,13.8,0,0,1,2.6-.2l12.9-.3h8.1l8.8.2c5.4,0,9.5,1.2,12.3,3.7s4.2,6.3,4.2,11.2v3.4Z"/>
      <path d="M232.2,178.2h15.6v19.4h34.7V178.2h15.6v51.9H282.5V211H247.8v19.1H232.2Z"/>
      <path d="M366.3,178.2v13.4H343.9v38.5H328.3V191.6H305.8V178.2Z"/>
    </g>
    <g>
      <polygon class="cls-1" points="206 161.2 269.4 97.8 344.6 162.4 206 161.2"/>
      <g>
        <path d="M243.8,47.2s-39.8,12.9-97.1,53l43.7,59.3H155.3l-36.2-47.2S105,97.1,127.2,86.2,224.7,50.3,243.8,47.2Z"/>
        <g>
          <path d="M86.3,63.6V26.9H130s19.1,0,21,15.6l7-1.3c7.9-1.8,15.6-3.4,23-4.8-.9-3.4-10.8-36-58.8-36H56.7V78.1A253.9,253.9,0,0,1,86.3,63.6Z"/>
          <path d="M56.7,126.1v33.8l29.6.8V103.4C67.9,114.6,59.4,123.1,56.7,126.1Z"/>
        </g>
      </g>
      <path class="cls-2" d="M252.2,34.2S105.8,44.9,38.7,101.8c0,0-14.4-31.1-38.1-29.4,0,0,12.9,6.3,17,32.6s11.1,41.7,32.3,18.2C49.9,123.2,84.7,74.7,252.2,34.2Z"/>
      <polygon points="354.5 159.5 269.6 71 200.1 141.4 162.3 109.4 199.2 156.8 269.4 87 354.5 159.5"/>
      <polygon class="cls-2" points="226.8 109.4 199.8 137.3 165.3 108.7 200.3 126.8 226.8 109.4"/>
      <polygon points="304.4 88.6 304.4 109.4 295.5 102.8 295.5 88.4 304.4 88.6"/>
      <g>
        <rect x="271.2" y="118.7" width="8.5" height="8.37"/>
        <rect x="260.9" y="118.7" width="8.5" height="8.37"/>
        <rect x="271.2" y="128.9" width="8.5" height="8.37"/>
        <rect x="260.9" y="128.9" width="8.5" height="8.37"/>
      </g>
      <polygon points="303.5 89.3 304.4 88.7 299.4 86 303.5 89.3"/>
      <polygon points="295.7 89.6 296.6 89 291.6 86.4 295.7 89.6"/>
    </g>
    <rect class="cls-2" x="53.6" y="165.9" width="313.8" height="6.43"/>
    <rect class="cls-2" x="53.6" y="269.6" width="313.8" height="6.43"/>
    <g>
      <path d="M54.3,242.1H64.9a7.4,7.4,0,0,1,4.9,1.6,5.2,5.2,0,0,1,1.9,4.2,4.9,4.9,0,0,1-2.1,4.4l-1.2.6.7.4a4,4,0,0,1,1.9,3.5v3.4a4.9,4.9,0,0,0,.2,1.5,1.6,1.6,0,0,0,.7.7v.5H67.1a6.1,6.1,0,0,1-.3-1.4,16.9,16.9,0,0,1-.1-2.3v-1.9a2.9,2.9,0,0,0-.9-2,4.5,4.5,0,0,0-2.7-.6H58.7v8.2H54.3V242.1Zm4.4,9.1h5.1a4,4,0,0,0,2.6-.7,2.5,2.5,0,0,0,.8-2,2.4,2.4,0,0,0-.8-2.1,3.3,3.3,0,0,0-2.4-.7H58.7Z"/>
      <path d="M79.4,262.9V242.1H95v3.7H83.8v4.4H94.2v3.6H83.8v5.4H95.5v3.7Z"/>
      <path d="M108.8,242.1h5.1l7.5,20.8h-4.7l-1.4-4.2h-8l-1.4,4.2h-4.6Zm-.3,13h5.6l-2.8-8.3h0Z"/>
      <path d="M128.1,262.9V242.1h4.5v17.1h10.5v3.7Z"/>
      <path d="M166,262.9h-4.2V242.1h6.5l3.9,16.5h0l3.8-16.5h6.4v20.8h-4.2V245.5h0l-3.9,17.4h-4.4l-4-17.8h0v17.8Z"/>
      <path d="M196.3,242.1h5.2l7.5,20.8h-4.7l-1.5-4.2h-8l-1.4,4.2h-4.6Zm-.3,13h5.6l-2.8-8.3h0Z"/>
      <path d="M215.6,242.1h10.7a7.4,7.4,0,0,1,4.9,1.6,5.5,5.5,0,0,1,1.9,4.2,4.9,4.9,0,0,1-2.1,4.4l-1.2.6.7.4a4,4,0,0,1,1.9,3.5v3.4a4.9,4.9,0,0,0,.2,1.5,1.6,1.6,0,0,0,.7.7v.5h-4.9a6.1,6.1,0,0,1-.3-1.4,16.9,16.9,0,0,1-.1-2.3v-1.9a2.5,2.5,0,0,0-.8-2,4.5,4.5,0,0,0-2.7-.6h-4.4v8.2h-4.4V242.1Zm4.5,9.1h5.1a4,4,0,0,0,2.6-.7,2.5,2.5,0,0,0,.8-2,2.4,2.4,0,0,0-.8-2.1,3.3,3.3,0,0,0-2.4-.7h-5.3v5.5Z"/>
      <path d="M241.1,242.1h4.4v8.7l8.2-8.7h5.6l-8.4,8.5,9,12.3h-5.8l-6.4-9.1-2.2,2.1v7h-4.4V242.1Z"/>
      <path d="M266,262.9V242.1h15.6v3.7H270.4v4.4h10.4v3.6H270.4v5.4h11.7v3.7Z"/>
      <path d="M294.1,245.8h-6.4v-3.7h17.2v3.7h-6.4v17.1h-4.4V245.8Z"/>
      <path d="M311,242.1h4.4v20.8H311Z"/>
      <path d="M327.4,262.9h-4.2V242.1h4.7l8.5,14.6V242.1h4.1v20.8h-4.4l-8.8-15v15Z"/>
      <path d="M357.7,263.5a9.6,9.6,0,0,1-7.3-2.9c-1.9-2-2.8-4.6-2.8-8a11.2,11.2,0,0,1,2.9-8,9.8,9.8,0,0,1,7.6-3,10.1,10.1,0,0,1,6.4,1.9,7.4,7.4,0,0,1,2.9,5.1H363a4.1,4.1,0,0,0-1.6-2.4,4.8,4.8,0,0,0-3.1-1,5.5,5.5,0,0,0-4.5,1.9,8.4,8.4,0,0,0-1.6,5.5,8.1,8.1,0,0,0,1.6,5.4,5.5,5.5,0,0,0,4.5,1.8h0a4.6,4.6,0,0,0,4-1.9,5.7,5.7,0,0,0,1.2-2.6h-5v-3.6h8.9v11.2h-3l-.4-2.7-.3.4a7.2,7.2,0,0,1-6,2.9Z"/>
    </g>
  </g>
</svg>
