<?xml version="1.0" encoding="utf-8"?>
<!-- Generator: Adobe Illustrator 27.8.1, SVG Export Plug-In . SVG Version: 6.00 Build 0)  -->
<svg version="1.1" xmlns="http://www.w3.org/2000/svg" xmlns:xlink="http://www.w3.org/1999/xlink" x="0px" y="0px"
	 viewBox="0 0 222 300" style="enable-background:new 0 0 222 300;" xml:space="preserve">
<style type="text/css">
	.st0{fill:#FF7F00;}
	.st1{fill:#893700;}
	.st2{fill:#29ABE2;}
	.st3{fill:#F2C0AA;}
	.st4{fill:#1C75BC;}
	.st5{fill:#FFC200;}
	.st6{fill:#911717;}
	.st7{fill:#C1272D;}
	.st8{fill:#F7931E;}
	.st9{fill:#2D828E;}
	.st10{fill:#93BC20;}
	.st11{fill:#017F6A;}
	.st12{fill:#0FB287;}
	.st13{fill:#C4C400;}
	.st14{fill:#CC781D;}
	.st15{fill:#FF5500;}
	.st16{fill:#FF855A;}
	.st17{fill:#FFFFFF;}
	.st18{fill:#045B96;}
	.st19{fill:#A97C50;}
	.st20{fill:#F15A29;}
	.st21{fill:#FF9D00;}
	.st22{fill:#BE1E2D;}
	.st23{fill:#00406B;}
	.st24{fill:#005E2A;}
	.st25{fill:#35A061;}
	.st26{fill:#231F20;}
	.st27{fill:#09578C;}
	.st28{fill:#3B9FE2;}
	.st29{fill:#F72B60;}
	.st30{fill:#A00032;}
	.st31{fill:#1A3A1D;}
	.st32{fill:#009245;}
	.st33{fill:#159E4C;}
</style>
<g id="Layer_1">
</g>
<g id="Layer_2">
</g>
<g id="Layer_3">
</g>
<g id="Layer_4">
</g>
<g id="Layer_5">
</g>
<g id="Layer_6">
</g>
<g id="Layer_7">
</g>
<g id="Layer_8">
</g>
<g id="Layer_9">
</g>
<g id="Layer_10">
</g>
<g id="Layer_11">
</g>
<g id="Layer_12">
</g>
<g id="Layer_13">
</g>
<g id="Layer_14">
</g>
<g id="Layer_15">
</g>
<g id="Layer_16">
</g>
<g id="Layer_17">
</g>
<g id="Layer_18">
</g>
<g id="Layer_19">
</g>
<g id="Layer_20">
</g>
<g id="Layer_21">
</g>
<g id="Layer_22">
</g>
<g id="Layer_23">
</g>
<g id="Layer_24">
</g>
<g id="Layer_25">
</g>
<g id="Layer_26">
</g>
<g id="Layer_27">
</g>
<g id="Layer_28">
</g>
<g id="Layer_29">
</g>
<g id="Layer_30">
	<path class="st10" d="M108.97,2.47c1.38-0.63,2.96-0.63,4.34,0l45.64,20.84c1.15,0.52,1.15,2.15,0,2.68l-45.64,20.84
		c-1.38,0.63-2.96,0.63-4.34,0L63.32,26c-1.15-0.53-1.15-2.16,0-2.68L108.97,2.47 M115.52,48.94c-1.38,0.63-2.86,0.95-4.38,0.95
		c-1.52,0-2.99-0.32-4.38-0.95L78.24,35.92v19.7c0,7.36,14.62,13.33,32.65,13.33s32.65-5.97,32.65-13.33V36.14L115.52,48.94z"/>
	<path class="st33" d="M101.53,297.73L4.32,255.57c-1.17-0.51-1.92-1.66-1.92-2.92V105.45c0-2.3,2.35-3.84,4.46-2.93l97.22,42.17
		c1.16,0.51,1.92,1.66,1.92,2.92v147.19C105.99,297.1,103.64,298.65,101.53,297.73 M105.99,139.44L27.97,87.46
		c-1.06-0.71-2.48,0.05-2.48,1.33v14.7c0,0.64,0.38,1.21,0.96,1.46L105.99,139.44z M105.99,130.23l-56.9-54.34
		c-1.01-0.97-2.69-0.25-2.69,1.15v13.19c0,0.54,0.27,1.04,0.72,1.33L105.99,130.23z"/>
	<path class="st24" d="M119.5,297.73c-2.11,0.91-4.46-0.63-4.46-2.93V147.61c0-1.27,0.75-2.42,1.92-2.92l97.22-42.17
		c2.11-0.91,4.46,0.63,4.46,2.93v147.19c0,1.27-0.75,2.42-1.92,2.92L119.5,297.73 M194.57,104.94c0.58-0.25,0.96-0.83,0.96-1.46
		v-14.7c0-1.27-1.42-2.03-2.48-1.33l-78.02,51.98L194.57,104.94z M173.92,91.57c0.45-0.29,0.72-0.79,0.72-1.33V77.05
		c0-1.4-1.68-2.12-2.7-1.15l-56.9,54.34L173.92,91.57z"/>
</g>
</svg>
