<?xml version="1.0" encoding="utf-8"?>
<!-- Generator: Adobe Illustrator 27.8.1, SVG Export Plug-In . SVG Version: 6.00 Build 0)  -->
<svg version="1.1" xmlns="http://www.w3.org/2000/svg" xmlns:xlink="http://www.w3.org/1999/xlink" x="0px" y="0px"
	 viewBox="0 0 300 235" style="enable-background:new 0 0 300 235;" xml:space="preserve">
<style type="text/css">
	.st0{fill:#FF7F00;}
	.st1{fill:#893700;}
	.st2{fill:#29ABE2;}
	.st3{fill:#F2C0AA;}
	.st4{fill:#1C75BC;}
	.st5{fill:#FFC200;}
	.st6{fill:#911717;}
	.st7{fill:#C1272D;}
	.st8{fill:#F7931E;}
	.st9{fill:#2D828E;}
	.st10{fill:#93BC20;}
	.st11{fill:#017F6A;}
	.st12{fill:#0FB287;}
	.st13{fill:#C4C400;}
	.st14{fill:#CC781D;}
	.st15{fill:#FF5500;}
	.st16{fill:#FF855A;}
	.st17{fill:#FFFFFF;}
	.st18{fill:#045B96;}
	.st19{fill:#A97C50;}
	.st20{fill:#F15A29;}
	.st21{fill:#FF9D00;}
	.st22{fill:#BE1E2D;}
	.st23{fill:#00406B;}
	.st24{fill:#005E2A;}
	.st25{fill:#35A061;}
	.st26{fill:#231F20;}
	.st27{fill:#09578C;}
	.st28{fill:#3B9FE2;}
	.st29{fill:#F72B60;}
	.st30{fill:#A00032;}
	.st31{fill:#1A3A1D;}
	.st32{fill:#009245;}
	.st33{fill:#159E4C;}
</style>
<g id="Layer_1">
</g>
<g id="Layer_2">
</g>
<g id="Layer_3">
</g>
<g id="Layer_4">
</g>
<g id="Layer_5">
</g>
<g id="Layer_6">
</g>
<g id="Layer_7">
</g>
<g id="Layer_8">
	<path class="st13" d="M51.21,181.65c-4.91-12.16-5.32-23.62-2.21-35.2c1.92-7.17,5.91-11.33,14.13-10.84
		c8.57,0.51,17.19,0.11,26.62,0.11c0-27.57,0-54.61,0-82.01c45.06-7.02,89.45-8.71,134.07-3.86c-45.82-11.14-91.83-8.6-138.48-2.6
		c0,9.47,0,18.27,0,28.3c-16.29-6.69-31.65-13-48.26-19.82c16.99-7.1,32.9-13.79,48.85-20.39c25.52-10.56,51.02-21.15,76.64-31.45
		c2.95-1.19,7.11-1.77,9.9-0.64C213.8,20,255,37.08,296.23,54.09c0.69,0.28,1.28,0.79,1.97,1.22c-0.2,0.41-0.31,1-0.55,1.06
		c-8.33,2.03-10.32,7.27-9.86,15.56c0.8,14.44,0.19,28.95,0.24,43.44c0.02,6.15,1.37,11.72,3.58,17.77
		c2.77,7.59,0.67,16.95,0.67,26.05c-7,0-13.42,0-20.58,0c0-9.35-3.2-20.27,0.73-27.07c6.42-11.11,2.38-21.64,3.42-32.26
		c1.07-10.99,0.24-22.16,0.24-34.25c-9.35,3.83-17.84,7.04-26.03,10.88c-1.59,0.75-2.86,3.92-2.89,5.99
		c-0.23,17.27-0.13,34.54-0.13,52.31c2.41,0.55,4.72,1.07,7.28,1.66c0,3.08,0,6.05,0,10.17c-2.98,0-5.91,0-8.84,0
		c-57.67-0.01-115.34,0-173.01-0.03c-4.88,0-9.68-0.5-11.91,5.58c-2.37,6.44-1.75,17.93,2.36,20.91c2.19,1.59,5.59,2.08,8.44,2.09
		c57.92,0.12,115.85,0.1,173.78,0.1c2.78,0,5.55,0,8.33,0c0.63,0.54,1.26,1.07,1.89,1.61c-1.67,2.21-2.92,5.65-5.09,6.39
		c-4.9,1.66-10.23,2.48-15.43,2.74c-8.34,0.42-16.72,0.11-25.76,0.11c0.78,6.6-2.78,7.27-8.1,7.25
		c-58.43-0.18-116.87-0.11-175.3-0.12c-4.58,0-9.23-0.69-11.36,5.1c-2.3,6.25-1.59,18.4,2.29,21c2.26,1.51,5.66,1.78,8.55,1.78
		c42.94,0.08,85.87,0.03,128.81,0.01c1.23,0,2.45,0,3.68,0c0.16,0.73,0.32,1.47,0.48,2.2c-12.8,3.13-25.51,8.47-38.41,8.96
		c-33.49,1.27-67.05,0.42-100.59,0.39c-10.76-0.01-15.57-2.89-16.81-13.36c-1.08-9.1-0.32-18.64,1.12-27.75
		c1.09-6.87,6.31-10.36,13.98-10.05C28.3,181.98,39.21,181.65,51.21,181.65z M252.94,159.98c-62.06,0-124.12,0-186.18,0
		c0,0.62,0,1.24,0,1.86c62.06,0,124.12,0,186.18,0C252.94,161.22,252.94,160.6,252.94,159.98z M198.05,204.91
		c-29.68,0-59.37-0.15-89.05,0.04c-29.49,0.19-59.01-0.82-88.54,2.05c2.76,1.81,5.6,2.48,8.43,2.48
		c52.02-0.06,104.03-0.15,156.05-0.43c4.4-0.02,8.79-1.46,13.19-2.23C198.1,206.18,198.07,205.54,198.05,204.91z"/>
</g>
<g id="Layer_9">
</g>
<g id="Layer_10">
</g>
<g id="Layer_11">
</g>
<g id="Layer_12">
</g>
<g id="Layer_13">
</g>
<g id="Layer_14">
</g>
<g id="Layer_15">
</g>
<g id="Layer_16">
</g>
<g id="Layer_17">
</g>
<g id="Layer_18">
</g>
<g id="Layer_19">
</g>
<g id="Layer_20">
</g>
<g id="Layer_21">
</g>
<g id="Layer_22">
</g>
<g id="Layer_23">
</g>
<g id="Layer_24">
</g>
<g id="Layer_25">
</g>
<g id="Layer_26">
</g>
<g id="Layer_27">
</g>
<g id="Layer_28">
</g>
<g id="Layer_29">
</g>
<g id="Layer_30">
</g>
</svg>
