<?xml version="1.0" encoding="utf-8"?>
<!-- Generator: Adobe Illustrator 27.8.1, SVG Export Plug-In . SVG Version: 6.00 Build 0)  -->
<svg version="1.1" xmlns="http://www.w3.org/2000/svg" xmlns:xlink="http://www.w3.org/1999/xlink" x="0px" y="0px"
	 viewBox="0 0 260 296.75" style="enable-background:new 0 0 260 296.75;" xml:space="preserve">
<style type="text/css">
	.st0{fill:#FF7F00;}
	.st1{fill:#893700;}
	.st2{fill:#29ABE2;}
	.st3{fill:#F2C0AA;}
	.st4{fill:#1C75BC;}
	.st5{fill:#FFC200;}
	.st6{fill:#911717;}
	.st7{fill:#C1272D;}
	.st8{fill:#F7931E;}
	.st9{fill:#2D828E;}
	.st10{fill:#93BC20;}
	.st11{fill:#017F6A;}
	.st12{fill:#0FB287;}
	.st13{fill:#C4C400;}
	.st14{fill:#CC781D;}
	.st15{fill:#FF5500;}
	.st16{fill:#FF855A;}
	.st17{fill:#FFFFFF;}
	.st18{fill:#045B96;}
	.st19{fill:#A97C50;}
	.st20{fill:#F15A29;}
	.st21{fill:#FF9D00;}
	.st22{fill:#BE1E2D;}
	.st23{fill:#00406B;}
	.st24{fill:#005E2A;}
	.st25{fill:#35A061;}
	.st26{fill:#231F20;}
	.st27{fill:#09578C;}
	.st28{fill:#3B9FE2;}
	.st29{fill:#F72B60;}
	.st30{fill:#A00032;}
	.st31{fill:#1A3A1D;}
	.st32{fill:#009245;}
	.st33{fill:#159E4C;}
</style>
<g id="Layer_1">
</g>
<g id="Layer_2">
</g>
<g id="Layer_3">
</g>
<g id="Layer_4">
</g>
<g id="Layer_5">
</g>
<g id="Layer_6">
</g>
<g id="Layer_7">
</g>
<g id="Layer_8">
</g>
<g id="Layer_9">
	<path class="st14" d="M53.39,296.21c4.29-8.36,9.51-16.41,12.73-25.2c8.65-23.6,5.15-46.98-5.18-69.01
		c-7.7-16.42-17.65-31.77-26.64-47.58c-6.99-12.29-15.13-24.03-17.92-38.3c-2.45-12.53-1.29-24.62,4.39-36.33
		c-2.37,26.54,13.52,44.79,28.26,63.65c11.29,14.46,23.25,28.54,33.06,43.97c11.34,17.85,16.34,37.77,11.11,59.18
		c-4.83,19.76-17.53,33.68-33.44,45.23C57.58,293.4,55.32,294.89,53.39,296.21z M55.26,126.66c-0.13,15.93,11.83,28.26,27.34,28.18
		c15.18-0.08,27.02-12.13,27.02-27.5c0-15.5-11.75-27.6-26.83-27.64C67.46,99.66,55.39,111.48,55.26,126.66z M34.17,194.42
		c3.58,4.4,6.56,9.26,9.05,14.35c4.76,9.75,7.66,20.35,9.37,31.04c1.76,10.99,3.99,25.17,1.5,36.28c0.39-1.75,0.76-3.51,1.09-5.28
		c5.28-28.15,0.99-56.4-14.14-80.9c-7.91-12.81-16.3-24.93-22.96-38.52c-3.44-7.02-6.59-14.18-9.43-21.47
		c-2.52-6.45-6.62-14.37-7.33-21.28c0,0.02,0.01,0.05,0.01,0.07C4.55,139.7,14.31,169.99,34.17,194.42z"/>
	<path class="st5" d="M32.3,60.25L19.9,56.86l-9.82,8.29l-0.6-12.84l-10.92-6.78l12.02-4.54l3.08-12.48l8.03,10.03l12.82-0.93
		l-7.06,10.74L32.3,60.25z"/>
	<path class="st15" d="M178.83,11.93l79.83,83.43L147.43,83.45l-78.5-82.2L178.83,11.93z M142.46,90.64L95.92,40.57L71.2,83.67
		c39.42,4.79,54.33,38.81,54.33,38.81c32.39-10.8,63.45,17.02,63.45,17.02l23.07-42.62L142.46,90.64z"/>
</g>
<g id="Layer_10">
</g>
<g id="Layer_11">
</g>
<g id="Layer_12">
</g>
<g id="Layer_13">
</g>
<g id="Layer_14">
</g>
<g id="Layer_15">
</g>
<g id="Layer_16">
</g>
<g id="Layer_17">
</g>
<g id="Layer_18">
</g>
<g id="Layer_19">
</g>
<g id="Layer_20">
</g>
<g id="Layer_21">
</g>
<g id="Layer_22">
</g>
<g id="Layer_23">
</g>
<g id="Layer_24">
</g>
<g id="Layer_25">
</g>
<g id="Layer_26">
</g>
<g id="Layer_27">
</g>
<g id="Layer_28">
</g>
<g id="Layer_29">
</g>
<g id="Layer_30">
</g>
</svg>
