<?xml version="1.0" encoding="utf-8"?>
<!-- Generator: Adobe Illustrator 27.8.1, SVG Export Plug-In . SVG Version: 6.00 Build 0)  -->
<svg version="1.1" xmlns="http://www.w3.org/2000/svg" xmlns:xlink="http://www.w3.org/1999/xlink" x="0px" y="0px"
	 viewBox="0 0 300 300" style="enable-background:new 0 0 300 300;" xml:space="preserve">
<style type="text/css">
	.st0{fill:#FF7F00;}
	.st1{fill:#893700;}
	.st2{fill:#29ABE2;}
	.st3{fill:#F2C0AA;}
	.st4{fill:#1C75BC;}
	.st5{fill:#FFC200;}
	.st6{fill:#911717;}
	.st7{fill:#C1272D;}
	.st8{fill:#F7931E;}
	.st9{fill:#2D828E;}
	.st10{fill:#93BC20;}
	.st11{fill:#017F6A;}
	.st12{fill:#0FB287;}
	.st13{fill:#C4C400;}
	.st14{fill:#CC781D;}
	.st15{fill:#FF5500;}
	.st16{fill:#FF855A;}
	.st17{fill:#FFFFFF;}
	.st18{fill:#045B96;}
	.st19{fill:#A97C50;}
	.st20{fill:#F15A29;}
	.st21{fill:#FF9D00;}
	.st22{fill:#BE1E2D;}
	.st23{fill:#00406B;}
	.st24{fill:#005E2A;}
	.st25{fill:#35A061;}
	.st26{fill:#231F20;}
	.st27{fill:#09578C;}
	.st28{fill:#3B9FE2;}
	.st29{fill:#F72B60;}
	.st30{fill:#A00032;}
	.st31{fill:#1A3A1D;}
	.st32{fill:#009245;}
	.st33{fill:#159E4C;}
</style>
<g id="Layer_1">
	<path class="st0" d="M159.56,137.81c6.16-11.91,7.39-22.85,2.92-34.22c-1.79-4.54-4.63-7.59-9.81-7.5
		c-4.87,0.08-7.48,3.06-9.22,7.34c-4.62,11.35-3.33,22.29,2.66,34.47c-4.27-1.32-7.62-1.99-10.66-3.35
		c-24.08-10.79-32-39.79-17.42-64.71c3.7-6.33,8.52-12.05,13.11-17.81C143.13,36.98,150.58,20.04,153.21,1
		c17.1,7.12,26.18,45.07,18.9,76.13c3.29-5.6,6.59-11.2,10.22-17.37c11.42,15.87,16.57,32.77,9.76,51.63
		C186.83,125.99,175.85,134.4,159.56,137.81z"/>
	<path class="st1" d="M192.12,146.38c-0.23,1.7,0.08,3.53-0.69,4.46c-11.73,14.26-14,31.99-16.98,49.06
		c-5.83,33.44-10.33,67.11-15.01,98.16c0-48.62,0-99.87,0-151.69C170.08,146.38,180.7,146.38,192.12,146.38z M146.05,146.09
		c-10.94,0-21.42,0-32.88,0c0.82,2.35,1.25,4.24,2.11,5.91c2.5,4.82,6.27,9.27,7.59,14.37c4.49,17.32,8.97,34.71,11.91,52.33
		c4.46,26.78,7.63,53.77,11.27,80.18C146.05,248.37,146.05,197.32,146.05,146.09z"/>
</g>
<g id="Layer_2">
</g>
<g id="Layer_3">
</g>
<g id="Layer_4">
</g>
<g id="Layer_5">
</g>
<g id="Layer_6">
</g>
<g id="Layer_7">
</g>
<g id="Layer_8">
</g>
<g id="Layer_9">
</g>
<g id="Layer_10">
</g>
<g id="Layer_11">
</g>
<g id="Layer_12">
</g>
<g id="Layer_13">
</g>
<g id="Layer_14">
</g>
<g id="Layer_15">
</g>
<g id="Layer_16">
</g>
<g id="Layer_17">
</g>
<g id="Layer_18">
</g>
<g id="Layer_19">
</g>
<g id="Layer_20">
</g>
<g id="Layer_21">
</g>
<g id="Layer_22">
</g>
<g id="Layer_23">
</g>
<g id="Layer_24">
</g>
<g id="Layer_25">
</g>
<g id="Layer_26">
</g>
<g id="Layer_27">
</g>
<g id="Layer_28">
</g>
<g id="Layer_29">
</g>
<g id="Layer_30">
</g>
</svg>
