<?xml version="1.0" encoding="utf-8"?>
<!-- Generator: Adobe Illustrator 27.8.1, SVG Export Plug-In . SVG Version: 6.00 Build 0)  -->
<svg version="1.1" xmlns="http://www.w3.org/2000/svg" xmlns:xlink="http://www.w3.org/1999/xlink" x="0px" y="0px"
	 viewBox="0 0 300 186" style="enable-background:new 0 0 300 186;" xml:space="preserve">
<style type="text/css">
	.st0{fill:#FF7F00;}
	.st1{fill:#893700;}
	.st2{fill:#29ABE2;}
	.st3{fill:#F2C0AA;}
	.st4{fill:#1C75BC;}
	.st5{fill:#FFC200;}
	.st6{fill:#911717;}
	.st7{fill:#C1272D;}
	.st8{fill:#F7931E;}
	.st9{fill:#2D828E;}
	.st10{fill:#93BC20;}
	.st11{fill:#017F6A;}
	.st12{fill:#0FB287;}
	.st13{fill:#C4C400;}
	.st14{fill:#CC781D;}
	.st15{fill:#FF5500;}
	.st16{fill:#FF855A;}
	.st17{fill:#FFFFFF;}
	.st18{fill:#045B96;}
	.st19{fill:#A97C50;}
	.st20{fill:#F15A29;}
	.st21{fill:#FF9D00;}
	.st22{fill:#BE1E2D;}
	.st23{fill:#00406B;}
	.st24{fill:#005E2A;}
	.st25{fill:#35A061;}
	.st26{fill:#231F20;}
	.st27{fill:#09578C;}
	.st28{fill:#3B9FE2;}
	.st29{fill:#F72B60;}
	.st30{fill:#A00032;}
	.st31{fill:#1A3A1D;}
	.st32{fill:#009245;}
	.st33{fill:#159E4C;}
</style>
<g id="Layer_1">
</g>
<g id="Layer_2">
	<path class="st2" d="M150.01,77.11C172.36,38.23,205.34,14.8,248,4.03c-2.51,3.32-6.61,5.93-4.32,10.68
		c1.78,3.69,4.2,7.08,6.6,11.03c-4.47,1.11-9.17,2.27-13.87,3.42c-21.92,5.4-43.4,12-61.51,26.16c-6.2,4.85-11.48,10.88-17.17,16.37
		c0.34,0.43,0.67,0.86,1.01,1.29c0.48-0.16,1.06-0.21,1.43-0.51c26.21-20.89,56.32-33,88.88-39.68c13.22-2.71,13.2-2.81,19.44,9.21
		c0.91,1.76,1.81,3.52,3.09,6.02c-35.91,3.37-70.27,10.42-101.06,29.47c9.38-2.99,18.72-6.08,28.14-8.93
		c24.08-7.29,48.77-11.48,73.7-14.45c4.78-0.57,5.91,0.67,4.66,5.46c-1.87,7.16-7,12.01-12.48,17.58c-1.36-2.21-2.34-3.84-3.36-5.44
		c-5.1-8.02-13.2-8.86-20.35-2.72c-2.88,2.47-6.69,4.64-10.37,5.3c-24.48,4.38-48.56,9.73-70.18,22.9
		c-6.52,3.97-13.62,4.13-20.21,0.11c-21.6-13.17-45.59-18.81-70.13-23.01c-3.39-0.58-7.01-2.38-9.57-4.68
		c-8.34-7.47-18.47-5.61-22.87,4.65c-0.29,0.67-0.52,1.37-1.04,2.76c-6.28-5.04-11.61-10.14-13.3-17.96
		c-0.93-4.31,0.11-5.37,4.45-4.92c34.41,3.62,68.02,10.78,100.47,22.98c0.55,0.21,1.11,0.38,1.76,0.24
		c-30.79-18.61-64.9-25.99-101.1-29.3c2.97-5.64,5.61-11.1,8.77-16.25c0.56-0.91,3.37-0.91,5.03-0.62
		c35.54,6.15,68.56,18.33,97.15,40.98c0.59,0.47,1.26,0.84,1.98,1.32c-1.6-4.82-7.52-11.65-14.51-17.01
		c-16.8-12.91-36.24-19.98-56.38-25.45c-7.12-1.93-14.33-3.49-21.79-5.28C53.57,19.2,63.49,13.29,52.34,4
		c20.89,3.97,39.45,13.18,56.35,25.8C125.75,42.55,140.28,57.67,150.01,77.11z"/>
	<path class="st3" d="M88.28,117.33c-8.26-4.58-16.06-8.2-23.04-13.01c-5.88-4.05-11.26-9.1-15.94-14.5
		c-2.37-2.74-3.51-7.18-3.76-10.95c-0.31-4.84,4.43-6.72,8.43-3.82c0.74,0.54,1.44,1.17,2.03,1.87c7,8.26,16.43,11.53,26.72,13.07
		c10.87,1.63,21.44,4.13,30.68,10.56c11.36,7.91,18.22,19.04,20.47,32.28c2.44,14.35,3.2,28.98,4.61,43.5
		c0.16,1.64-0.22,3.33-0.4,5.66c-6.77-4.96-12.79-9.96-19.37-14.06c-14.46-9.01-29.1-17.76-43.92-26.17
		c-4.33-2.45-9.42-3.93-14.34-4.89c-18-3.53-30.61-13.89-39.97-29.31C9.19,88.97,1.56,69.31,0.97,47.34
		c-0.09-3.19,0.49-6.44,1.05-9.61c0.51-2.9,1.78-5.38,5.41-5.02c3.46,0.35,4.58,2.82,4.77,5.81c0.4,6.29,0.27,12.64,1.08,18.88
		c0.61,4.66,1.99,9.32,3.66,13.73c2.85,7.49,8.43,11.88,16.51,13.04c1.5,0.21,3.7,0.85,4.19,1.92
		c7.01,15.39,20.96,21.88,35.39,27.57C77.62,115.46,82.7,116.03,88.28,117.33z M120.11,123.6c-0.07-10.71-11.38-25.32-20.32-26.75
		c3.71,3.89,7.96,7.65,11.32,12.07C114.5,113.37,117.03,118.49,120.11,123.6z M212.39,117.41c20.24-4.33,39.17-10.83,50.16-30.79
		c0.65-1.19,2.45-2.3,3.82-2.45c10.05-1.13,15.93-7.09,18.31-16.37c1.58-6.19,2.1-12.67,2.89-19.05c0.45-3.66,0.02-7.48,0.89-11
		c0.48-1.93,2.74-4.56,4.39-4.71c1.57-0.14,4.57,2.33,4.88,4.03c0.94,5.24,1.7,10.76,1.09,15.99
		c-3.16,26.82-12.72,51.04-32.07,70.36c-4.91,4.9-11.74,9.21-18.41,10.79c-24.39,5.81-45.18,18.26-65.16,32.57
		c-6.86,4.91-13.6,10-20.53,15.1c-0.28-0.44-0.69-0.78-0.7-1.13c-0.35-16.83,0.85-33.5,4.98-49.91
		c5.83-23.16,21.44-35.34,44.09-39.78c3.62-0.71,7.25-1.38,10.9-1.95c8.19-1.29,15.11-5,21.01-10.74c1.1-1.07,2.08-2.47,3.4-3.07
		c1.67-0.76,4.11-1.73,5.37-1.04c1.52,0.82,3.27,3.55,2.94,4.99c-0.97,4.21-1.96,9.04-4.66,12.12
		c-9.66,11.05-21.67,18.99-35.64,23.81c-0.58,0.2-1.17,0.37-1.73,0.62c-0.25,0.11-0.44,0.37-0.66,0.56
		C212.1,116.71,212.25,117.06,212.39,117.41z M201.37,97.15c-11.18,2.74-21.94,16.68-20.63,26.91
		C185.33,112.96,191.92,103.95,201.37,97.15z"/>
</g>
<g id="Layer_3">
</g>
<g id="Layer_4">
</g>
<g id="Layer_5">
</g>
<g id="Layer_6">
</g>
<g id="Layer_7">
</g>
<g id="Layer_8">
</g>
<g id="Layer_9">
</g>
<g id="Layer_10">
</g>
<g id="Layer_11">
</g>
<g id="Layer_12">
</g>
<g id="Layer_13">
</g>
<g id="Layer_14">
</g>
<g id="Layer_15">
</g>
<g id="Layer_16">
</g>
<g id="Layer_17">
</g>
<g id="Layer_18">
</g>
<g id="Layer_19">
</g>
<g id="Layer_20">
</g>
<g id="Layer_21">
</g>
<g id="Layer_22">
</g>
<g id="Layer_23">
</g>
<g id="Layer_24">
</g>
<g id="Layer_25">
</g>
<g id="Layer_26">
</g>
<g id="Layer_27">
</g>
<g id="Layer_28">
</g>
<g id="Layer_29">
</g>
<g id="Layer_30">
</g>
</svg>
