<?xml version="1.0" encoding="utf-8"?>
<!-- Generator: Adobe Illustrator 27.8.1, SVG Export Plug-In . SVG Version: 6.00 Build 0)  -->
<svg version="1.1" xmlns="http://www.w3.org/2000/svg" xmlns:xlink="http://www.w3.org/1999/xlink" x="0px" y="0px"
	 viewBox="0 0 300 116" style="enable-background:new 0 0 300 116;" xml:space="preserve">
<style type="text/css">
	.st0{fill:#FF7F00;}
	.st1{fill:#893700;}
	.st2{fill:#29ABE2;}
	.st3{fill:#F2C0AA;}
	.st4{fill:#1C75BC;}
	.st5{fill:#FFC200;}
	.st6{fill:#911717;}
	.st7{fill:#C1272D;}
	.st8{fill:#F7931E;}
	.st9{fill:#2D828E;}
	.st10{fill:#93BC20;}
	.st11{fill:#017F6A;}
	.st12{fill:#0FB287;}
	.st13{fill:#C4C400;}
	.st14{fill:#CC781D;}
	.st15{fill:#FF5500;}
	.st16{fill:#FF855A;}
	.st17{fill:#FFFFFF;}
	.st18{fill:#045B96;}
	.st19{fill:#A97C50;}
	.st20{fill:#F15A29;}
	.st21{fill:#FF9D00;}
	.st22{fill:#BE1E2D;}
	.st23{fill:#00406B;}
	.st24{fill:#005E2A;}
	.st25{fill:#35A061;}
	.st26{fill:#231F20;}
	.st27{fill:#09578C;}
	.st28{fill:#3B9FE2;}
	.st29{fill:#F72B60;}
	.st30{fill:#A00032;}
	.st31{fill:#1A3A1D;}
	.st32{fill:#009245;}
	.st33{fill:#159E4C;}
</style>
<g id="Layer_1">
</g>
<g id="Layer_2">
</g>
<g id="Layer_3">
</g>
<g id="Layer_4">
</g>
<g id="Layer_5">
	<path class="st7" d="M171.02,13.06c0,0-9.32,4.97-12.44,17.17c-0.22-5.88-2.14-12.02-7.29-17.38c0,0-5.19,5.09-6.71,14.01
		c-1.72-5.02-4.91-9.84-10.48-13.45c0,0-12.34,19.41,9.91,39.96c0,0,1.55-4.43,2.13-10.54c1.2,3.48,3.06,7.22,5.75,11.18
		c0,0,3.83-6.05,5.7-14.19c0.14,3.82,0.86,8.12,2.4,12.9C159.98,52.73,181.76,33.63,171.02,13.06z M143.91,53.13
		c-11.65-10.76-5.19-20.93-5.19-20.93C148.91,38.81,143.91,53.13,143.91,53.13z M151.85,53.76c-8.9-13.12-0.32-21.55-0.32-21.55
		C159.97,40.95,151.85,53.76,151.85,53.76z M160.02,52.46c-4.84-15.1,5.78-20.77,5.78-20.77C171.42,42.47,160.02,52.46,160.02,52.46
		z"/>
	<path class="st8" d="M151.53,32.21c8.44,8.74,0.32,21.55,0.32,21.55C142.94,40.63,151.53,32.21,151.53,32.21z M165.8,31.69
		c0,0-10.62,5.67-5.78,20.77C160.02,52.46,171.42,42.47,165.8,31.69z M138.72,32.2c0,0-6.46,10.17,5.19,20.93
		C143.91,53.13,148.91,38.81,138.72,32.2z"/>
	<path class="st2" d="M292.79,60.52c-40.54,4.46-80.57,13.59-119.04,27.17c35.98-20.38,76.8-32.14,118.11-34.02
		c-4.9-5.96-5.24-16.13-12.47-18.82c-2.67-0.99-5.63-0.6-8.44-0.14c-37.64,6.11-73.8,21.19-104.63,43.65
		c-2.19,1.6-4.68,3.32-7.37,2.93c12.65-16.2,30.3-27.95,49.13-36.2s38.9-13.22,58.94-17.76c-3.11-3.74-6.22-7.7-7.34-12.43
		c-1.12-4.73,0.36-10.42,4.63-12.74C216.64,13.1,174.1,44.75,149.89,87.26C126.14,44.45,83.51,12.56,35.73,1.87
		c4.64,2.15,6.22,8.33,4.77,13.24s-5.13,8.79-8.77,12.38c20.38,4.55,40.9,9.17,60.06,17.49s37.08,20.66,48.79,37.96
		C106.66,57.32,66.32,40.3,24.31,33.87c-1.75-0.27-3.65-0.5-5.21,0.35c-1.49,0.8-2.33,2.4-3.1,3.9c-2.63,5.19-5.27,10.38-7.9,15.58
		c41.29,1.93,82.1,13.66,118.12,33.95C87.75,73.88,47.62,64.76,6.98,60.54c-1.74-0.18-4.22-0.18-5.46,1.29
		c-0.79,0.94-0.51,1.89-0.26,2.98c0.27,1.17,0.6,2.34,0.99,3.48c1.56,4.56,4.07,8.8,7.31,12.37c2.17,2.4,4.66,4.5,7.41,6.2
		c9.99-4.57,21.44-4.45,32.38-3.43c28.27,2.63,56.02,10.71,81.29,23.67c6.23,3.19,12.68,6.78,19.68,6.63
		c6.23-0.13,11.96-3.21,17.52-6.01c21.75-10.95,45.07-18.76,69.03-23.11c15.62-2.84,32.4-4.08,46.77,2.66
		c7-5.49,12.28-13.13,14.94-21.61c0.41-1.32,0.74-2.86-0.04-4c-0.98-1.45-3.08-1.42-4.82-1.24C293.4,60.45,293.1,60.49,292.79,60.52
		z M16.59,68.55l-0.02,0.47C15.23,69.26,16.59,68.55,16.59,68.55z"/>
	<path class="st2" d="M25.55,74.19l-0.02,0.4C24.38,74.81,25.55,74.19,25.55,74.19z"/>
</g>
<g id="Layer_6">
</g>
<g id="Layer_7">
</g>
<g id="Layer_8">
</g>
<g id="Layer_9">
</g>
<g id="Layer_10">
</g>
<g id="Layer_11">
</g>
<g id="Layer_12">
</g>
<g id="Layer_13">
</g>
<g id="Layer_14">
</g>
<g id="Layer_15">
</g>
<g id="Layer_16">
</g>
<g id="Layer_17">
</g>
<g id="Layer_18">
</g>
<g id="Layer_19">
</g>
<g id="Layer_20">
</g>
<g id="Layer_21">
</g>
<g id="Layer_22">
</g>
<g id="Layer_23">
</g>
<g id="Layer_24">
</g>
<g id="Layer_25">
</g>
<g id="Layer_26">
</g>
<g id="Layer_27">
</g>
<g id="Layer_28">
</g>
<g id="Layer_29">
</g>
<g id="Layer_30">
</g>
</svg>
