<?xml version="1.0" encoding="utf-8"?>
<!-- Generator: Adobe Illustrator 27.8.1, SVG Export Plug-In . SVG Version: 6.00 Build 0)  -->
<svg version="1.1" xmlns="http://www.w3.org/2000/svg" xmlns:xlink="http://www.w3.org/1999/xlink" x="0px" y="0px"
	 viewBox="0 0 300 215.5" style="enable-background:new 0 0 300 215.5;" xml:space="preserve">
<style type="text/css">
	.st0{fill:#FF7F00;}
	.st1{fill:#893700;}
	.st2{fill:#29ABE2;}
	.st3{fill:#F2C0AA;}
	.st4{fill:#1C75BC;}
	.st5{fill:#FFC200;}
	.st6{fill:#911717;}
	.st7{fill:#C1272D;}
	.st8{fill:#F7931E;}
	.st9{fill:#2D828E;}
	.st10{fill:#93BC20;}
	.st11{fill:#017F6A;}
	.st12{fill:#0FB287;}
	.st13{fill:#C4C400;}
	.st14{fill:#CC781D;}
	.st15{fill:#FF5500;}
	.st16{fill:#FF855A;}
	.st17{fill:#FFFFFF;}
	.st18{fill:#045B96;}
	.st19{fill:#A97C50;}
	.st20{fill:#F15A29;}
	.st21{fill:#FF9D00;}
	.st22{fill:#BE1E2D;}
	.st23{fill:#00406B;}
	.st24{fill:#005E2A;}
	.st25{fill:#35A061;}
	.st26{fill:#231F20;}
	.st27{fill:#09578C;}
	.st28{fill:#3B9FE2;}
	.st29{fill:#F72B60;}
	.st30{fill:#A00032;}
	.st31{fill:#1A3A1D;}
	.st32{fill:#009245;}
	.st33{fill:#159E4C;}
</style>
<g id="Layer_1">
</g>
<g id="Layer_2">
</g>
<g id="Layer_3">
	<path class="st4" d="M297,149.33c0,3.68-0.13,7.31-0.4,10.92c-0.73-9.92-2.44-19.56-5.03-28.84c-0.37-1.35-0.77-2.69-1.2-4.03
		c-18.64-60.04-74.62-103.64-140.8-103.64c-57.4,0-107.15,32.81-131.49,80.71c-1.07,2.1-2.1,4.22-3.05,6.39
		c-6.87,15.27-11.2,31.91-12.49,49.42c-0.27-3.61-0.4-7.24-0.4-10.92c0-14.75,2.17-28.99,6.2-42.43c0.09-0.29,0.17-0.56,0.26-0.84
		C27.09,45.75,83.21,1.9,149.57,1.9c74.59,0,136.22,55.38,146.05,127.26c0.07,0.4,0.13,0.8,0.17,1.21
		C296.59,136.58,297,142.9,297,149.33z"/>
	<path class="st5" d="M242.14,141.64c0.04,7.27,0,14.54-0.03,21.81c-0.01,0.84-0.01,1.57,1,1.91c0.36,0.11,0.81,0.56,0.84,0.88
		c0.23,2.24,1.08,4.48-0.61,6.61c-1.51,1.91-0.66,4.06-0.11,6.1c0.4,1.48,1.13,2.89,1.37,4.38c1.4,8.82,2.65,17.65,4.06,26.46
		c0.27,1.64-0.31,2.42-1.7,2.92c-4.01,1.45-8.18,1.51-12.34,1.1c-1.94-0.2-3.86-0.77-5.74-1.3c-1.18-0.33-1.57-1.17-1.37-2.48
		c1.51-9.44,2.92-18.9,4.39-28.35c0.1-0.63,0.31-1.25,0.58-1.81c1.31-2.65,1.65-5.2-0.07-7.87c-1.24-1.92-0.48-5.54,1.18-6.91
		c0.29-0.24,0.47-0.81,0.47-1.23c0.03-8.34,0.06-16.68,0.04-25.02c0-2.15-0.91-3.11-3.18-3.49c-10.23-1.7-20.45-3.36-30.69-5.03
		c-18.19-2.98-36.39-5.94-54.58-8.91c-2.05-0.34-4.11-0.7-6.17-1.03c-0.57-0.09-1.25-0.23-1.74,0c-0.76,0.36-1.77,0.87-1.98,1.55
		c-0.21,0.66,0.16,1.98,0.73,2.35c1.3,0.84,2.81,1.6,4.33,1.85c16.28,2.72,32.58,5.33,48.88,7.98c11.86,1.94,23.73,3.86,35.59,5.8
		c1.37,0.21,2.64,0.54,2.85,2.39c-0.48,0.14-0.93,0.31-1.37,0.38c-25.43,4.42-50.86,8.82-76.27,13.24
		c-10.01,1.74-20.01,3.44-30,5.25c-5,0.9-9.55,0.3-14.2-2.17c-30.38-16.18-60.84-32.16-91.27-48.19c0.95-2.17,1.98-4.29,3.05-6.39
		c17.38-1.5,34.77-2.94,52.14-4.4c15.81-1.34,31.63-2.71,47.44-4.05c13.33-1.13,26.64-2.22,39.95-3.34c0.9-0.09,1.82-0.1,2.71-0.29
		c7.57-1.54,14.45,1.25,21.47,3.29c36.2,10.55,72.4,21.11,108.59,31.71c0.43,1.34,0.83,2.68,1.2,4.03
		c-15.92,2.81-31.83,5.57-47.76,8.31C242.56,139.94,242.12,140.34,242.14,141.64z M74.3,151.15c0.01,10.32,0.13,20.63-0.04,30.95
		c-0.07,4.26,1.56,7.49,5,9.58c3.35,2.04,6.91,3.9,10.6,5.17c12.95,4.45,26.48,5.75,40.05,6.49c13.52,0.74,27.03,0.37,40.5-1.18
		c8.93-1.03,17.78-2.5,26.3-5.48c4.05-1.41,7.96-3.13,11.24-6c2.47-2.17,3.7-4.81,3.66-8.17c-0.09-9.62-0.04-19.24-0.04-28.86
		c0-0.57,0-1.13,0-1.9c-3.86,0.67-7.48,1.3-11.09,1.93c-26.26,4.57-52.52,9.11-78.77,13.74c-6.49,1.15-12.5,0.6-18.4-2.74
		c-8.64-4.9-17.54-9.34-26.33-13.98c-0.79-0.42-1.59-0.81-2.69-1.38C74.3,150.2,74.3,150.67,74.3,151.15z"/>
</g>
<g id="Layer_4">
</g>
<g id="Layer_5">
</g>
<g id="Layer_6">
</g>
<g id="Layer_7">
</g>
<g id="Layer_8">
</g>
<g id="Layer_9">
</g>
<g id="Layer_10">
</g>
<g id="Layer_11">
</g>
<g id="Layer_12">
</g>
<g id="Layer_13">
</g>
<g id="Layer_14">
</g>
<g id="Layer_15">
</g>
<g id="Layer_16">
</g>
<g id="Layer_17">
</g>
<g id="Layer_18">
</g>
<g id="Layer_19">
</g>
<g id="Layer_20">
</g>
<g id="Layer_21">
</g>
<g id="Layer_22">
</g>
<g id="Layer_23">
</g>
<g id="Layer_24">
</g>
<g id="Layer_25">
</g>
<g id="Layer_26">
</g>
<g id="Layer_27">
</g>
<g id="Layer_28">
</g>
<g id="Layer_29">
</g>
<g id="Layer_30">
</g>
</svg>
