<?xml version="1.0" encoding="utf-8"?>
<!-- Generator: Adobe Illustrator 27.8.1, SVG Export Plug-In . SVG Version: 6.00 Build 0)  -->
<svg version="1.1" xmlns="http://www.w3.org/2000/svg" xmlns:xlink="http://www.w3.org/1999/xlink" x="0px" y="0px"
	 viewBox="0 0 182 297" style="enable-background:new 0 0 182 297;" xml:space="preserve">
<style type="text/css">
	.st0{fill:#FF7F00;}
	.st1{fill:#893700;}
	.st2{fill:#29ABE2;}
	.st3{fill:#F2C0AA;}
	.st4{fill:#1C75BC;}
	.st5{fill:#FFC200;}
	.st6{fill:#911717;}
	.st7{fill:#C1272D;}
	.st8{fill:#F7931E;}
	.st9{fill:#2D828E;}
	.st10{fill:#93BC20;}
	.st11{fill:#017F6A;}
	.st12{fill:#0FB287;}
	.st13{fill:#C4C400;}
	.st14{fill:#CC781D;}
	.st15{fill:#FF5500;}
	.st16{fill:#FF855A;}
	.st17{fill:#FFFFFF;}
	.st18{fill:#045B96;}
	.st19{fill:#A97C50;}
	.st20{fill:#F15A29;}
	.st21{fill:#FF9D00;}
	.st22{fill:#BE1E2D;}
	.st23{fill:#00406B;}
	.st24{fill:#005E2A;}
	.st25{fill:#35A061;}
	.st26{fill:#231F20;}
	.st27{fill:#09578C;}
	.st28{fill:#3B9FE2;}
	.st29{fill:#F72B60;}
	.st30{fill:#A00032;}
	.st31{fill:#1A3A1D;}
	.st32{fill:#009245;}
	.st33{fill:#159E4C;}
</style>
<g id="Layer_1">
</g>
<g id="Layer_2">
</g>
<g id="Layer_3">
</g>
<g id="Layer_4">
</g>
<g id="Layer_5">
</g>
<g id="Layer_6">
	<path class="st9" d="M166.02,290.63c-2.73,1.11-5.58,3.41-8.18,3.15c-43.09-4.33-83.07-41.53-93.69-86.79
		c-10.49-44.7,8.85-95.12,45.41-118.32c0.27-0.17,0.67-0.13,1.17-0.21c2.26,5.5,3.61,11.75,7.09,16.4
		c3.56,4.75,9.22,7.92,14.55,12.27c-34.17,28.76-48.73,65.35-35.29,109.73c9.82,32.44,31.9,54.24,64.67,64.5
		C163.16,291.11,164.59,290.87,166.02,290.63z M138.48,68.49c-10.99,0.37-20.51,9.95-20.57,20.71
		c-0.07,11.57,9.43,20.99,21.11,20.96c11.82-0.03,21.08-9.32,20.99-21.03C159.92,77.76,149.85,68.11,138.48,68.49z"/>
	<path class="st10" d="M139.48,293.84c-52.17,5.52-115.71-44.77-133.05-105.3c-17.54-61.22,10.64-137.75,60.2-161.6
		c0.74,18.63,10.22,30.8,28.09,36.59C7.15,126.99,29.97,263.94,139.48,293.84z M180.31,295c-48.13-21.16-61.08-80.55-18.98-116.85
		c-4.83-6.27-9.6-12.47-14.41-18.71c-42.99,28.16-41.82,95.34,2.95,123.87c4.03,2.57,7.92,5.35,11.87,8.04
		c1.43-0.24,2.85-0.48,4.28-0.72C170.78,292.09,175.54,293.54,180.31,295z M101.21,2C86.55,2.04,74.06,14.51,73.99,29.19
		c-0.07,14.92,11.84,26.99,26.93,27.28c15.01,0.29,27.29-11.54,27.49-26.49C128.61,14.34,116.58,1.96,101.21,2z M167.08,145.32
		c-7.77-0.14-14.49,6.83-14.11,14.63c0.36,7.4,7.02,13.64,14.32,13.41c7.47-0.24,13.75-6.71,13.66-14.08
		C180.86,151.97,174.39,145.45,167.08,145.32z"/>
</g>
<g id="Layer_7">
</g>
<g id="Layer_8">
</g>
<g id="Layer_9">
</g>
<g id="Layer_10">
</g>
<g id="Layer_11">
</g>
<g id="Layer_12">
</g>
<g id="Layer_13">
</g>
<g id="Layer_14">
</g>
<g id="Layer_15">
</g>
<g id="Layer_16">
</g>
<g id="Layer_17">
</g>
<g id="Layer_18">
</g>
<g id="Layer_19">
</g>
<g id="Layer_20">
</g>
<g id="Layer_21">
</g>
<g id="Layer_22">
</g>
<g id="Layer_23">
</g>
<g id="Layer_24">
</g>
<g id="Layer_25">
</g>
<g id="Layer_26">
</g>
<g id="Layer_27">
</g>
<g id="Layer_28">
</g>
<g id="Layer_29">
</g>
<g id="Layer_30">
</g>
</svg>
