<?xml version="1.0" encoding="utf-8"?>
<!-- Generator: Adobe Illustrator 27.8.1, SVG Export Plug-In . SVG Version: 6.00 Build 0)  -->
<svg version="1.1" xmlns="http://www.w3.org/2000/svg" xmlns:xlink="http://www.w3.org/1999/xlink" x="0px" y="0px"
	 viewBox="0 0 300 207" style="enable-background:new 0 0 300 207;" xml:space="preserve">
<style type="text/css">
	.st0{fill:#FF7F00;}
	.st1{fill:#893700;}
	.st2{fill:#29ABE2;}
	.st3{fill:#F2C0AA;}
	.st4{fill:#1C75BC;}
	.st5{fill:#FFC200;}
	.st6{fill:#911717;}
	.st7{fill:#C1272D;}
	.st8{fill:#F7931E;}
	.st9{fill:#2D828E;}
	.st10{fill:#93BC20;}
	.st11{fill:#017F6A;}
	.st12{fill:#0FB287;}
	.st13{fill:#C4C400;}
	.st14{fill:#CC781D;}
	.st15{fill:#FF5500;}
	.st16{fill:#FF855A;}
	.st17{fill:#FFFFFF;}
	.st18{fill:#045B96;}
	.st19{fill:#A97C50;}
	.st20{fill:#F15A29;}
	.st21{fill:#FF9D00;}
	.st22{fill:#BE1E2D;}
	.st23{fill:#00406B;}
	.st24{fill:#005E2A;}
	.st25{fill:#35A061;}
	.st26{fill:#231F20;}
	.st27{fill:#09578C;}
	.st28{fill:#3B9FE2;}
	.st29{fill:#F72B60;}
	.st30{fill:#A00032;}
	.st31{fill:#1A3A1D;}
	.st32{fill:#009245;}
	.st33{fill:#159E4C;}
</style>
<g id="Layer_1">
</g>
<g id="Layer_2">
</g>
<g id="Layer_3">
</g>
<g id="Layer_4">
</g>
<g id="Layer_5">
</g>
<g id="Layer_6">
</g>
<g id="Layer_7">
	<path class="st11" d="M297.02,40.07c-1.35,13.05-2.77,26.1-3.98,39.16c-2.55,27.53-5.11,55.07-7.34,82.63
		c-0.43,5.28-3.45,4.67-6.94,4.98c-20.41,1.82-40.94,3-61.18,6.01c-15.26,2.27-29.27,8.49-42.61,17.63c-2.48,1.7-5.9-0.04-5.92-3.05
		c0-0.02,0-0.04,0-0.06c-0.04-39.43,0.07-78.86-0.16-118.28c-0.03-5.39,1.74-8.39,6.49-10.85c24.41-12.68,50.65-19.18,77.56-23.36
		c11.35-1.76,22.83-2.71,34.28-3.73c0.55-0.05,1.11-0.07,1.66-0.07C292.22,34.77,293.68,36.38,297.02,40.07z M4.31,40.45
		c3.53,39.76,7.16,79.52,10.31,119.31c0.47,5.97,2.49,7.12,7.99,7.25c14.92,0.37,29.92,0.63,44.69,2.54
		c20.37,2.63,39.87,8.26,57.82,20.61c2.59,1.78,6.12-0.03,6.12-3.18c0-0.54,0-1.06,0-1.59c0.01-37.25-0.39-74.52,0.3-111.76
		c0.17-9.4-3.04-14.06-11.02-17.96C89.84,40.7,59.06,34.63,25.46,31.87C19.98,31.42,16.52,31.88,11,32L4.31,40.45z M140.93,116.12
		c-0.01,14.24-0.08,28.58,0.05,42.92c0.06,5.96,4.72,7.53,9.2,6.82c3.18-0.51,8.46-3.35,8.55-5.34c0.65-14.8,0.44-29.63,0.4-44.4
		c-0.01-2.09-1.7-3.78-3.79-3.78h-10.63C142.63,112.34,140.93,114.03,140.93,116.12z M141.1,178.57c-0.04,6.57-0.16,13.47,0.1,20.35
		c0.19,5.04,3.87,7.84,8.4,6.89c3.41-0.72,8.7-3.5,9.03-5.92c0.96-7.04,0.6-14.27,0.47-21.37c-0.04-2.06-1.72-3.71-3.78-3.71h-10.42
		C142.81,174.81,141.12,176.49,141.1,178.57z M141.04,96.03c0.79,2.69,1.58,5.06,3.16,5.85c3.37,1.69,9.06,1.6,12.3-0.26
		c1.49-0.85,2.05-3.34,2.53-5.98c0.42-2.33-1.35-4.48-3.72-4.48h-10.63C142.15,91.17,140.33,93.6,141.04,96.03z M141.23,75.32
		c0.58,2.22,1.28,4.23,2.63,4.87c3.6,1.69,9.07,1.43,12.85-0.14c1.16-0.48,1.7-2.45,2.1-4.54c0.43-2.26-1.26-4.37-3.55-4.48
		c-3.5-0.16-6.75-0.32-10.19-0.48C142.5,70.43,140.58,72.84,141.23,75.32z"/>
	<path class="st12" d="M27.42,1.3c28.08,8.36,55.72,16.41,83.24,24.87c14.75,4.53,26.58,13.11,34.06,27.39
		c-11.78-5.66-22.88-12.43-34.89-16.44c-21.97-7.34-44.49-13.05-66.77-19.46c-3.05-0.88-6.06-1.89-9.09-2.83
		C24.45,11.88,24.28,11.54,27.42,1.3z M240.69,11.44c-19.62,6.02-39.45,11.37-58.89,17.91c-12.03,4.05-21.19,12.29-27.23,24.26
		c12.72-5.96,24.38-12.86,36.96-17.01c24.12-7.96,48.78-14.31,73.18-21.44c9.9-2.89,9.86-3.02,7.23-13.91
		C261.5,4.67,251.15,8.23,240.69,11.44z M28.94,17.92c-4.89-1.9-9.3-3.61-13.87-5.38C14.42,19.45,17.52,20.6,28.94,17.92z
		 M292.71,12.53c-4.57,1.77-8.97,3.48-13.87,5.38C290.25,20.6,293.35,19.45,292.71,12.53z"/>
</g>
<g id="Layer_8">
</g>
<g id="Layer_9">
</g>
<g id="Layer_10">
</g>
<g id="Layer_11">
</g>
<g id="Layer_12">
</g>
<g id="Layer_13">
</g>
<g id="Layer_14">
</g>
<g id="Layer_15">
</g>
<g id="Layer_16">
</g>
<g id="Layer_17">
</g>
<g id="Layer_18">
</g>
<g id="Layer_19">
</g>
<g id="Layer_20">
</g>
<g id="Layer_21">
</g>
<g id="Layer_22">
</g>
<g id="Layer_23">
</g>
<g id="Layer_24">
</g>
<g id="Layer_25">
</g>
<g id="Layer_26">
</g>
<g id="Layer_27">
</g>
<g id="Layer_28">
</g>
<g id="Layer_29">
</g>
<g id="Layer_30">
</g>
</svg>
