<?xml version="1.0" encoding="utf-8"?>
<!-- Generator: Adobe Illustrator 27.8.1, SVG Export Plug-In . SVG Version: 6.00 Build 0)  -->
<svg version="1.1" xmlns="http://www.w3.org/2000/svg" xmlns:xlink="http://www.w3.org/1999/xlink" x="0px" y="0px"
	 viewBox="0 0 300 234.5" style="enable-background:new 0 0 300 234.5;" xml:space="preserve">
<style type="text/css">
	.st0{fill:#FF7F00;}
	.st1{fill:#893700;}
	.st2{fill:#29ABE2;}
	.st3{fill:#F2C0AA;}
	.st4{fill:#1C75BC;}
	.st5{fill:#FFC200;}
	.st6{fill:#911717;}
	.st7{fill:#C1272D;}
	.st8{fill:#F7931E;}
	.st9{fill:#2D828E;}
	.st10{fill:#93BC20;}
	.st11{fill:#017F6A;}
	.st12{fill:#0FB287;}
	.st13{fill:#C4C400;}
	.st14{fill:#CC781D;}
	.st15{fill:#FF5500;}
	.st16{fill:#FF855A;}
	.st17{fill:#FFFFFF;}
	.st18{fill:#045B96;}
	.st19{fill:#A97C50;}
	.st20{fill:#F15A29;}
	.st21{fill:#FF9D00;}
	.st22{fill:#BE1E2D;}
	.st23{fill:#00406B;}
	.st24{fill:#005E2A;}
	.st25{fill:#35A061;}
	.st26{fill:#231F20;}
	.st27{fill:#09578C;}
	.st28{fill:#3B9FE2;}
	.st29{fill:#F72B60;}
	.st30{fill:#A00032;}
	.st31{fill:#1A3A1D;}
	.st32{fill:#009245;}
	.st33{fill:#159E4C;}
</style>
<g id="Layer_1">
</g>
<g id="Layer_2">
</g>
<g id="Layer_3">
</g>
<g id="Layer_4">
	<path class="st5" d="M51.37,182.45c-16.1-29.31-1.08-83.93,28.89-109.99c35.9-31.2,92.34-36.46,133.35-4.68
		c42.52,32.95,47.51,83.14,35.11,114.31c-0.43-2.19-0.49-4.33-1.31-6.13c-0.84-1.84-2.24-4.53-3.71-4.76
		c-4.97-0.76-3.79-3.75-3.44-6.86c3.39-30.49-5.7-56.59-28.07-77.69C159.84,37.28,79.9,65.2,61.82,128.88
		c-3.46,12.18-3.96,24.59-2.22,37.09c0.37,2.64,0.08,4.08-2.96,4.9C52.63,171.94,51.26,175.36,51.37,182.45z"/>
	<path class="st6" d="M150.05,233c-3.31-4.51-6.02-9.5-9.92-13.25c-8.24-7.91-16.96-15.34-25.81-22.57c-2.45-2-3.3-3.57-2.03-6.27
		c3.12-6.63,6.24-13.26,9.48-19.83c0.65-1.32,1.83-2.38,3.2-4.09c6.08,9.44,13.91,14.86,25.05,14.69
		c11.09-0.18,19.14-5.17,24.83-14.96c6.45,8,10.58,16.74,12.98,26.27c0.27,1.08-1.43,3.17-2.72,4.06
		c-11.42,7.83-21.8,16.72-29.85,28.09C153.47,227.68,151.82,230.32,150.05,233z"/>
	<path class="st6" d="M95.48,102.42c17.39-5.59,34.76-11.2,52.18-16.69c1.35-0.42,3.1-0.22,4.49,0.22
		c16.19,5.15,32.34,10.44,48.53,15.58c2.78,0.88,3.84,2.24,3.47,5.23c-0.38,3.08-0.11,6.23-0.22,9.35
		c-0.11,3.07,0.34,5.61,2.94,7.94c1.3,1.16,1.51,4.06,1.41,6.13c-0.16,3.31-1.23,6.57-1.49,9.89c-0.38,4.75-2.14,6.88-6.27,6.83
		c-3.74-0.05-5.1-1.84-5.55-6.52c-0.35-3.62-1.52-7.2-1.53-10.8c-0.01-2.11,0.97-4.97,2.53-6.16c2.64-2.03,3.37-4.17,3.19-7.25
		c-0.21-3.64-0.05-7.29-0.05-11.51c-2.02,0.59-3.5,0.95-4.93,1.44c-12.85,4.45-25.74,8.79-38.5,13.46
		c-4.24,1.55-7.95,1.58-12.26,0.06c-14.41-5.11-28.98-9.78-43.48-14.63c-1.45-0.49-2.87-1.07-4.3-1.61
		C95.58,103.05,95.53,102.74,95.48,102.42z"/>
	<path class="st6" d="M123.79,128.91c8.38,3.01,15.21,5.7,22.21,7.85c2.35,0.72,5.3,0.67,7.67-0.05c5.95-1.81,11.78-4.05,17.53-6.41
		c3.08-1.26,3.96-0.47,4.19,2.68c0.95,13.08-8.62,24-23.18,26.23c-11.92,1.82-24.52-6.94-27.32-19.24
		C124.17,136.79,124.22,133.42,123.79,128.91z"/>
	<path class="st6" d="M122.13,117.9c5.93,2.18,11.72,4.02,17.27,6.44c6.79,2.97,13.3,3.02,20.12,0.1c5.68-2.43,11.6-4.32,17.42-6.46
		c1.68,2.74,0.84,4.04-1.48,4.86c-7.87,2.78-15.69,5.71-23.61,8.33c-1.6,0.53-3.71,0.39-5.34-0.16c-7.5-2.54-14.89-5.4-22.37-8
		C121.83,122.21,120.74,121.13,122.13,117.9z"/>
	<path class="st0" d="M151.33,1c0.18,9.14,0.39,18.29,0.52,27.43c0.03,2.11-0.07,4.25-0.37,6.34c-0.1,0.72-0.97,1.34-1.5,2
		c-0.58-0.67-1.26-1.27-1.69-2.02c-0.25-0.44-0.12-1.1-0.13-1.67c-0.05-9.32-0.12-18.64-0.1-27.96c0-1.37,0.46-2.75,0.7-4.12
		C149.63,1,150.48,1,151.33,1z M297.81,155.15c-0.87-0.42-1.74-1.19-2.62-1.21c-10.03-0.16-20.06-0.23-30.1-0.2
		c-0.72,0-1.44,0.94-2.16,1.44c0.81,0.58,1.58,1.57,2.44,1.67c3.93,0.43,7.89,0.86,11.83,0.81c6.87-0.09,13.73-0.52,20.6-0.81
		C297.81,156.28,297.81,155.72,297.81,155.15z M53.31,89.28c-0.76-0.69-1.43-1.55-2.3-2.03c-8.78-4.8-17.57-9.59-26.45-14.2
		c-1.05-0.55-2.69,0.04-4.05,0.1c0.68,1.09,1.11,2.64,2.09,3.18c9.01,4.95,18.1,9.78,27.24,14.49c0.81,0.42,2.14-0.18,3.24-0.31
		C53.15,90.11,53.23,89.69,53.31,89.28z M279.19,72.73c-1.4,0.1-3.02-0.24-4.16,0.36c-8.66,4.51-17.25,9.14-25.77,13.91
		c-1.05,0.59-1.53,2.22-2.27,3.37c1.26-0.03,2.75,0.35,3.76-0.17c8.93-4.6,17.78-9.34,26.62-14.1c0.79-0.43,1.38-1.25,2.06-1.89
		C279.35,73.71,279.27,73.22,279.19,72.73z M5.54,153.96c-1.14,0.04-2.24,1.07-3.36,1.64c1.12,0.73,2.25,2.11,3.37,2.1
		c9.46-0.09,18.91-0.39,28.36-0.77c0.93-0.04,1.82-1.09,2.73-1.67c-0.9-0.46-1.79-1.3-2.71-1.33c-4.66-0.14-9.32-0.06-13.99-0.06
		C15.15,153.88,10.34,153.77,5.54,153.96z M75.42,20.8c0.09,1.43-0.3,3.16,0.35,4.25c4.86,8.11,9.88,16.12,14.97,24.08
		c0.63,0.99,1.99,1.51,3.02,2.25c-0.03-1.37,0.44-3.03-0.17-4.06c-4.84-8.29-9.87-16.46-14.86-24.66c-0.5-0.83-1.07-1.62-1.61-2.42
		C76.55,20.43,75.98,20.61,75.42,20.8z M223.95,20.88c-1.04,0.51-2.3,1.08-2.86,2c-4.96,8.24-9.84,16.53-14.6,24.89
		c-0.56,0.98-0.23,2.48-0.31,3.73c1.04-0.71,2.45-1.18,3.07-2.16c4.9-7.77,9.67-15.63,14.44-23.48c0.58-0.96,0.98-2.04,1.59-3.34
		C224.86,22,224.1,20.81,223.95,20.88z M118.92,39.36c0.16,0.52,1.24,0.75,1.89,1.11c0.27-0.99,0.97-2.1,0.75-2.96
		c-2.57-9.67-5.26-19.32-8.03-28.94c-0.22-0.75-1.26-1.27-1.91-1.89c-0.6,0.76-1.2,1.53-1.94,2.46
		C112.8,19.43,115.81,29.41,118.92,39.36z M181.03,41.06c2.93-10.56,5.91-21.12,8.72-31.71c0.21-0.79-0.75-1.89-1.16-2.84
		c-0.79,0.81-2.04,1.49-2.31,2.45c-2.67,9.38-5.22,18.8-7.67,28.24c-0.3,1.17,0.24,2.56,0.38,3.84
		C179.67,41.05,180.35,41.06,181.03,41.06z M35.25,127.22c1.1-0.31,2.18-0.71,3.27-1.08c-1.04-0.63-2.02-1.67-3.13-1.83
		c-8.66-1.22-17.34-2.33-26.03-3.29c-0.89-0.1-1.91,0.92-2.87,1.43c0.88,0.7,1.7,1.9,2.66,2.02c8.26,1.04,16.55,1.89,24.6,2.77
		C34.4,127.23,34.86,127.33,35.25,127.22z M261.35,127.17c1.63,0,3.27,0.14,4.89-0.02c7.72-0.81,15.44-1.61,23.13-2.64
		c1.36-0.18,2.57-1.46,3.85-2.23c-1.36-0.41-2.78-1.29-4.08-1.14c-8.41,0.94-16.8,2.08-25.19,3.24c-1.03,0.14-1.98,0.8-2.97,1.22
		C261.1,126.11,261.22,126.64,261.35,127.17z M279.35,101.11c0.54-0.2,0.76-1.28,1.13-1.95c-0.82-0.37-1.81-1.25-2.43-1.04
		c-6.96,2.35-13.88,4.82-20.75,7.39c-0.64,0.24-0.93,1.41-1.39,2.15c0.7,0.33,1.39,0.67,2.1,1.01
		C265.25,106.14,272.32,103.69,279.35,101.11z M42.8,105.77c-7-2.66-14.03-5.25-21.11-7.71c-0.68-0.24-1.7,0.48-2.56,0.76
		c0.54,0.85,0.9,2.2,1.65,2.47c6.92,2.49,13.89,4.82,20.88,7.11c0.65,0.21,1.51-0.2,2.78-0.4C43.72,106.96,43.4,106,42.8,105.77z
		 M161.34,36.39c0.89-6.84,1.74-13.69,2.44-20.55c0.06-0.62-1.03-1.35-1.59-2.03c-0.54,0.7-1.45,1.35-1.56,2.12
		c-0.83,6-1.57,12.02-2.19,18.05c-0.11,1.11,0.43,2.28,0.86,4.29C160.59,37.11,161.29,36.79,161.34,36.39z M137.12,13.77
		c-0.31,1.12-0.97,2.27-0.87,3.35c0.57,5.91,1.26,11.82,2.08,17.7c0.12,0.85,1.14,1.58,1.75,2.37c0.41-0.92,1.24-1.87,1.17-2.76
		c-0.47-6.21-1.1-12.4-1.77-18.59c-0.08-0.72-0.75-1.38-1.15-2.06C137.92,13.77,137.52,13.77,137.12,13.77z M186.98,44.02
		c5.11-1.54,11.71-19.18,8.41-22.81C192.69,28.53,189.99,35.85,186.98,44.02z M62.91,45.71c0.59,1.17,0.98,2.52,1.81,3.48
		c3.42,3.98,6.91,7.89,10.53,11.69c0.66,0.7,2.04,0.72,3.09,1.05c-0.23-1.11-0.12-2.5-0.76-3.28c-3.41-4.16-6.96-8.21-10.57-12.21
		c-0.74-0.81-1.94-1.21-2.92-1.8C63.68,44.99,63.29,45.35,62.91,45.71z M86.48,55.16c-4.14-5.84-8.36-11.64-12.65-17.37
		c-0.22-0.29-1.45-0.2-1.84,0.14c-0.37,0.32-0.59,1.43-0.32,1.79c4.31,5.86,8.7,11.65,13.39,17.89
		C85.87,56.25,86.64,55.38,86.48,55.16z M260.34,174.23c0.34,0.41,0.61,1.08,1.02,1.19c6.82,1.75,13.65,3.47,20.52,5.04
		c0.61,0.14,1.47-0.88,2.22-1.35c-0.61-0.64-1.12-1.68-1.85-1.86c-5.61-1.39-11.24-2.67-16.9-3.86c-1.52-0.32-3.14-0.2-4.71-0.28
		C260.54,173.48,260.44,173.86,260.34,174.23z M38.7,172.51c-6.79,1.53-13.59,2.99-20.34,4.66c-0.92,0.23-1.58,1.47-2.36,2.24
		c1.1,0.29,2.3,1,3.3,0.79c5.8-1.22,11.56-2.59,17.3-4.08c1.03-0.27,1.85-1.31,2.77-1.99C39.14,173.58,38.92,173.05,38.7,172.51z
		 M70.98,68.69c-0.17-1.12,0.06-2.62-0.58-3.29c-3.79-4-7.75-7.84-11.76-11.62c-0.56-0.53-1.71-0.44-2.59-0.64
		c0.02,1.01-0.4,2.44,0.11,2.95c4.44,4.48,9.05,8.79,13.61,13.15C70.18,69.05,70.58,68.87,70.98,68.69z M216.05,56.13
		c4.2-5.46,8.4-10.93,12.5-16.47c0.23-0.31-0.13-1.43-0.54-1.74c-0.42-0.31-1.6-0.35-1.83-0.05c-4.23,5.6-8.4,11.26-12.47,16.99
		c-0.2,0.28,0.59,1.26,0.95,1.97C215.33,56.5,215.83,56.42,216.05,56.13z M174.12,15.9c-0.69,0.78-1.8,1.46-2,2.35
		c-1.33,5.9-2.52,11.83-3.6,17.79c-0.13,0.73,0.64,1.63,1,2.45c0.73-0.66,1.92-1.2,2.12-2c0.91-3.54,1.6-7.14,2.27-10.73
		c0.58-3.08,1.03-6.18,1.54-9.27C175.01,16.29,174.57,16.09,174.12,15.9z M223,63.25c4.39-4.94,8.82-9.85,13.11-14.88
		c0.53-0.62,0.24-1.94,0.33-2.93c-0.96,0.26-2.25,0.21-2.81,0.83c-3.83,4.17-7.58,8.42-11.19,12.79c-0.7,0.85-0.66,2.3-0.95,3.48
		C221.99,62.77,222.49,63.01,223,63.25z M112.11,42.72c-2.36-6.62-4.71-13.24-7.2-19.81c-0.18-0.47-1.38-0.56-2.1-0.83
		c-0.2,0.98-0.84,2.13-0.53,2.9c2.28,5.79,4.72,11.52,7.2,17.24c0.28,0.64,1.07,1.05,1.9,1.83
		C111.86,43.2,112.17,42.89,112.11,42.72z M103.88,46.18c-3.09-6.2-6.16-12.4-9.33-18.56c-0.19-0.38-1.35-0.62-1.79-0.4
		c-0.44,0.22-0.91,1.31-0.72,1.69c3.02,6.02,6.13,12,9.27,17.96c0.1,0.19,0.76,0.09,1.16,0.13
		C102.93,46.72,103.4,46.45,103.88,46.18z M125.04,18.61c1.03,6.1,2.15,12.19,3.41,18.24c0.13,0.63,1.33,1.04,2.03,1.56
		c0.32-0.82,1.03-1.71,0.9-2.46c-0.97-5.97-2.04-11.92-3.22-17.85c-0.15-0.77-1.03-1.41-2.05-2.71
		C125.57,16.95,124.91,17.85,125.04,18.61z M229.94,69.11c0.55-0.39,1.15-0.71,1.64-1.17c4-3.76,8.04-7.47,11.9-11.36
		c0.67-0.67,0.58-2.08,0.84-3.15c-1.09,0.25-2.5,0.15-3.2,0.81c-3.78,3.57-7.43,7.28-11,11.07c-0.75,0.8-0.94,2.12-1.39,3.2
		C229.13,68.71,229.53,68.91,229.94,69.11z M252.03,61.61c-4.71-0.23-7.22,4.18-10.52,6.6c-6.12,4.49-6.03,4.76-4.85,8.09
		c5.5-4.34,10.85-8.56,16.19-12.78C252.58,62.89,252.31,62.25,252.03,61.61z M206.18,26.38c-2.94,5.87-5.94,11.71-8.74,17.65
		c-0.39,0.83,0.18,2.12,0.3,3.2c0.92-0.64,2.22-1.07,2.69-1.95c2.57-4.85,5.02-9.78,7.31-14.77c0.5-1.1,0.21-2.56,0.28-3.86
		C207.4,26.56,206.79,26.47,206.18,26.38z M63.72,72.86c-4.43-3.69-8.86-7.38-13.37-10.96c-0.47-0.37-1.48-0.06-2.24-0.07
		c0.07,0.89-0.22,2.21,0.26,2.61c4.42,3.69,8.94,7.26,13.54,10.73c0.53,0.4,1.7-0.07,3.17-0.18C64.31,73.75,64.11,73.19,63.72,72.86
		z M258.39,70.12c-4.39,0.69-16.09,9.36-16.73,12.69C247.74,81.97,258.58,73.6,258.39,70.12z M58.83,81.1
		c-5.13-3.64-10.22-7.33-15.43-10.86c-0.5-0.34-1.69,0.33-2.56,0.53c0.26,0.74,0.28,1.79,0.8,2.16c4.74,3.34,9.54,6.59,14.39,9.75
		c0.48,0.31,1.46-0.13,2.2-0.23C58.44,82,58.63,81.55,58.83,81.1z M268.87,89.68c-5.06,2.22-10.15,4.38-15.15,6.72
		c-0.78,0.36-1.18,1.54-1.76,2.34c0.99,0.15,2.13,0.69,2.94,0.38c4.35-1.65,8.65-3.43,12.88-5.35c0.92-0.42,1.5-1.58,2.24-2.4
		C269.64,90.81,269.25,90.25,268.87,89.68z M21.04,113.32c6.91,1.73,13.09,3.28,19.76,4.95C39.55,113.58,24.98,109.73,21.04,113.32z
		 M47.3,97.2c-4.94-2.33-9.89-4.62-14.9-6.79c-0.52-0.23-1.42,0.41-2.14,0.65c0.38,0.8,0.56,2.03,1.17,2.32
		c4.84,2.24,9.74,4.34,14.68,6.34c0.5,0.2,1.37-0.53,2.26-0.9C47.9,98.07,47.72,97.4,47.3,97.2z M259.39,117.36
		c5.63-1.12,11.26-2.27,16.86-3.54c0.36-0.08,0.81-1.24,0.66-1.72c-0.14-0.47-1.1-1.12-1.53-1.01c-5.65,1.37-11.27,2.86-17.35,4.44
		C258.93,116.76,259.23,117.39,259.39,117.36z M271.96,146.76c2.12,0,4.26,0.14,6.36-0.07c0.77-0.08,1.46-0.96,2.19-1.48
		c-0.66-0.57-1.31-1.62-1.99-1.64c-4.38-0.12-8.77-0.09-13.15,0.09c-0.67,0.03-1.3,1.08-1.95,1.65c0.72,0.5,1.41,1.36,2.18,1.44
		c2.1,0.2,4.24,0.07,6.36,0.07C271.96,146.8,271.96,146.78,271.96,146.76z M34.65,146.7c0.6-0.04,1.14-0.95,1.7-1.46
		c-0.54-0.5-1.07-1.4-1.63-1.43c-4.51-0.2-9.02-0.31-13.53-0.25c-0.68,0.01-1.36,1.01-2.03,1.55c0.65,0.55,1.26,1.51,1.96,1.58
		c2.09,0.21,4.22,0.08,6.34,0.08C29.85,146.77,32.26,146.87,34.65,146.7z M262.2,165.19c3.88,2.97,15.33,4.28,17.94,1.74
		C274.77,164.38,264.15,163.42,262.2,165.19z M19.3,135.93c5.43,0.35,10.86,0.74,16.29,0.96c0.47,0.02,0.98-1.12,1.47-1.72
		c-0.63-0.46-1.22-1.27-1.88-1.32c-4.63-0.36-9.27-0.61-13.91-0.76c-0.66-0.02-1.35,0.66-2.02,1.01
		C19.27,134.71,19.28,135.32,19.3,135.93z M19.8,168.32c5.52,1.23,10.87-0.74,16.23-1.91c0.61-0.13,0.97-1.35,2.13-3.09
		c-7.07,1.15-12.76,2.07-18.46,3C19.74,166.98,19.77,167.65,19.8,168.32z M279.94,134.14c-5.47,0.08-10.94,0.17-16.4,0.35
		c-0.25,0.01-0.77,1.06-0.63,1.31c0.3,0.53,0.99,1.22,1.48,1.19c5.24-0.34,10.47-0.8,15.94-1.25
		C280.01,134.39,279.97,134.14,279.94,134.14z"/>
</g>
<g id="Layer_5">
</g>
<g id="Layer_6">
</g>
<g id="Layer_7">
</g>
<g id="Layer_8">
</g>
<g id="Layer_9">
</g>
<g id="Layer_10">
</g>
<g id="Layer_11">
</g>
<g id="Layer_12">
</g>
<g id="Layer_13">
</g>
<g id="Layer_14">
</g>
<g id="Layer_15">
</g>
<g id="Layer_16">
</g>
<g id="Layer_17">
</g>
<g id="Layer_18">
</g>
<g id="Layer_19">
</g>
<g id="Layer_20">
</g>
<g id="Layer_21">
</g>
<g id="Layer_22">
</g>
<g id="Layer_23">
</g>
<g id="Layer_24">
</g>
<g id="Layer_25">
</g>
<g id="Layer_26">
</g>
<g id="Layer_27">
</g>
<g id="Layer_28">
</g>
<g id="Layer_29">
</g>
<g id="Layer_30">
</g>
</svg>
