<?xml version="1.0" encoding="utf-8"?>
<!-- Generator: Adobe Illustrator 27.8.1, SVG Export Plug-In . SVG Version: 6.00 Build 0)  -->
<svg version="1.1" xmlns="http://www.w3.org/2000/svg" xmlns:xlink="http://www.w3.org/1999/xlink" x="0px" y="0px"
	 viewBox="0 0 300 300" style="enable-background:new 0 0 300 300;" xml:space="preserve">
<style type="text/css">
	.st0{fill:#FFD468;}
	.st1{fill:#FFFFFF;}
	.st2{fill:#303030;}
	.st3{fill:#007D54;}
	.st4{fill:#EE3631;}
	.st5{fill:#2B2B2B;}
	.st6{fill:#FFB000;}
	.st7{opacity:0.35;fill:#FFFFFF;}
	.st8{fill:#FF9CC4;}
	.st9{fill:#B79567;}
	.st10{fill:#D2E6FF;}
	.st11{fill:#5C87C6;}
	.st12{fill:#0E2F5E;}
	.st13{fill:#FCB040;}
	.st14{fill:#E09C05;}
	.st15{fill:#A8112B;}
	.st16{fill-rule:evenodd;clip-rule:evenodd;fill:#FEFEFE;}
	.st17{fill:#606060;}
	.st18{fill:#E0E0E0;}
	.st19{fill:#3DA1D8;}
	.st20{fill:#0C8EBC;}
	.st21{fill:#EFC6A3;}
	.st22{fill:#B0DFFF;}
	.st23{fill:#006284;}
	.st24{fill:#5B5B5B;}
	.st25{fill:#3A1801;}
	.st26{fill:#616D0B;}
	.st27{fill:#98B11F;}
	.st28{fill:#EACAB0;}
	.st29{fill:#442B18;}
	.st30{fill:#663412;}
	.st31{fill:#F5F5F5;}
	.st32{fill:#E386B3;}
	.st33{fill:#B5D6E8;}
	.st34{fill:#88C2E2;}
	.st35{fill:#CEF97A;}
	.st36{fill:#E07D46;}
	.st37{fill:#9FE8FF;}
	.st38{fill:#FF97C6;}
	.st39{fill:#FFB54A;}
	.st40{fill:#472A54;}
	.st41{fill:#F2CD9D;}
	.st42{fill:#4F2910;}
	.st43{fill:#8E630D;}
	.st44{fill:#784C3F;}
	.st45{fill:#D3974E;}
	.st46{fill:none;}
	.st47{fill:#4F361A;}
	.st48{fill-rule:evenodd;clip-rule:evenodd;fill:#561332;}
	.st49{fill-rule:evenodd;clip-rule:evenodd;fill:#F3CF9F;}
	.st50{fill-rule:evenodd;clip-rule:evenodd;fill:#FFF3DB;}
	.st51{fill-rule:evenodd;clip-rule:evenodd;fill:#D4AB74;}
	.st52{fill-rule:evenodd;clip-rule:evenodd;fill:#FFBBE8;}
	.st53{fill-rule:evenodd;clip-rule:evenodd;fill:#DB61A1;}
	.st54{fill-rule:evenodd;clip-rule:evenodd;fill:#FF8DCE;}
	.st55{fill:#D95E95;}
	.st56{fill:#F77EB4;}
	.st57{fill:#CCCCCC;}
	.st58{fill-rule:evenodd;clip-rule:evenodd;fill:#6E1C42;}
	.st59{fill-rule:evenodd;clip-rule:evenodd;fill:#852E57;}
	.st60{fill:#DEC210;}
	.st61{fill:#F7D917;}
	.st62{fill:#212121;}
	.st63{fill:#562F0E;}
	.st64{fill-rule:evenodd;clip-rule:evenodd;fill:#2B2B2B;}
	.st65{fill-rule:evenodd;clip-rule:evenodd;}
	.st66{fill:#F7931E;}
	.st67{fill:#754C24;}
	.st68{fill:#FEFEFE;}
	.st69{fill:#CFDFE8;}
	.st70{fill:#FECE9E;}
	.st71{fill:#F0433D;}
	.st72{fill:#FEA475;}
	.st73{fill:#FE8861;}
	.st74{fill:#D6251E;}
	.st75{fill:#C7221C;}
	.st76{fill:#8C8C8C;}
	.st77{fill:#A6A6A6;}
	.st78{fill:#593A1B;}
	.st79{fill:#60350F;}
	.st80{fill:#B0773B;}
	.st81{fill:#FFC28A;}
	.st82{fill:#F24140;}
	.st83{fill:#FFCFA0;}
	.st84{fill:#D39A72;}
	.st85{fill:#282828;}
	.st86{fill:#B4B7B9;}
	.st87{fill:#505052;}
	.st88{fill:#FF6258;stroke:#2A2728;stroke-width:1.5;stroke-linecap:round;stroke-linejoin:round;stroke-miterlimit:10;}
	.st89{fill:#00B47B;stroke:#2A2728;stroke-width:1.5;stroke-linecap:round;stroke-linejoin:round;stroke-miterlimit:10;}
	.st90{opacity:0.2;fill:#FFFFFF;}
	.st91{opacity:0.3;fill:#EF5047;}
	.st92{opacity:0.3;fill:#00A06D;}
	.st93{fill:none;stroke:#2A2728;stroke-width:1.5;stroke-linecap:round;stroke-linejoin:round;stroke-miterlimit:10;}
	.st94{fill:url(#SVGID_1_);}
	.st95{fill:#603813;}
	.st96{fill:#DD7904;}
	.st97{fill:url(#SVGID_00000162328770429867099090000004852254545056219041_);}
	.st98{fill:url(#SVGID_00000016036387947195331620000011098561679856845989_);}
	.st99{fill:url(#SVGID_00000080887839955403154460000014240219309484749440_);}
	.st100{fill:#462009;}
	.st101{opacity:0.29;fill:#FFFFFF;}
	.st102{fill:url(#SVGID_00000057854311298870003560000012548563330952321201_);}
	.st103{fill:url(#SVGID_00000085930183448976541540000001342055194141718681_);}
	.st104{fill:url(#SVGID_00000171705231158985751980000014827847646786586780_);}
	.st105{fill:url(#SVGID_00000109015392384817743870000002059741636615048872_);}
	.st106{fill:url(#SVGID_00000062152518959187529250000007483124635223506344_);}
	.st107{fill:url(#SVGID_00000028292286873078365280000006723180158485330063_);}
	.st108{fill:url(#SVGID_00000121973244112391145440000006600572822404641669_);}
	.st109{fill:url(#SVGID_00000129887070058859640710000010715239270357405335_);}
	.st110{fill:url(#SVGID_00000004504568227603849370000007498724464917416086_);}
	.st111{fill:url(#SVGID_00000067202192972199386050000014695109552170312102_);}
	.st112{fill:url(#SVGID_00000079479757115275825550000010879914347200959900_);}
	.st113{fill:url(#SVGID_00000169534591501907314810000009560291887920476569_);}
	.st114{fill:url(#SVGID_00000141446505473460372460000009606826097090518927_);}
	.st115{fill:#E84E36;}
	.st116{fill:#232323;}
	.st117{fill:#22661B;}
	.st118{fill:none;stroke:#37312B;stroke-width:6;stroke-linecap:round;stroke-linejoin:round;stroke-miterlimit:10;}
	.st119{fill:#37312B;}
	.st120{fill:#FAC952;}
	.st121{fill:none;stroke:#7B5714;stroke-width:2;stroke-linecap:round;stroke-linejoin:round;stroke-miterlimit:10;}
	.st122{fill:none;stroke:#1B1B1B;stroke-width:0.4535;stroke-linecap:round;stroke-linejoin:round;stroke-miterlimit:10;}
	.st123{fill:#EFA760;}
	.st124{fill:#63C8CC;}
	.st125{fill:#FFFBF2;}
	.st126{fill:#FFD2ED;}
	.st127{fill:#1B1B1B;}
	.st128{fill:#BBFFFF;}
	.st129{fill:#202044;}
	.st130{fill:#F05E61;}
	.st131{fill:#FEC96C;}
	.st132{fill:#BCA7D0;}
	.st133{fill:none;stroke:#4D5DAA;stroke-width:1.4;stroke-linecap:round;stroke-linejoin:round;stroke-miterlimit:10;}
	.st134{fill:none;stroke:#FEC96C;stroke-width:1.4;stroke-linecap:round;stroke-linejoin:round;stroke-miterlimit:10;}
	.st135{fill:none;stroke:#F05E61;stroke-width:1.4;stroke-linecap:round;stroke-linejoin:round;stroke-miterlimit:10;}
</style>
<g id="Layer_2">
</g>
<g id="Layer_3">
</g>
<g id="Layer_4">
</g>
<g id="Layer_5">
	<path class="st14" d="M140.33,159.22c-1.07-0.28-2.23-0.58-3.36-0.87c3.1-2.02,5.82-1.63,8.22,1.21c1.03,1.22,2.74,1.36,3.76,0.16
		c0.93-1.1,1.66-2.52,3.3-2.48c1.73,0.05,3.44,0.4,5.16,0.62c-0.01,0.16-0.01,0.31-0.02,0.47c-1.16,0.3-2.32,0.61-3.81,0.99
		c0.59,0.36,0.9,0.61,1.26,0.75c3.1,1.2,5.54,3.17,7.25,6.04c0.51,0.85,1.08,1.7,1.79,2.38c0.86,0.83,1.81,1.68,2.88,2.16
		c2.82,1.25,4.88-0.37,4.5-3.47c-0.14-1.13-0.5-2.22-0.77-3.35c4.19,1.95,4.69,7.27,1.01,10.22c-2.41,1.93-5.19,2.03-8.04,1.52
		c-5.4-0.97-10.36-3.1-15.04-5.89c-0.93-0.55-1.55-0.58-2.52-0.01c-4.73,2.81-9.74,4.99-15.19,5.92c-3.55,0.61-6.88,0.25-9.2-3.01
		c-2.22-3.12-1.12-7.32,2.11-8.63c-0.16,1.44-0.5,2.96-0.44,4.46c0.08,2.15,1.7,3.29,3.67,2.44c1.5-0.65,2.88-1.78,4.05-2.96
		c1.19-1.21,1.85-2.96,3.1-4.07C135.91,162.13,138.13,160.79,140.33,159.22z M180.02,157.45c-0.34,1.15-0.69,2.3-1.02,3.45
		c-2.18,7.44-4.56,14.79-9.09,21.21c-2.2,3.12-4.74,5.91-7.85,8.08c-0.55-2.03-1.06-3.94-1.58-5.85c-0.17-0.04-0.33-0.07-0.5-0.11
		c-1.6,7.69-5.52,12.66-14.01,12.06c-7.42-0.52-10.17-5.72-11.61-12.14c-0.14,0.01-0.29,0.02-0.43,0.04
		c-0.53,1.97-1.06,3.93-1.62,6.01c-3.2-2.32-5.8-5.08-8.04-8.2c-5.54-7.71-8.26-16.54-10-25.72c-0.86-4.53-1.48-9.12-2.21-13.68
		c-0.11,0-0.21,0-0.32,0c0,1.64,0,3.29,0,4.93c0,1.63,0,3.26,0,4.95c-3.69-2.8-6.68-11.87-5.31-15.92c0.38-1.13,1.14-1.31,2.06-0.66
		c0.8,0.57,1.52,1.25,2.34,1.93c-0.12-2.37-1.46-3.65-3.94-3.89c-1.4-0.13-2.33,0.8-2.82,2.89c-0.11,0.48-0.15,0.98-0.16,1.48
		c-0.1,7.22,2.13,13.46,7.63,18.36c0.45,0.41,0.83,1.04,0.97,1.64c0.63,2.68,1.01,5.43,1.76,8.08c2.86,10.04,7.26,19.19,15.3,26.24
		c8.82,7.73,22.96,8.78,32.73,2.32c6.33-4.19,10.27-10.25,13.07-17.13c2.65-6.54,4.24-13.34,4.61-20.41L180.02,157.45z
		 M179.99,157.42c0.16-0.01,0.35,0.04,0.46-0.03c5.51-3.4,10.08-14.5,8.52-20.66c-0.5-1.96-1.79-3.01-3.36-2.73
		c-2.08,0.37-3.2,1.58-3.48,3.81c0.62-0.53,1.15-1.11,1.81-1.5c0.58-0.34,1.53-0.83,1.89-0.6c0.51,0.32,0.86,1.26,0.88,1.94
		c0.11,5.24-1.03,10.17-4.64,14.11c-1.58,1.73-1.95,3.59-2.05,5.7C180.02,157.45,179.99,157.42,179.99,157.42z M164.77,134.41
		c-2.53,0-4.58,2.05-4.58,4.58c0,2.53,2.05,4.58,4.58,4.58c2.53,0,4.58-2.05,4.58-4.58C169.35,136.46,167.3,134.41,164.77,134.41z
		 M131.45,134.41c-2.53,0-4.58,2.05-4.58,4.58c0,2.53,2.05,4.58,4.58,4.58c2.53,0,4.58-2.05,4.58-4.58
		C136.03,136.46,133.98,134.41,131.45,134.41z M164.74,129.83c-2.94,0-5.34,2.04-5.34,4.58c0,0.26,0.03,0.52,0.08,0.76
		c0.41-2.17,2.62-3.81,5.26-3.81c2.64,0,4.85,1.65,5.26,3.81c0.05-0.24,0.08-0.5,0.08-0.76
		C170.08,131.87,167.69,129.83,164.74,129.83z M131.45,129.83c-2.94,0-5.34,2.04-5.34,4.58c0,0.26,0.03,0.52,0.08,0.76
		c0.41-2.17,2.62-3.81,5.26-3.81c2.64,0,4.85,1.65,5.26,3.81c0.05-0.24,0.08-0.5,0.08-0.76
		C136.79,131.87,134.39,129.83,131.45,129.83z M116.72,27.67c-14.1,0.78-28.11,11.45-30.7,29.18c-1.96,13.43,6.61,29.07,19.64,34.38
		c1.89,0.77,2.56,1.8,2.54,3.87c-0.12,9.87-0.08,19.74-0.07,29.62c0,0.83,0.17,1.67,0.31,3.06c11.47-10.29,24.24-15.96,39.25-15.99
		c14.76-0.03,27.98,4.43,39.46,14.05c0.36-0.24,0.72-0.47,1.08-0.71c-1.17-9.43-2.34-18.86-3.51-28.29
		c-0.31,0.03-0.63,0.06-0.94,0.09c-1.16,4.39-2.32,8.78-3.5,13.26c-20.86-10.95-41.54-10.33-62.43-1.16c0-4.72-0.11-9.3,0.09-13.87
		c0.04-0.91,1.08-2.13,1.98-2.57c2.58-1.26,5.24-2.52,8.02-3.2c10.26-2.54,20.63-3.11,31.05-0.99c3.17,0.65,6.3,1.47,9.46,2.15
		c2.53,0.55,4.1-0.76,4.62-3.05c0.54-2.36-0.71-3.71-3.13-4.02c-0.79-0.1-1.54-0.52-2.32-0.71c-14.8-3.67-29.55-4.31-44.29,0.44
		c-2.65,0.85-5.6,1.35-8.36,1.2c-5.22-0.28-9.22-3.28-12.97-6.75c-6.37-5.89-8.92-16.32-5.87-25.01
		c3.23-9.19,11.78-15.93,20.52-16.5c9.67-0.63,17.1,3.19,22.84,10.77c1.45,1.92,3.31,3.27,5.61,1.54c2.39-1.79,2.01-4.15,0.13-6.02
		c-3.2-3.17-6.38-6.47-10.05-9.01c-2.45-1.7-2.86-2.97-1.79-5.56c4.85-11.64,17.44-18.09,29.64-15.04
		c12.27,3.07,20.47,14.93,19.2,27.52c-0.37,3.7-1.54,6.06-5.25,8c-7.74,4.04-11.83,10.94-11.9,19.83c-0.01,0.96,1.41,1.93,2.16,2.9
		c1.01-0.87,2.09-1.67,2.98-2.65c0.3-0.33,0.05-1.13,0.12-1.7c1.14-9.64,10.51-17.37,19.11-15.78c7.32,1.35,13.16,7.51,14.63,15.45
		c1.3,7.02-2.29,15.21-8.6,18.76c-3.23,1.82-6.77,3.08-10.02,4.52c7.41,2.57,19.18-5.3,21.91-14.33
		c4.27-14.14-2.84-25.53-19.48-30.68c1.74-20.66-6.21-33.89-22.92-38.8c-12.82-3.76-32.57,0.89-40.34,21.8
		C122.03,27.64,119.37,27.52,116.72,27.67z"/>
	<path class="st15" d="M107.23,215.26l0.95,0.95c-1.5,0.32-3.01,0.64-4.51,0.96c0,0-20.31,4.25-33.35,15.29
		c-1.78,1.5-3.31,3.67-3.98,6.53c-0.46,1.97-0.31,3.67-0.13,4.74c-2.11-3.87-4.41-8.96-6.13-15.16c-2.13-7.74-2.61-14.57-2.58-19.62
		c6.76-4.39,15.2-9.13,25.27-13.33c2.89-1.21,5.72-2.3,8.46-3.25c0.17-0.06,0.34-0.12,0.51-0.18c0.1,0.06,0.2,0.13,0.29,0.2
		c0.11,0.07,0.22,0.15,0.32,0.23c0.11,0.08,0.22,0.16,0.32,0.24c4.55,3.62,13.54,12.97,18.61,18.35L107.23,215.26z M71.84,233.9
		c-0.74,0.7-1.67,1.59-2.47,3.02c-0.47,0.84-2.24,4.04-0.95,6.11c0.54,0.86,1.46,1.3,2.74,1.64c4.25,1.13,8.61,0.2,11.47-0.71
		c-2.1-4.36-4.2-8.72-6.3-13.08C75.2,231.39,73.52,232.32,71.84,233.9z M70.4,246.89c-2.08-0.27-3.83-0.79-5.21-1.32
		c-1.42-2.41-2.86-5.18-4.21-8.29c-1.89-4.37-3.16-8.44-4.03-11.99c-5.81,2.72-13.81,7.34-21.53,15.06
		c-4.38,4.38-7.67,8.76-10.11,12.56c2.89-0.77,6.47-1.45,10.61-1.66c2.84-0.15,5.42-0.05,7.67,0.17c-0.32,4.12-0.37,9.26,0.38,15.11
		c0.8,6.2,2.27,11.43,3.72,15.47c3.64-8.02,10.2-19.28,21.89-28.91c3.31-2.73,6.6-4.97,9.72-6.81
		C77.29,246.82,74.16,247.37,70.4,246.89z M215.35,195.62c-0.69-0.29-1.37-0.57-2.05-0.84c-3.51-1.41-6.91-2.62-10.17-3.67
		c-1.01,0.47-1.97,1.05-2.85,1.75c-0.57,0.46-1.22,1-1.92,1.62h-0.01c-1,0.9-2.12,1.94-3.3,3.08c-0.34,0.32-0.69,0.66-1.04,1.01
		c-0.51,0.49-1.04,1.01-1.57,1.54c-0.36,0.36-0.72,0.71-1.07,1.07c-0.72,0.72-1.44,1.45-2.16,2.18c-2.51,2.56-4.94,5.1-6.89,7.17
		c-0.23,0.24-0.44,0.46-0.65,0.68l4.05,4.05l-0.05,0.05c0.31,0.06,0.61,0.13,0.92,0.2c2.62,0.55,5.24,1.1,7.86,1.66
		c0,0,20.31,4.25,33.35,15.29c1.78,1.5,3.31,3.67,3.98,6.53c0.46,1.97,0.31,3.67,0.13,4.74c2.11-3.87,4.41-8.96,6.12-15.16
		c2.14-7.74,2.62-14.57,2.59-19.62C233.85,204.56,225.42,199.82,215.35,195.62z M226.96,244.66c1.27-0.34,2.2-0.78,2.74-1.64
		c1.29-2.07-0.48-5.27-0.95-6.11c-0.79-1.43-1.73-2.32-2.47-3.02c-1.68-1.58-3.36-2.5-4.49-3.03c-2.1,4.36-4.2,8.72-6.3,13.08
		C218.35,244.86,222.71,245.8,226.96,244.66z M241.18,225.29c-0.87,3.54-2.14,7.62-4.03,11.99c-1.35,3.12-2.8,5.88-4.21,8.29
		c-1.38,0.53-3.14,1.05-5.21,1.32c-3.75,0.49-6.88-0.07-8.89-0.61c3.12,1.84,6.41,4.08,9.72,6.81
		c11.69,9.63,18.25,20.89,21.89,28.91c1.45-4.05,2.92-9.27,3.72-15.47c0.75-5.84,0.7-10.99,0.38-15.11
		c2.25-0.22,4.83-0.32,7.67-0.17c4.14,0.21,7.72,0.9,10.61,1.66c-2.44-3.8-5.73-8.17-10.11-12.56
		C254.98,232.63,246.99,228.01,241.18,225.29z"/>
	<path class="st5" d="M264.89,121.37c0,0-15.05-16.92-29.22-15.85c-14.18,1.06-40.75,49.47-38.7,63.1c0,0,1.64,10.81-3.57,17.36
		c-1.66,2.09-4.53,5.11-7.66,8.26c-3.71,3.72-7.78,7.61-10.69,10.35l2.64,2.64l0.32,0.32l0.35,0.35l3.31,3.31
		c0.21-0.22,0.42-0.44,0.65-0.68c1.95-2.07,4.38-4.61,6.89-7.17c0.72-0.73,1.44-1.46,2.16-2.18c0.35-0.37,0.71-0.72,1.07-1.07
		c0.53-0.53,1.06-1.05,1.57-1.54c0.35-0.35,0.7-0.69,1.04-1.01c1.18-1.14,2.3-2.18,3.3-3.08h0.01c0.7-0.62,1.35-1.16,1.92-1.62
		c0.88-0.7,1.84-1.28,2.85-1.75c6.42-3.05,14.51-1.82,14.51-1.82c13.63,2.06,62.04-24.52,63.11-38.69
		C281.82,136.42,264.89,121.37,264.89,121.37z M235.02,107.6c1.48-0.37,3.06-0.43,4.56-0.17c1.52,0.18,2.92,0.9,4.13,1.72
		c-1.48-0.21-2.85-0.45-4.24-0.4c-1.37,0.03-2.73,0.15-4.06,0.5c-2.66,0.63-5.2,1.8-7.81,3.18
		C229.36,110.01,232.06,108.34,235.02,107.6z M211.43,157.88c-0.93,0.93-2.42,0.93-3.35,0c-0.92-0.92-0.92-2.42,0-3.34l35.3-35.3
		c0.92-0.92,2.42-0.92,3.34,0c0.93,0.93,0.93,2.42,0,3.35L211.43,157.88z M218.38,164.84c-0.92,0.92-2.42,0.92-3.34,0
		c-0.93-0.93-0.93-2.42,0-3.35l35.29-35.29c0.93-0.93,2.42-0.93,3.34,0c0.93,0.92,0.93,2.42,0,3.34L218.38,164.84z M221.99,171.79
		c-0.92-0.92-0.92-2.42,0-3.34l35.29-35.3c0.93-0.92,2.42-0.92,3.35,0c0.92,0.92,0.92,2.42,0,3.34l-35.3,35.3
		C224.41,172.71,222.91,172.71,221.99,171.79z M228.94,178.74c-0.92-0.92-0.92-2.42,0-3.34l35.3-35.3c0.92-0.92,2.42-0.92,3.34,0
		c0.92,0.92,0.92,2.42,0,3.34l-35.3,35.3C231.36,179.66,229.86,179.66,228.94,178.74z M275.73,153.98c-1.01,1.77-2.26,3.37-3.6,4.9
		c-2.7,3.02-5.9,5.52-9.07,7.94c-3.21,2.38-6.49,4.68-9.9,6.76c-3.41,2.09-6.88,4.1-10.52,5.76c3.29-2.28,6.56-4.54,9.79-6.85
		c3.22-2.33,6.45-4.64,9.61-7.03c3.19-2.38,6.32-4.77,9.15-7.49c1.41-1.36,2.73-2.82,3.84-4.43c1.11-1.58,2.14-3.35,2.24-5.35
		C277.56,150.22,276.65,152.2,275.73,153.98z M116.41,203.18c-3.19-3.02-7.26-6.95-10.76-10.52c-2.51-2.56-4.72-4.94-6.1-6.68
		c-5.21-6.55-3.57-17.36-3.57-17.36l-0.02-0.02c2.66-9.62,0.41-20.32-6.78-28.13l0.03-0.02c-8.94-10.58-18.47-17.24-18.47-17.24
		c-16.01-12.2-35.05-14.41-45.16-4.31c-10.1,10.1-7.88,29.15,4.32,45.15v0.01c0,0,6.66,9.52,17.23,18.46l0.03-0.02
		c7.8,7.19,18.5,9.43,28.13,6.77l0.02,0.02c0,0,9.84-1.49,16.43,2.9c0.1,0.06,0.2,0.13,0.29,0.2c0.11,0.07,0.22,0.15,0.32,0.23
		c0.11,0.08,0.22,0.16,0.32,0.24c4.55,3.62,13.54,12.97,18.61,18.35l6.49-6.49h0.01l0.12-0.13
		C117.43,204.15,116.93,203.68,116.41,203.18z M79.91,184.54c-0.96,0.49-1.98,0.89-3.02,1.22c-2.1,0.59-4.29,0.83-6.45,0.86
		c-2.18,0.05-4.31-0.14-6.47-0.43c-1.1-0.19-2.19-0.39-3.23-0.75c-1.07-0.29-2.09-0.68-3.1-1.11c-4.03-1.72-7.64-4.16-10.91-6.93
		c-3.29-2.76-6.24-5.88-8.78-9.3c3.18,2.82,6.48,5.45,9.86,7.91c3.41,2.41,6.93,4.67,10.72,6.24c1.86,0.84,3.82,1.44,5.79,1.82
		c2,0.4,4.1,0.63,6.16,0.78c2.06,0.12,4.13,0.13,6.17-0.17c1.02-0.15,2.03-0.38,3.03-0.7c0.98-0.29,2-0.81,3.1-0.74
		C81.72,183.42,80.88,184.08,79.91,184.54z M80.21,137l-5-4.14c-3.44-2.61-6.85-5.24-10.54-7.43c-3.61-2.31-7.43-4.25-11.43-5.75
		c-2-0.73-4.05-1.36-6.15-1.78c-2.09-0.49-4.25-0.7-6.43-0.58c4.28-1.12,8.89-0.52,13.13,0.69c4.28,1.2,8.33,3.15,12.07,5.49
		c1.92,1.12,3.66,2.47,5.46,3.76c1.73,1.37,3.4,2.8,5.04,4.26c1.57,1.54,3.13,3.08,4.63,4.68c1.4,1.69,2.85,3.33,4.19,5.06
		C83.47,139.88,81.87,138.41,80.21,137z"/>
	<path class="st13" d="M182.48,218.5l3.24-3.24l-4.05-4.05l-6.62-6.62l-4.04-4.05l-1.36,1.36l-1.89,1.88c0,0-0.1,0.33-0.32,0.92
		c-0.84,2.24-3.39,8.32-8.55,14.62c-2.27,2.78-5.05,5.6-8.42,8.16c-1.17,0.89-2.52,1.89-3.99,2.98c-1.48-1.09-2.83-2.09-4-2.98
		c-12.99-9.88-17.29-23.7-17.29-23.7l-3.24-3.24l-4.05,4.05l-0.12,0.13h-0.01l-10.54,10.54l0.95,0.95l0.93,0.93l1.36,1.36
		c0,0,13.82,4.3,23.7,17.3c0.58,0.76,1.2,1.6,1.87,2.5c-14.35,11.13-30.21,25.63-21.96,33.88c7.9,7.9,21.49-6.25,32.4-20.05
		c10.9,13.8,24.49,27.95,32.39,20.05c8.26-8.25-7.61-22.75-21.96-33.88c0.67-0.9,1.29-1.74,1.87-2.5
		C168.66,222.8,182.48,218.5,182.48,218.5z M164.92,212.72c0.8-1.14,1.51-2.32,2.23-3.51c0.69-1.2,1.35-2.42,1.79-3.76
		c0.02,1.44-0.47,2.84-1.01,4.15c-0.56,1.33-1.28,2.57-2.07,3.76c-0.8,1.18-1.67,2.3-2.63,3.35c-0.96,1.05-1.97,2.05-3.08,2.94
		C161.7,217.26,163.39,215.05,164.92,212.72z M153.59,237.24c0.45,0.34,0.9,0.68,1.34,1.02c-0.31,0.37-0.61,0.75-0.91,1.13
		c-0.45-0.32-0.9-0.64-1.35-0.97C152.97,238.03,153.28,237.63,153.59,237.24z M119.84,220.91c-1.13-0.8-2.32-1.51-3.51-2.23
		c-1.2-0.69-2.42-1.35-3.76-1.79c1.44-0.02,2.84,0.47,4.15,1.01c1.33,0.56,2.57,1.28,3.76,2.07c1.18,0.8,2.3,1.67,3.35,2.63
		c1.05,0.96,2.05,1.97,2.94,3.08C124.38,224.13,122.17,222.44,119.84,220.91z M118.38,272.9c-1-0.14-1.97-0.62-2.74-1.3
		c-0.75-0.73-1.26-1.46-1.69-2.36c-0.4-0.86-0.67-1.93-0.32-2.86c0.32,0.88,0.92,1.5,1.44,2.16c0.55,0.6,1.15,1.3,1.71,1.8
		c1.15,1.05,2.57,1.68,4.45,2.04C120.4,272.88,119.38,273.05,118.38,272.9z M125.67,265.67c-1.4,1.41-3.68,1.41-5.08,0
		c-1.4-1.4-1.4-3.67,0-5.08c1.4-1.4,3.68-1.4,5.08,0C127.07,262,127.07,264.27,125.67,265.67z M120.71,255.68
		c2.6-3.95,5.91-7.34,9.36-10.51c2.21-1.97,4.49-3.87,6.9-5.62c0.21,0.29,0.43,0.59,0.65,0.89c-2.1,2.05-4.25,4.02-6.41,5.99
		C127.75,249.55,124.3,252.63,120.71,255.68z M140.13,256.71c-1.89,1.89-3.85,3.71-5.95,5.36c3.72-3.83,7.11-7.88,10.16-12.21
		c0.06-0.08,0.11-0.16,0.17-0.24c0.28,0.35,0.55,0.71,0.84,1.07C143.69,252.76,141.98,254.8,140.13,256.71z M144.22,232.13
		c-0.04-0.03-0.09-0.07-0.13-0.1c-4.1-3.41-8.18-6.92-11.74-10.93c-3.55-4-6.88-8.29-9.09-13.17c1.39,2.27,2.99,4.39,4.7,6.41
		c1.68,2.04,3.46,4,5.33,5.86c3.72,3.76,7.7,7.23,11.87,10.51c0.15,0.13,0.3,0.25,0.46,0.38
		C145.16,231.43,144.7,231.77,144.22,232.13z M146.73,248.92c-0.3-0.4-0.59-0.8-0.87-1.21c0.17-0.24,0.34-0.48,0.51-0.71
		c0.35,0.35,0.69,0.69,1.03,1.04C147.17,248.33,146.95,248.63,146.73,248.92z M152.29,255.76c-1.55-1.73-3.05-3.51-4.46-5.35
		c0.27-0.36,0.55-0.72,0.82-1.07c1.67,1.74,3.28,3.51,4.9,5.28c3.12,3.46,6.2,6.91,9.25,10.5
		C158.85,262.52,155.46,259.21,152.29,255.76z M175.66,270.76c0.6-0.55,1.31-1.15,1.8-1.71c1.05-1.15,1.68-2.57,2.04-4.45
		c0.5,0.83,0.68,1.85,0.52,2.85c-0.13,1-0.62,1.97-1.29,2.74c-0.74,0.75-1.47,1.26-2.37,1.69c-0.86,0.4-1.93,0.67-2.86,0.32
		C174.39,271.88,175,271.28,175.66,270.76z M172.36,260.59c1.4,1.41,1.4,3.68,0,5.08c-1.4,1.41-3.68,1.41-5.08,0
		c-1.4-1.4-1.4-3.67,0-5.08C168.68,259.19,170.96,259.19,172.36,260.59z M157.76,240.44c2.09,1.67,4.14,3.4,6.07,5.26
		c1.89,1.89,3.71,3.85,5.36,5.95c-3.83-3.72-7.88-7.11-12.21-10.16c-0.53-0.38-1.06-0.75-1.59-1.13c0.28-0.39,0.56-0.76,0.82-1.13
		C156.73,239.63,157.24,240.04,157.76,240.44z M155.67,237.34c-0.44-0.34-0.89-0.68-1.33-1.02c3.24-3.88,6.59-7.72,10.39-11.09
		c4-3.55,8.29-6.88,13.17-9.09c-2.27,1.39-4.39,2.99-6.41,4.7c-2.04,1.68-4,3.46-5.86,5.33
		C162.08,229.68,158.79,233.43,155.67,237.34z"/>
	<path class="st1" d="M275.73,153.98c-1.01,1.77-2.26,3.37-3.6,4.9c-2.7,3.02-5.9,5.52-9.07,7.94c-3.21,2.38-6.49,4.68-9.9,6.76
		c-3.41,2.09-6.88,4.1-10.52,5.76c3.29-2.28,6.56-4.54,9.79-6.85c3.22-2.33,6.45-4.64,9.61-7.03c3.19-2.38,6.32-4.77,9.15-7.49
		c1.41-1.36,2.73-2.82,3.84-4.43c1.11-1.58,2.14-3.35,2.24-5.35C277.56,150.22,276.65,152.2,275.73,153.98z M267.58,140.1
		c-0.92-0.92-2.42-0.92-3.34,0l-35.3,35.3c-0.92,0.92-0.92,2.42,0,3.34c0.92,0.92,2.42,0.92,3.34,0l35.3-35.3
		C268.5,142.52,268.5,141.02,267.58,140.1z M260.63,133.15c-0.93-0.92-2.42-0.92-3.35,0l-35.29,35.3c-0.92,0.92-0.92,2.42,0,3.34
		s2.42,0.92,3.34,0l35.3-35.3C261.55,135.57,261.55,134.07,260.63,133.15z M253.67,126.2c-0.92-0.93-2.41-0.93-3.34,0l-35.29,35.29
		c-0.93,0.93-0.93,2.42,0,3.35c0.92,0.92,2.42,0.92,3.34,0l35.29-35.3C254.6,128.62,254.6,127.12,253.67,126.2z M246.72,119.24
		c-0.92-0.92-2.42-0.92-3.34,0l-35.3,35.3c-0.92,0.92-0.92,2.42,0,3.34c0.93,0.93,2.42,0.93,3.35,0l35.29-35.29
		C247.65,121.66,247.65,120.17,246.72,119.24z M239.58,107.43c-1.5-0.26-3.08-0.2-4.56,0.17c-2.96,0.74-5.66,2.41-7.42,4.83
		c2.61-1.38,5.15-2.55,7.81-3.18c1.33-0.35,2.69-0.47,4.06-0.5c1.39-0.05,2.76,0.19,4.24,0.4
		C242.5,108.33,241.1,107.61,239.58,107.43z M79.68,183.98c-1,0.32-2.01,0.55-3.03,0.7c-2.04,0.3-4.11,0.29-6.17,0.17
		c-2.06-0.15-4.16-0.38-6.16-0.78c-1.97-0.38-3.93-0.98-5.79-1.82c-3.79-1.57-7.31-3.83-10.72-6.24c-3.38-2.46-6.68-5.09-9.86-7.91
		c2.54,3.42,5.49,6.54,8.78,9.3c3.27,2.77,6.88,5.21,10.91,6.93c1.01,0.43,2.03,0.82,3.1,1.11c1.04,0.36,2.13,0.56,3.23,0.75
		c2.16,0.29,4.29,0.48,6.47,0.43c2.16-0.03,4.35-0.27,6.45-0.86c1.04-0.33,2.06-0.73,3.02-1.22c0.97-0.46,1.81-1.12,2.87-1.3
		C81.68,183.17,80.66,183.69,79.68,183.98z M80.99,136.2c-1.5-1.6-3.06-3.14-4.63-4.68c-1.64-1.46-3.31-2.89-5.04-4.26
		c-1.8-1.29-3.54-2.64-5.46-3.76c-3.74-2.34-7.79-4.29-12.07-5.49c-4.24-1.21-8.85-1.81-13.13-0.69c2.18-0.12,4.34,0.09,6.43,0.58
		c2.1,0.42,4.15,1.05,6.15,1.78c4,1.5,7.82,3.44,11.43,5.75c3.69,2.19,7.1,4.82,10.54,7.43l5,4.14c1.66,1.41,3.26,2.88,4.97,4.26
		C83.84,139.53,82.39,137.89,80.99,136.2z M167.15,209.21c-0.72,1.19-1.43,2.37-2.23,3.51c-1.53,2.33-3.22,4.54-4.77,6.93
		c1.11-0.89,2.12-1.89,3.08-2.94c0.96-1.05,1.83-2.17,2.63-3.35c0.79-1.19,1.51-2.43,2.07-3.76c0.54-1.31,1.03-2.71,1.01-4.15
		C168.5,206.79,167.84,208.01,167.15,209.21z M123.83,222.6c-1.05-0.96-2.17-1.83-3.35-2.63c-1.19-0.79-2.43-1.51-3.76-2.07
		c-1.31-0.54-2.71-1.03-4.15-1.01c1.34,0.44,2.56,1.1,3.76,1.79c1.19,0.72,2.38,1.43,3.51,2.23c2.33,1.53,4.54,3.22,6.93,4.77
		C125.88,224.57,124.88,223.56,123.83,222.6z M125.67,260.59c-1.4-1.4-3.68-1.4-5.08,0c-1.4,1.41-1.4,3.68,0,5.08
		c1.4,1.41,3.68,1.41,5.08,0C127.07,264.27,127.07,262,125.67,260.59z M116.78,270.34c-0.56-0.5-1.16-1.2-1.71-1.8
		c-0.52-0.66-1.12-1.28-1.44-2.16c-0.35,0.93-0.08,2,0.32,2.86c0.43,0.9,0.94,1.63,1.69,2.36c0.77,0.68,1.74,1.16,2.74,1.3
		c1,0.15,2.02-0.02,2.85-0.52C119.35,272.02,117.93,271.39,116.78,270.34z M179.5,264.6c-0.36,1.88-0.99,3.3-2.04,4.45
		c-0.49,0.56-1.2,1.16-1.8,1.71c-0.66,0.52-1.27,1.12-2.16,1.44c0.93,0.35,2,0.08,2.86-0.32c0.9-0.43,1.63-0.94,2.37-1.69
		c0.67-0.77,1.16-1.74,1.29-2.74C180.18,266.45,180,265.43,179.5,264.6z M172.36,260.59c-1.4-1.4-3.68-1.4-5.08,0
		c-1.4,1.41-1.4,3.68,0,5.08c1.4,1.41,3.68,1.41,5.08,0C173.76,264.27,173.76,262,172.36,260.59z M145.16,230.71
		c-4.17-3.28-8.15-6.75-11.87-10.51c-1.87-1.86-3.65-3.82-5.33-5.86c-1.71-2.02-3.31-4.14-4.7-6.41c2.21,4.88,5.54,9.17,9.09,13.17
		c3.56,4.01,7.64,7.52,11.74,10.93c0.04,0.03,0.09,0.07,0.13,0.1c0.48-0.36,0.94-0.7,1.4-1.04
		C145.46,230.96,145.31,230.84,145.16,230.71z M136.97,239.55c-2.41,1.75-4.69,3.65-6.9,5.62c-3.45,3.17-6.76,6.56-9.36,10.51
		c3.59-3.05,7.04-6.13,10.5-9.25c2.16-1.97,4.31-3.94,6.41-5.99C137.4,240.14,137.18,239.84,136.97,239.55z M153.55,254.62
		c-1.62-1.77-3.23-3.54-4.9-5.28c-0.27,0.35-0.55,0.71-0.82,1.07c1.41,1.84,2.91,3.62,4.46,5.35c3.17,3.45,6.56,6.76,10.51,9.36
		C159.75,261.53,156.67,258.08,153.55,254.62z M146.37,247c-0.17,0.23-0.34,0.47-0.51,0.71c0.28,0.41,0.57,0.81,0.87,1.21
		c0.22-0.29,0.44-0.59,0.67-0.88C147.06,247.69,146.72,247.35,146.37,247z M144.51,249.62c-0.06,0.08-0.11,0.16-0.17,0.24
		c-3.05,4.33-6.44,8.38-10.16,12.21c2.1-1.65,4.06-3.47,5.95-5.36c1.85-1.91,3.56-3.95,5.22-6.02
		C145.06,250.33,144.79,249.97,144.51,249.62z M163.83,245.7c-1.93-1.86-3.98-3.59-6.07-5.26c-0.52-0.4-1.03-0.81-1.55-1.21
		c-0.26,0.37-0.54,0.74-0.82,1.13c0.53,0.38,1.06,0.75,1.59,1.13c4.33,3.05,8.38,6.44,12.21,10.16
		C167.54,249.55,165.72,247.59,163.83,245.7z M164.73,225.23c-3.8,3.37-7.15,7.21-10.39,11.09c0.44,0.34,0.89,0.68,1.33,1.02
		c3.12-3.91,6.41-7.66,9.96-11.17c1.86-1.87,3.82-3.65,5.86-5.33c2.02-1.71,4.14-3.31,6.41-4.7
		C173.02,218.35,168.73,221.68,164.73,225.23z M153.59,237.24c-0.31,0.39-0.62,0.79-0.92,1.18c0.45,0.33,0.9,0.65,1.35,0.97
		c0.3-0.38,0.6-0.76,0.91-1.13C154.49,237.92,154.04,237.58,153.59,237.24z"/>
</g>
<g id="Layer_6">
</g>
<g id="Layer_7">
</g>
<g id="Layer_8">
</g>
<g id="Layer_9">
</g>
<g id="Layer_10">
</g>
<g id="Layer_11">
</g>
<g id="Layer_12">
</g>
<g id="Layer_13">
</g>
<g id="Layer_1">
</g>
</svg>
