<?xml version="1.0" encoding="utf-8"?>
<!-- Generator: Adobe Illustrator 27.8.1, SVG Export Plug-In . SVG Version: 6.00 Build 0)  -->
<svg version="1.1" xmlns="http://www.w3.org/2000/svg" xmlns:xlink="http://www.w3.org/1999/xlink" x="0px" y="0px"
	 viewBox="0 0 300 300" style="enable-background:new 0 0 300 300;" xml:space="preserve">
<style type="text/css">
	.st0{fill:#FFD468;}
	.st1{fill:#FFFFFF;}
	.st2{fill:#303030;}
	.st3{fill:#007D54;}
	.st4{fill:#EE3631;}
	.st5{fill:#2B2B2B;}
	.st6{fill:#FFB000;}
	.st7{opacity:0.35;fill:#FFFFFF;}
	.st8{fill:#FF9CC4;}
	.st9{fill:#B79567;}
	.st10{fill:#D2E6FF;}
	.st11{fill:#5C87C6;}
	.st12{fill:#0E2F5E;}
	.st13{fill:#FCB040;}
	.st14{fill:#E09C05;}
	.st15{fill:#A8112B;}
	.st16{fill-rule:evenodd;clip-rule:evenodd;fill:#FEFEFE;}
	.st17{fill:#606060;}
	.st18{fill:#E0E0E0;}
	.st19{fill:#3DA1D8;}
	.st20{fill:#0C8EBC;}
	.st21{fill:#EFC6A3;}
	.st22{fill:#B0DFFF;}
	.st23{fill:#006284;}
	.st24{fill:#5B5B5B;}
	.st25{fill:#3A1801;}
	.st26{fill:#616D0B;}
	.st27{fill:#98B11F;}
	.st28{fill:#EACAB0;}
	.st29{fill:#442B18;}
	.st30{fill:#663412;}
	.st31{fill:#F5F5F5;}
	.st32{fill:#E386B3;}
	.st33{fill:#B5D6E8;}
	.st34{fill:#88C2E2;}
	.st35{fill:#CEF97A;}
	.st36{fill:#E07D46;}
	.st37{fill:#9FE8FF;}
	.st38{fill:#FF97C6;}
	.st39{fill:#FFB54A;}
	.st40{fill:#472A54;}
	.st41{fill:#F2CD9D;}
	.st42{fill:#4F2910;}
	.st43{fill:#8E630D;}
	.st44{fill:#784C3F;}
	.st45{fill:#D3974E;}
	.st46{fill:none;}
	.st47{fill:#4F361A;}
	.st48{fill-rule:evenodd;clip-rule:evenodd;fill:#561332;}
	.st49{fill-rule:evenodd;clip-rule:evenodd;fill:#F3CF9F;}
	.st50{fill-rule:evenodd;clip-rule:evenodd;fill:#FFF3DB;}
	.st51{fill-rule:evenodd;clip-rule:evenodd;fill:#D4AB74;}
	.st52{fill-rule:evenodd;clip-rule:evenodd;fill:#FFBBE8;}
	.st53{fill-rule:evenodd;clip-rule:evenodd;fill:#DB61A1;}
	.st54{fill-rule:evenodd;clip-rule:evenodd;fill:#FF8DCE;}
	.st55{fill:#D95E95;}
	.st56{fill:#F77EB4;}
	.st57{fill:#CCCCCC;}
	.st58{fill-rule:evenodd;clip-rule:evenodd;fill:#6E1C42;}
	.st59{fill-rule:evenodd;clip-rule:evenodd;fill:#852E57;}
	.st60{fill:#DEC210;}
	.st61{fill:#F7D917;}
	.st62{fill:#212121;}
	.st63{fill:#562F0E;}
	.st64{fill-rule:evenodd;clip-rule:evenodd;fill:#2B2B2B;}
	.st65{fill-rule:evenodd;clip-rule:evenodd;}
	.st66{fill:#F7931E;}
	.st67{fill:#754C24;}
	.st68{fill:#FEFEFE;}
	.st69{fill:#CFDFE8;}
	.st70{fill:#FECE9E;}
	.st71{fill:#F0433D;}
	.st72{fill:#FEA475;}
	.st73{fill:#FE8861;}
	.st74{fill:#D6251E;}
	.st75{fill:#C7221C;}
	.st76{fill:#8C8C8C;}
	.st77{fill:#A6A6A6;}
	.st78{fill:#593A1B;}
	.st79{fill:#60350F;}
	.st80{fill:#B0773B;}
	.st81{fill:#FFC28A;}
	.st82{fill:#F24140;}
	.st83{fill:#FFCFA0;}
	.st84{fill:#D39A72;}
	.st85{fill:#282828;}
	.st86{fill:#B4B7B9;}
	.st87{fill:#505052;}
	.st88{fill:#FF6258;stroke:#2A2728;stroke-width:1.5;stroke-linecap:round;stroke-linejoin:round;stroke-miterlimit:10;}
	.st89{fill:#00B47B;stroke:#2A2728;stroke-width:1.5;stroke-linecap:round;stroke-linejoin:round;stroke-miterlimit:10;}
	.st90{opacity:0.2;fill:#FFFFFF;}
	.st91{opacity:0.3;fill:#EF5047;}
	.st92{opacity:0.3;fill:#00A06D;}
	.st93{fill:none;stroke:#2A2728;stroke-width:1.5;stroke-linecap:round;stroke-linejoin:round;stroke-miterlimit:10;}
	.st94{fill:url(#SVGID_1_);}
	.st95{fill:#603813;}
	.st96{fill:#DD7904;}
	.st97{fill:url(#SVGID_00000047038485809072847170000016202566777449777317_);}
	.st98{fill:url(#SVGID_00000101084400685164628290000011723022846769129403_);}
	.st99{fill:url(#SVGID_00000055705343785027821080000003462971969698519430_);}
	.st100{fill:#462009;}
	.st101{opacity:0.29;fill:#FFFFFF;}
	.st102{fill:url(#SVGID_00000106856504587434530790000012482757694946425244_);}
	.st103{fill:url(#SVGID_00000154421997385024993390000018059499915257695924_);}
	.st104{fill:url(#SVGID_00000078744643329592938050000012375772789344053927_);}
	.st105{fill:url(#SVGID_00000037664106044861367200000013952355356903097511_);}
	.st106{fill:url(#SVGID_00000078038864918709021170000012609362993471724702_);}
	.st107{fill:url(#SVGID_00000100355874259733846740000011693094386192241541_);}
	.st108{fill:url(#SVGID_00000115516723360793912470000015799176859915383220_);}
	.st109{fill:url(#SVGID_00000024719851905926916820000009170290848953193859_);}
	.st110{fill:url(#SVGID_00000129891032679908822060000014415303083934950278_);}
	.st111{fill:url(#SVGID_00000180368217685802941570000013114338831675050403_);}
	.st112{fill:url(#SVGID_00000172434307801888704980000005650805809562018963_);}
	.st113{fill:url(#SVGID_00000040567557773236454950000014100731954884631977_);}
	.st114{fill:url(#SVGID_00000084522973442776200950000000089776834318676926_);}
	.st115{fill:#E84E36;}
	.st116{fill:#232323;}
	.st117{fill:#22661B;}
	.st118{fill:none;stroke:#37312B;stroke-width:6;stroke-linecap:round;stroke-linejoin:round;stroke-miterlimit:10;}
	.st119{fill:#37312B;}
	.st120{fill:#FAC952;}
	.st121{fill:none;stroke:#7B5714;stroke-width:2;stroke-linecap:round;stroke-linejoin:round;stroke-miterlimit:10;}
	.st122{fill:none;stroke:#1B1B1B;stroke-width:0.4535;stroke-linecap:round;stroke-linejoin:round;stroke-miterlimit:10;}
	.st123{fill:#EFA760;}
	.st124{fill:#63C8CC;}
	.st125{fill:#FFFBF2;}
	.st126{fill:#FFD2ED;}
	.st127{fill:#1B1B1B;}
	.st128{fill:#BBFFFF;}
	.st129{fill:#202044;}
	.st130{fill:#F05E61;}
	.st131{fill:#FEC96C;}
	.st132{fill:#BCA7D0;}
	.st133{fill:none;stroke:#4D5DAA;stroke-width:1.4;stroke-linecap:round;stroke-linejoin:round;stroke-miterlimit:10;}
	.st134{fill:none;stroke:#FEC96C;stroke-width:1.4;stroke-linecap:round;stroke-linejoin:round;stroke-miterlimit:10;}
	.st135{fill:none;stroke:#F05E61;stroke-width:1.4;stroke-linecap:round;stroke-linejoin:round;stroke-miterlimit:10;}
</style>
<g id="Layer_2">
</g>
<g id="Layer_3">
</g>
<g id="Layer_4">
</g>
<g id="Layer_5">
</g>
<g id="Layer_6">
</g>
<g id="Layer_7">
</g>
<g id="Layer_8">
</g>
<g id="Layer_9">
</g>
<g id="Layer_10">
	<path class="st31" d="M264.1,108.69v143.93c0,21.02-17.11,38.13-38.13,38.13H82.04c-21.02,0-38.13-17.11-38.13-38.13V108.69
		c0-21.02,17.11-38.13,38.13-38.13h143.93C246.99,70.56,264.1,87.67,264.1,108.69z M269.95,107.07v147.18
		c0,23.36-19,42.36-42.36,42.36H80.41c-23.36,0-42.36-19-42.36-42.36V107.07c0-23.36,19-42.36,42.36-42.36h147.18
		C250.95,64.71,269.95,83.71,269.95,107.07z M266.74,108.69c0-22.48-18.29-40.77-40.77-40.77H82.04
		c-22.48,0-40.77,18.29-40.77,40.77v143.93c0,22.48,18.29,40.77,40.77,40.77h143.93c22.48,0,40.77-18.29,40.77-40.77V108.69z"/>
	<path class="st32" d="M227.59,62.06H80.41c-24.82,0-45,20.19-45,45v147.18c0,24.82,20.19,45,45,45h147.18c24.82,0,45-20.19,45-45
		V107.07C272.59,82.25,252.41,62.06,227.59,62.06z M269.95,254.25c0,23.36-19,42.36-42.36,42.36H80.41
		c-23.36,0-42.36-19-42.36-42.36V107.07c0-23.36,19-42.36,42.36-42.36h147.18c23.36,0,42.36,19,42.36,42.36V254.25z"/>
	<path class="st33" d="M264.1,204.5v48.12c0,21.02-17.11,38.13-38.13,38.13H82.04c-21.02,0-38.13-17.11-38.13-38.13v-48.34
		L264.1,204.5z"/>
	<path class="st34" d="M225.96,67.92H82.04c-22.48,0-40.77,18.29-40.77,40.77v143.93c0,22.48,18.29,40.77,40.77,40.77h143.93
		c22.48,0,40.77-18.29,40.77-40.77V108.69C266.74,86.21,248.44,67.92,225.96,67.92z M43.9,108.69c0-21.02,17.11-38.13,38.13-38.13
		h143.93c21.02,0,38.13,17.11,38.13,38.13v143.93c0,21.02-17.11,38.13-38.13,38.13H82.04c-21.02,0-38.13-17.11-38.13-38.13V108.69z"
		/>
	<path class="st35" d="M225.49,115.8l-13.71,51.17c-0.17,0.61-0.56,1.12-1.1,1.44c-0.55,0.32-1.18,0.39-1.8,0.23l-10.28-2.76
		l-0.83-0.22l-0.83-0.22l-6.85-1.84l-0.85-0.22l-0.85-0.22l-10.28-2.76c-1.26-0.34-2-1.64-1.67-2.9l13.72-51.17
		c1.54-5.76,6.77-9.58,12.48-9.58c1.1,0,2.23,0.14,3.34,0.44l10.38,2.78C223.24,101.81,227.34,108.91,225.49,115.8z"/>
	<path class="st36" d="M196.48,167.12l-6.43,23.97c-0.51,1.89-2.45,3.01-4.34,2.5c-1.89-0.51-3.01-2.45-2.5-4.33l6.43-23.98
		L196.48,167.12z M116.34,189.26l-6.43-23.98l-6.85,1.84l6.43,23.97c0.51,1.89,2.45,3.01,4.34,2.5
		C115.73,193.09,116.85,191.14,116.34,189.26z"/>
	<path class="st37" d="M121.44,160.4l-10.28,2.76l-0.85,0.22l-0.85,0.22l-6.85,1.84l-0.83,0.22l-0.83,0.22l-10.28,2.76
		c-0.61,0.16-1.25,0.08-1.8-0.23c-0.54-0.32-0.93-0.82-1.1-1.44L74.06,115.8c-1.85-6.88,2.25-13.98,9.13-15.82l10.38-2.78
		c6.88-1.84,13.98,2.25,15.82,9.13l13.72,51.17C123.43,158.76,122.69,160.06,121.44,160.4z"/>
	<path class="st38" d="M178.09,50.74c-0.45-4-2.72-7.67-5.92-9.77c-0.11-0.08-0.22-0.15-0.34-0.22c-0.73,0.62-1.52,1.2-2.37,1.76
		c0,0.01-0.01,0.01-0.01,0.01c-1.21,0.79-2.52,1.52-3.96,2.19l-0.01,0.01c-4.28,2-9.64,3.48-16.17,4.48c-0.02,0-0.05,0.01-0.07,0.01
		h-0.03c-2.78,0.43-5.57,0.7-8.29,0.95c-2.98,0.29-6.05,0.57-9.06,1.08c-1.14,0.19-2.28,0.42-3.41,0.69c-1.04,0.24-2.15,0.56-3.27,1
		c-2.21,0.86-4.44,2.24-6.01,4.67c-1.71,2.62-3.39,7.93,0.27,12.36c1.51-0.57,2.99-0.95,4.28-1.28l0.8-0.21
		c5.01-1.3,10.1-1.83,15.03-2.35c3.13-0.32,6.35-0.66,9.49-1.19c1.43-0.23,3.05-0.45,4.83-0.7c7.55-1.04,17.72-2.41,23.15-7.02
		c0,0,0-0.01,0.01-0.02C177.97,55.28,178.35,53.08,178.09,50.74z M168.98,51.31c-1.43,0-2.58,1.15-2.58,2.58
		c0,1.43,1.15,2.58,2.58,2.58c1.43,0,2.58-1.15,2.58-2.58C171.55,52.47,170.4,51.31,168.98,51.31z M168.98,51.31
		c-1.43,0-2.58,1.15-2.58,2.58c0,1.43,1.15,2.58,2.58,2.58c1.43,0,2.58-1.15,2.58-2.58C171.55,52.47,170.4,51.31,168.98,51.31z
		 M115.73,94.13h-0.18c0.06,0.04,0.14,0.08,0.21,0.12C115.75,94.2,115.74,94.17,115.73,94.13z M148.82,35.96
		c-1.42,0-2.58,1.16-2.58,2.58c0,1.43,1.16,2.59,2.58,2.59c1.43,0,2.59-1.16,2.59-2.59C151.41,37.12,150.25,35.96,148.82,35.96z
		 M148.82,35.96c-1.42,0-2.58,1.16-2.58,2.58c0,1.43,1.16,2.59,2.58,2.59c1.43,0,2.59-1.16,2.59-2.59
		C151.41,37.12,150.25,35.96,148.82,35.96z M169.06,29.57c-0.81-2.61-2.29-4.48-4.15-5.33c-0.08-0.04-0.17-0.08-0.26-0.12
		c-0.79,0.86-1.64,1.65-2.53,2.36c-1.52,1.24-3.18,2.27-5.02,3.12c-1.81,0.83-3.77,1.49-5.94,1.98c-0.46,0.12-0.94,0.21-1.43,0.31
		c-2.09,0.39-4.21,0.63-6.25,0.88c-2.13,0.25-4.2,0.49-6.21,0.89c-0.96,0.18-1.91,0.41-2.86,0.69c-0.2,0.06-0.4,0.12-0.6,0.19
		c-2.15,0.69-4.44,1.87-5.97,4.76c-1.37,2.58-1.68,6.63-0.91,9.27c0.23-0.06,0.45-0.12,0.68-0.17c4.32-1.04,8.72-1.45,12.98-1.85
		c2.68-0.25,5.47-0.52,8.17-0.94c9.31-1.44,16.19-3.93,20.47-7.42C169.99,35.12,169.82,31.97,169.06,29.57z M161.38,17.95
		c-0.82-3.78-3.15-7.07-6.55-9.39c0.07,1.12,0.03,2.29-0.2,3.46c-0.57,2.87-4.26,4.51-6.59,4.91c-7.44,1.28-9.73,4.02-10.99,6.53
		c-0.92,1.84-1.25,4.57-0.95,6.7c2.35-0.5,4.69-0.77,6.98-1.04c1.98-0.22,4.02-0.47,5.98-0.83c5.35-1.01,9.37-3.02,12.55-6.27
		C161.75,20.73,161.68,19.35,161.38,17.95z M183.32,83.75l-69.84-0.01c-0.08-1.05,0.01-2.1,0.31-3.13c0.93-3.21,2.72-5.06,4.82-6.26
		c0.56-0.33,1.16-0.61,1.76-0.85c0.63-0.25,1.28-0.47,1.92-0.66c0.78-0.23,1.56-0.43,2.33-0.62l0.82-0.21
		c4.75-1.24,9.69-1.75,14.48-2.25c3.19-0.33,6.48-0.67,9.73-1.22c0.63-0.12,1.32-0.22,2.04-0.32c0.01-0.01,0.01-0.01,0.02-0.01
		c0.83-0.12,1.72-0.24,2.65-0.37c3.33-0.44,7.13-0.96,10.9-1.8c5.35-1.18,10.59-3,14.25-6.17c0.04,0.04,0.09,0.08,0.15,0.13
		c0.51,0.48,1.19,1.22,1.97,2.37C186.09,68.93,186.5,76.76,183.32,83.75z"/>
	<path class="st39" d="M188.82,88.13c-0.46-0.47-1.08-0.72-1.73-0.72h-31.66l-11.7-0.01h-33.26c-0.61,0.03-1.19,0.29-1.63,0.72
		c-0.46,0.47-0.72,1.08-0.72,1.74v1.81c0,1.32,1.15,2.46,2.46,2.46h76.51c0.66,0,1.27-0.25,1.73-0.72c0.47-0.47,0.72-1.08,0.72-1.73
		v-1.82C189.54,89.2,189.29,88.59,188.82,88.13z M115.73,94.13h-0.18c0.06,0.04,0.14,0.08,0.21,0.12
		C115.75,94.2,115.74,94.17,115.73,94.13z M180.59,97.79c-6.26,24.22-20.79,80.05-25.42,94.49c-0.69,2.13-2.99,3.63-5.6,3.63
		c-2.61,0-4.91-1.49-5.6-3.63c-4.63-14.45-19.15-70.26-25.42-94.49H180.59z"/>
	<path class="st40" d="M225.7,105.12c-1.96-3.39-5.12-5.81-8.9-6.83l-10.37-2.78c-3.78-1.01-7.74-0.5-11.13,1.46
		c-3.39,1.97-5.81,5.13-6.83,8.91l-13.71,51.17c-0.59,2.18,0.71,4.43,2.9,5.02l10.28,2.76l-6.43,23.97
		c-0.75,2.81,0.92,5.72,3.73,6.47c0.45,0.13,0.92,0.18,1.38,0.18c0.91,0,1.82-0.23,2.63-0.71c1.22-0.71,2.09-1.84,2.46-3.2
		l6.42-23.98l10.29,2.76c0.35,0.1,0.71,0.14,1.07,0.14c0.71,0,1.41-0.18,2.04-0.55c0.95-0.55,1.63-1.43,1.91-2.48l13.71-51.17
		C228.18,112.47,227.67,108.51,225.7,105.12z M190.05,191.09c-0.51,1.89-2.45,3.01-4.34,2.5c-1.89-0.51-3.01-2.45-2.5-4.33
		l6.43-23.98l6.85,1.84L190.05,191.09z M225.49,115.8l-13.71,51.17c-0.17,0.61-0.56,1.12-1.1,1.44c-0.55,0.32-1.18,0.39-1.8,0.23
		l-10.28-2.76l-0.83-0.22l-0.83-0.22l-6.85-1.84l-0.85-0.22l-0.85-0.22l-10.28-2.76c-1.26-0.34-2-1.64-1.67-2.9l13.72-51.17
		c1.54-5.76,6.77-9.58,12.48-9.58c1.1,0,2.23,0.14,3.34,0.44l10.38,2.78C223.24,101.81,227.34,108.91,225.49,115.8z M186.58,156.14
		c-0.33,0-0.66-0.04-0.99-0.13c-2.02-0.54-3.22-2.62-2.68-4.64l11.92-44.48c0.26-0.98,0.89-1.79,1.76-2.3
		c0.88-0.51,1.89-0.64,2.87-0.38l0,0c2.02,0.54,3.22,2.62,2.68,4.64l-11.92,44.48c-0.26,0.98-0.89,1.79-1.76,2.3
		C187.89,155.97,187.24,156.14,186.58,156.14z M198.49,105.82c-0.35,0-0.7,0.09-1.02,0.27c-0.47,0.27-0.81,0.71-0.95,1.24
		l-11.92,44.48c-0.29,1.09,0.36,2.22,1.45,2.51c1.08,0.29,2.22-0.36,2.51-1.45l11.92-44.48c0.14-0.53,0.07-1.08-0.2-1.55
		c-0.27-0.47-0.72-0.81-1.24-0.95l0,0C198.85,105.85,198.67,105.82,198.49,105.82z M196.08,158.68c-0.33,0-0.66-0.04-0.99-0.13
		c-0.98-0.26-1.79-0.89-2.3-1.76c-0.51-0.88-0.64-1.9-0.38-2.87l11.92-44.48c0.54-2.02,2.62-3.22,4.64-2.68l0,0
		c2.02,0.54,3.22,2.62,2.68,4.64l-11.92,44.48c-0.26,0.98-0.89,1.79-1.76,2.3C197.39,158.51,196.74,158.68,196.08,158.68z
		 M208,108.37c-0.9,0-1.73,0.6-1.98,1.52l-11.92,44.48c-0.14,0.53-0.07,1.08,0.2,1.55c0.27,0.47,0.71,0.81,1.24,0.95
		c0.53,0.14,1.08,0.07,1.55-0.2c0.47-0.27,0.81-0.72,0.95-1.24l11.92-44.48c0.29-1.09-0.36-2.22-1.45-2.51l0,0
		C208.35,108.39,208.17,108.37,208,108.37z M205.57,161.23c-0.32,0-0.65-0.04-0.98-0.13c-0.98-0.26-1.79-0.89-2.3-1.76
		c-0.5-0.88-0.64-1.9-0.38-2.87l11.92-44.48c0.54-2.02,2.62-3.21,4.64-2.68c0.98,0.26,1.79,0.89,2.3,1.76
		c0.5,0.88,0.64,1.9,0.38,2.87l-11.92,44.48C208.78,160.11,207.25,161.23,205.57,161.23z M217.49,110.91c-0.9,0-1.73,0.6-1.98,1.52
		l-11.92,44.48c-0.14,0.53-0.07,1.08,0.2,1.55c0.27,0.47,0.71,0.81,1.24,0.95c1.09,0.3,2.22-0.36,2.51-1.45l11.92-44.48
		c0.14-0.53,0.07-1.08-0.2-1.55c-0.27-0.47-0.71-0.81-1.24-0.95C217.85,110.94,217.67,110.91,217.49,110.91z M124.78,157.06
		l-13.71-51.17c-1.01-3.78-3.43-6.94-6.83-8.91c-3.39-1.96-7.35-2.47-11.13-1.46l-10.37,2.78c-3.78,1.01-6.94,3.43-8.9,6.83
		c-1.97,3.39-2.48,7.35-1.47,11.13l13.71,51.17c0.29,1.06,0.96,1.93,1.91,2.48c0.63,0.37,1.33,0.55,2.04,0.55
		c0.36,0,0.72-0.04,1.07-0.14l10.29-2.76l6.42,23.98c0.63,2.36,2.78,3.91,5.1,3.91c0.45,0,0.91-0.05,1.37-0.18
		c2.81-0.75,4.48-3.66,3.73-6.47l-6.43-23.97l10.28-2.76C124.07,161.48,125.37,159.23,124.78,157.06z M116.34,189.26
		c0.51,1.88-0.61,3.83-2.5,4.33c-1.89,0.51-3.84-0.61-4.34-2.5l-6.43-23.97l6.85-1.84L116.34,189.26z M121.44,160.4l-10.28,2.76
		l-0.85,0.22l-0.85,0.22l-6.85,1.84l-0.83,0.22l-0.83,0.22l-10.28,2.76c-0.61,0.16-1.25,0.08-1.8-0.23
		c-0.54-0.32-0.93-0.82-1.1-1.44L74.06,115.8c-1.85-6.88,2.25-13.98,9.13-15.82l10.38-2.78c6.88-1.84,13.98,2.25,15.82,9.13
		l13.72,51.17C123.43,158.76,122.69,160.06,121.44,160.4z M107.13,153.92l-1.49-5.55l-0.36-1.37h-0.01l-10.06-37.56
		c-0.26-0.97-0.89-1.79-1.77-2.29c-0.58-0.34-1.23-0.51-1.88-0.51c-0.33,0-0.66,0.04-0.98,0.13c-0.98,0.26-1.8,0.89-2.3,1.76
		c-0.51,0.88-0.63,1.89-0.38,2.87l10.06,37.55l0.37,1.37l1.49,5.55c0.12,0.44,0.31,0.85,0.56,1.19c0.7,1,1.86,1.62,3.1,1.62
		c0.33,0,0.66-0.04,0.98-0.13c0.97-0.26,1.79-0.89,2.29-1.77c0.27-0.48,0.44-0.99,0.49-1.53c0,0,0,0,0-0.01
		C107.29,154.8,107.24,154.36,107.13,153.92z M105.25,155.91c-0.28,0.48-0.72,0.81-1.25,0.96c-1.09,0.29-2.22-0.36-2.5-1.45
		l-1.65-6.16l-0.26-0.99l-0.25-0.92l-9.76-36.41c-0.3-1.09,0.36-2.21,1.45-2.5c0.53-0.15,1.08-0.07,1.55,0.2
		c0.48,0.27,0.81,0.72,0.95,1.25l9.76,36.4l0.25,0.94l0.26,0.98l1.65,6.15C105.58,154.89,105.51,155.45,105.25,155.91z
		 M97.63,156.46L85.7,111.98c-0.45-1.69-1.99-2.8-3.66-2.8c-0.32,0-0.64,0.04-0.97,0.13c-0.98,0.26-1.8,0.89-2.3,1.77
		c-0.51,0.88-0.63,1.89-0.38,2.87l11.92,44.47c0.45,1.69,1.99,2.81,3.66,2.81c0.33,0,0.66-0.04,0.98-0.14
		c0.97-0.25,1.79-0.89,2.29-1.75C97.75,158.46,97.89,157.44,97.63,156.46z M95.74,158.46c-0.27,0.48-0.72,0.81-1.25,0.96
		c-1.09,0.29-2.21-0.36-2.5-1.45l-11.92-44.48c-0.14-0.53-0.06-1.08,0.21-1.55c0.27-0.48,0.71-0.81,1.24-0.95
		c1.09-0.3,2.22,0.36,2.52,1.45l11.91,44.47C96.09,157.44,96.02,158,95.74,158.46z M116.63,151.37l-11.92-44.47
		c-0.45-1.69-1.99-2.81-3.67-2.81c-0.32,0-0.64,0.04-0.97,0.13c-2.01,0.54-3.21,2.62-2.67,4.64l11.92,44.47
		c0.25,0.98,0.89,1.8,1.77,2.3c0.58,0.34,1.23,0.51,1.88,0.51c0.33,0,0.66-0.04,0.98-0.13
		C115.96,155.47,117.17,153.39,116.63,151.37z M113.5,154.33c-0.53,0.14-1.08,0.07-1.55-0.2c-0.48-0.27-0.81-0.72-0.95-1.25
		L99.07,108.4c-0.3-1.09,0.36-2.21,1.45-2.5c1.1-0.3,2.22,0.36,2.5,1.45l11.92,44.48C115.23,152.91,114.59,154.03,113.5,154.33z
		 M134.15,77.45c0,1.43-1.15,2.58-2.58,2.58c-1.03,0-1.91-0.59-2.33-1.46c-0.16-0.34-0.25-0.72-0.25-1.12
		c0-0.25,0.04-0.51,0.11-0.75h0.01c0.32-1.06,1.3-1.83,2.46-1.83c0.64,0,1.22,0.23,1.67,0.61c0.49,0.41,0.81,0.99,0.89,1.65
		C134.14,77.24,134.15,77.35,134.15,77.45z M171.55,53.89c0,1.43-1.15,2.58-2.58,2.58c-1.43,0-2.58-1.15-2.58-2.58
		c0-1.43,1.15-2.58,2.58-2.58C170.4,51.31,171.55,52.47,171.55,53.89z M151.41,38.54c0,1.43-1.16,2.59-2.59,2.59
		c-1.42,0-2.58-1.16-2.58-2.59c0-1.42,1.16-2.58,2.58-2.58C150.25,35.96,151.41,37.12,151.41,38.54z M187.31,83.76
		c0.8-2.07,1.33-4.21,1.59-6.35c0.02-0.14,0.03-0.27,0.05-0.4c0.07-0.78,0.12-1.57,0.12-2.36c0.01-0.12,0.01-0.22,0.01-0.34V74.3
		c-0.03-4.84-1.47-9.64-4.43-13.98c-1.36-2.01-2.59-3.14-3.45-3.76c0.58-1.94,0.76-4.05,0.52-6.21c-0.63-5.56-3.89-10.48-8.59-13.04
		c0.51-3.15,0.22-6.27-0.58-8.82c-1.29-4.09-3.89-6.94-7.22-7.96c-0.01-1.1-0.14-2.21-0.38-3.34c-1.31-6.02-5.62-11.01-11.82-13.69
		L149.68,2l0.97,3.64c0.33,1.23,0.8,3.58,0.39,5.68c-0.06,0.32-0.54,0.75-1.22,1.13c-0.69,0.39-1.55,0.74-2.42,0.89
		c-9.1,1.56-12.07,5.36-13.63,8.5c-1.23,2.44-1.78,6.15-1.25,9.27c-2.56,0.86-5.8,2.49-7.92,6.47c-1.7,3.2-2.35,8.31-1.15,12.13
		c-2.62,1.09-5.36,2.86-7.36,5.92c-2.82,4.31-3.76,10.8,0,16c-1.38,0.89-2.7,2.04-3.77,3.58c-0.58,0.83-1.09,1.78-1.52,2.84
		c-0.2,0.49-0.38,1-0.54,1.54c-0.4,1.37-0.53,2.8-0.45,4.21c-1.34,0.16-2.58,0.76-3.55,1.74c-1.16,1.15-1.8,2.68-1.8,4.32v1.81
		c0,1.64,0.63,3.17,1.8,4.32c1.15,1.15,2.68,1.8,4.32,1.8h4.21c0.02,0.06,0.03,0.13,0.05,0.2c0.31,1.18,0.63,2.44,0.98,3.78v0.01
		c1.43,5.54,3.18,12.31,5.1,19.67c0.33,1.25,0.66,2.5,0.98,3.78c0.11,0.38,0.2,0.76,0.31,1.14v0.01c0.86,3.28,1.74,6.65,2.63,10.04
		v0.01c0.74,2.78,1.48,5.59,2.22,8.38c0.33,1.26,0.67,2.52,0.99,3.76c1.8,6.76,3.57,13.39,5.22,19.47v0.01
		c0.35,1.27,0.69,2.5,1.01,3.72c2.11,7.74,3.97,14.33,5.33,18.82v0.01c0.03,0.11,0.06,0.19,0.1,0.3c0.27,0.93,0.54,1.75,0.77,2.48
		c0.11,0.34,0.23,0.67,0.39,0.98c0.41,0.89,0.98,1.69,1.68,2.39c0.36,0.36,0.74,0.68,1.16,0.95c0,0.01,0.01,0.01,0.01,0.01
		c1.62,1.17,3.65,1.83,5.83,1.83c2.18,0,4.2-0.64,5.8-1.79c1.25-0.87,2.25-2.02,2.87-3.39c0.17-0.32,0.3-0.64,0.4-0.98
		c0.23-0.73,0.49-1.55,0.77-2.47c0.03-0.12,0.07-0.22,0.11-0.35v-0.01c1.36-4.49,3.21-11.08,5.32-18.78
		c0.34-1.2,0.68-2.44,1.01-3.71c1.65-6.08,3.42-12.7,5.22-19.48c0.34-1.25,0.67-2.5,1-3.76c0.74-2.8,1.48-5.62,2.22-8.41
		c0.89-3.4,1.78-6.76,2.64-10.05v-0.01c0.1-0.38,0.19-0.75,0.29-1.12c0.34-1.28,0.67-2.54,0.98-3.77
		c1.92-7.36,3.69-14.13,5.12-19.67c0.35-1.34,0.68-2.61,0.98-3.79c0.02-0.07,0.03-0.15,0.05-0.21h2.72c1.64,0,3.17-0.63,4.32-1.79
		c1.16-1.16,1.8-2.7,1.8-4.32v-1.82C193.2,86.67,190.48,83.88,187.31,83.76z M137.04,23.47c1.26-2.52,3.55-5.25,10.99-6.53
		c2.34-0.4,6.02-2.04,6.59-4.91c0.23-1.16,0.27-2.34,0.2-3.46c3.4,2.31,5.73,5.6,6.55,9.39c0.31,1.41,0.37,2.78,0.21,4.08
		c-3.17,3.24-7.2,5.25-12.55,6.27c-1.97,0.37-4.01,0.61-5.98,0.83c-2.28,0.26-4.63,0.54-6.98,1.04
		C135.79,28.03,136.12,25.3,137.04,23.47z M127.83,39.29c1.53-2.89,3.83-4.07,5.97-4.76c0.2-0.07,0.4-0.13,0.6-0.19
		c0.95-0.27,1.9-0.51,2.86-0.69c2.02-0.4,4.08-0.63,6.21-0.89c2.04-0.24,4.15-0.49,6.25-0.88c0.49-0.1,0.96-0.19,1.43-0.31
		c2.17-0.49,4.13-1.14,5.94-1.98c1.84-0.85,3.5-1.88,5.02-3.12c0.89-0.71,1.73-1.5,2.53-2.36c0.09,0.03,0.18,0.07,0.26,0.12
		c1.86,0.85,3.34,2.72,4.15,5.33c0.76,2.4,0.93,5.55,0.16,8.6c-4.28,3.49-11.16,5.98-20.47,7.42c-2.7,0.42-5.49,0.69-8.17,0.94
		c-4.26,0.4-8.66,0.81-12.98,1.85c-0.22,0.05-0.44,0.11-0.68,0.17C126.15,45.91,126.46,41.87,127.83,39.29z M119.16,57.61
		c1.57-2.43,3.8-3.82,6.01-4.67c1.12-0.44,2.23-0.76,3.27-1c1.13-0.26,2.27-0.5,3.41-0.69c3.01-0.51,6.08-0.79,9.06-1.08
		c2.72-0.25,5.51-0.52,8.29-0.95h0.03c0.02,0,0.05-0.01,0.07-0.01c6.53-1,11.89-2.48,16.17-4.48l0.01-0.01
		c1.45-0.67,2.76-1.4,3.96-2.19c0,0,0.01,0,0.01-0.01c0.85-0.56,1.64-1.14,2.37-1.76c0.12,0.07,0.23,0.14,0.34,0.22
		c3.2,2.09,5.46,5.77,5.92,9.77c0.26,2.34-0.12,4.53-1.06,6.46c-0.01,0.01-0.01,0.02-0.01,0.02c-5.42,4.61-15.6,5.98-23.15,7.02
		c-1.78,0.24-3.4,0.46-4.83,0.7c-3.14,0.54-6.36,0.88-9.49,1.19c-4.93,0.52-10.02,1.05-15.03,2.35l-0.8,0.21
		c-1.29,0.33-2.77,0.71-4.28,1.28C115.77,65.54,117.45,60.23,119.16,57.61z M113.79,80.61c0.18-0.63,0.4-1.22,0.66-1.75
		c0.99-2.17,2.47-3.54,4.16-4.5c0.56-0.33,1.16-0.61,1.76-0.85c0.63-0.25,1.28-0.47,1.92-0.66c0.78-0.23,1.56-0.43,2.33-0.62
		l0.82-0.21c4.75-1.24,9.69-1.75,14.48-2.25c3.19-0.33,6.48-0.67,9.73-1.22c0.63-0.12,1.32-0.22,2.04-0.32
		c0.01-0.01,0.01-0.01,0.02-0.01c0.83-0.12,1.72-0.24,2.65-0.37c3.33-0.44,7.13-0.96,10.9-1.8c5.35-1.18,10.59-3,14.25-6.17
		c0.04,0.04,0.09,0.08,0.15,0.13c0.51,0.48,1.19,1.22,1.97,2.37c3.33,4.89,4.41,10.49,3.4,15.93v0.01
		c-0.33,1.84-0.91,3.67-1.71,5.43h-29.99l-7.49-0.01h-32.35c-0.03-0.37-0.04-0.73-0.02-1.1C113.48,81.95,113.58,81.28,113.79,80.61z
		 M118.55,97.79h3.64l6.19,10.74l-4.86,8.42C121.61,109.59,119.89,102.96,118.55,97.79z M167.6,108.53l-8.22,14.26l-8.22-14.26
		l6.2-10.75h4.05L167.6,108.53z M164.57,97.79h9.23l-4.61,8L164.57,97.79z M141.35,125.54l8.22-14.26l8.22,14.26l-8.22,14.27
		L141.35,125.54z M157.79,159.56l-8.22,14.27l-8.22-14.27l8.22-14.27L157.79,159.56z M149.57,105.79l-4.61-8h9.23L149.57,105.79z
		 M147.99,108.53l-8.22,14.26l-8.22-14.27l6.19-10.74h4.06L147.99,108.53z M129.96,105.79l-4.61-8h9.23L129.96,105.79z
		 M129.15,138.41v-0.01c-1.59-6.03-3.16-12.02-4.64-17.67c0,0,0,0,0-0.01l5.45-9.45l8.22,14.27l-8.23,14.27L129.15,138.41z
		 M139.77,128.29l8.22,14.26l-8.23,14.28l-8.22-14.27L139.77,128.29z M131.85,148.58l6.34,10.98l-2.33,4.03
		C134.56,158.8,133.21,153.73,131.85,148.58z M142.24,186.54c-1.46-4.98-3.31-11.65-5.37-19.21v-0.01l2.9-5.02l8.22,14.27
		L142.24,186.54z M155.17,192.27c-0.69,2.13-2.99,3.63-5.6,3.63c-2.61,0-4.91-1.49-5.6-3.63c-0.2-0.62-0.42-1.33-0.66-2.1
		l6.26-10.85l6.26,10.86C155.59,190.95,155.37,191.65,155.17,192.27z M156.91,186.54l-5.76-9.97l8.23-14.28l2.9,5.02
		C160.21,174.89,158.36,181.57,156.91,186.54z M163.28,163.59l-2.33-4.03l6.36-11.02C165.94,153.71,164.58,158.79,163.28,163.59z
		 M159.38,156.82l-8.22-14.27l8.22-14.27l8.22,14.27L159.38,156.82z M174.63,120.73c-1.48,5.65-3.04,11.65-4.64,17.68v0.01
		l-0.8,1.38l-8.22-14.27l8.22-14.27l5.44,9.45C174.63,120.73,174.63,120.73,174.63,120.73z M175.61,116.95l-4.84-8.41l6.19-10.75
		h3.63C179.25,102.96,177.54,109.58,175.61,116.95z M189.54,91.68c0,0.66-0.25,1.27-0.72,1.73c-0.46,0.47-1.08,0.72-1.73,0.72h-8.01
		L179,94.27l-0.08-0.14h-19.45l-0.07,0.14l-0.08-0.14h-19.46l-0.08,0.14l-0.07-0.14h-19.46l-0.07,0.14l-0.07-0.14h-4.35
		c0.01,0.04,0.02,0.07,0.03,0.12c-0.07-0.03-0.15-0.07-0.21-0.12h-4.97c-1.31,0-2.46-1.14-2.46-2.46v-1.81
		c0-0.67,0.25-1.28,0.72-1.74c0.43-0.43,1.01-0.69,1.63-0.72h33.26l11.7,0.01h31.66c0.66,0,1.27,0.25,1.73,0.72
		c0.47,0.47,0.72,1.08,0.72,1.73V91.68z"/>
</g>
<g id="Layer_11">
</g>
<g id="Layer_12">
</g>
<g id="Layer_13">
</g>
<g id="Layer_1">
</g>
</svg>
