<?xml version="1.0" encoding="utf-8"?>
<!-- Generator: Adobe Illustrator 27.8.1, SVG Export Plug-In . SVG Version: 6.00 Build 0)  -->
<svg version="1.1" xmlns="http://www.w3.org/2000/svg" xmlns:xlink="http://www.w3.org/1999/xlink" x="0px" y="0px"
	 viewBox="0 0 300 300" style="enable-background:new 0 0 300 300;" xml:space="preserve">
<style type="text/css">
	.st0{fill:#FFD468;}
	.st1{fill:#FFFFFF;}
	.st2{fill:#303030;}
	.st3{fill:#007D54;}
	.st4{fill:#EE3631;}
	.st5{fill:#2B2B2B;}
	.st6{fill:#FFB000;}
	.st7{opacity:0.35;fill:#FFFFFF;}
	.st8{fill:#FF9CC4;}
	.st9{fill:#B79567;}
	.st10{fill:#D2E6FF;}
	.st11{fill:#5C87C6;}
	.st12{fill:#0E2F5E;}
	.st13{fill:#FCB040;}
	.st14{fill:#E09C05;}
	.st15{fill:#A8112B;}
	.st16{fill-rule:evenodd;clip-rule:evenodd;fill:#FEFEFE;}
	.st17{fill:#606060;}
	.st18{fill:#E0E0E0;}
	.st19{fill:#3DA1D8;}
	.st20{fill:#0C8EBC;}
	.st21{fill:#EFC6A3;}
	.st22{fill:#B0DFFF;}
	.st23{fill:#006284;}
	.st24{fill:#5B5B5B;}
	.st25{fill:#3A1801;}
	.st26{fill:#616D0B;}
	.st27{fill:#98B11F;}
	.st28{fill:#EACAB0;}
	.st29{fill:#442B18;}
	.st30{fill:#663412;}
	.st31{fill:#F5F5F5;}
	.st32{fill:#E386B3;}
	.st33{fill:#B5D6E8;}
	.st34{fill:#88C2E2;}
	.st35{fill:#CEF97A;}
	.st36{fill:#E07D46;}
	.st37{fill:#9FE8FF;}
	.st38{fill:#FF97C6;}
	.st39{fill:#FFB54A;}
	.st40{fill:#472A54;}
	.st41{fill:#F2CD9D;}
	.st42{fill:#4F2910;}
	.st43{fill:#8E630D;}
	.st44{fill:#784C3F;}
	.st45{fill:#D3974E;}
	.st46{fill:none;}
	.st47{fill:#4F361A;}
	.st48{fill-rule:evenodd;clip-rule:evenodd;fill:#561332;}
	.st49{fill-rule:evenodd;clip-rule:evenodd;fill:#F3CF9F;}
	.st50{fill-rule:evenodd;clip-rule:evenodd;fill:#FFF3DB;}
	.st51{fill-rule:evenodd;clip-rule:evenodd;fill:#D4AB74;}
	.st52{fill-rule:evenodd;clip-rule:evenodd;fill:#FFBBE8;}
	.st53{fill-rule:evenodd;clip-rule:evenodd;fill:#DB61A1;}
	.st54{fill-rule:evenodd;clip-rule:evenodd;fill:#FF8DCE;}
	.st55{fill:#D95E95;}
	.st56{fill:#F77EB4;}
	.st57{fill:#CCCCCC;}
	.st58{fill-rule:evenodd;clip-rule:evenodd;fill:#6E1C42;}
	.st59{fill-rule:evenodd;clip-rule:evenodd;fill:#852E57;}
	.st60{fill:#DEC210;}
	.st61{fill:#F7D917;}
	.st62{fill:#212121;}
	.st63{fill:#562F0E;}
	.st64{fill-rule:evenodd;clip-rule:evenodd;fill:#2B2B2B;}
	.st65{fill-rule:evenodd;clip-rule:evenodd;}
	.st66{fill:#F7931E;}
	.st67{fill:#754C24;}
	.st68{fill:#FEFEFE;}
	.st69{fill:#CFDFE8;}
	.st70{fill:#FECE9E;}
	.st71{fill:#F0433D;}
	.st72{fill:#FEA475;}
	.st73{fill:#FE8861;}
	.st74{fill:#D6251E;}
	.st75{fill:#C7221C;}
	.st76{fill:#8C8C8C;}
	.st77{fill:#A6A6A6;}
	.st78{fill:#593A1B;}
	.st79{fill:#60350F;}
	.st80{fill:#B0773B;}
	.st81{fill:#FFC28A;}
	.st82{fill:#F24140;}
	.st83{fill:#FFCFA0;}
	.st84{fill:#D39A72;}
	.st85{fill:#282828;}
	.st86{fill:#B4B7B9;}
	.st87{fill:#505052;}
	.st88{fill:#FF6258;stroke:#2A2728;stroke-width:1.5;stroke-linecap:round;stroke-linejoin:round;stroke-miterlimit:10;}
	.st89{fill:#00B47B;stroke:#2A2728;stroke-width:1.5;stroke-linecap:round;stroke-linejoin:round;stroke-miterlimit:10;}
	.st90{opacity:0.2;fill:#FFFFFF;}
	.st91{opacity:0.3;fill:#EF5047;}
	.st92{opacity:0.3;fill:#00A06D;}
	.st93{fill:none;stroke:#2A2728;stroke-width:1.5;stroke-linecap:round;stroke-linejoin:round;stroke-miterlimit:10;}
	.st94{fill:url(#SVGID_1_);}
	.st95{fill:#603813;}
	.st96{fill:#DD7904;}
	.st97{fill:url(#SVGID_00000120539279795883834950000000871026331816892343_);}
	.st98{fill:url(#SVGID_00000168076568619255342540000001084580013620598166_);}
	.st99{fill:url(#SVGID_00000167397590825445012930000018418448479255046289_);}
	.st100{fill:#462009;}
	.st101{opacity:0.29;fill:#FFFFFF;}
	.st102{fill:url(#SVGID_00000172402724031535853530000010053422154341093253_);}
	.st103{fill:url(#SVGID_00000037661061416710451590000010440233628101302971_);}
	.st104{fill:url(#SVGID_00000115504633245686786950000016878595703239435966_);}
	.st105{fill:url(#SVGID_00000101802259939576810500000017186950711321593475_);}
	.st106{fill:url(#SVGID_00000019663518763677689140000017996131832324063646_);}
	.st107{fill:url(#SVGID_00000139288884422319135520000008278132991095878577_);}
	.st108{fill:url(#SVGID_00000085966409171109561340000009016660393682484149_);}
	.st109{fill:url(#SVGID_00000107580363552234719640000017134437873034078877_);}
	.st110{fill:url(#SVGID_00000062892610947417181040000006822366641093452166_);}
	.st111{fill:url(#SVGID_00000011742263990008074160000004992272602054237574_);}
	.st112{fill:url(#SVGID_00000022556218430507439960000014268798369052570527_);}
	.st113{fill:url(#SVGID_00000065769215664339921550000006644469335497257349_);}
	.st114{fill:url(#SVGID_00000106826679820272749390000018096695648205202330_);}
	.st115{fill:#E84E36;}
	.st116{fill:#232323;}
	.st117{fill:#22661B;}
	.st118{fill:none;stroke:#37312B;stroke-width:6;stroke-linecap:round;stroke-linejoin:round;stroke-miterlimit:10;}
	.st119{fill:#37312B;}
	.st120{fill:#FAC952;}
	.st121{fill:none;stroke:#7B5714;stroke-width:2;stroke-linecap:round;stroke-linejoin:round;stroke-miterlimit:10;}
	.st122{fill:none;stroke:#1B1B1B;stroke-width:0.4535;stroke-linecap:round;stroke-linejoin:round;stroke-miterlimit:10;}
	.st123{fill:#EFA760;}
	.st124{fill:#63C8CC;}
	.st125{fill:#FFFBF2;}
	.st126{fill:#FFD2ED;}
	.st127{fill:#1B1B1B;}
	.st128{fill:#BBFFFF;}
	.st129{fill:#202044;}
	.st130{fill:#F05E61;}
	.st131{fill:#FEC96C;}
	.st132{fill:#BCA7D0;}
	.st133{fill:none;stroke:#4D5DAA;stroke-width:1.4;stroke-linecap:round;stroke-linejoin:round;stroke-miterlimit:10;}
	.st134{fill:none;stroke:#FEC96C;stroke-width:1.4;stroke-linecap:round;stroke-linejoin:round;stroke-miterlimit:10;}
	.st135{fill:none;stroke:#F05E61;stroke-width:1.4;stroke-linecap:round;stroke-linejoin:round;stroke-miterlimit:10;}
</style>
<g id="Layer_2">
</g>
<g id="Layer_3">
</g>
<g id="Layer_4">
</g>
<g id="Layer_5">
</g>
<g id="Layer_6">
</g>
<g id="Layer_7">
</g>
<g id="Layer_8">
</g>
<g id="Layer_9">
</g>
<g id="Layer_10">
</g>
<g id="Layer_11">
	<path class="st41" d="M240.27,251.82c-24.88,22.11-56.9,34.27-90.27,34.27s-65.38-12.16-90.26-34.27H240.27z M150,13.91
		C74.96,13.91,13.91,74.96,13.91,150c0,7.7,0.65,15.44,1.94,22.99c0.66,3.92,1.52,7.89,2.55,11.78c0.02,0.08,0.04,0.15,0.06,0.23
		h263.08c0.02-0.08,0.04-0.15,0.06-0.23c1.03-3.89,1.89-7.86,2.55-11.78c1.29-7.55,1.94-15.29,1.94-22.99
		C286.09,74.96,225.04,13.91,150,13.91z"/>
	<path class="st1" d="M149.56,16.15l3.44,6.96l7.68,1.12l-5.56,5.42l1.31,7.66l-6.87-3.61l-6.88,3.61l1.31-7.66l-5.56-5.42
		l7.69-1.12L149.56,16.15z M129.9,30.81l-4.39,0.64l3.17,3.1l-0.75,4.37l3.93-2.06l3.92,2.06l-0.75-4.37l3.17-3.1l-4.39-0.64
		l-1.96-3.98L129.9,30.81z M164.84,30.28l-4.39,0.64l3.18,3.1l-0.75,4.37l3.93-2.06l3.92,2.06l-0.75-4.37l3.17-3.1l-4.39-0.64
		l-1.96-3.98L164.84,30.28z M131.4,274.54H107.5v1.34h23.89V274.54z M131.4,258.34H107.5v1.35h23.89V258.34z M192.5,274.54h-23.9
		v1.34h23.9V274.54z M192.5,258.34h-23.9v1.35h23.9V258.34z"/>
	<path class="st42" d="M149.39,256.97c3.67,0.39,6.56,4.52,6.56,9.57c0,5.11-2.96,9.28-6.69,9.58c-0.5-2.46-0.71-5.43,0.25-7.78
		C150.91,264.93,150.06,259.83,149.39,256.97z M148.02,268.33c1.37-3.34,0.58-8.31-0.08-11.2c-3.23,0.92-5.65,4.78-5.65,9.4
		c0,4.51,2.31,8.3,5.42,9.33C147.26,273.45,147.08,270.61,148.02,268.33z M287.91,150c0,7.8-0.66,15.64-1.96,23.29
		c-0.68,3.98-1.55,8-2.59,11.94c-5.54,21.05-16.21,40.77-30.86,57.02c-3.19,3.55-6.64,6.99-10.25,10.25
		c-25.33,22.83-58.09,35.41-92.25,35.41s-66.92-12.58-92.25-35.41c-3.61-3.26-7.06-6.7-10.26-10.25
		C32.85,226,22.18,206.28,16.64,185.23c-1.04-3.94-1.91-7.96-2.59-11.94c-1.3-7.65-1.96-15.49-1.96-23.29
		C12.09,73.96,73.96,12.09,150,12.09S287.91,73.96,287.91,150z M240.27,251.82H59.74c24.88,22.11,56.89,34.27,90.26,34.27
		S215.39,273.93,240.27,251.82z M281.54,185c0.02-0.08,0.04-0.15,0.06-0.23c1.03-3.89,1.89-7.86,2.55-11.78
		c1.29-7.55,1.94-15.29,1.94-22.99c0-75.04-61.05-136.09-136.09-136.09S13.91,74.96,13.91,150c0,7.7,0.65,15.44,1.94,22.99
		c0.66,3.92,1.52,7.89,2.55,11.78c0.02,0.08,0.04,0.15,0.06,0.23H281.54z"/>
	<path class="st43" d="M274.32,172.01c1.66-0.46,3.1-0.48,4.13-0.36c1.02,0.11,1.64,0.36,1.64,0.36l-0.12,0.13
		c0,0-0.13,1.31-0.6,3.29c-0.48,1.97-1.48,4.55-2.92,7.09c-0.79,1.24-1.71,2.46-2.78,3.58c-1.05,1.12-2.26,2.12-3.69,2.89
		c-2.83,1.56-6.17,2.33-10.31,1.66c-0.64,1.48-1.27,2.95-1.9,4.41c-0.69,1.43-1.37,2.84-2.04,4.24c-2.08,4.14-4.3,8.03-6.59,11.6
		c-0.37,0.58-0.73,1.15-1.09,1.71c3.03-2.99,5.7-4.94,8.19-6.1c2.41-1.21,4.6-1.64,6.43-1.66c1.83-0.02,3.32,0.38,4.34,0.78
		c1.02,0.41,1.58,0.84,1.58,0.84l-0.15,0.09c0,0-0.49,1.19-1.49,2.91c-0.97,1.74-2.57,3.92-4.65,5.91
		c-4.24,3.96-10.63,6.81-18.5,3.33c-0.49,0.67-0.98,1.33-1.46,1.98c-2.25,2.92-4.38,5.54-6.37,7.78c-1.96,2.26-3.78,4.13-5.27,5.67
		c-1.52,1.53-2.74,2.68-3.59,3.45c-0.87,0.76-1.33,1.17-1.33,1.17s0.41-0.46,1.18-1.31c0.77-0.85,1.85-2.14,3.22-3.77
		c1.35-1.65,2.98-3.67,4.76-6.04c1.8-2.36,3.72-5.1,5.79-8.1c2-3.05,4.15-6.35,6.21-9.98c0.52-0.91,1.07-1.82,1.56-2.77
		c-3.39-2.83-5.27-5.8-6.33-8.65c-1.08-2.86-1.23-5.56-1.1-7.96c0.21-2.37,0.67-4.45,1.19-5.93c0.26-0.74,0.5-1.33,0.65-1.75
		c0.16-0.41,0.27-0.64,0.27-0.64l0.05,0.14c0,0,0.73,0.15,1.79,0.63c1.06,0.48,2.45,1.29,3.76,2.66c2.52,2.69,4.84,7.82,2.21,16.75
		c0.65-1.35,1.36-2.68,2-4.07c0.93-2.07,1.92-4.15,2.75-6.32c0.43-1.09,0.88-2.16,1.29-3.27c0.39-1.11,0.79-2.22,1.19-3.34
		c1.27-3.65,2.35-7.42,3.23-11.23c-3.69-1.78-6.26-4.05-7.99-6.34c-1.65-2.3-2.75-4.67-3.27-6.82c-0.23-1.08-0.5-2.1-0.61-3.03
		c-0.13-0.94-0.18-1.78-0.18-2.5c0.03-0.72-0.03-1.3-0.01-1.71c0.01-0.41,0.03-0.64,0.03-0.64l0.1,0.11c0,0,0.63-0.09,1.64-0.05
		c1.02,0.05,2.41,0.22,3.95,0.82c0.76,0.3,1.59,0.71,2.37,1.26c0.77,0.56,1.53,1.26,2.26,2.15c0.73,0.9,1.42,1.98,2.03,3.3
		c0.58,1.31,0.98,2.85,1.32,4.66c0.17-1.34,0.34-2.68,0.51-4.02c0.09-1.34,0.17-2.68,0.25-4.01c0.22-2.36,0.09-4.71,0.13-7.03
		c0.04-1.16-0.08-2.31-0.16-3.45c-0.08-1.14-0.17-2.28-0.25-3.4c-0.03-0.7-0.17-1.38-0.26-2.06c-4.21-0.29-7.41-1.45-9.82-2.92
		c-2.55-1.46-4.33-3.25-5.63-5.02c-1.44-1.74-2.31-3.49-2.84-4.83c-0.66-1.3-0.91-2.21-0.91-2.21l0.13,0.06c0,0,0.58-0.34,1.58-0.69
		c1.01-0.35,2.44-0.7,4.17-0.68c0.86,0.01,1.8,0.12,2.8,0.38c1,0.26,1.97,0.7,3.01,1.34c2.06,1.28,4.38,3.39,6.19,6.91
		c-0.23-1.04-0.46-2.08-0.68-3.1c-1.12-3.99-2.22-7.77-3.61-11.12c-1.02-2.91-2.35-5.44-3.42-7.81c-6.56,2.01-11.39,0.23-14.36-2.09
		c-1.62-1.11-2.85-2.37-3.65-3.37c-0.81-1-1.22-1.73-1.22-1.73l0.11,0.03c0,0,1.68-1.79,4.67-2.33c1.5-0.27,3.34-0.21,5.51,0.6
		c1.06,0.42,2.31,0.96,3.44,1.86c1.16,0.89,2.38,2.02,3.66,3.45c-0.91-1.65-1.74-3.15-2.45-4.44c-1.08-1.84-2.03-3.22-2.63-4.2
		c-0.62-0.97-0.94-1.49-0.94-1.49s0.38,0.48,1.1,1.37c0.69,0.91,1.82,2.18,3.05,3.94c0.54,0.8,1.14,1.69,1.77,2.64
		c-0.58-1.66-0.91-3.23-1.2-4.59c-0.3-1.35-0.44-2.59-0.45-3.71c-0.02-2.24,0.45-4.02,1.1-5.39c1.29-2.75,3.33-3.79,3.33-3.79
		l-0.01-0.14c0,0,0.67,0.78,1.53,2.11c0.86,1.33,1.91,3.22,2.65,5.4c0.69,2.22,0.94,4.83,0.43,7.34c-0.26,1.26-0.72,2.51-1.45,3.72
		c-0.73,1.21-1.78,2.41-3.09,3.51c0.69,1.24,1.41,2.54,2.17,3.91c0.8,1.35,1.47,2.86,2.16,4.42c0.21,0.47,0.42,0.94,0.64,1.42
		c-0.24-1.79-0.31-3.42-0.25-4.89c-0.03-1.43,0.08-2.72,0.29-3.87c0.42-2.31,1.24-4.09,2.17-5.4c0.92-1.32,1.95-2.19,2.74-2.71
		c0.8-0.52,1.38-0.71,1.38-0.71l-0.01,0.16c0,0,0.62,0.99,1.37,2.63c0.37,0.82,0.78,1.81,1.15,2.91c0.36,1.11,0.76,2.3,0.89,3.64
		c0.33,2.66,0.3,5.55-0.71,8.25c-1.09,2.75-3.05,5.23-6.27,7.1c0.29,0.88,0.67,1.75,0.88,2.68c0.53,2.06,1.14,4.18,1.64,6.37
		c0.38,2.21,0.85,4.46,1.15,6.78c0.17,1.81,0.35,3.64,0.53,5.49c0.73-3.86,1.97-6.83,3.11-9.1c1.22-2.27,2.67-3.87,4.08-4.95
		c1.41-1.09,2.7-1.65,3.72-1.93c1-0.28,1.67-0.28,1.67-0.28l-0.06,0.17c0,0,0.02,0.08,0.07,0.23c0.05,0.15,0.11,0.38,0.16,0.67
		c0.11,0.58,0.26,1.42,0.38,2.46c0.23,2.06,0.48,4.88-0.14,7.86c-0.27,1.49-0.67,3-1.24,4.45c-0.63,1.45-1.49,2.85-2.52,4.09
		c-1.04,1.25-2.28,2.34-3.78,3.21c-1.55,0.87-3.33,1.51-5.37,1.88l-0.01,0.13c-0.07,1.23-0.13,2.45-0.2,3.69
		c-0.1,1.23-0.28,2.46-0.42,3.69c-0.24,2.47-0.73,4.92-1.18,7.36c-0.28,1.75-0.82,3.44-1.22,5.16c-0.4,1.72-0.94,3.39-1.47,5.07
		C266.9,175.64,270.99,172.94,274.32,172.01z M24.24,172.01c-1.66-0.46-3.1-0.48-4.13-0.36c-1.02,0.11-1.64,0.36-1.64,0.36
		l0.12,0.13c0,0,0.13,1.31,0.6,3.29c0.48,1.97,1.48,4.55,2.92,7.09c0.79,1.24,1.71,2.46,2.78,3.58c1.05,1.12,2.26,2.12,3.69,2.89
		c2.83,1.56,6.17,2.33,10.31,1.66c0.64,1.48,1.27,2.95,1.9,4.41c0.69,1.43,1.37,2.84,2.04,4.24c2.08,4.14,4.3,8.03,6.59,11.6
		c0.37,0.58,0.73,1.15,1.09,1.71c-3.03-2.99-5.7-4.94-8.19-6.1c-2.41-1.21-4.6-1.64-6.43-1.66c-1.83-0.02-3.32,0.38-4.34,0.78
		c-1.02,0.41-1.58,0.84-1.58,0.84l0.15,0.09c0,0,0.49,1.19,1.49,2.91c0.97,1.74,2.57,3.92,4.65,5.91c4.24,3.96,10.63,6.81,18.5,3.33
		c0.49,0.67,0.98,1.33,1.46,1.98c2.25,2.92,4.38,5.54,6.37,7.78c1.96,2.26,3.78,4.13,5.27,5.67c1.52,1.53,2.74,2.68,3.59,3.45
		c0.87,0.76,1.33,1.17,1.33,1.17s-0.41-0.46-1.18-1.31c-0.77-0.85-1.85-2.14-3.22-3.77c-1.35-1.65-2.98-3.67-4.76-6.04
		c-1.8-2.36-3.72-5.1-5.79-8.1c-2-3.05-4.15-6.35-6.21-9.98c-0.52-0.91-1.07-1.82-1.56-2.77c3.39-2.83,5.27-5.8,6.33-8.65
		c1.08-2.86,1.23-5.56,1.1-7.96c-0.21-2.37-0.67-4.45-1.19-5.93c-0.26-0.74-0.5-1.33-0.65-1.75c-0.16-0.41-0.27-0.64-0.27-0.64
		L55.33,182c0,0-0.73,0.15-1.79,0.63c-1.06,0.48-2.45,1.29-3.76,2.66c-2.52,2.69-4.84,7.82-2.21,16.75c-0.65-1.35-1.36-2.68-2-4.07
		c-0.93-2.07-1.92-4.15-2.75-6.32c-0.43-1.09-0.88-2.16-1.29-3.27c-0.39-1.11-0.79-2.22-1.19-3.34c-1.27-3.65-2.35-7.42-3.23-11.23
		c3.69-1.78,6.26-4.05,7.99-6.34c1.65-2.3,2.75-4.67,3.27-6.82c0.23-1.08,0.5-2.1,0.61-3.03c0.13-0.94,0.18-1.78,0.18-2.5
		c-0.03-0.72,0.03-1.3,0.01-1.71c-0.01-0.41-0.03-0.64-0.03-0.64l-0.1,0.11c0,0-0.63-0.09-1.64-0.05c-1.02,0.05-2.41,0.22-3.95,0.82
		c-0.76,0.3-1.59,0.71-2.37,1.26c-0.77,0.56-1.53,1.26-2.26,2.15c-0.73,0.9-1.42,1.98-2.03,3.3c-0.58,1.31-0.98,2.85-1.32,4.66
		c-0.17-1.34-0.34-2.68-0.51-4.02c-0.09-1.34-0.17-2.68-0.25-4.01c-0.22-2.36-0.09-4.71-0.13-7.03c-0.04-1.16,0.08-2.31,0.16-3.45
		c0.08-1.14,0.17-2.28,0.25-3.4c0.03-0.7,0.17-1.38,0.26-2.06c4.21-0.29,7.41-1.45,9.82-2.92c2.55-1.46,4.33-3.25,5.63-5.02
		c1.44-1.74,2.31-3.49,2.84-4.83c0.66-1.3,0.91-2.21,0.91-2.21l-0.13,0.06c0,0-0.58-0.34-1.58-0.69c-1.01-0.35-2.44-0.7-4.17-0.68
		c-0.86,0.01-1.8,0.12-2.8,0.38c-1,0.26-1.97,0.7-3.01,1.34c-2.06,1.28-4.38,3.39-6.19,6.91c0.23-1.04,0.46-2.08,0.68-3.1
		c1.12-3.99,2.22-7.77,3.61-11.12c1.02-2.91,2.35-5.44,3.42-7.81c6.56,2.01,11.39,0.23,14.36-2.09c1.62-1.11,2.85-2.37,3.65-3.37
		c0.81-1,1.22-1.73,1.22-1.73l-0.11,0.03c0,0-1.68-1.79-4.67-2.33c-1.5-0.27-3.34-0.21-5.51,0.6c-1.06,0.42-2.31,0.96-3.44,1.86
		c-1.16,0.89-2.38,2.02-3.66,3.45c0.91-1.65,1.74-3.15,2.45-4.44c1.08-1.84,2.03-3.22,2.63-4.2c0.62-0.97,0.94-1.49,0.94-1.49
		s-0.38,0.48-1.1,1.37c-0.69,0.91-1.82,2.18-3.05,3.94c-0.54,0.8-1.14,1.69-1.77,2.64c0.58-1.66,0.91-3.23,1.2-4.59
		c0.3-1.35,0.44-2.59,0.45-3.71c0.02-2.24-0.45-4.02-1.1-5.39c-1.29-2.75-3.33-3.79-3.33-3.79l0.01-0.14c0,0-0.67,0.78-1.53,2.11
		c-0.86,1.33-1.91,3.22-2.65,5.4c-0.69,2.22-0.94,4.83-0.43,7.34c0.26,1.26,0.72,2.51,1.45,3.72c0.73,1.21,1.78,2.41,3.09,3.51
		c-0.69,1.24-1.41,2.54-2.17,3.91c-0.8,1.35-1.47,2.86-2.16,4.42c-0.21,0.47-0.42,0.94-0.64,1.42c0.24-1.79,0.31-3.42,0.25-4.89
		c0.03-1.43-0.08-2.72-0.29-3.87c-0.42-2.31-1.24-4.09-2.17-5.4c-0.92-1.32-1.95-2.19-2.74-2.71c-0.8-0.52-1.38-0.71-1.38-0.71
		l0.01,0.16c0,0-0.62,0.99-1.37,2.63c-0.37,0.82-0.78,1.81-1.15,2.91c-0.36,1.11-0.76,2.3-0.89,3.64c-0.33,2.66-0.3,5.55,0.71,8.25
		c1.09,2.75,3.05,5.23,6.27,7.1c-0.29,0.88-0.67,1.75-0.88,2.68c-0.53,2.06-1.14,4.18-1.64,6.37c-0.38,2.21-0.85,4.46-1.15,6.78
		c-0.17,1.81-0.35,3.64-0.53,5.49c-0.73-3.86-1.97-6.83-3.11-9.1c-1.22-2.27-2.67-3.87-4.08-4.95c-1.41-1.09-2.7-1.65-3.72-1.93
		c-1-0.28-1.67-0.28-1.67-0.28l0.06,0.17c0,0-0.02,0.08-0.07,0.23c-0.05,0.15-0.11,0.38-0.16,0.67c-0.11,0.58-0.26,1.42-0.38,2.46
		c-0.23,2.06-0.48,4.88,0.14,7.86c0.27,1.49,0.67,3,1.24,4.45c0.63,1.45,1.49,2.85,2.52,4.09c1.04,1.25,2.28,2.34,3.78,3.21
		c1.55,0.87,3.33,1.51,5.37,1.88l0.01,0.13c0.07,1.23,0.13,2.45,0.2,3.69c0.1,1.23,0.28,2.46,0.42,3.69
		c0.24,2.47,0.73,4.92,1.18,7.36c0.28,1.75,0.82,3.44,1.22,5.16c0.4,1.72,0.94,3.39,1.47,5.07
		C31.66,175.64,27.57,172.94,24.24,172.01z"/>
	<path class="st1" d="M150.93,165.46c9.32,0,17.91-3.23,24.77-8.65c47.77,7.06-16.34,19.71-55.13,11.31
		c-9.1-1.97-11.5-4.23-11.5-5.14c0-1.42,4.69-4.27,17.1-6.16C133.02,162.23,141.6,165.46,150.93,165.46z M124.27,150.21
		C124.27,150.21,124.27,150.21,124.27,150.21L124.27,150.21c6.75,7.18,16.2,11.66,26.66,11.66c19.54,0,37.96-15.92,36.95-41.28
		c0-5.14-16.57-9.32-36.95-9.32c-8.43,0-36.66,1.65-36.95,9.46C113.09,132.16,117.19,142.67,124.27,150.21z M213.52,165.03
		c0-2.6-8.71-7.52-31.74-10.24c7.46,1.59,14.07,4.14,14.07,8.19c0,14.51-89.88,14.51-89.88,0c0-4.05,6.61-6.6,14.08-8.19
		c-21.85,2.61-31.74,7.44-31.74,10.24c0,1.54,3.65,4.94,17.32,7.9C148.51,182.21,213.52,174.02,213.52,165.03z M116.13,145.32
		c-7.81,2-14.04-0.3-16.21-8.22c-0.96-3.52,1.89-6.94,5.53-6.6l5.42,0.5c-0.18-1.06-0.32-2.14-0.42-3.23l-11.38-1.2
		c-3.14-0.33-5.7,3.24-4.8,6.99c3.02,12.53,10.92,16.54,22.75,13.19C116.71,146.28,116.41,145.8,116.13,145.32z"/>
	<path class="st44" d="M179.39,62.52c-0.47,1.14-1.06,3.04-2.47,5.92c-6.11,11.79-14.85,13.13-27.95,9.91
		C163.6,88.64,182.05,80.09,179.39,62.52z M128.32,80.48c-2.74-4.02-2.48-8.17-3.46-14.19c-0.91,0.44-3.32,15.91,6.06,21.55
		c12.39,7.46,13.96,11.07,16.1,16.34C147.23,89.7,135.32,90.72,128.32,80.48z M156.72,40.88c-16-1.26-26.99,8.5-26.52,24.32
		c1.88,27.78,20.68,17.59,22.11,38.15c2.57-8.97-0.91-12.96-3.46-15.63c-6.1-6.41-13.16-4.94-14.46-21.94
		c0.06-2.76-0.07-8.04,3.86-13.11c3.41-4.43,8.46-6.67,13.88-6.94c10.88-0.32,15.39,8.2,15.66,13.93
		c0.49,13.14-18.73,14.74-19.6,4.31c-0.36-4.15,1.64-7.41,6.1-8.09c-0.41-0.11-0.86-0.17-1.35-0.17c-3.49,0.03-7.01,3.14-7.12,8.37
		c-0.36,10.76,15.44,13.39,22.16,6.25C178.18,59.71,168.93,42.65,156.72,40.88z M119.85,126.91c-1.38,9.7,6.6,29.92,24.61,30.94
		C133.69,152.14,127,146.83,119.85,126.91z M150.93,113.24c-19,0-34.39,3.06-34.39,6.84c0,3.77,15.39,6.83,34.39,6.83
		c18.99,0,34.38-3.06,34.38-6.83C185.31,116.3,169.92,113.24,150.93,113.24z M119.85,126.91c-1.38,9.7,6.6,29.92,24.61,30.94
		C133.69,152.14,127,146.83,119.85,126.91z M150.93,113.24c-19,0-34.39,3.06-34.39,6.84c0,3.77,15.39,6.83,34.39,6.83
		c18.99,0,34.38-3.06,34.38-6.83C185.31,116.3,169.92,113.24,150.93,113.24z M119.85,126.91c-1.38,9.7,6.6,29.92,24.61,30.94
		C133.69,152.14,127,146.83,119.85,126.91z M150.93,113.24c-19,0-34.39,3.06-34.39,6.84c0,3.77,15.39,6.83,34.39,6.83
		c18.99,0,34.38-3.06,34.38-6.83C185.31,116.3,169.92,113.24,150.93,113.24z M181.96,150.68c6.65-8.04,10.37-18.68,9.5-30.16
		c-0.11-9.48-21.88-12.84-40.53-12.84c-18.66,0-40.43,3.36-40.54,12.84c-0.08,1.04-0.12,2.08-0.12,3.11L99.5,122.5
		c-6.04-0.64-10.77,5.58-9.21,12.03c2.77,11.54,9.82,17.99,20.75,17.41c-12.54,2.1-26.82,6.05-26.82,13.09
		c0,21.29,133.41,21.29,133.41,0C217.63,156.18,195,152.22,181.96,150.68z M113.97,120.73c0.3-7.81,28.53-9.46,36.96-9.46
		c20.37,0,36.94,4.18,36.94,9.32c1.02,25.36-17.4,41.28-36.94,41.28c-10.47,0-19.91-4.48-26.66-11.66
		C117.19,142.67,113.09,132.16,113.97,120.73z M126.16,156.81c6.86,5.42,15.44,8.65,24.77,8.65c9.32,0,17.91-3.23,24.76-8.65
		c47.78,7.06-16.34,19.71-55.13,11.31c-9.09-1.97-11.49-4.22-11.49-5.14C109.07,161.56,113.75,158.71,126.16,156.81z M114.61,142.52
		c-5.71,1.28-10.07-0.2-11.72-6.23c-0.19-0.69-0.03-1.42,0.42-1.96c0.91-1.09,1.41-0.83,8.23-0.18
		C112.27,137.08,113.31,139.88,114.61,142.52z M94.27,133.57c-0.9-3.75,1.66-7.32,4.8-6.99l11.38,1.2c0.1,1.09,0.24,2.16,0.43,3.22
		l-5.43-0.5c-3.64-0.34-6.49,3.08-5.53,6.6c2.17,7.92,8.4,10.22,16.21,8.22c0.28,0.48,0.58,0.96,0.89,1.44
		C105.19,150.1,97.29,146.1,94.27,133.57z M105.65,172.93c-13.67-2.96-17.32-6.36-17.32-7.9c0-2.8,9.89-7.64,31.74-10.24
		c-7.47,1.59-14.08,4.14-14.08,8.19c0,14.51,89.87,14.51,89.87,0c0-4.05-6.61-6.6-14.07-8.19c23.03,2.72,31.73,7.64,31.73,10.24
		C213.52,174.02,148.51,182.21,105.65,172.93z"/>
</g>
<g id="Layer_12">
</g>
<g id="Layer_13">
</g>
<g id="Layer_1">
</g>
</svg>
