<?xml version="1.0" encoding="utf-8"?>
<!-- Generator: Adobe Illustrator 27.8.1, SVG Export Plug-In . SVG Version: 6.00 Build 0)  -->
<svg version="1.1" xmlns="http://www.w3.org/2000/svg" xmlns:xlink="http://www.w3.org/1999/xlink" x="0px" y="0px"
	 viewBox="0 0 300 300" style="enable-background:new 0 0 300 300;" xml:space="preserve">
<style type="text/css">
	.st0{fill:#FFD468;}
	.st1{fill:#FFFFFF;}
	.st2{fill:#303030;}
	.st3{fill:#007D54;}
	.st4{fill:#EE3631;}
	.st5{fill:#2B2B2B;}
	.st6{fill:#FFB000;}
	.st7{opacity:0.35;fill:#FFFFFF;}
	.st8{fill:#FF9CC4;}
	.st9{fill:#B79567;}
	.st10{fill:#D2E6FF;}
	.st11{fill:#5C87C6;}
	.st12{fill:#0E2F5E;}
	.st13{fill:#FCB040;}
	.st14{fill:#E09C05;}
	.st15{fill:#A8112B;}
	.st16{fill-rule:evenodd;clip-rule:evenodd;fill:#FEFEFE;}
	.st17{fill:#606060;}
	.st18{fill:#E0E0E0;}
	.st19{fill:#3DA1D8;}
	.st20{fill:#0C8EBC;}
	.st21{fill:#EFC6A3;}
	.st22{fill:#B0DFFF;}
	.st23{fill:#006284;}
	.st24{fill:#5B5B5B;}
	.st25{fill:#3A1801;}
	.st26{fill:#616D0B;}
	.st27{fill:#98B11F;}
	.st28{fill:#EACAB0;}
	.st29{fill:#442B18;}
	.st30{fill:#663412;}
	.st31{fill:#F5F5F5;}
	.st32{fill:#E386B3;}
	.st33{fill:#B5D6E8;}
	.st34{fill:#88C2E2;}
	.st35{fill:#CEF97A;}
	.st36{fill:#E07D46;}
	.st37{fill:#9FE8FF;}
	.st38{fill:#FF97C6;}
	.st39{fill:#FFB54A;}
	.st40{fill:#472A54;}
	.st41{fill:#F2CD9D;}
	.st42{fill:#4F2910;}
	.st43{fill:#8E630D;}
	.st44{fill:#784C3F;}
	.st45{fill:#D3974E;}
	.st46{fill:none;}
	.st47{fill:#4F361A;}
	.st48{fill-rule:evenodd;clip-rule:evenodd;fill:#561332;}
	.st49{fill-rule:evenodd;clip-rule:evenodd;fill:#F3CF9F;}
	.st50{fill-rule:evenodd;clip-rule:evenodd;fill:#FFF3DB;}
	.st51{fill-rule:evenodd;clip-rule:evenodd;fill:#D4AB74;}
	.st52{fill-rule:evenodd;clip-rule:evenodd;fill:#FFBBE8;}
	.st53{fill-rule:evenodd;clip-rule:evenodd;fill:#DB61A1;}
	.st54{fill-rule:evenodd;clip-rule:evenodd;fill:#FF8DCE;}
	.st55{fill:#D95E95;}
	.st56{fill:#F77EB4;}
	.st57{fill:#CCCCCC;}
	.st58{fill-rule:evenodd;clip-rule:evenodd;fill:#6E1C42;}
	.st59{fill-rule:evenodd;clip-rule:evenodd;fill:#852E57;}
	.st60{fill:#DEC210;}
	.st61{fill:#F7D917;}
	.st62{fill:#212121;}
	.st63{fill:#562F0E;}
	.st64{fill-rule:evenodd;clip-rule:evenodd;fill:#2B2B2B;}
	.st65{fill-rule:evenodd;clip-rule:evenodd;}
	.st66{fill:#F7931E;}
	.st67{fill:#754C24;}
	.st68{fill:#FEFEFE;}
	.st69{fill:#CFDFE8;}
	.st70{fill:#FECE9E;}
	.st71{fill:#F0433D;}
	.st72{fill:#FEA475;}
	.st73{fill:#FE8861;}
	.st74{fill:#D6251E;}
	.st75{fill:#C7221C;}
	.st76{fill:#8C8C8C;}
	.st77{fill:#A6A6A6;}
	.st78{fill:#593A1B;}
	.st79{fill:#60350F;}
	.st80{fill:#B0773B;}
	.st81{fill:#FFC28A;}
	.st82{fill:#F24140;}
	.st83{fill:#FFCFA0;}
	.st84{fill:#D39A72;}
	.st85{fill:#282828;}
	.st86{fill:#B4B7B9;}
	.st87{fill:#505052;}
	.st88{fill:#FF6258;stroke:#2A2728;stroke-width:1.5;stroke-linecap:round;stroke-linejoin:round;stroke-miterlimit:10;}
	.st89{fill:#00B47B;stroke:#2A2728;stroke-width:1.5;stroke-linecap:round;stroke-linejoin:round;stroke-miterlimit:10;}
	.st90{opacity:0.2;fill:#FFFFFF;}
	.st91{opacity:0.3;fill:#EF5047;}
	.st92{opacity:0.3;fill:#00A06D;}
	.st93{fill:none;stroke:#2A2728;stroke-width:1.5;stroke-linecap:round;stroke-linejoin:round;stroke-miterlimit:10;}
	.st94{fill:url(#SVGID_1_);}
	.st95{fill:#603813;}
	.st96{fill:#DD7904;}
	.st97{fill:url(#SVGID_00000080906046704382834270000016454750040752907437_);}
	.st98{fill:url(#SVGID_00000136408956967672903840000012105182315084451263_);}
	.st99{fill:url(#SVGID_00000003810676017687449760000006729121572994062976_);}
	.st100{fill:#462009;}
	.st101{opacity:0.29;fill:#FFFFFF;}
	.st102{fill:url(#SVGID_00000049211386686408745850000008205836764625030542_);}
	.st103{fill:url(#SVGID_00000111870318441299175740000001496209510477835449_);}
	.st104{fill:url(#SVGID_00000008139843750972916110000005167868066861658240_);}
	.st105{fill:url(#SVGID_00000002378248722233605440000015681364342506633139_);}
	.st106{fill:url(#SVGID_00000156561059885935108200000007760331816033040827_);}
	.st107{fill:url(#SVGID_00000140718525701849726480000017387821357283367833_);}
	.st108{fill:url(#SVGID_00000021089805449188013200000002934383556092443805_);}
	.st109{fill:url(#SVGID_00000049190094513660097250000014260264526851722684_);}
	.st110{fill:url(#SVGID_00000067207290487343206490000005884445758408470205_);}
	.st111{fill:url(#SVGID_00000122709019699189926610000016910333960587450756_);}
	.st112{fill:url(#SVGID_00000085248967930402915450000015406468338800988298_);}
	.st113{fill:url(#SVGID_00000003068969271549580420000004997302448187813769_);}
	.st114{fill:url(#SVGID_00000068669391672031294570000013105443214541658768_);}
	.st115{fill:#E84E36;}
	.st116{fill:#232323;}
	.st117{fill:#22661B;}
	.st118{fill:none;stroke:#37312B;stroke-width:6;stroke-linecap:round;stroke-linejoin:round;stroke-miterlimit:10;}
	.st119{fill:#37312B;}
	.st120{fill:#FAC952;}
	.st121{fill:none;stroke:#7B5714;stroke-width:2;stroke-linecap:round;stroke-linejoin:round;stroke-miterlimit:10;}
	.st122{fill:none;stroke:#1B1B1B;stroke-width:0.4535;stroke-linecap:round;stroke-linejoin:round;stroke-miterlimit:10;}
	.st123{fill:#EFA760;}
	.st124{fill:#63C8CC;}
	.st125{fill:#FFFBF2;}
	.st126{fill:#FFD2ED;}
	.st127{fill:#1B1B1B;}
	.st128{fill:#BBFFFF;}
	.st129{fill:#202044;}
	.st130{fill:#F05E61;}
	.st131{fill:#FEC96C;}
	.st132{fill:#BCA7D0;}
	.st133{fill:none;stroke:#4D5DAA;stroke-width:1.4;stroke-linecap:round;stroke-linejoin:round;stroke-miterlimit:10;}
	.st134{fill:none;stroke:#FEC96C;stroke-width:1.4;stroke-linecap:round;stroke-linejoin:round;stroke-miterlimit:10;}
	.st135{fill:none;stroke:#F05E61;stroke-width:1.4;stroke-linecap:round;stroke-linejoin:round;stroke-miterlimit:10;}
</style>
<g id="Layer_2">
</g>
<g id="Layer_3">
</g>
<g id="Layer_4">
</g>
<g id="Layer_5">
</g>
<g id="Layer_6">
</g>
<g id="Layer_7">
</g>
<g id="Layer_8">
</g>
<g id="Layer_9">
</g>
<g id="Layer_10">
</g>
<g id="Layer_11">
</g>
<g id="Layer_12">
</g>
<g id="Layer_13">
	<path class="st47" d="M271.51,223.84L255.9,202.9c-0.23-0.3-0.58-0.47-0.96-0.47h-24.02c-0.07,0-0.13,0.01-0.2,0.01
		c-0.07,0.01-0.14,0.03-0.2,0.06c-0.06,0.01-0.12,0.04-0.17,0.08c-0.02,0-0.04,0.01-0.06,0.02c-0.04,0.03-0.08,0.06-0.13,0.1
		c-0.04,0.03-0.09,0.07-0.12,0.11c-0.01,0.02-0.03,0.03-0.04,0.05c-0.08,0.09-0.14,0.19-0.18,0.3c-0.03,0.06-0.04,0.12-0.06,0.18
		c-0.01,0.04-0.02,0.08-0.03,0.12c-0.01,0.06-0.01,0.11-0.01,0.16v4.93h-4.43c0.29-2.64,0.72-5.2,1.85-6.88
		c1.33-1.99,4.22-3.55,7.02-5.05c3.84-2.07,7.81-4.2,9.39-8.01c1.54-3.74,0.27-8.01-0.96-12.14c-0.53-1.75-1.06-3.53-1.33-5.19
		c-0.22-1.27-0.28-2.47-0.07-3.52c0.45-2.29,2.41-4.7,4.49-7.25c2.77-3.4,5.64-6.91,5.64-11.1s-2.87-7.71-5.64-11.11
		c-1.88-2.31-3.67-4.51-4.32-6.6c-0.07-0.22-0.13-0.43-0.17-0.65c-0.48-2.43,0.47-5.62,1.4-8.71c1.23-4.13,2.5-8.4,0.96-12.13
		c-1.58-3.82-5.55-5.95-9.39-8.02c-2.8-1.5-5.69-3.06-7.02-5.05c-1.36-2.02-1.69-5.31-2.02-8.49c-0.45-4.31-0.91-8.77-3.79-11.66
		c-2.89-2.88-7.35-3.34-11.66-3.79c-3.18-0.33-6.47-0.67-8.49-2.02c-1.99-1.33-3.55-4.22-5.05-7.02c-2.07-3.84-4.2-7.81-8.02-9.39
		c-3.73-1.54-8-0.27-12.13,0.96c-3.09,0.93-6.28,1.88-8.71,1.4c-2.3-0.45-4.7-2.42-7.25-4.49c-3.4-2.77-6.92-5.64-11.11-5.64
		c-4.19,0-7.7,2.87-11.1,5.64c-2.55,2.07-4.96,4.04-7.25,4.49c-2.43,0.48-5.63-0.47-8.71-1.4c-4.13-1.23-8.4-2.5-12.14-0.96
		c-3.81,1.58-5.94,5.55-8.01,9.39c-1.5,2.8-3.06,5.69-5.05,7.02c-2.02,1.35-5.31,1.69-8.49,2.02c-4.31,0.45-8.77,0.91-11.66,3.79
		c-2.89,2.89-3.34,7.35-3.79,11.66c-0.33,3.18-0.67,6.47-2.02,8.49c-1.33,1.99-4.23,3.55-7.02,5.05c-3.84,2.07-7.81,4.2-9.39,8.02
		c-1.55,3.73-0.27,8,0.96,12.13c0.92,3.09,1.88,6.28,1.4,8.71c-0.04,0.22-0.1,0.43-0.17,0.65c-0.66,2.09-2.44,4.29-4.32,6.6
		c-2.78,3.4-5.64,6.92-5.64,11.11s2.86,7.7,5.64,11.1c2.07,2.55,4.03,4.96,4.49,7.25c0.21,1.05,0.15,2.25-0.07,3.52
		c-0.27,1.66-0.81,3.44-1.33,5.19c-1.23,4.13-2.51,8.4-0.96,12.14c1.58,3.81,5.55,5.94,9.39,8.01c2.79,1.5,5.69,3.06,7.02,5.05
		c1.12,1.68,1.55,4.24,1.84,6.88H68.1v-4.93c0-0.09-0.01-0.18-0.03-0.28c-0.02-0.07-0.04-0.13-0.07-0.19c0-0.01-0.01-0.02-0.01-0.03
		c-0.03-0.05-0.05-0.1-0.08-0.15c-0.11-0.17-0.26-0.3-0.43-0.39c-0.05-0.04-0.12-0.07-0.18-0.08c-0.06-0.03-0.12-0.05-0.19-0.06
		c-0.06,0-0.12-0.01-0.19-0.01H42.89c-0.38,0-0.74,0.17-0.96,0.47l-15.61,20.94c-0.32,0.42-0.32,1,0,1.43l15.61,20.94
		c0.22,0.3,0.58,0.47,0.96,0.47H53.7v4.93c0,0.66,0.54,1.2,1.19,1.2h188.04c0.65,0,1.19-0.54,1.19-1.2v-4.93h10.82
		c0.38,0,0.73-0.17,0.96-0.47l15.61-20.94C271.83,224.84,271.83,224.26,271.51,223.84z M232.11,205.56l5.86,2.99h-5.86V205.56z
		 M65.55,193.11c-3.37-1.81-6.56-3.52-7.6-6.03c-1-2.42,0.02-5.85,1.1-9.47c0.62-2.1,1.26-4.23,1.54-6.33
		c0.2-1.46,0.22-2.9-0.05-4.29c-0.65-3.27-3.02-6.18-5.31-8.99c-2.33-2.86-4.74-5.82-4.74-8.59c0-2.78,2.41-5.74,4.74-8.6
		c2.29-2.81,4.66-5.72,5.31-8.99c0.01-0.04,0.02-0.08,0.02-0.12c0.62-3.37-0.46-6.99-1.51-10.5c-1.08-3.62-2.1-7.04-1.1-9.47
		c1.04-2.51,4.23-4.22,7.6-6.03c3.23-1.74,6.56-3.53,8.44-6.35c1.91-2.84,2.3-6.63,2.68-10.29c0.39-3.79,0.76-7.37,2.64-9.25
		c1.89-1.89,5.47-2.26,9.26-2.65c3.66-0.38,7.45-0.77,10.29-2.67c2.82-1.89,4.61-5.22,6.34-8.45c1.82-3.37,3.53-6.56,6.04-7.59
		c2.42-1.01,5.84,0.01,9.47,1.09c3.55,1.07,7.22,2.16,10.62,1.49c3.27-0.65,6.18-3.02,8.99-5.31c2.86-2.33,5.82-4.74,8.59-4.74
		c2.78,0,5.74,2.41,8.6,4.74c2.81,2.29,5.72,4.66,8.99,5.31c3.39,0.67,7.07-0.42,10.62-1.49c3.62-1.08,7.04-2.1,9.47-1.09
		c2.5,1.03,4.22,4.22,6.03,7.59c1.74,3.23,3.53,6.56,6.34,8.45c2.85,1.9,6.64,2.29,10.3,2.67c3.79,0.39,7.36,0.76,9.25,2.65
		c1.89,1.88,2.26,5.46,2.65,9.25c0.38,3.66,0.77,7.45,2.67,10.3c1.89,2.81,5.22,4.6,8.45,6.34c3.37,1.81,6.55,3.53,7.59,6.03
		c1.01,2.43-0.01,5.85-1.09,9.47c-1.06,3.51-2.13,7.13-1.51,10.5c0,0.04,0.01,0.08,0.02,0.12c0.65,3.27,3.02,6.18,5.31,8.99
		c2.33,2.86,4.74,5.82,4.74,8.6c0,2.77-2.41,5.73-4.74,8.59c-2.29,2.81-4.66,5.72-5.31,8.99c-0.27,1.39-0.25,2.83-0.06,4.29
		c0.28,2.1,0.92,4.24,1.55,6.33c1.08,3.62,2.1,7.05,1.09,9.47c-1.04,2.51-4.22,4.22-7.59,6.03c-3.23,1.74-6.57,3.53-8.45,6.35
		c-1.69,2.53-2.19,5.82-2.54,9.09h-4.81c0.41-3.86,0.97-8.14,3.39-11.75c2.54-3.8,6.58-5.97,10.14-7.89c2.29-1.22,4.4-2.4,5.21-3.32
		l0.28-0.31l0.01-0.42c0.06-1.2-0.59-3.47-1.31-5.88c-0.72-2.4-1.49-5-1.77-7.7c-0.18-1.71-0.17-3.45,0.18-5.21
		c0.88-4.44,3.75-7.97,6.29-11.09c1.71-2.09,3.27-4.07,3.61-5.25l0.09-0.32l-0.09-0.33c-0.34-1.18-1.9-3.16-3.61-5.26
		c-2.54-3.11-5.42-6.64-6.29-11.07c-0.07-0.35-0.13-0.7-0.17-1.05c-0.53-4.19,0.68-8.25,1.76-11.87c0.72-2.41,1.37-4.68,1.32-5.87
		l-0.02-0.42l-0.28-0.32c-0.81-0.91-2.92-2.09-5.21-3.32c-3.56-1.92-7.6-4.09-10.14-7.89c-2.56-3.83-3.04-8.41-3.46-12.46
		c-0.26-2.55-0.54-4.93-1.06-6.02l-0.19-0.37l-0.37-0.19c-1.08-0.52-3.45-0.8-6.02-1.07c-4.04-0.41-8.63-0.88-12.46-3.45
		c-3.8-2.54-5.97-6.58-7.89-10.14c-1.22-2.28-2.39-4.38-3.31-5.2l-0.38-0.3h-0.46c-1.41,0-3.63,0.66-5.79,1.31
		c-2.97,0.88-6.33,1.89-9.78,1.89c-1.08,0-2.13-0.1-3.13-0.3c-4.43-0.88-7.96-3.75-11.08-6.29c-2.09-1.71-4.07-3.27-5.25-3.61
		l-0.33-0.09l-0.32,0.09c-1.18,0.34-3.16,1.9-5.26,3.61c-3.11,2.54-6.64,5.41-11.08,6.29c-0.99,0.2-2.04,0.3-3.13,0.3
		c-3.44,0-6.81-1.01-9.79-1.9c-2.14-0.64-4.36-1.3-5.82-1.3h-0.46l-0.33,0.3c-0.92,0.82-2.09,2.92-3.31,5.2
		c-1.92,3.56-4.09,7.6-7.89,10.14c-3.83,2.56-8.42,3.04-12.47,3.45c-2.55,0.27-4.93,0.55-6.01,1.07l-0.38,0.18l-0.18,0.38
		c-0.52,1.09-0.8,3.47-1.07,6.02c-0.41,4.04-0.89,8.63-3.45,12.46c-2.54,3.8-6.58,5.97-10.15,7.89c-2.28,1.23-4.39,2.4-5.2,3.32
		l-0.28,0.31l-0.02,0.42c-0.05,1.2,0.59,3.47,1.31,5.88c1.08,3.62,2.3,7.69,1.77,11.87c-0.04,0.35-0.1,0.69-0.17,1.04
		c-0.88,4.44-3.75,7.97-6.3,11.09c-1.7,2.1-3.26,4.07-3.6,5.25l-0.09,0.33l0.09,0.32c0.34,1.18,1.9,3.16,3.61,5.26
		c2.54,3.11,5.41,6.64,6.29,11.08c0.35,1.76,0.36,3.5,0.18,5.21c-0.28,2.7-1.06,5.3-1.78,7.71c-0.72,2.41-1.36,4.67-1.31,5.87
		l0.02,0.42l0.28,0.31c0.81,0.92,2.92,2.1,5.2,3.32c3.57,1.92,7.61,4.09,10.15,7.89c2.41,3.61,2.97,7.89,3.38,11.75h-4.8
		c-0.35-3.27-0.85-6.56-2.55-9.09C72.11,196.64,68.78,194.85,65.55,193.11z M54.43,208.65l-0.08,0.03
		c-0.06,0.03-0.11,0.06-0.17,0.11c-0.05,0.03-0.09,0.07-0.13,0.11c-0.05,0.05-0.1,0.11-0.13,0.16c-0.02,0.01-0.03,0.03-0.03,0.04
		c-0.01,0.01-0.01,0.01-0.01,0.02c-0.01,0.02-0.02,0.04-0.03,0.05c-0.02,0.03-0.04,0.06-0.05,0.09c0,0.01-0.01,0.02-0.01,0.04
		c-0.03,0.06-0.06,0.13-0.06,0.2c-0.02,0.08-0.03,0.16-0.03,0.24v34.56H43.49l-14.73-19.75l14.73-19.74h18.45L54.43,208.65z
		 M65.71,205.56v2.99h-5.85L65.71,205.56z M241.74,250.42H56.09v-39.49h185.65V250.42z M254.35,244.3h-10.23v-34.56
		c0-0.08-0.01-0.16-0.03-0.24c-0.01-0.07-0.03-0.14-0.06-0.2c-0.01-0.03-0.02-0.05-0.03-0.07c-0.01-0.01-0.01-0.01-0.01-0.02
		c-0.01-0.03-0.03-0.06-0.05-0.09c-0.01-0.01-0.01-0.01-0.02-0.02c0-0.02-0.01-0.03-0.02-0.04c-0.04-0.06-0.08-0.11-0.13-0.16
		l-0.07-0.06l-0.01-0.02c-0.01,0-0.03-0.01-0.04-0.02c-0.01,0-0.01,0-0.02-0.01c-0.07-0.06-0.15-0.11-0.24-0.14l-7.51-3.84h18.47
		l14.72,19.74L254.35,244.3z"/>
	<path class="st45" d="M286.6,151.49l13.4,19.79h-58.74c-0.22-1.27-0.28-2.47-0.07-3.52c0.45-2.29,2.41-4.7,4.49-7.25
		c2.77-3.4,5.64-6.91,5.64-11.1s-2.87-7.71-5.64-11.11c-1.88-2.31-3.67-4.51-4.32-6.6H300L286.6,151.49z M56.64,167.76
		c-0.46-2.29-2.42-4.7-4.49-7.25c-2.78-3.4-5.64-6.91-5.64-11.1s2.86-7.71,5.64-11.11c1.88-2.31,3.66-4.51,4.32-6.6H0l10.73,22.32
		L0,171.28h56.57C56.79,170.01,56.85,168.81,56.64,167.76z M153.43,74.53h-3.45l-1.06-3.28l-1.07,3.28h-3.45l2.79,2.03l-1.07,3.28
		l2.8-2.03l2.79,2.03l-1.07-3.28L153.43,74.53z M171.56,74.53h-3.45l-1.07-3.28l-1.06,3.28h-3.45l2.79,2.03l-1.07,3.28l2.79-2.03
		l2.79,2.03l-1.06-3.28L171.56,74.53z M135.3,74.53h-3.45l-1.06-3.28l-1.07,3.28h-3.45l2.79,2.03l-1.07,3.28l2.8-2.03l2.79,2.03
		l-1.07-3.28L135.3,74.53z M56.09,210.93v39.49h185.65v-39.49H56.09z M232.11,205.56v2.99h5.86L232.11,205.56z M59.86,208.55h5.85
		v-2.99L59.86,208.55z M43.49,204.81l-14.73,19.74l14.73,19.75H53.7v-34.56c0-0.08,0.01-0.16,0.03-0.24c0-0.07,0.03-0.14,0.06-0.2
		c0-0.02,0.01-0.03,0.01-0.04c0.01-0.03,0.03-0.06,0.05-0.09c0.01-0.01,0.02-0.03,0.03-0.05c0-0.01,0-0.01,0.01-0.02
		c0-0.01,0.01-0.03,0.03-0.04c0.03-0.05,0.08-0.11,0.13-0.16c0.04-0.04,0.08-0.08,0.13-0.11c0.06-0.05,0.11-0.08,0.17-0.11
		l0.08-0.03l7.51-3.84H43.49z M254.35,204.81h-18.47l7.51,3.84c0.09,0.03,0.17,0.08,0.24,0.14c0.01,0.01,0.01,0.01,0.02,0.01
		c0.01,0.01,0.03,0.02,0.04,0.02l0.01,0.02l0.07,0.06c0.05,0.05,0.09,0.1,0.13,0.16c0.01,0.01,0.02,0.02,0.02,0.04
		c0.01,0.01,0.01,0.01,0.02,0.02c0.02,0.03,0.04,0.06,0.05,0.09c0,0.01,0,0.01,0.01,0.02c0.01,0.02,0.02,0.04,0.03,0.07
		c0.03,0.06,0.05,0.13,0.06,0.2c0.02,0.08,0.03,0.16,0.03,0.24v34.56h10.23l14.72-19.75L254.35,204.81z"/>
	<path class="st1" d="M182.45,120.37c-5.11-3.97-13.58-7.55-23.32-9.29c-9.75-1.78-20.7-1.86-30.7-0.15
		c-10.01,1.68-18.99,5.33-24.78,9.71c-5.9,4.58-6.03,7.76-5.23,8.03c0.8,0.42,1.5-0.37,4.21-2.68c-0.77,1.32-0.2,3.85,1.84,5.46
		c5.75,4.5,22.33,7.71,39.22,7.71c20.94,0,37.1-4.98,37.1-11.12c0-4.98-11.14-10.29-25.9-12.13c0.8,0.07,1.59,0.15,2.36,0.25
		c8.51,1.02,16.05,3.39,20.87,6.15c4.96,2.67,6.6,5.83,6.8,5.7c0.29-0.02-1.06-3.65-6.04-6.83c-4.83-3.24-12.54-6.06-21.3-7.42
		c-6.19-0.99-12.88-1.3-19.44-0.94c6.92-0.55,14.04-0.34,20.6,0.65c9.47,1.39,17.75,4.5,22.87,7.97c5.26,3.41,6.84,7.06,7.07,6.93
		C188.94,128.37,187.71,124.29,182.45,120.37z M165.77,133.69c2.08-0.67,4.31-1.51,6.21-2.59c1.88-1.04,3.21-2.23,3.57-3.8
		c0.3-1.33-0.05-1.91,0.4-2.1c0.23-0.18,1.84,0.3,1.66,2.47c-0.5,3.15-3.97,4.64-6.53,5.59c-1.62,0.61-3.32,1.06-5,1.49
		c-4.32,1.09-7.97,1.35-8,1.14C158.08,135.67,161.63,135.02,165.77,133.69z M169.11,195.57c-3.04,2.14-8.6,4.59-17.25,5.59
		c-8.62,1.03-18.61,0.17-25.9-2.3c-3.64-1.21-6.61-2.75-8.4-4.25c-1.83-1.46-2.45-2.72-2.29-2.82c0.2-0.14,1.12,0.8,3.03,1.87
		c1.89,1.1,4.82,2.26,8.37,3.15c7.11,1.83,16.71,2.31,24.89,1.32c8.22-0.97,13.39-2.95,16.37-4.4c3.01-1.48,3.93-2.5,4.35-2.21
		C172.61,191.68,172.19,193.39,169.11,195.57z M218.92,133.65c-3.18-2.39-8.16-1.83-11.64-0.64c-7.16,2.68-8.26,5.67-7.7,6.08
		c0.72,0.74,2.5-0.86,8.74-3.2c3.1-1.08,7.02-1.69,9.3-0.47c2.34,1.16,2.78,3.63,3.28,3.48C221.17,139,221.96,136.19,218.92,133.65z
		 M199.42,123.87c-0.37,5.65-1.02,11.42-1.78,17.3c-0.85,6.59-1.88,14.18-3.46,22.53c-1.43,8.71-7.4,17.31-15.88,22.82
		c-8.49,5.63-19.12,8.23-29.47,8.59c-10.33,0.3-20.78-0.69-30.12-4.03c-9.32-3.19-17.33-9.32-21.1-16.88
		c-1.99-3.71-2.68-7.7-3.24-11.17c-0.61-3.53-1.14-6.82-1.6-9.83c-1.81-12.04-2.57-19.56-2.33-19.59c0.25,0,1.48,7.43,3.72,19.34
		c0.56,2.99,1.19,6.26,1.9,9.75c0.68,3.53,1.4,7.15,3.33,10.59c3.65,6.97,11.2,12.5,20.1,15.49c5.26,1.75,12.82,2.5,22.17,0.58
		c9.66-1.99,18.72-7.01,23.5-15.65c2.38-4.33,5.95-13.64,1.26-17.6c-2.88-2.43-9.37-1.87-13.28-1.89
		c-7.43-0.04-14.48-0.83-13.75-1.29c1.05-0.67,6.32-0.41,15.31-1.29c7.49-0.73,18.1-2.65,20.96-7.21c-0.55,0.19-1.08,0.38-1.62,0.56
		c-17.37,5.27-32.84,5.08-45.16,3.64c-12.37-1.55-21.85-4.91-28.37-8.75c-6.58-3.82-9.94-8.37-10.97-11.56
		c-1.08-3.23-0.5-4.79-0.39-4.77c0.32-0.02,0.2,1.53,1.58,4.39c1.32,2.83,4.66,6.78,11.12,10.2c6.39,3.41,15.66,6.43,27.74,7.75
		c12,1.22,27.16,1.25,43.81-3.91c8.04-2.68,16.78-6.71,21.2-13.78c2.16-3.47,2.32-7.75,0.35-11.32c-1.9-3.62-5.41-6.48-9.14-8.73
		c-7.63-4.49-16.48-6.87-25-8.21c-8.57-1.33-16.99-1.51-24.79-1c-15.59,1.06-28.71,5.23-36.54,10.31
		c-8.11,5.01-9.61,10.76-9.79,10.58c-0.07-0.01,0.08-1.41,1.35-3.66c1.26-2.24,3.79-5.19,7.77-7.93
		c7.91-5.55,21.28-10.13,37.24-11.46c7.97-0.65,16.61-0.57,25.45,0.71c8.8,1.31,17.98,3.66,26.18,8.45
		c4.03,2.43,7.92,5.58,10.18,9.98C199.16,118.46,199.6,121.05,199.42,123.87z M226.08,144.1c-0.25,1.21-0.58,2.39-1.02,3.54
		c-0.95,2.47-2.43,4.75-4.74,6.61c-3.38,2.36-7.06,3.26-10.24,4.07c-3.13,0.77-5.91,1.59-8.02,2.6c-4.48,2.26-4.92,3.42-6.05,2.91
		c-0.41-0.2-0.67-0.83-0.16-1.98c0.62-2.2,2.12-6.68,1.91-11.17c-0.09-1.67,1.92-0.53,6.41-1.44c4.49-0.92,5.7-1.75,6.49-1.6
		c0.77,0.14-2.5,1.97-3.37,2.33c-1.93,0.81-3.34,1.51-3.72,3.59c-0.38,2.09,1.95,2.46,4.83,1.96c2.79-0.49,5.26-1.36,7.71-2.52
		c7.23-3.44,8.7-12.42,7.06-19.31c-0.75-3.11-2.54-5.72-5.07-6.99c-2.55-1.3-5.36-1.73-7.66-1.97c-4.66-0.4-7.64-0.13-7.66-0.4
		c0-0.2,2.89-0.92,7.73-0.92c2.42,0.05,5.39,0.24,8.49,1.57c2.79,1.17,5,3.76,6.17,6.72c0.18,0.44,0.33,0.89,0.46,1.34
		C226.66,136.57,226.75,140.35,226.08,144.1z"/>
</g>
<g id="Layer_1">
</g>
</svg>
