<?xml version="1.0" encoding="utf-8"?>
<!-- Generator: Adobe Illustrator 27.8.1, SVG Export Plug-In . SVG Version: 6.00 Build 0)  -->
<svg version="1.1" xmlns="http://www.w3.org/2000/svg" xmlns:xlink="http://www.w3.org/1999/xlink" x="0px" y="0px"
	 viewBox="0 0 300 300" style="enable-background:new 0 0 300 300;" xml:space="preserve">
<style type="text/css">
	.st0{fill:#FFD468;}
	.st1{fill:#FFFFFF;}
	.st2{fill:#303030;}
	.st3{fill:#007D54;}
	.st4{fill:#EE3631;}
	.st5{fill:#2B2B2B;}
	.st6{fill:#FFB000;}
	.st7{opacity:0.35;fill:#FFFFFF;}
	.st8{fill:#FF9CC4;}
	.st9{fill:#B79567;}
	.st10{fill:#D2E6FF;}
	.st11{fill:#5C87C6;}
	.st12{fill:#0E2F5E;}
	.st13{fill:#FCB040;}
	.st14{fill:#E09C05;}
	.st15{fill:#A8112B;}
	.st16{fill-rule:evenodd;clip-rule:evenodd;fill:#FEFEFE;}
	.st17{fill:#606060;}
	.st18{fill:#E0E0E0;}
	.st19{fill:#3DA1D8;}
	.st20{fill:#0C8EBC;}
	.st21{fill:#EFC6A3;}
	.st22{fill:#B0DFFF;}
	.st23{fill:#006284;}
	.st24{fill:#5B5B5B;}
	.st25{fill:#3A1801;}
	.st26{fill:#616D0B;}
	.st27{fill:#98B11F;}
	.st28{fill:#EACAB0;}
	.st29{fill:#442B18;}
	.st30{fill:#663412;}
	.st31{fill:#F5F5F5;}
	.st32{fill:#E386B3;}
	.st33{fill:#B5D6E8;}
	.st34{fill:#88C2E2;}
	.st35{fill:#CEF97A;}
	.st36{fill:#E07D46;}
	.st37{fill:#9FE8FF;}
	.st38{fill:#FF97C6;}
	.st39{fill:#FFB54A;}
	.st40{fill:#472A54;}
	.st41{fill:#F2CD9D;}
	.st42{fill:#4F2910;}
	.st43{fill:#8E630D;}
	.st44{fill:#784C3F;}
	.st45{fill:#D3974E;}
	.st46{fill:none;}
	.st47{fill:#4F361A;}
	.st48{fill-rule:evenodd;clip-rule:evenodd;fill:#561332;}
	.st49{fill-rule:evenodd;clip-rule:evenodd;fill:#F3CF9F;}
	.st50{fill-rule:evenodd;clip-rule:evenodd;fill:#FFF3DB;}
	.st51{fill-rule:evenodd;clip-rule:evenodd;fill:#D4AB74;}
	.st52{fill-rule:evenodd;clip-rule:evenodd;fill:#FFBBE8;}
	.st53{fill-rule:evenodd;clip-rule:evenodd;fill:#DB61A1;}
	.st54{fill-rule:evenodd;clip-rule:evenodd;fill:#FF8DCE;}
	.st55{fill:#D95E95;}
	.st56{fill:#F77EB4;}
	.st57{fill:#CCCCCC;}
	.st58{fill-rule:evenodd;clip-rule:evenodd;fill:#6E1C42;}
	.st59{fill-rule:evenodd;clip-rule:evenodd;fill:#852E57;}
	.st60{fill:#DEC210;}
	.st61{fill:#F7D917;}
	.st62{fill:#212121;}
	.st63{fill:#562F0E;}
	.st64{fill-rule:evenodd;clip-rule:evenodd;fill:#2B2B2B;}
	.st65{fill-rule:evenodd;clip-rule:evenodd;}
	.st66{fill:#F7931E;}
	.st67{fill:#754C24;}
	.st68{fill:#FEFEFE;}
	.st69{fill:#CFDFE8;}
	.st70{fill:#FECE9E;}
	.st71{fill:#F0433D;}
	.st72{fill:#FEA475;}
	.st73{fill:#FE8861;}
	.st74{fill:#D6251E;}
	.st75{fill:#C7221C;}
	.st76{fill:#8C8C8C;}
	.st77{fill:#A6A6A6;}
	.st78{fill:#593A1B;}
	.st79{fill:#60350F;}
	.st80{fill:#B0773B;}
	.st81{fill:#FFC28A;}
	.st82{fill:#F24140;}
	.st83{fill:#FFCFA0;}
	.st84{fill:#D39A72;}
	.st85{fill:#282828;}
	.st86{fill:#B4B7B9;}
	.st87{fill:#505052;}
	.st88{fill:#FF6258;stroke:#2A2728;stroke-width:1.5;stroke-linecap:round;stroke-linejoin:round;stroke-miterlimit:10;}
	.st89{fill:#00B47B;stroke:#2A2728;stroke-width:1.5;stroke-linecap:round;stroke-linejoin:round;stroke-miterlimit:10;}
	.st90{opacity:0.2;fill:#FFFFFF;}
	.st91{opacity:0.3;fill:#EF5047;}
	.st92{opacity:0.3;fill:#00A06D;}
	.st93{fill:none;stroke:#2A2728;stroke-width:1.5;stroke-linecap:round;stroke-linejoin:round;stroke-miterlimit:10;}
	.st94{fill:url(#SVGID_1_);}
	.st95{fill:#603813;}
	.st96{fill:#DD7904;}
	.st97{fill:url(#SVGID_00000114796032429212772080000011481970808427300502_);}
	.st98{fill:url(#SVGID_00000181802791330751120480000009664612547318493337_);}
	.st99{fill:url(#SVGID_00000141414871719141961510000010100618878266057866_);}
	.st100{fill:#462009;}
	.st101{opacity:0.29;fill:#FFFFFF;}
	.st102{fill:url(#SVGID_00000180330307881470456250000001908577204025513130_);}
	.st103{fill:url(#SVGID_00000018948242644565103910000002260327337430909349_);}
	.st104{fill:url(#SVGID_00000118358138746821179050000014618354838100176264_);}
	.st105{fill:url(#SVGID_00000075138002416754345360000006874075218064625030_);}
	.st106{fill:url(#SVGID_00000069356468498704664970000015178843322928262332_);}
	.st107{fill:url(#SVGID_00000147202785858344311750000011600600116341329598_);}
	.st108{fill:url(#SVGID_00000091731222721823879340000008096217427560632503_);}
	.st109{fill:url(#SVGID_00000042709385137609492120000005304600552377667491_);}
	.st110{fill:url(#SVGID_00000142151234699821332230000000080881832889584258_);}
	.st111{fill:url(#SVGID_00000067225701597604495180000008688985079388981133_);}
	.st112{fill:url(#SVGID_00000106844969840985927820000010196912565813554072_);}
	.st113{fill:url(#SVGID_00000122692501771798800650000010672756101476124078_);}
	.st114{fill:url(#SVGID_00000049918512468024401790000004790805429920054144_);}
	.st115{fill:#E84E36;}
	.st116{fill:#232323;}
	.st117{fill:#22661B;}
	.st118{fill:none;stroke:#37312B;stroke-width:6;stroke-linecap:round;stroke-linejoin:round;stroke-miterlimit:10;}
	.st119{fill:#37312B;}
	.st120{fill:#FAC952;}
	.st121{fill:none;stroke:#7B5714;stroke-width:2;stroke-linecap:round;stroke-linejoin:round;stroke-miterlimit:10;}
	.st122{fill:none;stroke:#1B1B1B;stroke-width:0.4535;stroke-linecap:round;stroke-linejoin:round;stroke-miterlimit:10;}
	.st123{fill:#EFA760;}
	.st124{fill:#63C8CC;}
	.st125{fill:#FFFBF2;}
	.st126{fill:#FFD2ED;}
	.st127{fill:#1B1B1B;}
	.st128{fill:#BBFFFF;}
	.st129{fill:#202044;}
	.st130{fill:#F05E61;}
	.st131{fill:#FEC96C;}
	.st132{fill:#BCA7D0;}
	.st133{fill:none;stroke:#4D5DAA;stroke-width:1.4;stroke-linecap:round;stroke-linejoin:round;stroke-miterlimit:10;}
	.st134{fill:none;stroke:#FEC96C;stroke-width:1.4;stroke-linecap:round;stroke-linejoin:round;stroke-miterlimit:10;}
	.st135{fill:none;stroke:#F05E61;stroke-width:1.4;stroke-linecap:round;stroke-linejoin:round;stroke-miterlimit:10;}
</style>
<g id="Layer_2">
</g>
<g id="Layer_3">
	<path class="st5" d="M259.52,66.85c-0.95-0.78-20.12,24.15-33.81,40.89l-2.78-2.26c12.57-17.66,31.57-42.72,30.61-43.51
		c-0.95-0.78-20.91,23.51-35.14,39.81l-2.77-2.26c13.09-17.23,32.88-41.66,31.92-42.44c-0.97-0.78-21.71,22.87-36.48,38.72
		l-2.79-2.28c13.65-16.77,34.21-40.56,33.25-41.34c-0.97-0.8-30.56,30.33-38.57,38.56c-6.98,7.19-8.96,18.76-3.45,26.3
		c-1.93,2.19-3.85,4.38-5.78,6.58c-5.41-4.95-11.56-8.9-18.32-11.76c-7.93-3.35-16.35-5.05-25.03-5.05c-8.69,0-17.11,1.7-25.04,5.05
		c-6.63,2.8-12.66,6.65-18,11.46c-1.96-1.62-3.92-3.24-5.89-4.86c7.63-12.08,3.45-29.04-9.89-38.6
		c-14.1-10.29-38.7-18.46-47.99-8.61c-8.69,10.39,2.31,33.86,14.2,46.64c11.08,12.12,28.41,14.27,39.51,5.27
		c1.74,1.67,3.49,3.34,5.23,5c-1.28,1.42-2.47,2.92-3.61,4.44c-0.44,0.57-0.87,1.14-1.28,1.72c-0.07,0.1-0.14,0.19-0.2,0.29
		c-2.49,3.59-4.59,7.42-6.31,11.48c-3.35,7.93-5.06,16.36-5.06,25.04c0,1.49,0.05,2.97,0.15,4.44c0.49,7.12,2.13,14.02,4.91,20.6
		c2.59,6.12,6.08,11.74,10.39,16.77l-1.69-1.62c-7.75,7.83-15.51,15.67-23.26,23.5c-2.42,2.38-3.05,8.02,0.33,11.11
		c3.36,3.13,8.92,2.03,11.1-0.58c7.08-8.26,14.16-16.52,21.25-24.78c4.86,4.05,10.25,7.35,16.11,9.82
		c4.82,2.04,9.83,3.47,14.97,4.27c-0.04,0.36-0.06,0.72-0.06,1.09v37.5c0,5.38,4.37,9.75,9.75,9.75s9.75-4.37,9.75-9.75v-37.5
		c0-0.33-0.02-0.65-0.05-0.97c5.39-0.78,10.65-2.25,15.71-4.39c5.86-2.47,11.26-5.77,16.11-9.82c7.09,8.26,14.17,16.52,21.25,24.78
		c2.18,2.61,7.74,3.71,11.1,0.58c3.38-3.09,2.76-8.73,0.33-11.11c-7.75-7.83-15.51-15.67-23.26-23.5l-1.69,1.62
		c4.31-5.03,7.8-10.65,10.39-16.77c3.36-7.94,5.06-16.36,5.06-25.04s-1.7-17.11-5.06-25.04c-2.7-6.4-6.39-12.25-10.97-17.44
		c1.92-2.53,3.84-5.06,5.75-7.59c8.38,4,18.78,0.4,25.07-8.68c1.18-1.71,1.94-2.8,2.39-3.44c-0.03,0.07-0.08,0.14-0.12,0.21
		C238.86,98.84,260.33,67.51,259.52,66.85z M59.92,115.88C47.69,102.72,38.86,81.01,45.8,72.71c5.03-5.34,17.33-4.06,29.22,0.71
		C67.53,72.06,61,72.66,57.66,76.2c-6.94,8.3,1.89,30.01,14.13,43.17c2.38,2.62,5.15,4.74,8.11,6.37
		C72.52,125.3,65.31,121.78,59.92,115.88z M93.03,122.34c1.09-0.8,2.16-1.63,3.1-2.62c4.13-5.02,5.93-11.52,5.05-18.31
		c-1.06-8.19-5.83-15.87-13.1-21.1c-0.69-0.49-1.41-0.97-2.12-1.45c1.38,0.86,2.73,1.74,4.01,2.67c6.89,4.94,11.4,12.21,12.4,19.96
		c0.83,6.43-0.87,12.57-4.78,17.33C96.24,120.22,94.68,121.35,93.03,122.34z M150.38,111.72c32.75,0,59.4,26.65,59.4,59.41
		c0,30.21-22.66,55.23-51.87,58.93c-2.47,0.32-4.98,0.48-7.53,0.48c-2.79,0-5.53-0.19-8.22-0.57
		c-28.88-4.01-51.19-28.87-51.19-58.84C90.97,138.37,117.62,111.72,150.38,111.72z M86.04,243.01c-1.32,1.57-4.7,2.22-6.73,0.33
		c-1.19-1.1-1.49-2.68-1.29-4.12c2.29,0.6,4.86-0.07,6.16-1.43c6.9-7.07,13.79-14.14,20.69-21.2c0.01,0.01,0.02,0.01,0.02,0.02
		c0.71,0.7,1.43,1.39,2.16,2.06C100.04,226.78,93.04,234.9,86.04,243.01z M216.57,237.79c1.3,1.36,3.87,2.03,6.16,1.43
		c0.2,1.44-0.1,3.02-1.29,4.12c-2.03,1.89-5.4,1.24-6.73-0.33c-7-8.11-14-16.23-21.01-24.34c0.73-0.67,1.45-1.36,2.16-2.06
		c0.01-0.01,0.01-0.01,0.02-0.02C202.78,223.65,209.67,230.72,216.57,237.79z M229.62,107.29c-0.56,0.77-1.33,1.87-2.44,3.47
		c-0.48,0.69-0.99,1.34-1.52,1.97l-19.91-16.24c-2.22,3.45-3.47,7.46-3.44,11.33c0.03,2.79,0.75,6.73,4.02,9.75
		c1.81,1.3,3.83,2.08,5.99,2.35c-3.31,0.19-6.44-0.71-9.14-2.66c-3.44-3.16-4.27-7.19-4.36-10.03c-0.17-5.28,2.03-10.81,5.88-14.77
		l5.32-5.5c-1.36,1.64-5.59,6.83-5.59,6.83l6.74,5.49c0,0,4.73-5.09,6.31-6.81c-1.41,1.83-5.63,7.37-5.63,7.37l6.71,5.47
		c0,0,4.42-5.08,5.86-6.74c-1.3,1.8-5.21,7.28-5.21,7.28l6.72,5.47c0,0,4.46-5.47,5.92-7.27
		C231.12,105.11,230.37,106.2,229.62,107.29z"/>
	<path class="st1" d="M209.78,171.13c0,30.21-22.66,55.23-51.87,58.93c-2.47,0.32-4.98,0.48-7.53,0.48c-2.79,0-5.53-0.19-8.22-0.57
		c-28.88-4.01-51.19-28.87-51.19-58.84c0-32.76,26.65-59.41,59.41-59.41C183.13,111.72,209.78,138.37,209.78,171.13z"/>
	<path class="st6" d="M175.38,171.13c0,5.7-1.9,10.94-5.11,15.14c-0.01,0.02-0.03,0.04-0.04,0.06c-0.24,0.31-0.49,0.62-0.75,0.92
		c0,0,0,0,0,0.01c-4.59,5.43-11.44,8.87-19.1,8.87c-13.81,0-25-11.19-25-25c0-5.39,1.71-10.38,4.61-14.46
		c0.64-0.92,1.35-1.79,2.11-2.6c4.57-4.89,11.07-7.94,18.28-7.94C164.18,146.13,175.38,157.32,175.38,171.13z"/>
	<path class="st7" d="M174.38,172.13c0,5.19-1.44,10.12-4.11,14.14c-0.01,0.02-0.03,0.04-0.04,0.06c-0.24,0.31-0.49,0.62-0.75,0.92
		c2.32-3.83,3.52-8.45,3.52-13.25c0-13.81-11.19-25-25-25c-7.09,0-13.48,2.94-18.01,7.67c0.64-0.92,1.35-1.79,2.11-2.6
		c4.49-4.3,10.58-6.94,17.28-6.94C163.18,147.13,174.38,158.32,174.38,172.13z"/>
</g>
<g id="Layer_4">
</g>
<g id="Layer_5">
</g>
<g id="Layer_6">
</g>
<g id="Layer_7">
</g>
<g id="Layer_8">
</g>
<g id="Layer_9">
</g>
<g id="Layer_10">
</g>
<g id="Layer_11">
</g>
<g id="Layer_12">
</g>
<g id="Layer_13">
</g>
<g id="Layer_1">
</g>
</svg>
