<?xml version="1.0" encoding="UTF-8"?>
<svg id="Layer_6" data-name="Layer 6" xmlns="http://www.w3.org/2000/svg" viewBox="0 0 300 300">
  <defs>
    <style>
      .cls-1 {
        fill: #124bd8;
      }

      .cls-1, .cls-2, .cls-3 {
        stroke-width: 0px;
      }

      .cls-2 {
        fill: #b62126;
      }

      .cls-3 {
        fill: #142d54;
      }
    </style>
  </defs>
  <path class="cls-2" d="m277.67,146.19c-11.55,5.01-36.32,7.22-36.32,7.22,15.58-3.71,26.41-9.93,32.05-13.8,2.15-.05,3.22-.2,3.22-.2.61,2.06.93,4.38,1.05,6.78Z"/>
  <path class="cls-1" d="m274.52,170.13c.2-.72,3.68-13.26,3.15-23.94-.12-2.4-.44-4.72-1.05-6.78,0,0-1.07.15-3.22.2-6.55.18-23.15-.44-49.91-8.48-33.98-10.2-86.56-9.86-115.95,14.5,2.33.14,4.65.3,6.98.46,8.27-5.82,43.47-26.93,101.43-12.01-6.15-1.43-56.38-11.99-96.31,12.37,2.52.18,5.04.37,7.56.55h0c7.65-3.73,32.63-14.5,60.83-11.39,0,0-30.64-.29-55.37,11.78,33.99,2.38,67.26,3.64,96.25-9.15-.78.52-29.05,18.97-106.5,15.1-78.56-3.92-95.91-.28-118.33,21.56-.96.93,17.54-29.38,70.39-30.26,9.9-.17,19.91.21,29.94.8,7.97-6.76,34.02-25.69,75.35-24.89,50.27.97,79.9,18.14,100.39,12.19,0,0,4.96,15.75-5.64,37.39Z"/>
  <path class="cls-3" d="m13.49,172.6s18.52-20.03,80.46-15.25c61.94,4.78,141.27,2.95,176.75-2.19,0,0-32.74,7.2-110.43,9.02-77.69,1.82-103.06-13.93-146.79,8.43Z"/>
</svg>