<?xml version="1.0" encoding="UTF-8"?>
<svg id="Layer_7" data-name="Layer 7" xmlns="http://www.w3.org/2000/svg" viewBox="0 0 300 300">
  <defs>
    <style>
      .cls-1 {
        fill: #bababa;
      }

      .cls-1, .cls-2 {
        stroke-width: 0px;
      }

      .cls-2 {
        fill: #890000;
      }
    </style>
  </defs>
  <path class="cls-1" d="m240.75,132.01l-.06.03H58.75l2.32-2.41,21.46-20.96c4.27-4.16,9.99-6.49,15.95-6.49h102.33c5.96,0,11.68,2.33,15.95,6.49l21.46,20.96,2.53,2.38Z"/>
  <path class="cls-2" d="m253.19,150.64H46.11c-3.92,0-7.47,1.6-10.04,4.17-2.57,2.57-4.17,6.12-4.17,10.04,0,7.83,6.36,14.19,14.21,14.19h207.09c3.92,0,7.45-1.6,10.02-4.17s4.17-6.1,4.17-10.02c0-7.84-6.36-14.21-14.19-14.21Zm-207.27,25.48c-6.23,0-11.3-5.05-11.3-11.28s5.07-11.3,11.3-11.3,11.3,5.05,11.3,11.3-5.07,11.28-11.3,11.28Zm26.07,0c-6.23,0-11.3-5.05-11.3-11.28s5.07-11.3,11.3-11.3,11.3,5.05,11.3,11.3-5.07,11.28-11.3,11.28Zm81.52-7.43h-7.71v-7.71h7.71v7.71Zm73.79,7.43c-6.23,0-11.28-5.05-11.28-11.28s5.05-11.3,11.28-11.3,11.3,5.05,11.3,11.3-5.07,11.28-11.3,11.28Zm26.07,0c-6.23,0-11.28-5.05-11.28-11.28s5.05-11.3,11.28-11.3,11.3,5.05,11.3,11.3-5.05,11.28-11.3,11.28Zm-103.72,8.3h92.43l-3.27,2.29c-3.67,2.57-8.03,3.95-12.51,3.95H72.99c-4.48,0-8.84-1.38-12.51-3.95l-3.27-2.29h92.43Zm-117.74,9.79c-13.46-14.2-14.93-32.62-12.73-40.66,2.2-8.05,22.03-10.25,22.03-10.25,0,0-13.22,2.94-16.89,12.97-3.67,10.04,7.59,37.94,7.59,37.94Zm235.47,0s11.26-27.9,7.59-37.94c-3.67-10.04-16.89-12.97-16.89-12.97,0,0,19.83,2.2,22.03,10.25,2.2,8.05.73,26.47-12.73,40.66ZM61.07,129.63l-2.32,2.41h-.15l-4.08-2.36c-1.01.71-2.24,1.13-3.57,1.13h-6.75c-3.44,0-6.25-2.81-6.25-6.25s2.81-6.26,6.25-6.26h6.75c3.45,0,6.26,2.82,6.26,6.26,0,.98-.25,1.91-.66,2.74l4.52,2.33Zm200.27-5.07c0,3.44-2.81,6.25-6.25,6.25h-6.75c-1.33,0-2.56-.42-3.57-1.13l-4.02,2.33-2.53-2.38,4.52-2.33c-.41-.83-.66-1.76-.66-2.74,0-3.44,2.81-6.26,6.26-6.26h6.75c3.44,0,6.25,2.82,6.25,6.26Z"/>
</svg>