<?xml version="1.0" encoding="UTF-8"?>
<svg id="Layer_5" data-name="Layer 5" xmlns="http://www.w3.org/2000/svg" viewBox="0 0 300 300">
  <defs>
    <style>
      .cls-1 {
        fill: #ffb000;
      }

      .cls-1, .cls-2 {
        fill-rule: evenodd;
        stroke-width: 0px;
      }

      .cls-2 {
        fill: #231f20;
      }
    </style>
  </defs>
  <path class="cls-2" d="m103.38,94.69h14.08c.58,0,.81.48.56,1.03l-3.22,6.71c-2.44.04-4.88.08-7.35.12-4.49.04-14.49.34-18.86,2.34-1.01.42-2.03.87-3,1.39,3.44-6.41,11.26-11.59,17.79-11.59Zm183.89,47.33l10.18-21.24c.42-.89.04-1.63-.83-1.63h-24.14c-.87,0-1.95.73-2.38,1.63l-10.17,21.24c-.44.87-.06,1.61.81,1.61h24.14c.89,0,1.97-.73,2.38-1.61Zm-111.78,1.61c.56,0,1.15-.28,1.65-.7l-5.08.22v.48h3.44Zm-11.32-24.48c.99.6,1.93,1.37,2.72,2.26h20.85l.32-.64c.42-.89.04-1.63-.83-1.63h-23.05Zm23.23,2.96l-19.32.81c.81,1.19,1.47,2.48,1.93,3.73h15.21l2.18-4.55h0Zm-2.48,5.2l-14.51.62c.34,1.27.48,2.64.56,3.97h11.75l2.2-4.59h0Zm-2.5,5.2l-11.42.5v.08l.04,1.73c.22.75.42,1.53.56,2.32h8.62l2.2-4.63h0Zm-10.66,5.56c.22,1.41.3,2.88.3,4.31h5.6c.08-.12.16-.24.22-.36l2.04-4.29-8.16.34Zm45.19-20.51l10.19-21.26c.42-.89.04-1.61-.83-1.61h-24.14c-.89,0-1.97.72-2.38,1.61l-4.51,9.41h18.41l-18.78.79-2.12,4.45h17.59l-17.97.75-2.14,4.49h16.8l-17.13.71-.32.66c-.42.87-.04,1.59.85,1.59h24.12c.87,0,1.95-.71,2.38-1.59Zm-75.25-14.2c1.95.36,3.65.85,4.94,1.51.5.24.97.52,1.47.83h19.81l4.51-9.41c.42-.89.04-1.61-.83-1.61h-24.14c-.89,0-1.97.72-2.38,1.61l-3.38,7.07h0Zm25.27,4.31l-15.47.66c.89.81,1.77,1.71,2.58,2.62h11.32l1.57-3.28h0Zm-2.5,5.22l-8.48.36c.75.97,1.45,1.97,2.06,2.94h4.84l1.57-3.3h0Zm-3.26,5.22c.18.02.38.06.56.1l.12-.12-.67.02Zm32.28,48.37l10.19-21.24c.42-.89.04-1.61-.85-1.61h-24.12c-.87,0-1.95.71-2.38,1.61l-1.13,2.38h11.89l-12.13.5-2.28,4.73h11.1l-11.32.5-2.28,4.75h10.26l-10.48.44-2.28,4.8h9.45l-9.65.42-1.31,2.74c-.44.89-.06,1.61.81,1.61h24.14c.89,0,1.97-.72,2.38-1.61Zm54.7,0l10.19-21.24c.42-.89.04-1.61-.83-1.61h-24.14c-.87,0-1.95.71-2.38,1.61l-10.19,21.24c-.42.89-.04,1.61.85,1.61h24.12c.89,0,1.97-.72,2.38-1.61Zm-93.77,24.48l10.19-21.26c.42-.87.04-1.61-.85-1.61h-20.71l-7.6,5.84c-.66,5.08-2.06,10.4-4.45,14.85-.67,1.29-1.51,2.58-2.48,3.79h23.53c.89,0,1.97-.73,2.38-1.61Zm54.7,0l10.19-21.26c.42-.87.04-1.61-.83-1.61h-24.14c-.89,0-1.95.73-2.38,1.61l-10.19,21.26c-.42.87-.04,1.61.85,1.61h24.12c.89,0,1.97-.73,2.38-1.61Zm23.45-48.94l10.18-21.24c.42-.89.04-1.63-.83-1.63h-24.14c-.87,0-1.95.73-2.38,1.63l-10.19,21.24c-.42.87-.04,1.61.83,1.61h24.14c.89,0,1.97-.73,2.38-1.61Z"/>
  <path class="cls-1" d="m74.46,166.86c-3.57-3.36,6.85-14.53,17.73-19.6,3-1.39,13.84-5.02,15.51-.64,0,0-4.45,4.07-8.12,9.15-3.67,5.08-4.76,9.47-4.76,9.47,0,0-19.38,2.5-20.35,1.61h0Zm87.4-20.07c-.52,1.69-1.13,3.47-1.87,5.32l.06.1c.66-1.51,1.29-2.86,1.87-4.01.02,1.87-.02,3.95-.08,6.17l.06.02c.14-2.54.32-4.88.52-6.93.04,2.04,0,4.39-.08,6.93l.06-.02c.12-2.22.28-4.31.46-6.17.48,1.15.99,2.5,1.51,4.01l.06-.1c-.54-1.85-1.01-3.63-1.39-5.32.56,1.23,1.15,2.76,1.75,4.47l.04-.12c-.48-1.63-.89-3.22-1.25-4.71.69-.26,1.45-.4,2.26-.5v-.16c-.91-.1-1.75-.28-2.48-.6.77-.32,1.63-.5,2.54-.62v-.14c-.79-.1-1.55-.24-2.2-.5.48-1.49,1.03-3.08,1.67-4.71l-.04-.12c-.75,1.71-1.47,3.24-2.12,4.47.52-1.69,1.15-3.47,1.85-5.32l-.04-.12c-.66,1.53-1.29,2.88-1.89,4.03,0-1.87.02-3.95.1-6.17l-.06-.02c-.16,2.54-.32,4.88-.52,6.93-.04-2.05,0-4.39.08-6.93l-.06.02c-.12,2.22-.28,4.31-.46,6.17-.5-1.15-.99-2.5-1.53-4.03l-.04.12c.54,1.85,1.01,3.63,1.37,5.32-.54-1.23-1.13-2.76-1.73-4.47l-.04.12c.48,1.63.89,3.22,1.25,4.71-.69.26-1.45.4-2.26.5l-.02.14c.91.12,1.77.3,2.5.62-.75.32-1.63.5-2.56.6v.16c.81.1,1.57.24,2.22.5-.48,1.49-1.03,3.08-1.67,4.71l.04.12c.75-1.71,1.47-3.24,2.12-4.47h0Zm.62-.6c-.2,0-.34-.46-.32-1.01.02-.56.2-1.01.42-1.01.2,0,.34.46.32,1.01-.04.56-.22,1.01-.42,1.01h0Zm-42.07,25.45c-1.41.52-3,.83-4.71.99v.26c1.49.14,2.86.4,4.09.81-.89,2.46-1.93,5.06-3.06,7.76l.04.2c1.39-2.84,2.72-5.34,3.95-7.37-.97,2.76-2.12,5.72-3.44,8.8l.08.16c1.19-2.5,2.36-4.73,3.45-6.63.02,3.1-.04,6.53-.16,10.19l.1.02c.28-4.17.6-8.04.97-11.44.04,3.39-.02,7.27-.16,11.44l.1-.02c.24-3.65.52-7.09.83-10.19.91,1.91,1.85,4.13,2.82,6.63l.1-.16c-1.01-3.08-1.89-6.04-2.56-8.8,1.03,2.03,2.1,4.53,3.2,7.37l.08-.2c-.87-2.7-1.65-5.3-2.3-7.76,1.27-.42,2.68-.67,4.17-.81l.02-.26c-1.69-.16-3.24-.48-4.59-.99,1.41-.54,2.98-.85,4.69-1.01v-.26c-1.47-.14-2.86-.4-4.07-.81.87-2.46,1.93-5.06,3.06-7.76l-.06-.2c-1.37,2.84-2.7,5.34-3.93,7.37.95-2.76,2.12-5.72,3.43-8.8l-.08-.16c-1.21,2.5-2.38,4.73-3.47,6.63-.02-3.08.06-6.51.18-10.19l-.1-.02c-.28,4.19-.6,8.04-.97,11.44-.06-3.39.02-7.25.16-11.44l-.1.02c-.26,3.67-.52,7.11-.83,10.19-.91-1.91-1.87-4.13-2.84-6.63l-.08.16c.99,3.08,1.89,6.04,2.56,8.8-1.03-2.03-2.1-4.53-3.22-7.37l-.06.2c.87,2.7,1.65,5.3,2.28,7.76-1.25.42-2.66.68-4.15.81l-.02.26c1.69.16,3.24.48,4.59,1.01h0Zm2.2,0c-.06.91-.4,1.67-.77,1.67s-.64-.75-.6-1.67c.04-.93.4-1.69.75-1.69.4,0,.66.75.62,1.69h0Zm-32.78-14.02l-13,4.17-.2.22s-2.09,2.16-1.57,4.03c1.87.56,19.02-1.39,19.02-1.39l1.35-4.11c3.51-7.35,8.95-12.57,10.46-13.94-7.98,1.09-16.06,11.02-16.06,11.02h0Zm-22.95,14.37l25.89-1.41s-1.81,8.12-2.84,8.76c-1.03.64-14.75.32-14.87-.26-.14-.6,1.05-5.78,1.05-5.78l-9.23-1.31h0Zm19.26,23.51c4.51-.6,11.04-2.34,14.73-3.37.79.58,1.67.87,2.6.87h16.48c5.22,0,10.34-9.57,11.44-21.36l19.1-14.67c.6.73,1.27,1.15,2.03,1.15h8.95c2.82,0,5.6-5.8,6.21-12.95.58-7.15-1.25-12.95-4.07-12.95h-1.27c1.47-3.57,3-2.06,4.37.93-.02-1.57-.16-3.24-.54-4.51-.97-3.16-3.55-6.37-6-6.29-2.44.06-5.22-3.04-5.22-3.04,0,0-4.63-7.78-10.23-10.6-5.6-2.84-23.89-2.03-37.21-1.89-13.32.14-17.19,2-17.19,2-9.33,3.73-15.17,12.39-14.63,10.88.54-1.53-.6-2.64-.6-2.64-2.8-.87-4.25,1.03-4.25,1.03,1.07-.5,2.26-.34,2.26-.34-3.91.34-3.34,4.01-2.96,4.13.38.1,1.15-.06,1.39.38.26.46-.12.77-.12.77-9.79.87-65.56,9.55-67.25,25.33,0,0,2.58-5.16,11.42-8.95-6.67,6.1-8.54,9.47-12.13,13.68-.04.18-.1.36-.14.56-.81,2.96,1.29,8.8,1.29,8.8,0,0-1.55,5.14-1.37,7.86.2,2.76,2.18,3.71,2.18,3.71-.4,1.87-.08,2.26-.08,2.26,1.51,3,7.23,6.27,7.23,6.27l.44,1.61c17.07,10.82,47.97,9.79,49.18,9.73,1.23-.08,3.79,1.87,3.79,1.87,0,0,13.6.64,20.15-.28h0Zm20.33-68.64c-4.94,0-27.02-1.09-33-1.41,1.01-1.05,2.82-2.92,6.06-6.17,4.81-4.78,7.76-7.09,9.25-8.1,3.08-.3,21.01-2.01,33.2-1.31,13.4.77,12.95,1.29,13.4,2.18.46.91,1.95,14.37,1.95,14.37-11.79.77-25.14.44-30.85.44h0Zm28.53,17.91c.16-.68,2.38-2.06,2.38-2.06v.02l6.49-4.15-6.51,4.94-.06,1.93-2.22,1.45s-.24-1.45-.08-2.12h0Zm-3.73,17.13c-.93-6.91-3.69-11.65-7.37-11.65h-4.67c1.81-2.98,4.19-6.02,6.06-5.34,3.1,1.15,7.27,4.51,5.98,17h0Zm4.9-7.84c.16-.66,2.38-2.05,2.38-2.05h0l6.47-4.13-6.51,4.92-.06,3.97-2.22,1.45s-.22-3.47-.06-4.17h0Zm-.46-4.75c.16-.69,2.38-2.06,2.38-2.06h0l6.49-4.15-6.51,4.94-.08,1.95-2.2,1.45s-.24-1.45-.08-2.12h0Zm-78.98,13.76c3.57.75,3.91,1.29,4.09,2.06.16.58-.14,2.8-.3,3.91-.6.32-1.55.6-2.98.34-2.7-.52-24.46-3.24-24.46-3.24-2.46-7.52-12.17-8.82-13.94-2.64-2.46-.73-10.11-3-11.38-2.96-1.15.06-2.08.77-2.42,1.81-.91-3.32-1.51-6.61-1.47-7.05.08-.83,1.61-.54,1.61-.54,2.01-.04,47.69,7.56,51.24,8.3h0Zm-24.84,7.72s24.54,2.1,26.25,1.71c.91-.22,1.65-.6,2.12-.91-.26,1.89-.87,4.63-2.26,6.04-2.26,2.24-28.27.18-30.14-.26-1.87-.46-13-5.8-13.64-6.06-.66-.26-3.16-.2-5.68-1.93-.91-.65-1.81-2.6-2.54-4.84,0-.04.26-1.67,1.19-1.53.81.12,10.01,4.27,12.07,5.22,1.99,7.21,9.37,10.38,12.63,2.56h0Zm7.92,11.77s1.13.26,1.53.58c.42.32.77,3.71.77,3.71,2.2.38,13.62,1.83,13.62,1.83l3.4,2.9c-13.88.38-19.32-1.19-19.32-1.19v-7.82h0Zm28.29,7.05s11.77.2,12.59.44c.79.28,3.57,1.79,2.88,2.1-.67.32-12.51-.22-12.91-.58-.38-.36-2.56-1.97-2.56-1.97h0Zm46.7-17.99c.83-9.17,4.67-16.62,8.6-16.62s6.45,7.45,5.64,16.62c-.83,9.17-4.69,16.6-8.6,16.6s-6.45-7.43-5.64-16.6h0Zm43.86-26.47c.46-5.56,2.54-10.07,4.67-10.07s3.49,4.51,3.06,10.07c-.44,5.56-2.54,10.05-4.67,10.05s-3.49-4.49-3.06-10.05h0Zm-19.4-31.21c-.52-2.96.32-3.28,2.84-3.22,2.52.06,3.99.26,4.88,1.35.89,1.09,5.32,10.28,5.32,10.28-1.69-1.67-5.5-5.74-8.18-3.87-1.25.85,1.41,5.62-.99,6.33-2.42.72-2.64-.06-2.64-.06,0,0-.71-7.86-1.23-10.82h0Zm-110.49,54.1c.91,3.49-.32,6.31-2.76,6.31s-5.14-2.82-6.04-6.31c-.91-3.47.32-6.29,2.76-6.29s5.14,2.82,6.04,6.29h0Zm-16.36,7.78v5.02c-2.5-1.29-6.71-3.45-6.37-6.69l5.76,3.83.62-2.16Z"/>
</svg>