<?xml version="1.0" encoding="UTF-8"?>
<svg id="Layer_1" data-name="Layer 1" xmlns="http://www.w3.org/2000/svg" viewBox="0 0 300 300">
  <defs>
    <style>
      .cls-1 {
        fill: #470e0e;
      }

      .cls-1, .cls-2 {
        fill-rule: evenodd;
        stroke-width: 0px;
      }

      .cls-2 {
        fill: #b62126;
      }
    </style>
  </defs>
  <path class="cls-1" d="m99.62,98.44h12.84c.52,0,.74.41.49.93l-3.49,7.26h-24.51c3.55-4.73,9.55-8.19,14.67-8.19h0Zm8.75,10.5l-.97,2h-24.95l.66-1.34c.02-.06.04-.1.06-.14l25.2-.52h0Zm-2.08,4.33l-.97,2h-24.93l.72-1.49,25.17-.52h0Zm-2.08,4.31l-.97,2.04h-24.93l.72-1.51,25.17-.54Zm163.06,24l9.29-19.38c.39-.8.04-1.47-.76-1.47h-22c-.83,0-1.8.66-2.17,1.47l-9.29,19.38c-.39.8-.04,1.47.76,1.47h22c.8,0,1.77-.66,2.17-1.47Zm-101.91,1.47h-.45c-.14-.37-.31-.76-.45-1.14-.68-1.8-1.4-3.57-2.17-5.32-.35-.78-.83-1.86-1.38-3.01l10.59-.23-3.96,8.23c-.37.8-1.34,1.47-2.17,1.47h0Zm-4.95-10.44c-.66-1.24-1.4-2.44-2.17-3.26l15.33-.33-1.73,3.59h-11.43Zm-3.78-4.33l-2.81-.66c-1.36-.35-2.7-.66-4.07-.97l.68-1.42,25.2-.54-1.73,3.59h-17.27Zm-5.57-4.33l.83-1.73c.29-.6.91-1.11,1.53-1.34l5.9-.12h16.76c.8,0,1.16.66.74,1.47l-.83,1.73h-24.93Zm49.94-3.2h-22.02c-.37,0-.64-.17-.78-.39l24.6-.52c-.47.52-1.18.91-1.8.91h0Zm-22.9-1.11c.04-.12.08-.23.14-.35l1.55-3.26,25.19-.52-1.82,3.78c-.06.12-.12.23-.21.35h-24.86Zm2.04-4.35l1.73-3.59,25.17-.52-1.96,4.11h-24.95Zm2.08-4.33l1.71-3.57,25.2-.54-1.98,4.11h-24.93Zm2.08-4.31l3.22-6.73c.37-.8,1.36-1.47,2.15-1.47h22.02c.8,0,1.13.66.76,1.47l-3.22,6.73h-24.93Zm-56.06,13c.02-.12.06-.23.12-.35l1.05-2.19,25.19-.54-1.32,2.72c-.06.12-.1.23-.21.35h-24.84Zm2.04-4.35l1.22-2.54,25.17-.52-1.46,3.05h-24.93Zm2.06-4.33l1.22-2.54,25.2-.52-1.46,3.05h-24.95Zm2.08-4.31l3.22-6.73c.39-.8,1.36-1.47,2.17-1.47h22c.8,0,1.16.66.76,1.47l-3.22,6.73h-24.93Zm-26.29,16.73c5.04-.12,10.07-.19,15.13-.1,1.05.02,2.1.04,3.16.06l.54-1.11c.14-.29.19-.56.14-.78l-24.93.52c-.06.08-.1.17-.14.27l-.68,1.4c2.27-.1,4.52-.19,6.79-.25Zm73.65,40.53l9.29-19.38c.39-.8.04-1.46-.76-1.46h-22c-.8,0-1.8.66-2.17,1.46l-.12.21c.41.25.83.47,1.09.62l.56.29.29.58c1.01,1.92,1.16,5.12,1.18,7.28.02,1.53-.02,3.05-.1,4.6-.04.72-.12,1.57-.12,2.31.21.47.8,1.36,1.07,1.75l.37.56v.68c-.02.64-.04,1.3-.08,1.96h9.35c.8,0,1.77-.66,2.17-1.46Zm49.87,0l9.29-19.38c.39-.8.04-1.46-.76-1.46h-22.02c-.8,0-1.77.66-2.17,1.46l-9.29,19.38c-.37.8-.02,1.46.78,1.46h22c.8,0,1.77-.66,2.17-1.46Zm-35.62,22.31l9.29-19.38c.37-.8.02-1.47-.78-1.47h-22c-.8,0-1.77.66-2.17,1.47l-9.29,19.38c-.39.8-.04,1.47.76,1.47h22.02c.78,0,1.77-.66,2.17-1.47Zm21.36-44.61l9.29-19.38c.39-.8.04-1.47-.74-1.47h-22.02c-.8,0-1.77.66-2.17,1.47l-.85,1.73h10.28l-10.38.23-1.96,4.11h10.28l-10.38.23-1.96,4.11h10.28l-10.4.23-4.19,8.75c-.37.8-.04,1.47.76,1.47h22c.83,0,1.8-.66,2.17-1.47Z"/>
  <path class="cls-2" d="m222.48,198.27h-43l12.81,8.73h43.01l-12.82-8.73Zm20.04,0h-16.74l12.8,8.73h16.75l-12.81-8.73Zm9.65,0h-6.33l12.81,8.73h6.32l-12.8-8.73Zm5.51,0h-3.17l12.81,8.73h3.16l-12.8-8.73Zm4.17,0h-1.59l12.82,8.73h1.57l-12.8-8.73Zm-235.13,8.73h162.11l-12.82-8.73h-51.77c.73-1.7,1.25-3.73,1.46-6.17l25.08-7.43s.55,3.7,2.49,5.45c1.74,1.57,7.97,1.36,9.74-.43,2.89-3.02,3.2-9.99,2.97-13.17,0,0,1.28-1.87,1.76-6.41.47-4.54.51-6.77.51-6.77,0,0-1.32-1.88-1.42-2.62-.1-.75.89-10.51-.72-13.54,0,0-2.42-1.28-2.62-1.86-.19-.55-4.85-13.45-7.27-14.98l-2.91-.7s-11.45-2.85-19.85-3.82c-8.4-.99-42.96-.62-50.74,1.96-7.8,2.58-9.24,3.55-25.44,15.21,0,0-1.2.21-1.71.43-.5.25-2.23,3.31-2.79,3.68-4.68,2.89-11.04,5.65-15.02,8.91,0,0-2.06,3.74-2.46,6.94l-.7,2.51-2.25,6.71c-3.67-1.92-5.3-5.28-1.57-11.08-3.26,2.89-3.79,8.89-3.79,8.89-.39.43-1.92,2.35-2.09,4.54-.2,2.48-.43,6.79-.43,6.79,0,0,4.46,3.38,7.86,4.52l-1.9-.02-2.18-1.4s.51,3.21-1.32,3.63c0,0-.93-.23-.64-2.85,0,0,.06-1.16.8-1.57l-.7-.51s-1.03,1.46-.64,3.67c0,0,.14.8.33,1.09,0,0-1.36,1.03-.87,1.8.5.74,1.68,3.71,3.26,4.04,1.61.33,6.94,1.8,6.94,1.8,0,0,1.51,1.51,3.97,2.76h-12.66v8.73Zm71.15-14.03c-.89.95-11.5,1.75-15.99,1.65-4.52-.1-2.93-1.94-2.69-2.74.23-.79,1.45-2.94,2.46-3.22,1.01-.27,15.95-2.27,15.95-2.27,0,0,1.73-.44,1.82.47,0,0-.64,5.16-1.55,6.11Zm3.22-19.67s-17.36,1.96-20.04,2.11c0,0-1.63.1-1.53-.37.11-.5,2.09-8.61,9.21-12.22,7.12-3.61,17.87-7.08,17.58-3.14l-5.22,13.62Zm12.09,29.37c-2.15,0-4.13-.95-5.68-2.52,3.66-.48,6.5-4.31,6.5-8.94,0-4.31-2.45-7.92-5.75-8.79,1.42-1.17,3.11-1.83,4.93-1.83,4.97,0,8.98,4.95,8.98,11.04s-4.01,11.04-8.98,11.04Zm11.02-20.1c-1.86-4.27-6.4-8.23-11.66-7.37,2.27-4.19,6.15-4.08,6.15-4.08,6.09,1.79,5.51,11.45,5.51,11.45Zm37.82,5.45c-.87,0-1.67-1.2-2.21-3.06,1.24-.74,2.17-3.13,2.17-5.96s-.93-5.26-2.17-5.98c.54-1.88,1.34-3.04,2.21-3.04,1.61,0,2.93,4.03,2.93,9.02s-1.32,9.02-2.93,9.02Zm2.56-24.48c1.69.5,3.16,6.57,1.03,12.03,0,0-.53-5.77-2.29-7.67,0,0-.72-1.03-2.14-.95,0,0,1.73-3.9,3.4-3.41Zm-10.54-31.11c4.58,1.98,7.09,9.88,7.69,12.71l-4.27.37c-.08-.27-3.67-12.49-3.67-12.49,0,0-.23-.8.25-.59Zm-1.94-.5c2,3.92,3.67,13.66,3.67,13.66l-11.21,2.02c-1.01-6.81-1.71-11.06-4.02-17.64,3.61.25,8.11.74,11.56,1.96Zm-14.22-1.81s3.57,10.79,3.71,17.7l-3.4.91s.2-3.55-1.43-3.94c-1.65-.38-6.83-.75-8.25.55-1.46,1.32-2.04,2.62-2.04,2.62l-.97-7.57c2.72-5.57,5.67-9.97,12.38-10.27Zm-64.03,3.67c8.85-5.18,22.47-3.61,52.08-2.79,0,0-12.38,20.51-16.2,20.1-3.81-.41-56.41-1.48-56.41-1.48,0,0,11.66-10.67,20.53-15.83Zm-36.24,33.92c1.16.13,11.02,1.03,11.02,1.03,0,0,.42.17.97.97.58.83.68,2.36,3.06,2.52,1.11.06,1.92.02,2.64-.16l1.03-.42v.42l17.75.24s.57.02.62-.39l-17.79-.6c.23-.14.47-.31.74-.49,1.69-1.16,2-1.26,3.51-1.34,1.51-.07,14.26.31,14.26.31,0,0,1.57-.02,1.28.43l-2.42,3.4s-.66.56-3.57.48c-2.93-.06-12.11.14-12.11.14,0,0-1.09.04-2.1.66-1.04.6-4.77.27-5.39,0-.62-.24-.93-1.03-1.44-1.17-.52-.17-10.84-1.43-10.84-1.43,0,0-1.36-.31-1.52-1.61-.05-.29-.07-.57-.11-.84l.35.39c2.75.29,10.73,1.11,11.25,1.09.62-.02.84-.47.84-.47l-12.48-1.36c-.12-.7-.21-1.22-.21-1.22,0,0-.51-.7.66-.58Zm-.02,23.5s-.47-.41-1.21-2.8c-.75-2.4-.97-3.37-.44-3.28.58.1,31.45,2.49,31.45,2.49,1.51.02,2.29.15,2.21.85l-.7,5.18s-1.03.45-6.61.14c-5.57-.31-24.7-2.58-24.7-2.58Zm17.77,6.59c1.41.17,2.73.33,3.97.47h-5.18c.76-.27,1.21-.47,1.21-.47Z"/>
</svg>