<?xml version="1.0" encoding="UTF-8"?>
<svg id="Layer_2" data-name="Layer 2" xmlns="http://www.w3.org/2000/svg" viewBox="0 0 300 300">
  <defs>
    <style>
      .cls-1 {
        fill: #ff0049;
      }

      .cls-1, .cls-2, .cls-3 {
        fill-rule: evenodd;
        stroke-width: 0px;
      }

      .cls-2 {
        fill: #124bd8;
      }

      .cls-3 {
        fill: #ea4bef;
      }
    </style>
  </defs>
  <path class="cls-2" d="m232.92,82.83l1.17-1.43c4.29,4.38,8.19,9.01,11.69,13.91-7.41-8.05-12.86-12.48-12.86-12.48h0Zm-155.07,37.51c.18,7.76,1.72,15.81,4.72,23.92-8.43,1.66-16.86,3.59-25.14,5.77-.44.12-.88.23-1.31.35-4.9-11.99-7.03-23.86-6.62-35.11l28.35,5.07h0Zm41.91-61.27c-23.68,9.68-38.7,29.05-41.47,51.91l-27.88-4.99c1.43-8.72,4.4-16.94,8.78-24.41,10.09-17.29,27.65-30.62,50.8-36.75l9.77,14.23h0Zm67.54-1.84c-15.92-4.78-32.81-6.21-49.08-3.41-3.03.53-5.98,1.2-8.81,1.95l-9.04-13.12c23.07-3.73,47.16-.2,68.92,8.81l-1.98,5.77h0Zm36.89,18.43c-7.99-5.92-16.8-10.85-26.1-14.64l1.63-4.75c.58.29,1.14.61,1.72.9,8.72,4.64,16.92,10.18,24.35,16.51l-1.6,1.98Z"/>
  <path class="cls-1" d="m116.23,40.42c-29.25,5.02-51.27,19.95-63.23,40.01-11.93,20.07-13.82,45.29-2.83,70.93l.06.15c-9.27,2.65-18.75,5.83-27.53,9.86l-.76.12C-33.26,59.18,132.89-25.75,231.99,74.6c-8.72-7.73-18.61-14.41-29.22-19.86-26.39-13.5-57.31-19.34-86.53-14.32Zm33.36,74.08l-46.08-37.91,28.35,47.25c4.35-3.24,9.01-6.01,14.06-8.05,1.11-.53,2.39-.93,3.67-1.28Zm-28.2,103.77c1.6,1.52,34.06-2.68,34.06-2.68,0,0,1.87-7.35,7.99-15.87,6.15-8.52,13.59-15.31,13.59-15.31-2.77-7.35-20.97-1.28-25.96,1.05-18.23,8.49-35.7,27.21-29.69,32.81h0Zm151.83-67.95l21.73-15.95-20.62,18.23c.23.58.47,1.14.64,1.72.64,2.1.87,4.9.93,7.55-2.3-5.02-4.9-7.55-7.35-1.57,4.14,0,5.45.12,7.03,4.55l23.16-21.55-21.41,28.52c.38,3,.58,4.08.29,7.73l17.29-19.92-19.22,32.46v-.12c-2.01,6.94-5.28,11.67-8.63,11.67h-14.96c-1.28,0-2.42-.67-3.38-1.9l-31.99,24.56c-.17,1.9-.41,3.82-.73,5.66l36.16-22.69-36.95,26.89c-.23.96-.44,1.9-.67,2.8l42.61-29.75-44.13,34.82c-.7,1.93-1.43,3.76-2.22,5.45l50.51-39.72-56.08,48.32h0c-2.45,2.54-5.05,4-7.7,4h-27.59c-1.55,0-3-.5-4.34-1.46-6.18,1.72-17.12,4.64-24.67,5.69-11,1.52-33.74.41-33.74.41,0,0-4.32-3.24-6.36-3.12-2.04.12-53.75,1.84-82.39-16.27l-.7-2.68s-9.6-5.51-12.13-10.53c0,0-.52-.64.18-3.76,0,0-3.35-1.63-3.67-6.21-.32-4.58,2.27-13.21,2.27-13.21,0,0-3.53-9.74-2.16-14.73.09-.32.18-.61.23-.93,6.04-7.03,9.16-12.69,20.33-22.89-14.79,6.36-19.13,14.99-19.13,14.99,2.83-26.42,96.24-40.98,112.63-42.4,0,0,.61-.55.2-1.31-.38-.76-1.66-.47-2.33-.64-.64-.2-1.57-6.33,4.96-6.94,0,0-1.98-.23-3.79.61,0,0,2.42-3.21,7.12-1.75,0,0,1.9,1.84.99,4.4-.88,2.57,8.87-11.96,24.53-18.23,0,0,1.2-.58,4.37-1.25l-.06-.03.7-.12c2.16-.44,5.13-.87,9.16-1.25l74.78-10.38-46.87,9.68c4.75-.06,8.49-.18,11.84-.23l54.48-10.15-43.89,10.06c2.65.06,5.54.15,9.01.35h0l47.07-7.32-34.12,8.9c1.84.41,3.41.93,4.61,1.55,1.66.82,3.27,1.92,4.78,3.15l29.6-9.8-27.27,11.84c1.2,1.14,2.3,2.33,3.35,3.53l28.9-11.52-25.52,15.72c2.07,2.77,3.32,4.87,3.32,4.87,0,0,.03.03.12.12l28.81-17.24-26.57,19.34c1.49,1.2,3.56,2.54,5.57,2.8l25.96-15.81-20.88,17.59c1.52,1.17,2.92,2.92,4,4.84h0Zm-5.42,34.33c-.9,2.83-1.95,5.83-3.12,8.92l.06.18c1.11-2.51,2.16-4.78,3.15-6.71,0,3.15-.06,6.62-.15,10.32l.09.03c.23-4.26.52-8.17.9-11.61.03,3.44-.06,7.35-.18,11.61l.09-.03c.23-3.7.47-7.17.76-10.32.85,1.92,1.69,4.2,2.6,6.71l.06-.18c-.9-3.09-1.69-6.09-2.33-8.92.93,2.07,1.93,4.64,2.92,7.5l.06-.18c-.79-2.74-1.49-5.37-2.07-7.9,1.17-.41,2.42-.67,3.79-.82l.03-.26c-1.55-.18-2.95-.47-4.2-1.02,1.28-.53,2.74-.85,4.29-1.02v-.26c-1.34-.12-2.6-.38-3.73-.82.82-2.51,1.75-5.13,2.8-7.87l-.06-.2c-1.25,2.89-2.45,5.45-3.56,7.5.87-2.8,1.92-5.8,3.12-8.92l-.09-.18c-1.08,2.54-2.16,4.81-3.15,6.74-.03-3.15.06-6.62.15-10.35h-.09c-.23,4.23-.52,8.17-.87,11.58-.06-3.41.03-7.35.15-11.58h-.09c-.23,3.73-.47,7.2-.76,10.35-.85-1.92-1.69-4.2-2.6-6.74l-.06.18c.9,3.12,1.69,6.12,2.33,8.92-.93-2.04-1.92-4.61-2.92-7.5l-.09.2c.82,2.74,1.52,5.37,2.1,7.87-1.17.44-2.42.7-3.79.82v.26c1.52.18,2.92.5,4.17,1.02-1.28.55-2.71.85-4.29,1.02v.26c1.34.15,2.6.41,3.73.82-.82,2.54-1.75,5.16-2.8,7.9l.06.18c1.25-2.86,2.45-5.42,3.59-7.5h0Zm.99-.99c.35,0,.64-.76.7-1.69.03-.93-.2-1.69-.53-1.69-.35,0-.67.76-.7,1.69s.2,1.69.53,1.69h0Zm-70.46,42.64c-2.36.88-5.02,1.4-7.84,1.66l-.03.44c2.48.23,4.81.67,6.85,1.37-1.49,4.14-3.24,8.49-5.13,13.01l.09.32c2.3-4.75,4.52-8.95,6.59-12.34-1.6,4.64-3.56,9.57-5.75,14.73l.12.26c2.04-4.17,3.99-7.93,5.83-11.08.03,5.16-.09,10.91-.29,17.03l.15.06c.47-7,1.02-13.47,1.63-19.16.09,5.69-.03,12.16-.26,19.16l.18-.06c.41-6.12.85-11.87,1.4-17.03,1.52,3.15,3.12,6.91,4.72,11.08l.15-.26c-1.66-5.16-3.12-10.09-4.29-14.73,1.75,3.38,3.53,7.58,5.37,12.34l.12-.32c-1.46-4.52-2.74-8.87-3.82-13.01,2.13-.7,4.46-1.14,6.97-1.37l.03-.44c-2.8-.26-5.42-.79-7.67-1.66,2.33-.87,4.99-1.4,7.84-1.66v-.44c-2.48-.26-4.78-.67-6.82-1.37,1.46-4.14,3.21-8.52,5.13-13.04l-.12-.32c-2.3,4.75-4.52,8.98-6.59,12.37,1.63-4.64,3.59-9.6,5.77-14.73l-.12-.29c-2.07,4.2-3.99,7.93-5.83,11.11-.03-5.19.09-10.91.29-17.06l-.18-.03c-.47,7-.99,13.47-1.63,19.16-.09-5.69.03-12.16.26-19.16l-.17.03c-.41,6.15-.85,11.87-1.4,17.06-1.52-3.18-3.09-6.91-4.72-11.11l-.15.29c1.66,5.13,3.15,10.09,4.29,14.73-1.72-3.38-3.5-7.61-5.37-12.37l-.12.32c1.46,4.52,2.77,8.9,3.82,13.04-2.1.7-4.46,1.11-6.97,1.37l-.03.44c2.83.26,5.42.79,7.7,1.66h0Zm3.67,0c.06-1.55-.38-2.8-.99-2.8s-1.2,1.25-1.28,2.8c-.09,1.55.38,2.8,1.02,2.8s1.17-1.25,1.25-2.8h0Zm-54.89-23.48s13.56-16.62,26.92-18.43c-2.57,2.3-11.67,10.99-17.53,23.33l-2.28,6.88s-28.73,3.24-31.88,2.33c-.85-3.12,2.65-6.74,2.65-6.74l.32-.38,21.79-7h0Zm-38.44,24.09l15.49,2.19s-2.01,8.72-1.78,9.68c.2.96,23.19,1.52,24.91.41,1.72-1.05,4.72-14.64,4.72-14.64l-43.34,2.36h0Zm66.32-75.59c9.59,0,31.91.55,51.65-.76,0,0-2.48-22.51-3.24-24.03-.76-1.52,0-2.36-22.43-3.67-20.47-1.17-50.48,1.66-55.62,2.19-2.48,1.69-7.47,5.57-15.49,13.59-5.45,5.42-8.49,8.55-10.18,10.35,10.03.5,47.01,2.33,55.3,2.33h0Zm47.77,30.01c-.26,1.11.15,3.53.15,3.53l3.7-2.42.12-3.24,10.91-8.25-10.88,6.94v-.03s-3.7,2.33-4,3.47h0Zm-6.27,28.67c2.16-20.91-4.81-26.51-9.97-28.44-3.12-1.17-7.12,3.97-10.15,8.92h7.82c6.15,0,10.76,7.93,12.31,19.51h0Zm8.22-13.09c-.26,1.11.12,6.94.12,6.94l3.73-2.42.12-6.62,10.91-8.28-10.88,6.94h0s-3.73,2.3-4,3.44h0Zm-.73-7.99c-.29,1.14.09,3.56.09,3.56l3.73-2.42.12-3.24,10.91-8.28-10.88,6.94h0s-3.7,2.3-3.97,3.44h0Zm-132.29,23.07c-5.98-1.25-82.48-13.97-85.83-13.91,0,0-2.6-.5-2.71.93-.03.73.93,6.24,2.48,11.78.55-1.72,2.1-2.92,4.05-3,2.13-.12,14.9,3.67,19.02,4.93,3-10.32,19.25-8.17,23.36,4.43,0,0,36.46,4.52,40.98,5.4,2.39.47,4-.03,4.99-.58.26-1.81.76-5.57.5-6.53-.29-1.28-.85-2.22-6.82-3.44h0Zm-41.65,12.92c-5.45,13.12-17.79,7.82-21.11-4.29-3.47-1.57-18.84-8.55-20.21-8.75-1.57-.2-2.01,2.51-2.01,2.57,1.25,3.76,2.71,7.03,4.29,8.11,4.2,2.92,8.4,2.8,9.48,3.24,1.08.44,19.71,9.39,22.84,10.15,3.15.73,46.72,4.2,50.48.41,2.33-2.33,3.35-6.94,3.79-10.09-.82.52-2.01,1.17-3.56,1.52-2.86.7-43.98-2.86-43.98-2.86h0Zm13.3,19.74v13.07s9.1,2.65,32.31,2.01l-5.63-4.84s-19.13-2.45-22.84-3.09c0,0-.58-5.66-1.28-6.18-.7-.55-2.57-.96-2.57-.96h0Zm47.36,11.78s3.67,2.71,4.32,3.3c.67.58,20.5,1.52,21.64.96,1.11-.53-3.5-3.06-4.87-3.5-1.34-.44-21.09-.76-21.09-.76h0Zm78.25-30.13c-1.37,15.34,2.86,27.82,9.42,27.82s13.01-12.48,14.38-27.82c1.37-15.37-2.83-27.82-9.39-27.82s-13.04,12.45-14.41,27.82h0Zm73.44-44.33c-.73,9.3,1.55,16.86,5.13,16.86s7.06-7.55,7.82-16.86c.73-9.3-1.55-16.83-5.13-16.83s-7.06,7.52-7.82,16.83h0Zm-32.49-52.26c.87,4.96,2.07,18.11,2.07,18.11,0,0,.38,1.28,4.4.12,4.05-1.2-.41-9.16,1.69-10.62,4.49-3.09,10.88,3.7,13.68,6.5,0,0-7.38-15.43-8.9-17.24-1.52-1.84-3.97-2.16-8.2-2.28-4.2-.12-5.6.44-4.75,5.4h0ZM44.87,220.34c-1.52-5.86-6.04-10.59-10.12-10.59s-6.15,4.72-4.61,10.59c1.52,5.83,6.04,10.56,10.12,10.56s6.15-4.72,4.61-10.56h0Zm-28.44,16.62l-9.65-6.42c-.55,5.42,6.47,9.04,10.67,11.23v-8.43l-1.02,3.62Z"/>
  <path class="cls-3" d="m123.53,88.95l-10.53-8.05c36.11-27.59,88.66-20.85,114.44,11.32-22.11-20.47-70.29-32.26-103.91-3.27h0Zm-12.66-9.68c3.62-2.89,26.89-19.98,62.64-17.53-25.49-5.05-50.6.79-68.01,13.44l5.37,4.08Zm-14.61,5.69l26.57,48.27,6.62-7.09-28.2-47.71-4.99,6.53Z"/>
</svg>