<?xml version="1.0" encoding="UTF-8"?>
<svg id="Layer_8" data-name="Layer 8" xmlns="http://www.w3.org/2000/svg" viewBox="0 0 300 300">
  <defs>
    <style>
      .cls-1 {
        fill: #168e1b;
        stroke-width: 0px;
      }
    </style>
  </defs>
  <path class="cls-1" d="m275.68,125.95c-.74-5.72-14.54-8.22-18.51-5.47-3.85,2.63.63,4.73-5.93,13.29-6.73-7.32-23.41-24.97-32.5-29.95-11.55-6.35-26.97-9.82-68.74-9.82s-57.19,3.47-68.76,9.82c-9.07,4.98-25.75,22.63-32.48,29.95-6.58-8.56-2.08-10.66-5.93-13.29-3.98-2.74-17.78-.25-18.53,5.47-1.11,4.21,14.87,9.91,21.52,11.06,59.17,6.27,104.17,5.22,104.17,5.22,0,0,45.01,1.05,104.17-5.22,6.65-1.14,22.63-6.84,21.5-11.06Zm-215.69,6.96c-3.85-3.49,8.46-14.93,15.92-20.89-4.1,3.85-13.21,16.13-12.47,18.74.74,2.61,16.2,4.88,30.12,6.25,0,0-29.72-.63-33.57-4.1Zm211.28,39.9c1.63,9.75-27.74,29.46-43.2,29.46-6.13,0-21.41-7.17-28.34-15.89-24.42,1.28-49.73.95-49.73.95,0,0-25.31.33-49.73-.95-6.93,8.71-22.21,15.89-28.34,15.89-15.45,0-44.82-19.71-43.2-29.46,40.8,11.62,121.27,11.2,121.27,11.2,0,0,80.47.41,121.27-11.2ZM20.03,206s-5.28-24.26-5-30.83c.29-6.57,5.14-12.85,21.81-26.98-4.16,4.64-15.61,20.49-16.96,25.99-1.02,4.15.3,23.12.15,31.82Zm259.94,0c-.14-8.71,1.18-27.67.15-31.82-1.36-5.5-12.8-21.34-16.96-25.99,16.67,14.13,21.52,20.41,21.81,26.98.29,6.57-5,30.83-5,30.83Z"/>
</svg>