<?xml version="1.0" encoding="UTF-8"?>
<svg id="Layer_3" data-name="Layer 3" xmlns="http://www.w3.org/2000/svg" viewBox="0 0 300 300">
  <defs>
    <style>
      .cls-1 {
        fill: #591528;
      }

      .cls-1, .cls-2 {
        stroke-width: 0px;
      }

      .cls-2 {
        fill: #b62126;
      }
    </style>
  </defs>
  <path class="cls-2" d="m277.21,188.43l-25.66.51c1.55-21.29-6.72-31.59-6.72-31.59-4.32-8.63-22.88-10.36-22.88-10.36-9.07-10.36-27.63-17.27-27.63-17.27-22.72-4.1-39.18-3.35-48.2-2.25l-.16-.05s10.65-11.8,37.42-10.94c0,0-8.35,1.44-3.74,5.18,4.61,3.74,8.06-.29,19-.29s25.33,5.76,34.25,2.01c0,0-3.17,5.18-8.64,6.91-5.47,1.73-3.74,11.23,3.46,8.06,7.19-3.16,8.06-7.2,17.27-10.65,9.21-3.46,16.12,1.44,19,4.89,0,0-12.09-4.89-14.97,2.88-2.88,7.77,4.32,13.24,9.5,12.09,5.18-1.15,12.38-5.76,23.03,0,0,0-5.47.87-10.94,4.03-5.47,3.17-4.03,4.89-10.65,6.91,0,0,3.16,4.89,13.82,2.88,0,0-1.15,4.6-10.08,8.92-8.92,4.32-2.59,8.06,2.02,6.62,4.6-1.44,12.66-2.59,18.42.29,0,0-10.65,4.03-6.91,11.22Z"/>
  <path class="cls-1" d="m227.56,179.15c0,4.98-2.05,9.49-5.33,12.73h-16.21c-4.44-1.93-7.54-6.35-7.54-11.51,0-6.94,5.63-12.57,12.58-12.57,3.94,0,7.45,1.81,9.76,4.65-2.33-3.79-6.5-6.32-11.27-6.32-7.31,0-13.24,5.92-13.24,13.24,0,5.82,3.76,10.74,8.97,12.51h-8.2c-3.29-3.24-5.33-7.75-5.33-12.73,0-9.89,8.02-17.9,17.9-17.9s17.91,8.01,17.91,17.9Zm-133.18-17.9c-9.89,0-17.9,8.01-17.9,17.9,0,4.98,2.04,9.49,5.33,12.73h8.4c-5.21-1.77-8.97-6.69-8.97-12.51,0-7.32,5.93-13.24,13.24-13.24,4.77,0,8.94,2.53,11.27,6.32-2.31-2.84-5.82-4.65-9.76-4.65-6.95,0-12.58,5.63-12.58,12.57,0,5.16,3.1,9.58,7.54,11.51h16.01c3.28-3.24,5.32-7.75,5.32-12.73,0-9.89-8.01-17.9-17.9-17.9Zm198.67,25.45h-51.28c4.88-4.96,4.65-10.93,4.65-10.93,0,0-8.34-.29-10.36-6.91s6.62-5.18,6.62-5.18c-2.59-3.75-5.76-4.61-11.8-4.61s-9.21-.86-10.36-3.74c-1.15-2.87,3.74-3.17,3.74-3.17-3.17-1.72-15.25-5.18-26.48-.86-11.23,4.32-20.43,1.73-17.27-4.6,3.17-6.33,16.41-6.34,16.41-6.34-15.26-5.46-18.71-2.87-27.35,1.73-8.63,4.61-13.24,3.46-13.52-2.3-.29-5.76,9.5-7.77,9.5-7.77-2.31-1.44-8.35-.87-11.52.29-3.17,1.15-19.08,7.3-17.06,1.26.77-2.32,4.56-4.32,7.31-6-3.14.5-6.08,1.28-6.08,1.28-20.72,5.61-33.67,15.54-33.67,15.54-23.3,2.28-37.71,8.29-46.56,15.33h17.2c-2.81,2.16-4.75,6.04-4.75,6.04h-18.61c-1.93,2.38-3.39,4.78-4.48,7.67h18.77c1.19-.11,1.73.55,1.73,1.51s-.77,1.4-1.73,1.4h-20.15c-1.3,3.93-1.66,7.54-1.65,10.36H6.31c-.71,0-1.36.29-1.83.76-.47.47-.76,1.12-.76,1.84,0,1.42,1.16,2.58,2.59,2.58h71.48c-2.72-3.53-4.35-7.93-4.35-12.73,0-11.57,9.38-20.94,20.94-20.94,9.81,0,18.06,6.75,20.32,15.88h65.52c.72,0,1.3.49,1.3,1.1s-.58,1.11-1.3,1.11h-65.1c.13.93.2,1.88.2,2.85,0,4.8-1.63,9.2-4.35,12.73h82.09c-2.72-3.53-4.35-7.93-4.35-12.73,0-11.57,9.38-20.94,20.94-20.94s20.94,9.37,20.94,20.94c0,4.8-1.63,9.2-4.34,12.73h66.8c.71,0,1.36-.29,1.83-.76.47-.47.76-1.11.76-1.82,0-1.44-1.16-2.6-2.59-2.6Z"/>
</svg>