<?xml version="1.0" encoding="UTF-8"?>
<svg id="Layer_4" data-name="Layer 4" xmlns="http://www.w3.org/2000/svg" viewBox="0 0 300 300">
  <defs>
    <style>
      .cls-1 {
        fill: #124bd8;
      }

      .cls-1, .cls-2 {
        fill-rule: evenodd;
        stroke-width: 0px;
      }

      .cls-2 {
        fill: #b62126;
      }
    </style>
  </defs>
  <path class="cls-1" d="m158.44,174.92l-.11-.12c-14.56,7.35-24.78-8.26-13.28-8.07,3.37.03,7.17,2.57,7.64,2.89-9.12-8.22-19.22-4.38-19.22,7.13,0,.42,0,.87.05,1.31.67.08,1.34.2,2.01.31,2.86.41,5.76.78,8.65,1.14,4.54.56,9.08,1.08,13.62,1.59.5-1.34.78-2.82.78-4.35,0-.61-.03-1.22-.14-1.83Zm33.4,1.55c-14.28-.47-29.45.87-29.45.87l3.37,4.84,2.95.45-2.65-4.15c3.07-.56,25.78-2.01,25.78-2.01Zm34.5,17.6s-.06-1.84-1.4-1.78c-8.46.36-16.84.44-25.3.5-8.44-.06-16.82-.14-25.25-.5-1.34-.06-1.39,1.78-1.39,1.78-.17,3.45-.45,6.93-.45,10.38,0,0,19.32.7,27.09.42,7.82.28,27.14-.42,27.14-.42,0-3.45-.28-6.93-.44-10.38Zm-18.85-17.6s22.72,1.45,25.75,2.01l-2.62,4.15,2.93-.45,3.37-4.84s-15.15-1.34-29.43-.87Zm-7.85,33.3c-60.02-1.61-59.02.19,0,1.2,59.07-1.01,60.08-2.81,0-1.2Zm0,2.98c-55.76-1.7-55.15-.73,0,1.2,55.2-1.93,55.79-2.9,0-1.2Zm0-6.29c-66.23-1.59-65.17.39,0,1.19,65.2-.8,66.28-2.78,0-1.19Zm46.98-36.84c.47-.32,4.27-2.86,7.67-2.89,11.49-.19,1.25,15.42-13.31,8.07l-.11.12c-.08.61-.11,1.22-.11,1.83,0,1.53.28,3.01.78,4.35,4.53-.51,9.07-1.03,13.58-1.59,2.9-.36,5.79-.73,8.69-1.14.64-.11,1.33-.23,2-.31.03-.44.06-.89.06-1.31,0-11.51-10.1-15.35-19.25-7.13Zm0,0c.47-.32,4.27-2.86,7.67-2.89,11.49-.19,1.25,15.42-13.31,8.07l-.11.12c-.08.61-.11,1.22-.11,1.83,0,1.53.28,3.01.78,4.35,4.53-.51,9.07-1.03,13.58-1.59,2.9-.36,5.79-.73,8.69-1.14.64-.11,1.33-.23,2-.31.03-.44.06-.89.06-1.31,0-11.51-10.1-15.35-19.25-7.13Zm-39.13,6.85s22.72,1.45,25.75,2.01l-2.62,4.15,2.93-.45,3.37-4.84s-15.15-1.34-29.43-.87Zm-45.1.87l3.37,4.84,2.95.45-2.65-4.15c3.07-.56,25.78-2.01,25.78-2.01-14.28-.47-29.45.87-29.45.87Zm-4.06-2.54c-14.56,7.35-24.78-8.26-13.28-8.07,3.37.03,7.17,2.57,7.64,2.89-9.12-8.22-19.22-4.38-19.22,7.13,0,.42,0,.87.05,1.31.67.08,1.34.2,2.01.31,2.86.41,5.76.78,8.65,1.14,4.54.56,9.08,1.08,13.62,1.59.5-1.34.78-2.82.78-4.35,0-.61-.03-1.22-.14-1.83l-.11-.12Zm41.31,31.66c-66.23-1.59-65.17.39,0,1.19,65.2-.8,66.28-2.78,0-1.19Zm0,6.29c-55.76-1.7-55.15-.73,0,1.2,55.2-1.93,55.79-2.9,0-1.2Zm0-2.98c-60.02-1.61-59.02.19,0,1.2,59.07-1.01,60.08-2.81,0-1.2Zm0-4.9c7.82.28,27.14-.42,27.14-.42,0-3.45-.28-6.93-.44-10.38,0,0-.06-1.84-1.4-1.78-8.46.36-16.84.44-25.3.5-8.44-.06-16.82-.14-25.25-.5-1.34-.06-1.39,1.78-1.39,1.78-.17,3.45-.45,6.93-.45,10.38,0,0,19.32.7,27.09.42Zm77.39,2.03l-.55-.64c-.42-4.79.5-14.78-1.81-25.3-2.34-10.53-7.05-18.21-9.08-22.75-2.06-4.54-6.18-9.19-6.18-9.19,0,0,5.62-.64,8.35-1.47,2.7-.81,2.95-3.4,2.95-3.4-.25-3.2-3.34-4.87-7.76-5.09-4.43-.22-6.69,1.06-6.83,1.7-.11.66.37,1.5.12,2.28-.25.78-1.53.58-1.53.58,0,0-4.04-7.43-7.69-12.41-3.65-4.99-6.96-9.5-10.55-12.39-3.59-2.87-6.71-2.81-7.07-2.9-.39-.08-.59-.22-1.53-1.44-.95-1.26-2.28-1.56-2.28-1.56,0,0,.02-2.23,0-3.71,0-1.47-1.31-1.11-1.31-1.11l-13.62.11s-1.22.03-1.56.42c-.36.36-.69,1.98-.69,1.98v-5.35s-.98-.08-1.2,0c-.25.11-.25.25-.25.25l-7.32.17-7.27-.17s-.02-.14-.25-.25c-.25-.08-1.19,0-1.19,0v5.35s-.37-1.62-.7-1.98c-.36-.39-1.56-.42-1.56-.42l-13.64-.11s-.81-.28-1.31,1.11c-1.49,4.25-6.84,4.55-14.8,3.59-12.02,11.34-50.45,52.93-35.82,109.92.81-.05,1.62-.12,2.43-.2,1.28,2.42,3.09,3.93,5.1,3.93h11.21c1.81,0,3.43-1.62,4.54-4.18,13.7,1.25,38,3.31,53.26,3.67,15.28-.36,39.59-2.42,53.31-3.67,1.11,2.56,2.73,4.18,4.51,4.18h11.22c3.9,0,7.07-5.74,7.07-12.84,0-.61,0-1.22-.05-1.81l.44-.33.89-4.57Zm-103.87-92.42c1.42-1.56,3.48-1.31,3.48-1.31l23,.72,23.02-.72s2.06-.25,3.48,1.31c1.36,1.52,1.39,1.61,1.39,1.61,0,0-2.25-.95-7.68-1.08-4.7-.12-16.87-.23-20.21-.25-3.29.02-15.48.13-20.16.25-5.45.13-7.68,1.08-7.68,1.08,0-.01.03-.1,1.36-1.61Zm-23.38,26.44s9.24-14.06,11.78-17.42c2.56-3.37,4.92-3.43,4.92-3.43,9.91-1.64,33.16-1.56,33.16-1.56,0,0,23.27-.08,33.18,1.56,0,0,2.4.06,4.93,3.43,2.53,3.36,11.81,17.42,11.81,17.42,0,0,1.41,2.84-3.12,2.95-4.51.12-35-.72-46.8-.83-11.75.11-42.23.95-46.77.83-4.54-.11-3.09-2.95-3.09-2.95Zm-10.89,59.22l-3.09-1.26s1.98-.69,1.06-3.22c-.94-2.54-3.12-4.46-7.77-5.18,0,0-.83,5.96,2.12,7.4,0,0-.22.61-1.45.28-1.19-.33-2.56-7.15-1.28-8.85,0,0,7.99.11,11.19,3.65,3.2,3.53,2.29,7.01-.78,7.18Zm118.38,4.65c-1.01,1.61-4.37,6.43-9.8,7.54-4.74.95-39.12,2.76-47.83,3.23-8.69-.47-43.07-2.28-47.8-3.23-5.4-1.11-8.8-5.93-9.8-7.54-.97-1.59,6.04-.87,6.04-.87l22.41.48c.11-2.93.34-8.94.34-10.05,0-2.93.83-4.15,4.06-4.07l24.75.61,24.78-.61c3.25-.08,4.06,1.14,4.06,4.07,0,1.11.22,7.12.33,10.05l22.44-.48s7.02-.72,6.02.87Zm-57.63-19.3c-19.29-.19-67.29-6.12-68.35-6.82-1.11-.72-1.33-5.04,0-11.13,3.43-15.7,24.59,2.28,29.76,8.74,15.18-1.53,38.59-.98,38.59-.98,0,0,23.44-.55,38.61.98,5.18-6.46,26.37-24.44,29.79-8.74,1.31,6.09,1.09,10.41,0,11.13-1.09.7-49.08,6.63-68.4,6.82Zm69.9,12.67c-1.19.33-1.42-.28-1.42-.28,2.93-1.44,2.09-7.4,2.09-7.4-4.65.72-6.79,2.64-7.74,5.18-.94,2.53,1.06,3.22,1.06,3.22l-3.12,1.26c-3.03-.17-3.98-3.65-.78-7.18,3.23-3.54,11.19-3.65,11.19-3.65,1.28,1.7-.05,8.52-1.28,8.85Zm-22.92-28.54c.47-.32,4.27-2.86,7.67-2.89,11.49-.19,1.25,15.42-13.31,8.07l-.11.12c-.08.61-.11,1.22-.11,1.83,0,1.53.28,3.01.78,4.35,4.53-.51,9.07-1.03,13.58-1.59,2.9-.36,5.79-.73,8.69-1.14.64-.11,1.33-.23,2-.31.03-.44.06-.89.06-1.31,0-11.51-10.1-15.35-19.25-7.13Zm-46.98,36.84c-66.23-1.59-65.17.39,0,1.19,65.2-.8,66.28-2.78,0-1.19Zm0,6.29c-55.76-1.7-55.15-.73,0,1.2,55.2-1.93,55.79-2.9,0-1.2Zm0-2.98c-60.02-1.61-59.02.19,0,1.2,59.07-1.01,60.08-2.81,0-1.2Zm7.85-33.3s22.72,1.45,25.75,2.01l-2.62,4.15,2.93-.45,3.37-4.84s-15.15-1.34-29.43-.87Zm-7.85,28.4c7.82.28,27.14-.42,27.14-.42,0-3.45-.28-6.93-.44-10.38,0,0-.06-1.84-1.4-1.78-8.46.36-16.84.44-25.3.5-8.44-.06-16.82-.14-25.25-.5-1.34-.06-1.39,1.78-1.39,1.78-.17,3.45-.45,6.93-.45,10.38,0,0,19.32.7,27.09.42Zm-37.25-27.53l3.37,4.84,2.95.45-2.65-4.15c3.07-.56,25.78-2.01,25.78-2.01-14.28-.47-29.45.87-29.45.87Zm-4.06-2.54c-14.56,7.35-24.78-8.26-13.28-8.07,3.37.03,7.17,2.57,7.64,2.89-9.12-8.22-19.22-4.38-19.22,7.13,0,.42,0,.87.05,1.31.67.08,1.34.2,2.01.31,2.86.41,5.76.78,8.65,1.14,4.54.56,9.08,1.08,13.62,1.59.5-1.34.78-2.82.78-4.35,0-.61-.03-1.22-.14-1.83l-.11-.12Zm.11.12l-.11-.12c-14.56,7.35-24.78-8.26-13.28-8.07,3.37.03,7.17,2.57,7.64,2.89-9.12-8.22-19.22-4.38-19.22,7.13,0,.42,0,.87.05,1.31.67.08,1.34.2,2.01.31,2.86.41,5.76.78,8.65,1.14,4.54.56,9.08,1.08,13.62,1.59.5-1.34.78-2.82.78-4.35,0-.61-.03-1.22-.14-1.83Zm33.4,1.55c-14.28-.47-29.45.87-29.45.87l3.37,4.84,2.95.45-2.65-4.15c3.07-.56,25.78-2.01,25.78-2.01Zm15.65,0s22.72,1.45,25.75,2.01l-2.62,4.15,2.93-.45,3.37-4.84s-15.15-1.34-29.43-.87Zm39.13-6.85c.47-.32,4.27-2.86,7.67-2.89,11.49-.19,1.25,15.42-13.31,8.07l-.11.12c-.08.61-.11,1.22-.11,1.83,0,1.53.28,3.01.78,4.35,4.53-.51,9.07-1.03,13.58-1.59,2.9-.36,5.79-.73,8.69-1.14.64-.11,1.33-.23,2-.31.03-.44.06-.89.06-1.31,0-11.51-10.1-15.35-19.25-7.13Zm-20.28,24.45s-.06-1.84-1.4-1.78c-8.46.36-16.84.44-25.3.5-8.44-.06-16.82-.14-25.25-.5-1.34-.06-1.39,1.78-1.39,1.78-.17,3.45-.45,6.93-.45,10.38,0,0,19.32.7,27.09.42,7.82.28,27.14-.42,27.14-.42,0-3.45-.28-6.93-.44-10.38Zm-26.7,15.7c-60.02-1.61-59.02.19,0,1.2,59.07-1.01,60.08-2.81,0-1.2Zm0,2.98c-55.76-1.7-55.15-.73,0,1.2,55.2-1.93,55.79-2.9,0-1.2Zm0-6.29c-66.23-1.59-65.17.39,0,1.19,65.2-.8,66.28-2.78,0-1.19Zm0,6.29c-55.76-1.7-55.15-.73,0,1.2,55.2-1.93,55.79-2.9,0-1.2Zm0-2.98c-60.02-1.61-59.02.19,0,1.2,59.07-1.01,60.08-2.81,0-1.2Zm0-3.31c-66.23-1.59-65.17.39,0,1.19,65.2-.8,66.28-2.78,0-1.19Zm26.7-12.39s-.06-1.84-1.4-1.78c-8.46.36-16.84.44-25.3.5-8.44-.06-16.82-.14-25.25-.5-1.34-.06-1.39,1.78-1.39,1.78-.17,3.45-.45,6.93-.45,10.38,0,0,19.32.7,27.09.42,7.82.28,27.14-.42,27.14-.42,0-3.45-.28-6.93-.44-10.38Zm-18.85-17.6s22.72,1.45,25.75,2.01l-2.62,4.15,2.93-.45,3.37-4.84s-15.15-1.34-29.43-.87Zm39.13-6.85c.47-.32,4.27-2.86,7.67-2.89,11.49-.19,1.25,15.42-13.31,8.07l-.11.12c-.08.61-.11,1.22-.11,1.83,0,1.53.28,3.01.78,4.35,4.53-.51,9.07-1.03,13.58-1.59,2.9-.36,5.79-.73,8.69-1.14.64-.11,1.33-.23,2-.31.03-.44.06-.89.06-1.31,0-11.51-10.1-15.35-19.25-7.13Zm-54.78,6.85c-14.28-.47-29.45.87-29.45.87l3.37,4.84,2.95.45-2.65-4.15c3.07-.56,25.78-2.01,25.78-2.01Zm-33.4-1.55l-.11-.12c-14.56,7.35-24.78-8.26-13.28-8.07,3.37.03,7.17,2.57,7.64,2.89-9.12-8.22-19.22-4.38-19.22,7.13,0,.42,0,.87.05,1.31.67.08,1.34.2,2.01.31,2.86.41,5.76.78,8.65,1.14,4.54.56,9.08,1.08,13.62,1.59.5-1.34.78-2.82.78-4.35,0-.61-.03-1.22-.14-1.83Z"/>
  <path class="cls-2" d="m123.1,222.72c-41.38,2.8-79.07-27.3-116.94-9.16,30.09-21.86,66.31-5.54,82.96-5.88,17.98-.39,16.06-12.28.86-12.02-14.67.22-32.54,9.68-48.94-3.29,28.65,6.82,37.25-18.12,12.3-12.08-21.09,5.11-38.15-2.29-38.94-2.64,36.74,7.02,39.21-20.94,82.4-8.08,40.01,11.92,19.85-17.84-7.24-5.9,15.95-16.29,35.69-2.31,34.72-11.11-.61-5.54-11.97-5.54-19.02-3.34-7.07,2.23-20.57,14.62-37.47,10.41-16.87-4.2-16.87-14.81-34.04-12.61,0,0,8.29-4.87,19.04-1.78,10.72,3.12,13.47,3.56,20.54.44,0,0,2.76-9.07-13.81-9.96-16.56-.89-21.18,7.76-34.07,9.74-12.89,2.01-19.32.45-19.32.45,0,0,15.64-1.09,25.47-8.63,9.8-7.55,27.62-10.19,38.06-5.1,10.44,5.1,23.63,14.17,33.43,11.75,9.83-2.45,13.84-9.77,6.77-14.62-7.07-4.9-14.42-7.76-30.07-4.23-15.67,3.57-22.41-.86-25.78-6.62,0,0,15.04,4.87,25.78-.67,30.28-15.61,61.28-7.14,79.13-4.99-12.02,11.34-50.45,52.93-35.82,109.92Z"/>
</svg>