<?xml version="1.0" encoding="UTF-8"?>
<svg id="Layer_9" data-name="Layer 9" xmlns="http://www.w3.org/2000/svg" viewBox="0 0 300 300">
  <defs>
    <style>
      .cls-1 {
        fill: #890000;
        stroke-width: 0px;
      }
    </style>
  </defs>
  <path class="cls-1" d="m97.8,189.18c-16.14,2.37-50.09-.12-58.16-5.34-8.07-5.22-11.87-17.09-2.37-32.52,4.15,11.63,51.18,36.03,60.53,37.86Zm-62.96-43.42c-15.97,14.76-20.07,22.91-19.2,29.12.88,6.21,10.06,28.07,10.06,28.07-1.38-8.2-5.93-25.77-5.69-29.85.32-5.4,11.73-22.27,14.82-27.35Zm167.88,43.42c16.14,2.37,50.09-.12,58.16-5.34,8.07-5.22,11.87-17.09,2.37-32.52-4.15,11.63-51.18,36.03-60.53,37.86Zm66.39-43.42c3.1,5.08,11.08,21.96,11.4,27.35.24,4.08-4.31,21.65-5.69,29.85,0,0,9.19-21.86,10.06-28.07.88-6.21-2.59-12.95-15.77-29.12Zm-118.85,39.5c-26.95-.12-60.68-4.9-88.42-19.47,27.94,20.5,65.39,24.48,88.42,24.29,23.03.19,60.48-3.79,88.42-24.29-27.74,14.57-61.48,19.35-88.42,19.47Zm124.64-57.04c.36,2.44-2.86,5.41-4.51,7.19-1.66,1.78-12.34,2.26-14.23.95-1.91-1.29-4.28.47-4.28.47-21.37,8.08-101.63,7.08-101.63,7.08,0,0-80.23,1-101.59-7.08,0,0-2.37-1.77-4.28-.47-1.89,1.31-12.58.84-14.23-.95-1.66-1.78-4.88-4.75-4.51-7.19.36-2.46,16.98-5.99,20.89-2.18,3.35,3.26,1.24,6.42,4.37,8.46,6.92-7.21,27.76-28.74,31.61-30.59,8.39-4.04,36.89-7.19,67.76-7.19s59.37,3.15,67.76,7.19c3.86,1.86,24.7,23.39,31.61,30.59,3.13-2.04,1.02-5.21,4.37-8.46,3.91-3.8,20.53-.27,20.89,2.18Zm-88.25-26.39c-53.23-4.99-92.4,2.68-99.72,4.44-7.3,1.78-12.29,9.45-23.31,21.2,0,0,17.09-14.07,22.6-16.93,5.53-2.84,51.11-10.12,100.43-8.72Z"/>
</svg>